<?xml version="1.0" encoding="utf-8"?>
<!-- Generator: Adobe Illustrator 27.2.0, SVG Export Plug-In . SVG Version: 6.00 Build 0)  -->
<svg version="1.1" id="Layer_1" xmlns="http://www.w3.org/2000/svg" xmlns:xlink="http://www.w3.org/1999/xlink" x="0px" y="0px"
	 viewBox="0 0 1370.7 98.7" style="enable-background:new 0 0 1370.7 98.7;" xml:space="preserve">
<style type="text/css">
	.st0{opacity:0.5;}
	.st1{fill:#947474;}
</style>
<g class="st0">
	<g>
		<path class="st1" d="M1049.3,36.8c0-1.1,0-2.1,0-3c0-7.5,4.5-13,12-14c5.5-0.7,11-0.4,16.3,1.1c2.8,0.8,3.3,1.7,2,4.3
			c-2.7,5.6-5.4,11.1-10.6,14.9c-4.7,3.4-9.7,4.2-15,1.5c-1.6-0.9-2.4-0.6-3,1c-0.5,1.2-1.1,2.4-1.4,3.7c-0.7,3.2-0.3,3.8,3,4.7
			c2.9,0.8,5.8,1.5,8.5,2.8c2.3,1.1,3.7,0.5,5.2-1.2c1.3-1.5,2.8-2.9,4.2-4.2c0.8-0.8,1.8-1.6,2.8-2.1c2.7-1.4,5.3-0.7,7.1,1.7
			c1.7,2.2,1.7,4.6-0.4,6.8c-5,5.1-10,10.3-15.2,15.2c-2.3,2.2-5.4,3.1-8.7,3.1c-7.3-0.1-14.7-0.1-22,0c-1.3,0-2.7,0-4,0.2
			c-2.8,0.5-4.7,2-5.5,5c-0.9,3.6-1.1,3.6-4.6,3.7c-6.5,0.1-13,0.1-19.5,0c-3.5-0.1-4.6-1.7-3.1-4.8c2.8-5.9,5.5-11.8,8.8-17.4
			c4-7,10.4-10.6,18.5-10.9c5.8-0.2,11.7,0,17.5-0.1c0.6,0,1.2-0.3,1.8-0.4c-0.4-0.9-0.7-1.9-1.3-2.6c-0.3-0.4-1.1-0.5-1.7-0.5
			c-0.4,0-0.8,0.5-1.3,0.7c-5.4,2.8-11.7,1.8-15.9-2.5c-3.4-3.5-5.7-7.8-7.6-12.2c-0.7-1.7,0-2.6,1.5-3.1c5.2-1.5,10.5-1.9,15.8-1
			c5.9,1,9.7,5.7,10.2,11.9c0.1,0.8,0.2,1.7,0.4,2.4c0.1,0.4,0.7,0.6,1.1,1c0.2-0.4,0.5-0.9,0.5-1.3c-0.6-3.9-1.2-7.8-2-11.7
			c-0.3-1.4-1.1-2.1-2.8-2.3c-6.8-0.8-10.2-3.9-11.2-10.5c-0.4-2.8-0.2-5.7-0.2-8.5c0-2,1.3-2.6,3-2.3c5,0.9,9.7,2.7,13.1,6.7
			c2.7,3.2,3.2,7,1.2,10.7c-0.7,1.4-0.7,2.3-0.2,3.7C1047.5,30,1048.3,33.4,1049.3,36.8z M1044.7,61.9
			C1044.7,61.9,1044.7,61.9,1044.7,61.9c-4.5,0-9,0.1-13.5,0c-2.7-0.1-3.7-1-3.8-3c-0.1-2.1,1.2-3.2,4-3.3c3.2-0.1,6.3,0,9.5,0
			c1,0,2,0,3-0.3c0.5-0.2,1.3-0.9,1.2-1.3c-0.1-0.7-0.7-1.6-1.3-1.8c-0.9-0.4-2-0.3-2.9-0.3c-4.3,0-8.7,0.1-13,0
			c-9.5-0.2-16.3,3.9-20.4,12.4c-2.1,4.2-4.1,8.4-6.2,12.5c-0.7,1.4,0,1.8,1.2,1.8c5.3,0,10.7,0,16,0c1.5,0,2.4-0.5,3-2.1
			c1.8-5,5.6-7,10.9-6.9c7.3,0.2,14.7-0.1,22,0.1c4.2,0.1,7.4-1.3,10.2-4.3c3.2-3.4,6.6-6.6,9.8-9.9c0.9-0.9,1.9-1.9,2.8-2.8
			c1-1,1.2-1.9,0.1-3c-1.1-1.1-2.1-0.8-3,0.2c-0.6,0.6-1.2,1.2-1.8,1.8c-2,2-4.1,3.9-6,6c-2.9,3.2-6.4,4.6-10.7,4.4
			C1052.1,61.8,1048.4,61.9,1044.7,61.9z M1028.3,29.6c-2.1,0.4-4.2,0.7-6.3,1.1c-1.3,0.2-1.6,1.2-1,2.2c1.9,2.9,3.8,5.9,6.1,8.4
			c2.6,2.8,6.2,3,9.7,2.1c0.8-0.2,1.4-1.3,2.1-1.9c-0.5-0.6-1-1.2-1.7-1.6c-3.5-2.5-7.3-3.8-11.5-4.2c-0.6-0.1-1.2-1-1.8-1.5
			c0.6-0.5,1.1-1.4,1.7-1.5c1.1-0.2,2.4-0.3,3.4,0c2.7,0.8,5.3,1.8,7.9,2.7c0.7,0.2,1.5,0.4,2.2,0.6c-0.3-0.9-0.4-1.9-1-2.6
			C1035.5,30.7,1032.1,29.7,1028.3,29.6z M1059,39.6c1.4,0,1.7,0,2.1,0c4.7-0.4,11.5-6.2,12.7-10.8c0.1-0.2-0.1-0.5-0.1-0.8
			c-1.8,0.4-3.6,0.8-5.4,1.2c0.1,0.1,0.3,0.2,0.3,0.4c0.5,3.2,0.4,3.4-2.4,2.5c-1.4-0.4-2.8-0.9-4.2-1.3c-0.2-0.1-0.8,0.2-0.8,0.4
			c0,0.4,0,0.9,0.3,1.1c0.4,0.3,1.1,0.2,1.3,0.5c0.6,0.7,1.5,1.6,1.3,2.2c-0.3,1.4-1.5,1.5-2.8,0.9c-1.2-0.5-2.5-1.2-3.7-1.2
			c-0.9,0-1.8,1-2.7,1.5c0.5,0.8,0.8,1.9,1.5,2.3C1057.4,39.4,1058.8,39.5,1059,39.6z M1032.7,13.1c0,0.3,0,1,0.2,1.6
			c0.9,3.2,1.5,6.6,4.9,8.1c0.7,0.3,1.5,0.3,2.3,0.4c-0.1-0.7,0-1.6-0.4-2.1c-1.3-1.7-2.9-3.2-4.2-4.9c-0.5-0.6-0.3-1.7-0.5-2.6
			c0.9,0,2.1-0.3,2.6,0.2c1.8,1.7,3.3,3.6,5,5.4c0.4,0.4,1,0.5,1.5,0.8c0.1-0.5,0.3-1,0.2-1.4c-0.7-4.8-4.3-6.8-8.3-8.3
			C1033.3,9.1,1032.6,9.7,1032.7,13.1z M1076.2,25.5c-0.9-0.9-1.3-1.5-1.8-1.6c-2.9-0.4-5.9-1.1-8.9-1c-2.7,0.1-5.6,0.9-8.1,2
			c-2.7,1.2-4.4,3.5-4.8,6.5c-0.1,0.5,0.2,0.9,0.3,1.4c0.4-0.2,0.9-0.3,1.2-0.6c2.6-2.7,5.6-4.8,9.2-5.9c3.7-1.1,7.4-3.3,11.4-0.7
			C1074.8,25.8,1075.2,25.6,1076.2,25.5z M1052.6,58.6c0.5,0,1,0.1,1.5,0c2-0.3,4.3,0.9,6-1.2c-1.9-0.8-3.8-1.8-5.7-2.4
			c-1.2-0.4-2.6-0.3-3.9-0.4c-0.9,0-3.6,2.9-3.2,3.2c0.7,0.6,1.9,0.6,2.9,0.8C1050.9,58.7,1051.7,58.6,1052.6,58.6z"/>
		<path class="st1" d="M598.5,23.2c3.1,0,6.2,0,9.3,0c5.2,0,5.3,0.1,5.4,5.3c0,0.7,0.1,1.3,0.1,2.6c1.6-2.3,2.8-4.2,4.2-6
			c0.9-1.1,2-1.2,3-0.1c2.3,2.5,4.1,5.3,4.5,8.7c0.4,3.4-0.6,6.2-4.4,8.5c3.7,0,6.6,0,9.4,0c4.1,0.1,4.7,0.5,4.7,4.5
			c0.1,7.5,0,15,0,22.5c0,2.8-0.1,2.8,2.5,3c2,0.1,4-0.1,6,0.1c0.6,0.1,1.1,1,1.7,1.5c-0.5,0.5-1,1.4-1.6,1.5
			c-1.3,0.3-2.6,0.1-4,0.1c-11.8,0-23.6,0-35.5,0c-0.7,0-1.5,0.3-2.2,0.4c0.4,0.5,0.7,1.1,1.1,1.6c3.7,5.5,5,11.5,3.8,18
			c-0.4,2.2-1.6,3.2-3.6,3.5c-7.5,0.9-18-0.8-21.5-9c-0.6-1.5-1.4-1.4-2.6-0.6c-3.3,2.3-7,3-10.9,2.7c-3.2-0.2-4.5-1.2-4.4-4.2
			c0.1-3.2,0.8-6.5,1.5-9.7c0.3-1.3,2-2.2,1.2-4.1c-0.2-0.4,0.8-1.6,1.3-1.7c1.8-0.4,2.3-0.8,1.8-2.9c-1.7-7.8,0-9.4,7.8-7.8
			c2.6,0.5,2.7,0.5,2.7-2.5c0-9.3,0-18.6,0-28c0-1,0-2,0-3c0.1-4.7,0.2-4.9,5.2-5c2.3,0,4.7,0,7,0c0.5,0,0.9-0.2,1.4-0.4
			c-0.2-0.4-0.2-0.9-0.5-1.3c-4.9-5.5-5.3-7.9-2.1-14.3c1.1-2.2,2.5-4.3,4-6.3c1-1.3,2.5-1.4,3.4,0c2,3.4,4.4,6.8,5.6,10.5
			C605.1,16.3,603.1,20.3,598.5,23.2z M583.1,49.6c0,6.5,0,13,0,19.5c0,1.3-0.3,2.8,1.8,2.9c5.7,0,11.3,0.1,17,0.1
			c1.5,0,2-0.8,2-2.2c0-1.2,0-2.3,0-3.5c0-6.7,0-13.3,0-20c0-3.7,0-3.9,3.6-4.2c2.2-0.2,2.4-1.3,2.4-2.9c0-3,0-6,0-9
			c-0.1-3-0.1-3.1-3.1-3.1c-6.8-0.1-13.7-0.1-20.5,0c-3.1,0-3.2,0.1-3.2,3.5C583,37,583.1,43.3,583.1,49.6z M631,59.4
			C631,59.4,631,59.4,631,59.4c0-3.7,0-7.3,0-11c0-1.6-0.6-2.4-2.3-2.4c-6.3,0-12.6,0-19,0c-2,0-2.5,1-2.5,2.8c0,7,0,14,0,21
			c0,1.7,0.7,2.4,2.4,2.4c6.3,0,12.6-0.1,19,0c2,0,2.6-0.9,2.5-2.7C630.9,66,631,62.7,631,59.4z M597.6,95.6
			c5.5-0.3,5.5-0.3,5.4-5.9c0-0.7,0-1.3-0.1-2c-0.8-9.6-7.5-12.6-15.5-12.4c-1,0-1,0.6-0.5,1.2c1.1,1.2,2.4,2.3,3.4,3.7
			c0.4,0.5,0.2,1.5,0.2,2.2c-0.9,0-2,0.4-2.6,0c-1.1-0.6-1.9-1.8-3-2.7c-0.8-0.7-1.5-0.6-1.8,0.6c-1.1,5,2.4,11.7,7.2,13.6
			C592.7,94.8,595.2,95.1,597.6,95.6z M570.5,88.2c5.5,0,8.3-2.1,9.2-7.1c0.2-1.1,0.2-1.9-1.5-1.3c-0.8,0.3-1.8-0.1-2.7-0.2
			c0.2-0.7,0.3-1.5,0.5-2.2c0.1-0.6,0.3-1.1,0.5-1.7c-0.6-0.1-1.3-0.3-1.9-0.2c-4.8,0.9-7.5,4-7.6,9
			C566.9,87.9,567.2,88.2,570.5,88.2z M592.5,14c0.3,0.8,0.6,1.7,0.9,2.6c0.6-0.5,1.2-0.9,1.8-1.4c1.5-1.3,2.3-0.7,2.8,0.9
			c0.2,0.5,0.5,1,0.7,1.5c0.4-0.5,0.9-0.9,1.2-1.4c0.2-0.3,0.3-0.6,0.4-0.9c0.6-2.4-1.3-8.2-3.2-9.5c-0.3-0.2-1-0.2-1.3,0
			C593.6,8,592.9,10.8,592.5,14z M579.8,70.5c-0.5-1.5-0.7-2.6-1.2-3.7c-1-1.9-3-2-4.7-2.3c-0.4-0.1-1.3,0.5-1.5,1
			c-0.6,1.9,0.2,3.7,1.6,4.9c0.9,0.8,2.4,1.2,3.6,1.4C578.3,71.9,579.1,71,579.8,70.5z M619.1,36.1c1.1,0,2.3,0.2,2.5-0.1
			c0.3-0.6,0.3-1.6,0.1-2.4c-0.3-1.1-0.9-2.1-1.4-3.2c-0.2-0.4-0.8-1.1-0.9-1c-0.5,0.3-1.2,0.7-1.4,1.2c-0.5,1-0.8,2.2-1,3.3
			C616.7,35.7,616.7,37.6,619.1,36.1z M613.6,38c-0.2,1.3-0.3,1.7-0.4,2.2c-0.1,1.5,0.8,2.1,2.2,1.9c0.4,0,0.7-0.4,1-0.6
			C615.6,40.4,614.7,39.4,613.6,38z"/>
		<path class="st1" d="M439,55.9c0-4.3,0.1-8.7,0-13c-0.1-3.1,0.7-5.7,3.7-7c2.1-0.9,2.4-2.4,2.4-4.4c-0.1-2.7-0.1-5.3,0-8
			c0.1-5.8,2.3-7.9,8.1-8c0.6,0,1.4-0.5,1.8-1.1c3.2-3.8,4-4,9-2.5c0.7,0.2,1.7,0.4,2.2,0.1c2.4-1.5,4.8-1.3,7,0.1
			c1.4,0.9,2.3,0.6,3.5-0.3c6.5-5.1,6.6-5,12.5,0.7c4,3.8,7.6,7.8,10.1,12.9c3.7,7.5,3.3,14.8-0.6,22c-2.8,5.2-6.4,9.8-11.2,13.2
			c-2.9,2-3.7,4.3-3.5,7.6c0.3,4.1-0.3,7.9-2.7,11.4c-3.4,5-8.1,8-13.8,9.1c-8.7,1.6-16.9,0.5-23.3-6.6c-3.3-3.6-5-7.8-5.2-12.7
			C438.9,64.9,439,60.4,439,55.9z M442.9,56.4C442.9,56.4,442.9,56.4,442.9,56.4c0,4.5,0.1,9,0,13.5c-0.1,3.2,1,5.9,2.8,8.4
			c6.1,8.7,20,10.1,29.1,3.4c6-4.4,6.6-10.8,6-17.5c-0.1-0.8-1-1.7-1.6-2.4c-3.7-4.1-7.4-8.1-11.1-12.1c-0.5-0.5-1.4-1.1-1.9-1
			c-2,0.6-2.4-0.8-2.6-2.1c-0.3-1.3-0.2-2.6-0.3-4c0-7.7,0-15.3,0-23c0-3.8-0.7-5.3-2.4-5.2c-2,0.1-2.7,1.6-2.8,5.5
			c0,0.8,0,1.7,0,2.5c0,6.7,0,13.3,0,20c0,1,0,2,0,3c0,1.5,0,3.4-2,3.3c-1.9-0.1-1.8-2.1-1.8-3.5c0-1.3,0-2.7,0-4c0-6.3,0-12.7,0-19
			c0-1.7-0.6-3-2.5-3.1c-1.9,0-2.6,1.3-2.6,3c-0.1,3.3,0,6.7-0.1,10c0,2.2,0.1,4.2,1.6,6.1c0.9,1.2,1.2,3.1,1.3,4.7
			c0.2,3.5,0.1,7,0,10.5c0,1-0.2,2-0.6,2.8c-0.2,0.5-1.1,0.9-1.6,0.8c-0.5,0-1.3-0.6-1.4-1.1c-0.3-1.1-0.2-2.3-0.2-3.5
			c0-3.7,0.1-7.3-0.1-11c-0.1-2-1.6-2.9-3.4-2.3c-1.4,0.4-1.6,1.6-1.6,2.8C442.9,46.8,442.9,51.6,442.9,56.4z M483.8,53.8
			c0.3,1.5,0.5,3.1,0.8,4.6c1.1-0.9,2.3-1.8,3.4-2.8c1.2-1.1,2.4-2.3,3.4-3.6c3.6-4.4,6.6-9.1,6.8-15.1c0-0.4-0.1-0.9-0.1-1.4
			c-0.4,0.2-0.9,0.3-1.2,0.6c-3.2,3.1-6.2,6.4-9.5,9.4C484.8,47.8,483.3,50.3,483.8,53.8z M493.7,23.6c-0.3,0.1-0.6,0.2-0.8,0.4
			c-4.8,4.7-10.7,8.7-8.8,16.9c0.2,0.6,0.3,1.3,0.4,1.9c0.6-0.3,1.3-0.4,1.7-0.8c3.2-3.1,6.4-6.3,9.5-9.5c2-2.1,0.9-7.3-1.6-8.7
			C494,23.7,493.8,23.7,493.7,23.6z M480.8,53.5c0.2,0,0.3-0.1,0.5-0.1c-0.5-2-0.5-4.5-1.7-5.9c-3.5-4-7.4-7.6-11.2-11.4
			c-0.2-0.2-0.6-0.3-0.9-0.4c-0.2,0.4-0.4,0.8-0.5,1.2c-0.1,0.5,0,1,0.1,1.5c1.6,7.9,6.4,13.8,12.1,19c0.9,0.8,1.5,0.2,1.5-0.9
			C480.8,55.5,480.8,54.5,480.8,53.5z M481,38.2c0.7-4.3-0.9-7.4-4.2-10c-1-0.8-1.9-1.9-2.8-2.8c-2.6-2.5-2.6-2.5-4.3,0.7
			c-0.2,0.3-0.3,0.6-0.5,0.9c-1.5,3.1-1.5,3.1,0.9,5.6c2.3,2.4,4.7,4.7,7.1,7c1.1,1,2.3,1.9,3.4,2.8C480.6,41.1,480.8,39.6,481,38.2
			z M484.2,20.4c-0.1,0-0.1,0-0.2,0c0.2,2.1,0.5,4.1,0.7,6.2c1.6-1.4,3.2-2.8,4.8-4.2c0.2-0.2,0.5-0.5,0.7-0.7
			c1.2-1.2,1.1-2.3,0-3.5c-0.7-0.7-1.3-1.5-2.1-2.1c-1-0.8-2.1-1.5-3.2-2.2c-0.2,1.4-0.4,2.7-0.6,4.1
			C484.1,18.7,484.2,19.5,484.2,20.4z M481.1,19.2c-0.2-1.4-0.5-3.4-0.7-5.5c-1.6,1.4-3.2,2.9-4.8,4.3c-1.6,1.4-1.8,2.6,0,4
			c1.7,1.4,3.4,2.9,5.1,4.3C480.8,24.2,480.9,22.1,481.1,19.2z M467,23.2c1.7-2.4,3-4,4.2-5.8c0.3-0.5,0.6-1.4,0.3-1.7
			c-0.5-0.5-1.4-1.1-2.1-1.1c-1.4,0.1-2.4,1-2.5,2.5C467,18.9,467,20.7,467,23.2z"/>
		<path class="st1" d="M355.4,37.5c-0.8,3.7-1.5,7.5-2.5,11.1c-0.9,3.4-0.9,3.1,2.5,4.8c4.1,2.1,8,4.6,11.9,7.2
			c2.2,1.5,2.2,2.6,0.4,4.5c-5.8,6.4-12.4,11.6-21.5,12.5c-4.2,0.5-8.3-0.2-12.1-1.8c-3.3-1.4-6.5-3.4-9.6-5.3
			c-2.8-1.8-2.7-1.9-5.4,0c-4.9,3.5-10.1,6.2-16.3,7c-5.6,0.8-10.7-0.3-15.3-3c-3.8-2.3-7.4-5.1-10.7-8.1c-3.1-2.9-2.9-4.4,0.5-6.7
			c3.6-2.4,7.4-4.5,11.2-6.4c2.8-1.4,2.8-1.2,2.1-4.1c-1-4.4-1.9-8.8-2.5-13.2c-0.5-3.6,0.8-4.8,4.5-4.6c4.8,0.2,9.5,1.3,14,3.2
			c2.8,1.2,2.9,1.1,4.1-1.6c2.1-5,5.2-9.2,9-13.1c1.5-1.5,2.7-1.4,4.2,0.1c3.5,3.6,6.3,7.7,8.5,12.3c1.5,3.3,1.5,3,5.2,2
			c4.3-1.2,8.7-2.3,13.1-2.9c4-0.5,4.3,0,4.4,4c0,0.7,0,1.3,0,2C355.1,37.5,355.2,37.5,355.4,37.5z M343.7,74.4
			c7.4,0.5,16.1-5.6,20.1-9.8c1-1.1,0.5-1.8-0.5-2.4c-3.3-1.9-6.6-3.9-9.9-5.7c-2.1-1.1-3.8-0.9-5.5,1.2c-3.9,4.9-9.3,7.4-15.3,8.8
			c-1.8,0.4-3.5,0.8-5.3,1.3c1.7,1.2,3.2,2.8,5,3.7C336,73.2,339.7,74.6,343.7,74.4z M299.3,74.7c6,0,11-2.8,15.9-5.6
			c0.4-0.2,0.6-0.7,0.9-1.1c-0.4-0.2-0.8-0.4-1.2-0.5c-7.9-1.3-15-4.1-20.3-10.6c-0.8-1-1.6-1.4-3-1c-4.3,1.4-8.2,3.5-11.7,6.4
			c-1.1,0.9-0.9,1.6-0.1,2.4c3.7,3.6,7.9,6.7,12.8,8.4C294.8,73.9,297.1,74.2,299.3,74.7z M321.8,23.4c-0.6,0.4-1,0.6-1.4,0.9
			c-3.3,3.4-5.6,7.4-7.2,11.8c-0.3,0.7,0,2.2,0.5,2.7c3.3,2.9,5.4,6.7,7.1,10.6c0.5,1.2,1.1,0.9,1.7-0.1c1.7-2.8,3.1-5.9,5.2-8.4
			c3.1-3.8,3.4-3.8,1.1-8c-1.6-2.9-3.6-5.5-5.5-8.2C322.9,24.1,322.3,23.8,321.8,23.4z M295.1,34.7c-3.3,0.3-3.6,0.4-3.2,3.6
			c0.5,3.6,1.4,7.1,2.3,10.7c0.4,1.5,1.3,2.6,3.2,2.4c4.1-0.3,7.9,0.8,11.6,2.5c1,0.5,1.8,0.1,1.4-1c-1.5-3.8-1.9-7.7-1.7-11.7
			c0.1-1.6-0.9-2.5-2.2-2.9C302.6,37.1,298.8,35.9,295.1,34.7z M351.6,39.5c0.2-4-0.2-4.6-3.2-4.1c-3.9,0.6-7.6,1.9-11.4,3
			c-1.4,0.4-2.2,1.4-2.1,3c0.3,3.9-0.4,7.6-1.7,11.2c-0.5,1.5,0.2,1.7,1.5,1.3c2.8-0.9,5.6-2,8.6-2.4c5.3-0.7,5.4-0.5,6.8-5.6
			C350.7,43.5,351.2,41.1,351.6,39.5z M314.3,63.9c0.6,0,1.3,0,1.9,0c-0.4-0.6-0.7-1.4-1.2-1.8c-4.5-3.8-9.4-6.7-15.5-6.9
			c-0.4,0-0.9,0.1-1.3,0.2c0.2,0.4,0.4,0.9,0.7,1.2C303.1,60.8,308.5,62.8,314.3,63.9z M328.5,63.7c5.9-0.9,10.8-2.6,14.8-6.3
			c0.4-0.4,0.7-1.1,1-1.6c-0.6-0.2-1.2-0.5-1.8-0.4c-6.1,0.3-10.7,3.8-15.1,7.6c-0.1,0.1,0.2,1,0.3,1
			C328.1,63.8,328.6,63.7,328.5,63.7z M323.7,61.5c4.4-5.7,7-10.9,7.9-17c0.1-0.5-0.1-1-0.2-1.5c-0.5,0.2-1.2,0.3-1.5,0.7
			C325.8,48.5,324,54.1,323.7,61.5z M319.8,61.4c-0.7-7.1-2.2-12.8-6.3-17.7c-0.3-0.4-0.8-0.5-1.2-0.8c-0.2,0.6-0.5,1.2-0.4,1.7
			C312.7,50.8,315.2,56.1,319.8,61.4z"/>
		<path class="st1" d="M1307.9,17.2c3.1,1.3,5-0.4,7.2-3.1c4.9-5.8,15.1-5.2,19.2,1c1.7,2.6,3.2,2.4,5.6,2.2
			c7.3-0.6,12.7,3.3,14.3,10.3c0.3,1.5,0.1,3.3-0.2,4.8c-0.4,2-0.2,3.2,1.8,4.5c8,5.1,8.5,15.1,1.1,20.9c-2.3,1.8-3,3.2-2.6,6.4
			c1.1,8-5.5,15.4-14.4,14c-2.7-0.4-3.9,0-5.6,2.2c-4.7,6.3-13.7,6.6-19.2,0.9c-0.6-0.6-1.2-1.2-1.6-1.9c-0.8-1.6-1.8-1.7-3.6-1.4
			c-8.3,1.5-14.5-3.1-15.6-11.4c0-0.3-0.3-0.7-0.2-1c0.2-1.9,1.2-4.1,0.6-5.7c-0.7-1.6-3.2-2.3-4.5-3.7c-4.9-5-4.6-12.9,0.5-17.9
			c0.8-0.8,1.7-1.7,2.8-2.1c1.9-0.8,2-1.8,1.3-3.5c-1.2-3.2-0.6-6.2,1-9.1C1298.2,19.3,1302.2,17.1,1307.9,17.2z M1307.7,20.4
			c-6.4,0.1-10.9,5.5-9.8,11.2c0.4,1.8,1,3.1,3.6,3.1c6.1-0.1,11.7,2.2,16.7,5.6c1.3,0.9,2.7,1.6,4.1,2.3c-0.2-1.6-0.3-3.3-0.6-4.8
			c-1-5.3-3-10.2-7.1-13.9C1312.5,22,1310,20.5,1307.7,20.4z M1350.8,65.9c0-4.1-1-5.3-5.1-5.3c-5.6,0-10.3-2.2-14.8-5.1
			c-1.4-0.9-3-1.7-4.4-2.5c0.2,1.8,0.1,3.6,0.6,5.3c0.7,2.5,1.5,5.1,2.6,7.5c1.7,3.7,4.4,6.5,8.1,8.4
			C1344,77.4,1351.3,71.6,1350.8,65.9z M1348.2,57.4c0.8-0.2,2.8-0.4,4.6-1.1c6.3-2.6,7.6-11.1,2.5-15.6c-2.4-2.1-4-2.2-6.3,0.1
			c-3.9,3.8-8.6,6.1-13.8,7.5c-1.9,0.5-3.8,0.9-5.8,1.4c1.7,1.4,3.3,3,5.2,4.1C1338.5,56,1342.6,57.3,1348.2,57.4z M1301.1,38.4
			c-0.5,0-1.7,0-2.8,0.2c-4.5,0.8-7.4,3.8-8.1,8.3c-0.6,3.4,1.6,7.4,4.7,9.1c1.6,0.9,2.9,1.1,4.3-0.6c4-4.6,9.3-6.8,15-8.1
			c1.3-0.3,2.6-0.6,3.9-0.9c0.4-0.1,0.7-0.4,1.1-0.6c-0.2-0.3-0.3-0.6-0.6-0.8C1313.5,41.4,1308.3,38.2,1301.1,38.4z M1314.8,71.7
			c0.2,0.9,0.5,3.1,1.3,5c2.2,5.2,10.1,7.7,15.3,2c1.8-2,1.8-3.1-0.2-5.1c-4.3-4.2-6.6-9.4-7.7-15.2c-0.3-1.8-1-3.6-1.5-5.4
			c-1.2,1.6-2.4,3.1-3.4,4.8C1316.2,61.7,1314.8,65.9,1314.8,71.7z M1307,75.2c3.2,0.1,4.6-1.1,4.5-4.3c-0.3-6.1,1.7-11.4,5.1-16.4
			c0.5-0.7,1-1.3,1.4-2.1c0.2-0.5,0.4-1.2,0.3-1.7c0-0.2-0.9-0.4-1.3-0.4c-7.7,1-13.9,4.4-18,11.1
			C1295.8,66.4,1299.2,74.6,1307,75.2z M1326.6,43.3c1.9-3.2,3.5-5.9,5-8.6c2-3.8,2.5-7.9,2-12.1c-0.5-3.9-2.2-6.8-6.1-8.3
			c-3.6-1.4-6.5-0.4-9.3,1.6c-2.7,2-2.5,3.5-0.6,6.1c2.1,2.8,4.3,5.6,5.6,8.7C1324.8,34.5,1325.4,38.6,1326.6,43.3z M1337.6,25.3
			c0,0.2-0.1,1-0.2,1.8c-0.7,5.9-2.9,11.2-6.5,15.9c-0.4,0.5-0.5,1.2-0.7,1.8c0.6,0.2,1.3,0.5,1.9,0.4c1.6-0.3,3.3-0.6,4.8-1.1
			c5-1.7,9.3-4.5,12.3-8.9c2.2-3.1,2.4-6.5,0.6-9.9c-1.7-3.1-4.4-4.9-8.1-5C1338.2,20.4,1337.5,21.3,1337.6,25.3z"/>
		<path class="st1" d="M1214.8,38.2c0,2.7,0.1,5.3,0,8c-0.1,3.7-0.4,4-4,4.1c-2,0.1-4,0-6,0c-3.2,0.1-3.4,0.4-3.4,3.4
			c0,2.1,0.1,4.3,0.1,6.4c0,2.6-0.5,3.1-3.2,3.3c-1.6,0.1-3.9-0.3-4.7,0.6c-0.8,0.8,0.3,3.1,0.1,4.7c-0.6,4.8-1.5,9.5-2.3,14.2
			c-0.3,1.6-1.5,2.5-3.3,2.4c-8-0.3-15.5-2-21.7-7.4c-3.3-2.8-4.9-6.7-5.6-10.9c-0.2-1.5-0.7-1.6-1.9-0.9c-5.8,3.7-12,3.1-18.2,1.2
			c-1.8-0.6-3.1-1.4-2.8-3.4c0.6-4.3,1-8.6,3.4-12.4c1.9-3,4.4-5.6,8-6.3c2.6-0.5,2.4-1.6,1.5-3.3c-1.6-3.3-0.7-6.5,0.1-9.7
			c0.4-1.8,1.5-3,3.6-2.4c2.4,0.6,4.8,1.1,7.2,1.8c1.3,0.4,1.9,0.2,1.9-1.1c0-0.3,0-0.7,0-1c0.4-4,0.5-4.1,4.5-4
			c1.2,0,2.3-0.1,3.5-0.1c5.2-0.3,5.2-0.3,5.2-5.6c0-7.8-0.8-7.6,7.6-7.6c4.5,0,9,0,13.5,0c2.9,0,3.5,0.6,3.7,3.5
			c0.2,2.7,0.1,5.3,0.1,8c0,1.5,0.5,2,2.1,1.8c2.3-0.2,4.7-0.2,7-0.1c3.5,0.2,4,0.8,4.1,4.2C1214.8,32.5,1214.8,35.3,1214.8,38.2z
			 M1210.9,38.8c0,0,0.1,0,0.1,0c0-2,0-4,0-6c0.1-3.2-0.2-3.5-3.1-3.6c-1.5-0.1-3,0-4.5,0c-5.6,0-5.7-0.1-5.7-5.4c0-1.8,0-3.7,0-5.5
			c0-1.4-0.6-2.2-2.1-2.2c-4.5,0-9,0-13.5,0c-1.8,0-2.2,1-2.2,2.6c0,2.2,0,4.3,0,6.5c-0.1,3.8-0.2,4-3.9,4c-2.3,0.1-4.7,0-7,0
			c-1.4,0-2.2,0.5-2.2,2c0,4.7-0.1,9.3,0.1,14c0,0.6,1.1,1.7,1.8,1.7c2.5,0.2,5,0.1,7.5,0.1c1,0,2.5-0.1,2.8,0.4
			c2.2,3.4,6.4,4,8.8,7.1c1,1.3,2.1,2.6,3.1,3.9c1.2,1.5,4.2,2.5,5.7,1.5c0.8-0.6,1-2.2,1.1-3.4c0.2-2.1,0.1-4.3,0-6.5
			c-0.1-2.1,0.9-3,3-3c2,0.1,4,0,6,0c4.3,0,4.3,0,4.2-4.2C1210.9,41.5,1210.9,40.2,1210.9,38.8z M1163.8,61.9
			c0.2,13.1,8.3,18,19.2,19.4c1.4,0.2,1.8-0.7,1-1.9c-0.6-1-1.3-1.9-2-2.9c-4.3-6.1-8.6-12.3-12.9-18.4c-1-1.4-2.2-2.7-3.2-4.1
			c-0.6,1.7-1.4,3.3-1.9,5.1C1163.8,60.2,1163.9,61.4,1163.8,61.9z M1159.2,49.2c-0.1-0.2-0.2-0.7-0.4-0.7c-4.3-0.4-8.6-1-12.2,2.2
			c-2.6,2.3-3.7,5.4-4.6,8.6c-0.1,0.4,0.1,0.9,0.2,1.4c0.4-0.1,0.9-0.1,1.3-0.4c5-3.4,10-6.9,15-10.4
			C1158.8,49.8,1159,49.5,1159.2,49.2z M1153.7,37.5c0,4.4,2,6.8,6.3,7.6c1.8,0.3,2.8-0.4,3.3-2.1c1-3.6-0.9-7.2-4.6-8.8
			C1154.6,32.5,1153.7,33,1153.7,37.5z M1185.6,58.7c-0.2,0,0.2,0,0.7-0.1c-0.2-0.5-0.3-1.3-0.7-1.6c-4.4-3.9-9.8-5.5-15.4-6.4
			c-0.3,0-1.1,0.9-1,1c1.6,2.5,2.8,5.3,6.4,5.6C1178.8,57.4,1181.8,58.1,1185.6,58.7z M1189.8,66.8c0-3.2-0.6-3.9-3.6-4.4
			c-1.6-0.3-3.2-0.6-4.9-0.8c-1.7-0.2-3.5-0.3-5.2-0.5c1,1.7,2,3.4,3.2,4.9c0.5,0.7,1.6,1.1,2.5,1.3c1.9,0.5,3.9,0.7,5.8,1.3
			C1189.5,69.2,1189.9,68.3,1189.8,66.8z M1189.7,74.5c0.4-1.4-0.5-2.2-2.4-2.3c-0.6,0-1.3-0.4-1.9-0.5c-0.6-0.1-1.3,0-1.9-0.1
			c0.2,0.5,0.4,1.1,0.7,1.6c0.7,1.1,1.5,2.2,2.2,3.3c0.6,0.8,1.3,1.5,1.9,2.2c0.4-0.9,0.8-1.8,1.2-2.7
			C1189.6,75.8,1189.6,75.4,1189.7,74.5z M1154.8,59.2c-0.1-0.4-0.3-0.9-0.6-1.5c-0.6,0.3-1.5,0.4-1.7,0.9c-0.7,1.6-1.2,3.3-1.6,5.1
			c-0.1,0.4,0.6,1.2,1,1.3c0.5,0.1,1.4-0.3,1.6-0.7C1154,62.7,1154.3,61.1,1154.8,59.2z M1161.9,54.1c-0.3-0.7-0.4-1-0.5-1.3
			c-0.4,0.2-1.1,0.3-1.2,0.6c-0.7,1.8-1.3,3.7-1.8,5.5c-0.2,0.9-0.1,1.8-0.1,2.8c0.6-0.8,1.4-1.5,1.8-2.3
			C1160.8,57.6,1161.4,55.7,1161.9,54.1z M1146.7,64.6c-0.3-0.6-0.5-1.1-0.5-1.1c-0.6,0.2-1.1,0.4-1.6,0.6c0.2,0.3,0.4,0.8,0.5,0.8
			C1145.6,65,1146.1,64.7,1146.7,64.6z"/>
		<path class="st1" d="M179.8,24.9c4.9,0,9.7,1,14.2,2.6c10.4,3.7,19.3,9.6,27,17.4c2.2,2.3,2.2,2.6,0,4.9
			c-10.4,10.6-22.4,18.2-37.4,20.4c-6.2,0.9-12.3-0.2-18.2-2.2c-10.6-3.5-19.6-9.7-27.4-17.7c-2.3-2.4-2.4-2.5-0.1-4.8
			c9.1-9.3,19.6-16.5,32.5-19.4C173.5,25.4,176.7,25.3,179.8,24.9z M198.3,43.9c0-0.2-0.1-0.3-0.1-0.5c-2.1-7.8-7-12.9-14.9-14.5
			c-7.5-1.6-13.9,0.9-18.6,6.9c-1.8,2.3-2.8,5.2-3.8,8c-0.6,1.6,0.4,2.5,2.2,2.3c2.1-0.3,3.7-0.7,4.6-3.2c2.1-5.4,6.6-8.1,12.1-8
			c5.6,0.1,9.7,3.1,11.8,8.5c0.2,0.5,0.1,1.2,0.5,1.4c0.7,0.5,1.6,1.1,2.4,1.1c1.3-0.1,2.5-0.6,3.7-1
			C198.4,44.8,198.3,44.2,198.3,43.9z M179.3,66.5c9.2,0.9,17.5-6.8,19-15c0.2-1.2,0.1-1.9-1.3-2.1c-3.3-0.5-4.3,0-5.9,3.4
			c-2.2,4.9-6.2,7.3-11.4,7.5c-5.3,0.2-9.2-2.4-11.7-7c-0.5-0.9-0.7-1.9-1.2-2.7c-1.2-2-3.3-1.3-4.9-1c-1.8,0.4-1.1,2.1-0.8,3.3
			C163.3,60.5,170.8,67.1,179.3,66.5z M201.9,48.1c0.5,4.5-1.4,8.7-4,12.7c-0.2,0.3-0.3,0.8-0.4,1.2c0.5,0,1,0,1.4-0.2
			c7-3.3,13.1-7.9,18.6-13.3c0.8-0.8,0.7-1.4,0.1-2c-5.1-5.3-11.1-9.5-17.8-12.7c-0.4-0.2-0.9-0.1-1.4-0.1c0.1,0.6-0.1,1.3,0.2,1.7
			C201.1,39.1,202.2,43.2,201.9,48.1z M162.1,32.8c-6.3,2.3-16.6,9.4-20.3,13.9c-0.8,1-0.7,1.6,0.1,2.5c5.2,5.2,11.2,9.3,17.8,12.6
			c0.4,0.2,0.9,0.2,1.4,0.3c-0.1-0.6,0-1.2-0.3-1.6c-4.2-7-5.4-14.2-2-21.8C159.7,36.6,160.9,34.8,162.1,32.8z M179.8,38.4
			c-5.2-0.1-9.8,4.1-9.7,9.2c0.1,5,3.7,9,9.1,9.4c5,0.4,9.3-3.8,9.5-8.8C189,42.8,185.1,38.5,179.8,38.4z"/>
		<path class="st1" d="M847.1,40.4c5.3,0,10.7-0.1,16,0c2,0,3.5-0.6,4.9-2c4.5-4.2,9.1-8.3,13.6-12.6c1.9-1.8,3.7-3.6,4.8-6.2
			c1.7-3.9,5.2-4.8,9.2-3.1c2.3,1,3.9,2.6,5,4.7c2.2,4.2,0.9,7.9-3.3,10c-1.2,0.6-2.4,1.1-3.3,2c-2.1,2.1-3.9,4.5-5.9,6.7
			c2.9,0.1,5.9,0.3,8.8,0.4c2.3,0.1,4.7,0,7,0c1.6,0,2.4,0.8,2.4,2.4c0,2,0,4,0,6c0,0.6-0.1,1.6-0.5,1.8c-3,1.6-2.7,4.6-3.7,7.2
			c-4,10.3-12.6,18-25.9,18.6c-6.3,0.3-12.7,0.2-19,0c-12.3-0.4-22.7-8.3-26.1-19.7c-0.6-2-0.2-4.7-3.1-5.8
			c-0.7-0.3-0.8-2.7-0.8-4.1c-0.1-7.1-0.6-6.5,6.4-6.5C838.1,40.4,842.6,40.4,847.1,40.4C847.1,40.4,847.1,40.4,847.1,40.4z
			 M866.3,51.8c-5,0-10,0-15,0c-5.2,0-10.3,0-15.5,0c-2.4,0-2.4,0.4-1.8,2.7c0.4,1.9,1.5,2.3,3.2,2.3c2.8,0,5.7,0,8.4,0.3
			c0.6,0.1,1.3,1.3,1.6,2.1c0.1,0.2-1.1,1.3-1.7,1.4c-2.1,0.2-4.3,0.1-6.5,0.1c-0.7,0-1.4,0.4-2.2,0.6c0.6,0.7,1.1,1.7,1.9,2.1
			c0.8,0.4,1.9,0.3,2.9,0.3c1.3,0.1,2.7-0.1,4,0.2c0.6,0.1,1.3,0.9,1.5,1.6c0.1,0.4-0.4,1.2-0.9,1.6c-2.7,2-2.8,2.2,0.3,3.4
			c2.9,1.1,6,2.1,9.1,2.3c7.1,0.3,14.3,0,21.4,0.1c9.4,0.1,18.5-7.3,21.6-16.5c1.2-3.6,0.6-4.5-3.1-4.5
			C886,51.7,876.1,51.8,866.3,51.8z M866.1,48.4c7.5,0,15,0,22.4,0c3.8,0,7.6,0,11.5,0c1.6,0,2.5-0.5,2.5-2.3c0-1.6-0.6-2.5-2.3-2.4
			c-1.2,0-2.3,0-3.5,0c-20.3,0-40.6,0-60.8,0c-1,0-2,0-3,0c-2.1,0.1-2.8,1.2-2.4,3.3c0.4,1.9,2,1.4,3.2,1.4
			C844.5,48.5,855.3,48.4,866.1,48.4z M877.5,40.4c3.5,1.1,6.3-1.1,8.7-4.1c1.1-1.4,2.5-2.7,3.8-4c0.9-0.9,1.1-1.6,0-2.4
			c-0.8-0.6-1.5-1.3-2.2-2.1c-0.9-1.1-1.8-1.3-2.9-0.3c-4,3.7-8.1,7.4-12.1,11.1c-0.3,0.3-0.5,0.8-0.8,1.2c0.4,0.1,0.8,0.4,1.2,0.4
			C874.5,40.5,875.6,40.4,877.5,40.4z M898.1,24.5c-0.5-0.9-1.2-2.4-2.3-3.6c-1.4-1.5-4.1-1.8-5.4-0.8c-1.4,1-1.6,3.5,0,5.3
			c1.1,1.3,2.8,2.2,4.5,2.7C896.3,28.7,898.1,26.9,898.1,24.5z"/>
		<path class="st1" d="M698.9,60.8c0.8-2.8,1.5-6.6,2.8-10.1c4.8-12.1,10.9-23.5,17.4-34.8c0.2-0.3,0.4-0.6,0.6-0.8
			c1.9-2.7,3.1-2.7,4.7,0.1c4.4,7.8,8.6,15.8,12.8,23.7c0.2,0.4,0.3,1,0.5,1.4c0.3,0.6,0.8,1.1,1.2,1.6c0.5-0.4,1.1-0.8,1.4-1.3
			c1.4-2.3,2.6-4.6,3.9-6.9c0.9-1.6,1.9-3.1,2.9-4.6c0.7-1,1.7-0.9,2.6-0.1c0.3,0.4,0.6,0.8,0.9,1.2c5.9,10,11.8,20.1,15.2,31.3
			c2,6.6,0.5,12.5-4.3,17.4c-5.9,5.9-14.8,7.4-22,3c-2.7-1.7-4.5-1.5-7.1-0.1c-11.8,6.3-28.1,0.7-32.2-14.2
			C699.5,65.7,699.4,63.7,698.9,60.8z M741.4,61.1c0-0.4-0.1-1.6-0.4-2.7c-3.9-14.1-11.3-26.5-18.2-39.1c-0.7-1.3-1.3-0.4-1.7,0.4
			c-3,5.5-6.3,10.9-9.1,16.6c-3,6.3-5.7,12.7-8.2,19.2c-2.5,6.6-1.2,12.6,3.2,18.1c5.1,6.4,13.4,8.9,21.5,6.2
			C735.7,77.4,741.4,69.6,741.4,61.1z M747.8,81c10.4,0,17.5-10.3,14.6-18.6c-3.3-9.5-7.9-18.3-12.9-27c-1-1.7-1.7-1-2.4,0.2
			c-1.4,2.5-2.7,5-4.2,7.4c-1.8,2.8-1.8,5.4-0.5,8.5c2.4,5.5,3.1,11.3,1.2,17c-0.8,2.5-1.3,4.4,1.7,5.6c0.4,0.1,0.8,1.3,0.6,1.6
			c-0.4,0.6-1.3,1.2-1.9,1.2c-0.9-0.1-1.8-0.9-2.8-1.1c-0.5-0.1-1.4,0.2-1.6,0.6c-0.2,0.4-0.1,1.4,0.3,1.7
			C742.5,80,745.3,80.8,747.8,81z"/>
		<path class="st1" d="M45.5,19.5C60.7,19,75.8,31.3,75.8,49.4C75.7,67,62.2,79.3,45.7,79.7C31.8,80,15.4,68.8,15.3,49.6
			C15.3,31,30.7,19,45.5,19.5z M19,49.6c-0.6,9.3,6.7,21.9,18.8,25.5c3,0.9,5.1,0.3,7.2-1.9c1.9-2.1,2.9-4.3,3.1-7.2
			c0.2-4.3-0.6-8.3-2.4-12.1c-1.3-2.7-2.6-5.4-3.7-8.2c-3-7.7-3.8-15.2,2.9-21.7c0.2-0.2,0.3-0.6,0.5-0.9c-0.4-0.1-0.9-0.4-1.3-0.4
			C27.2,24.6,18.7,37.8,19,49.6z M72.1,49.7c-0.4-10.8-4.9-19.1-14.8-24c-5.1-2.5-6.9-2.2-10.9,1.9c-2.9,3-3.8,6.7-2.9,10.6
			c0.7,3.4,2.1,6.6,3.3,9.9c1.1,2.9,2.7,5.7,3.6,8.7c1.9,5.9,2.3,11.7-1.3,17.2c-0.3,0.4-0.4,0.9-0.6,1.3c0.6,0.1,1.3,0.4,1.9,0.4
			c1-0.1,2-0.3,2.9-0.6C65.2,71.5,72.4,60.6,72.1,49.7z"/>
		<path class="st1" d="M175.5,15.1c0.6,0,1.9,0.1,3.2,0.3c0.3,0.1,0.8,0.7,0.8,1.1c0,0.4-0.2,1.1-0.6,1.2c-0.7,0.4-1.5,0.6-2.3,0.7
			c-16.3,0.9-29.5,8.1-40.9,19.4c-1.1,1.1-2.1,2.2-3.3,3.1c-0.4,0.3-1.5,0.3-1.7,0c-0.4-0.5-0.8-1.6-0.5-2.1c0.5-1,1.4-1.9,2.2-2.7
			c10.2-10.3,22-17.5,36.4-20.2c0.7-0.1,1.3-0.3,1.9-0.4C172.1,15.3,173.4,15.2,175.5,15.1z"/>
		<path class="st1" d="M183.6,80c-0.3-0.1-0.7-0.1-1-0.2c-1.1-0.3-2.7-0.2-2.5-1.7c0.1-0.7,1.7-1.6,2.6-1.7
			c6.4-0.1,12.5-1.6,18.4-3.8c8.5-3.2,15.8-8.4,22-15c1-1.1,2.1-2.1,3.3-3c0.4-0.3,1.4-0.1,1.7,0.2c0.4,0.3,0.6,1.3,0.4,1.7
			c-0.3,0.7-0.9,1.4-1.4,2c-11.4,12.6-25.4,20-42.5,21.4C184.3,79.9,184,80,183.6,80z"/>
		<path class="st1" d="M10.5,47.6c0.5,0.9,1.2,1.7,1.4,2.5c0.5,2.3,0.6,4.6,1,6.8c1.7,8.6,6.8,15,13.5,20.2c0.8,0.6,1.8,1,2.4,1.7
			c0.5,0.6,0.5,1.7,0.7,2.5c-0.9,0-2,0.4-2.7,0.1c-4.7-2.6-8.5-6.3-11.7-10.6c-4.3-5.9-6.4-12.6-6.6-20c0-0.8,0.2-1.6,0.5-2.3
			C9.2,48.2,9.8,48,10.5,47.6z"/>
		<path class="st1" d="M82.9,48.3c-0.1,0.4-0.1,1.2-0.4,1.7c-0.3,0.5-0.9,1.1-1.5,1.1c-0.5,0-1.4-0.5-1.5-1
			c-0.4-1.1-0.4-2.3-0.5-3.4c-0.7-9.3-4.8-16.8-11.7-22.9c-1.1-1-3.1-1.8-2-3.4c1.5-2.1,2.9-0.2,4.1,0.8c6.7,5.4,10.8,12.6,12.5,21
			C82.4,44.2,82.6,46.2,82.9,48.3z"/>
		<path class="st1" d="M458.3,81.8c-5.6-1-9.1-3.6-11.4-7.7c-0.4-0.7,0-1.8,0.1-2.6c0.9,0.2,1.9,0.2,2.5,0.7c1.2,1.1,2,2.8,3.3,3.7
			c1.6,1.1,3.6,1.5,5.4,2.3c0.9,0.5,1.6,1.3,2.4,2C459.7,80.8,458.7,81.5,458.3,81.8z"/>
		<path class="st1" d="M181.2,41.9c-0.6,0.8-1,1.7-1.6,1.9c-2,0.8-3.2,2.1-4,4.1c-0.2,0.4-1.1,0.9-1.5,0.8c-0.5-0.1-1.1-0.8-1.3-1.3
			c-0.8-3.1,3.5-7.5,6.7-6.8C180.1,40.7,180.5,41.4,181.2,41.9z"/>
		<path class="st1" d="M718.9,73.8c-0.9,0.5-1.6,1.2-2.2,1.1c-4-0.3-9.6-7-9.3-11.1c0-0.6,0.8-1.3,1.4-1.7c0.3-0.1,1.3,0.5,1.5,0.9
			c1.1,3.9,3.4,6.7,7.1,8.5C718,71.9,718.3,72.9,718.9,73.8z"/>
		<path class="st1" d="M31.9,64.6c0-3.6,2.7-6.2,6.3-6.2c3.7,0,6.5,2.7,6.6,6.1c0.1,3.5-3.2,6.7-6.7,6.7
			C35,71.2,31.9,67.9,31.9,64.6z M38.5,67.5c1.5-0.1,2.6-1.5,2.4-3.1c-0.2-1.5-1-2.4-2.5-2.6c-1.5-0.2-3.3,1.8-3.1,3.2
			C35.5,66.2,37.2,67.6,38.5,67.5z"/>
		<path class="st1" d="M53.8,29.6c3.8,0,6.5,2.9,6.4,6.7c-0.1,3.5-3,6.3-6.4,6.2c-3.4-0.1-6.3-3.2-6.3-6.5
			C47.5,32.6,50.5,29.5,53.8,29.6z M54,38.6c1.7,0,2.9-1.2,2.8-2.8c-0.1-1.4-1.7-2.9-2.9-2.9c-1.3,0.1-2.8,1.7-2.8,3
			C51,37.5,52.3,38.7,54,38.6z"/>
	</g>
</g>
</svg>
