<?xml version="1.0" encoding="utf-8"?>
<!-- Generator: Adobe Illustrator 27.2.0, SVG Export Plug-In . SVG Version: 6.00 Build 0)  -->
<svg version="1.1" id="Layer_1" xmlns="http://www.w3.org/2000/svg" xmlns:xlink="http://www.w3.org/1999/xlink" x="0px" y="0px"
	 viewBox="0 0 183.7 194.7" style="enable-background:new 0 0 183.7 194.7;" xml:space="preserve">
<style type="text/css">
	.st0{fill:#6D4545;}
	.st1{fill:#FFFFFF;}
</style>
<g>
	<path class="st0" d="M91.9,193.5c-6,0-12,0-18,0c-2.3,0-3.9-1.6-3.9-3.8c0-3.7,0-7.4,0-11.1c0-0.4-0.1-0.6-0.5-0.7
		c-13.4-3.5-25.4-9.7-35.9-18.7c-13.5-11.7-22.9-26.1-28-43.3c-3-10.2-4.1-20.6-3.3-31.2c1.7-22.2,10.4-41.3,26-57.1
		C41.9,14,58.2,5.5,77.1,2.4c23.7-3.8,45.7,0.9,65.5,14.6c19.6,13.5,31.9,32.1,37,55.4c2.2,10.1,2.5,20.3,1.1,30.5
		c-1.9,13.6-6.7,26.1-14.3,37.6c-4.1,6.1-8.9,11.7-14.3,16.7c-11,10-23.6,16.9-38,20.6c-0.4,0.1-0.5,0.3-0.5,0.7c0,3.7,0,7.3,0,11
		c0,2.5-1.5,4-4,4C103.7,193.5,97.8,193.5,91.9,193.5z M70,141.3c-0.5-0.1-0.9-0.2-1.4-0.3c-10.4-2.2-17.9-11.5-17.9-22.1
		c0-11.1,0-22.2,0-33.3c0-1.4,0.1-2.8,0.4-4.1C53.3,70.6,62.5,63,73.6,63c12.2,0,24.4,0,36.6,0c1,0,2.1,0.1,3.1,0.2
		c11,1.4,19.6,10.8,19.7,21.9c0.1,11.4,0,22.8,0,34.2c0,0.8-0.1,1.6-0.2,2.3c-1.2,9.9-8.6,17.8-18.5,19.6c-0.5,0.1-0.6,0.3-0.6,0.7
		c0,9.3,0,18.5,0,27.8c0,0.2,0,0.4,0,0.6c0.2,0,0.3-0.1,0.4-0.1c11.4-3.2,21.7-8.7,30.7-16.4c0.2-0.1,0.3-0.4,0.3-0.7
		c0-10.9,0-21.9,0-32.8c0-0.3-0.1-0.5-0.4-0.6c-2-0.8-3-2.9-2.1-4.9c0.9-2.2,1.9-4.4,3-6.5c0.6-1.3,1.8-2,3.3-2c1.5,0,2.6,0.7,3.2,2
		c1,2.1,2,4.3,3,6.5c0.8,1.9-0.1,4.1-2,4.8c-0.4,0.2-0.5,0.4-0.5,0.8c0,8.4,0,16.8,0,25.2c0,0.2,0,0.4,0,0.6c0,0,0.1,0,0.1,0
		c7.7-8.5,13.5-18.2,17.1-29.1c5.8-17.3,5.9-34.7,0.2-52c-11.1-33.9-43.8-58-81.6-56.5C52.2,10.1,21.3,35.4,12.2,70
		c-3.5,13.5-3.6,27-0.3,40.5c3.4,13.5,9.8,25.4,19.1,35.7c0,0,0.1,0,0.1-0.1c0-0.1,0-0.2,0-0.4c0-8.5,0-17,0-25.5
		c0-0.4-0.1-0.5-0.5-0.7c-1.9-0.7-2.9-2.9-2.1-4.8c1-2.2,2-4.4,3-6.6c0.6-1.3,1.8-1.9,3.3-1.9c1.5,0,2.6,0.7,3.2,2
		c1.1,2.2,2.1,4.4,3,6.6c0.8,1.9-0.2,4.1-2.1,4.8c-0.4,0.1-0.5,0.3-0.5,0.7c0,10.9,0,21.8,0,32.7c0,0.3,0.2,0.6,0.4,0.8
		c9,7.6,19.1,13,30.3,16.2c0.2,0.1,0.5,0.1,0.8,0.2C70,160.6,70,150.9,70,141.3z M106.3,186.1c0-0.3,0-0.5,0-0.7c0-4.1,0-8.2,0-12.4
		c0-12.4,0-24.7,0-37.1c0-14.1,0-28.3,0-42.4c0-0.3,0-0.7,0-1c0.1-2.7,2.9-4.4,5.4-3.2c1.4,0.7,2.1,1.9,2.1,3.5
		c0,13.4,0,26.7,0,40.1c0,0.2,0,0.4,0,0.7c0.3-0.1,0.6-0.1,0.8-0.2c6.7-2,11.1-7.9,11.1-14.8c0-10.9,0-21.9,0-32.8
		c0-0.7,0-1.4-0.1-2.2c-1.1-7.8-7.5-13.3-15.4-13.3c-12.1,0-24.3,0-36.4,0c-1.1,0-2.3,0.1-3.4,0.4c-7.2,1.6-12.1,7.7-12.1,15.1
		c0,11,0,22,0,32.9c0,5.7,2.5,10,7.3,13.1c1.4,0.9,2.9,1.5,4.6,1.9c0-0.3,0-0.5,0-0.6c0-13.2,0-26.4,0-39.6c0-0.3,0-0.6,0-0.9
		c0.1-2.7,3.1-4.4,5.5-3.1c1.4,0.8,2,2,2,3.6c0,30.7,0,61.5,0,92.2c0,0.3,0,0.6,0,0.9c3.6,0,7.1,0,10.7,0c0-0.2,0-0.4,0-0.6
		c0-15.7,0-31.5,0-47.2c0-0.2,0-0.4,0-0.6c0.1-2.4,2.4-4,4.7-3.4c1.7,0.5,2.7,1.9,2.7,3.7c0,15.8,0,31.6,0,47.4c0,0.2,0,0.5,0,0.7
		C99.1,186.1,102.7,186.1,106.3,186.1z"/>
	<path class="st1" d="M70,141.3c0,9.7,0,19.3,0,29c-0.3-0.1-0.5-0.1-0.8-0.2c-11.3-3.2-21.4-8.7-30.3-16.2c-0.2-0.2-0.4-0.5-0.4-0.8
		c0-10.9,0-21.8,0-32.7c0-0.4,0.1-0.5,0.5-0.7c1.9-0.7,2.9-2.9,2.1-4.8c-0.9-2.2-2-4.4-3-6.6c-0.6-1.3-1.8-2-3.2-2
		c-1.5,0-2.6,0.6-3.3,1.9c-1.1,2.2-2.1,4.4-3,6.6c-0.8,1.9,0.2,4.1,2.1,4.8c0.3,0.1,0.5,0.3,0.5,0.7c0,8.5,0,17,0,25.5
		c0,0.1,0,0.2,0,0.4c0,0-0.1,0-0.1,0.1c-9.3-10.3-15.7-22.2-19.1-35.7C8.5,97,8.6,83.5,12.2,70c9.1-34.7,40-59.9,76.3-61.4
		c37.8-1.5,70.4,22.6,81.6,56.5c5.7,17.3,5.6,34.7-0.2,52c-3.7,10.9-9.4,20.6-17.1,29.1c0,0-0.1,0-0.1,0c0-0.2,0-0.4,0-0.6
		c0-8.4,0-16.8,0-25.2c0-0.4,0.1-0.6,0.5-0.8c1.9-0.7,2.9-2.9,2-4.8c-0.9-2.2-1.9-4.4-3-6.5c-0.6-1.3-1.8-2-3.2-2
		c-1.5,0-2.6,0.7-3.3,2c-1,2.1-2,4.3-3,6.5c-0.8,2,0.1,4.1,2.1,4.9c0.3,0.1,0.4,0.3,0.4,0.6c0,10.9,0,21.9,0,32.8
		c0,0.2-0.1,0.5-0.3,0.7c-9.1,7.7-19.3,13.2-30.7,16.4c-0.1,0-0.2,0.1-0.4,0.1c0-0.2,0-0.4,0-0.6c0-9.3,0-18.5,0-27.8
		c0-0.5,0.1-0.7,0.6-0.7c9.9-1.8,17.3-9.7,18.5-19.6c0.1-0.8,0.1-1.6,0.2-2.3c0-11.4,0.1-22.8,0-34.2c-0.1-11-8.7-20.5-19.7-21.9
		c-1-0.1-2.1-0.2-3.1-0.2c-12.2,0-24.4,0-36.6,0c-11,0-20.3,7.6-22.4,18.5c-0.3,1.4-0.4,2.8-0.4,4.1c0,11.1,0,22.2,0,33.3
		c0,10.6,7.5,19.9,17.9,22.1C69.1,141.1,69.5,141.2,70,141.3z M115.5,35.6c0-13.1-10.6-23.7-23.7-23.7c-13.1,0-23.7,10.7-23.7,23.7
		c0,13.1,10.7,23.7,23.7,23.7C104.9,59.3,115.5,48.7,115.5,35.6z M36.8,70.8c0,3.5,0,7,0,10.5c0,2.3,2.1,4,4.4,3.6
		c1.9-0.4,3-1.9,3-3.9c0-6.9,0-13.8,0-20.8c0-0.4,0.1-0.6,0.5-0.7c2-0.8,2.9-2.9,2.1-4.9c-0.9-2.2-1.9-4.3-2.9-6.4
		c-0.6-1.3-1.8-2-3.3-2c-1.5,0-2.6,0.7-3.3,2c-1.1,2.2-2.1,4.4-3,6.6c-0.8,1.9,0.2,4.1,2.1,4.8c0.4,0.1,0.5,0.3,0.5,0.7
		C36.8,63.8,36.8,67.3,36.8,70.8z M143.1,85c2.1,0,3.7-1.6,3.7-3.7c0-7,0-14,0-21c0-0.4,0.1-0.6,0.5-0.8c2-0.7,2.9-2.9,2.1-4.8
		c-0.9-2.2-1.9-4.3-3-6.5c-0.6-1.3-1.8-2-3.3-2c-1.5,0-2.6,0.6-3.3,1.9c-1.1,2.2-2.1,4.4-3,6.6c-0.8,1.9,0.2,4,2,4.7
		c0.5,0.2,0.6,0.4,0.6,0.8c0,6.8,0,13.7,0,20.5c0,0.3,0,0.5,0,0.8C139.6,83.5,141.2,85,143.1,85z M18.3,92c0,1.6,0,3.2,0,4.8
		c0,0,0,0,0,0.1c0,1,0.3,1.8,0.9,2.6c1,1.2,2.6,1.6,4.1,1c1.5-0.5,2.4-1.9,2.4-3.5c0-3.3,0-6.6,0-9.9c0-0.3,0-0.5,0.4-0.7
		c2.1-0.8,3-3,2.1-5.1c-0.9-2.1-1.9-4.1-2.8-6.2C24.7,73.7,23.6,73,22,73c-1.6,0-2.7,0.7-3.4,2.1c-1,2.1-1.9,4.2-2.9,6.3
		c-0.9,2,0.1,4.2,2.1,5c0.3,0.1,0.4,0.3,0.4,0.6C18.3,88.6,18.3,90.3,18.3,92z M158,92c0,1.6,0,3.3,0,4.9c0,1.2,0.5,2.3,1.5,3
		c1.2,0.9,2.5,1,3.8,0.3c1.4-0.7,2.1-1.8,2.1-3.4c0-3.3,0-6.6,0-9.9c0-0.3,0-0.5,0.4-0.7c2.1-0.8,3-3,2.1-5
		c-0.9-2.1-1.9-4.2-2.8-6.2c-0.7-1.4-1.8-2.1-3.3-2.1c-1.6,0-2.7,0.7-3.4,2.1c-1,2.1-1.9,4.1-2.8,6.2c-0.9,2,0,4.2,2.1,5
		c0.3,0.1,0.4,0.3,0.4,0.6C158,88.6,158,90.3,158,92z"/>
	<path class="st1" d="M106.3,186.1c-3.6,0-7.1,0-10.7,0c0-0.3,0-0.5,0-0.7c0-15.8,0-31.6,0-47.4c0-1.8-1-3.2-2.7-3.7
		c-2.3-0.6-4.6,1-4.7,3.4c0,0.2,0,0.4,0,0.6c0,15.7,0,31.5,0,47.2c0,0.2,0,0.4,0,0.6c-3.6,0-7.1,0-10.7,0c0-0.3,0-0.6,0-0.9
		c0-30.7,0-61.5,0-92.2c0-1.6-0.6-2.8-2-3.6c-2.4-1.3-5.3,0.4-5.5,3.1c0,0.3,0,0.6,0,0.9c0,13.2,0,26.4,0,39.6c0,0.2,0,0.4,0,0.6
		c-1.7-0.4-3.2-1-4.6-1.9c-4.7-3.1-7.3-7.4-7.3-13.1c-0.1-11,0-22,0-32.9c0-7.4,4.9-13.5,12.1-15.1c1.1-0.2,2.3-0.4,3.4-0.4
		c12.1,0,24.3,0,36.4,0c7.9,0,14.3,5.5,15.4,13.3c0.1,0.7,0.1,1.4,0.1,2.2c0,10.9,0,21.9,0,32.8c0,7-4.4,12.8-11.1,14.8
		c-0.2,0.1-0.5,0.1-0.8,0.2c0-0.3,0-0.5,0-0.7c0-13.4,0-26.7,0-40.1c0-1.6-0.6-2.8-2.1-3.5c-2.4-1.2-5.2,0.4-5.4,3.2
		c0,0.3,0,0.7,0,1c0,14.1,0,28.3,0,42.4c0,12.4,0,24.7,0,37.1c0,4.1,0,8.2,0,12.4C106.3,185.6,106.3,185.8,106.3,186.1z"/>
	<path class="st0" d="M115.5,35.6c0,13.1-10.6,23.7-23.7,23.7c-13.1,0-23.7-10.6-23.7-23.7c0-13.1,10.7-23.8,23.7-23.7
		C104.9,11.9,115.5,22.6,115.5,35.6z M91.8,51.9c8.9,0,16.3-7.3,16.3-16.3c0.1-8.9-7.3-16.3-16.3-16.3c-9,0-16.3,7.2-16.3,16.2
		C75.5,44.5,82.8,51.9,91.8,51.9z"/>
	<path class="st0" d="M36.8,70.8c0-3.5,0-7,0-10.6c0-0.4-0.1-0.6-0.5-0.7c-1.9-0.7-2.9-2.9-2.1-4.8c0.9-2.2,1.9-4.4,3-6.6
		c0.6-1.3,1.8-2,3.3-2c1.5,0,2.6,0.7,3.3,2c1,2.1,2,4.3,2.9,6.4c0.9,2-0.1,4.1-2.1,4.9c-0.4,0.2-0.5,0.4-0.5,0.7
		c0,6.9,0,13.8,0,20.8c0,2.1-1.2,3.5-3,3.9c-2.3,0.4-4.4-1.3-4.4-3.6C36.8,77.8,36.8,74.3,36.8,70.8z"/>
	<path class="st0" d="M143.1,85c-1.9,0-3.5-1.5-3.7-3.3c0-0.3,0-0.5,0-0.8c0-6.8,0-13.7,0-20.5c0-0.4-0.1-0.7-0.6-0.8
		c-1.9-0.7-2.8-2.9-2-4.7c0.9-2.2,2-4.4,3-6.6c0.6-1.3,1.8-2,3.3-1.9c1.5,0,2.6,0.7,3.3,2c1,2.1,2,4.3,3,6.5
		c0.8,1.9-0.1,4.1-2.1,4.8c-0.4,0.2-0.5,0.4-0.5,0.8c0,7,0,14,0,21C146.8,83.4,145.2,85,143.1,85z"/>
	<path class="st0" d="M18.3,92c0-1.7,0-3.4,0-5.1c0-0.3-0.1-0.5-0.4-0.6c-2-0.8-3-3-2.1-5c0.9-2.1,1.9-4.2,2.9-6.3
		c0.7-1.4,1.8-2.1,3.4-2.1c1.5,0,2.7,0.8,3.3,2.1c1,2,1.9,4.1,2.8,6.2c0.9,2.1,0,4.3-2.1,5.1c-0.4,0.1-0.4,0.3-0.4,0.7
		c0,3.3,0,6.6,0,9.9c0,1.6-1,3-2.4,3.5c-1.4,0.5-3,0.1-4.1-1c-0.6-0.7-0.9-1.6-0.9-2.6c0,0,0,0,0-0.1C18.3,95.2,18.3,93.6,18.3,92z"
		/>
	<path class="st0" d="M158,92c0-1.7,0-3.4,0-5.1c0-0.3-0.1-0.5-0.4-0.6c-2.1-0.8-3-3-2.1-5c0.9-2.1,1.9-4.2,2.8-6.2
		c0.7-1.4,1.8-2.1,3.4-2.1c1.5,0,2.7,0.7,3.3,2.1c1,2.1,1.9,4.1,2.8,6.2c0.9,2,0,4.2-2.1,5c-0.4,0.1-0.4,0.3-0.4,0.7
		c0,3.3,0,6.6,0,9.9c0,1.5-0.7,2.7-2.1,3.4c-1.3,0.6-2.6,0.5-3.8-0.3c-1-0.7-1.5-1.8-1.5-3C158,95.2,158,93.6,158,92z"/>
	<path class="st1" d="M91.8,51.9c-9,0-16.4-7.4-16.3-16.4c0.1-9,7.4-16.3,16.3-16.2c9,0,16.3,7.4,16.3,16.3
		C108.1,44.7,100.8,51.9,91.8,51.9z"/>
</g>
</svg>
