<?xml version="1.0" encoding="utf-8"?>
<!-- Generator: Adobe Illustrator 27.2.0, SVG Export Plug-In . SVG Version: 6.00 Build 0)  -->
<svg version="1.1" xmlns="http://www.w3.org/2000/svg" xmlns:xlink="http://www.w3.org/1999/xlink" x="0px" y="0px"
	 viewBox="0 0 659 448" style="enable-background:new 0 0 659 448;" xml:space="preserve">
<style type="text/css">
	.st0{fill:#00237D;stroke:#B79D81;stroke-width:30;stroke-miterlimit:10;}
	.st1{fill:none;stroke:#FFFFFF;stroke-width:60;stroke-miterlimit:10;}
	.st2{fill:none;stroke:#D0142C;stroke-width:30;stroke-miterlimit:10;}
	.st3{fill:#D0142C;stroke:#FFFFFF;stroke-width:30;stroke-miterlimit:10;}
	.st4{fill:none;stroke:#B79D81;stroke-width:30;stroke-miterlimit:10;}
</style>
<g id="Layer_2">
</g>
<g id="Layer_1">
	<g>
		<path class="st0" d="M602.8,413H56.2c-5.6,0-10.1-4.6-10.1-10.1V44.8c0-5.6,4.6-10.1,10.1-10.1h546.7c5.6,0,10.1,4.6,10.1,10.1
			v358.1C613,408.5,608.4,413,602.8,413z"/>
		<g>
			<line class="st1" x1="60.9" y1="51" x2="304.4" y2="199.6"/>
			<line class="st2" x1="46.4" y1="36.5" x2="289.9" y2="185.1"/>
		</g>
		<g>
			<line class="st1" x1="591.9" y1="48.4" x2="367.3" y2="185.1"/>
			<line class="st2" x1="599.6" y1="43.7" x2="367.3" y2="185.1"/>
		</g>
		<g>
			<line class="st1" x1="66.4" y1="400.9" x2="289.9" y2="262.5"/>
			<line class="st2" x1="60.9" y1="404.3" x2="289.9" y2="262.5"/>
		</g>
		<g>
			<line class="st1" x1="591.9" y1="400.9" x2="347.8" y2="250.1"/>
			<line class="st2" x1="599.6" y1="406" x2="367.3" y2="262.5"/>
		</g>
		<polygon class="st3" points="613,185.1 367.3,185.1 367.3,34.7 289.9,34.7 289.9,185.1 46,185.1 46,262.5 289.9,262.5 289.9,413 
			367.3,413 367.3,262.5 613,262.5 		"/>
		<path class="st4" d="M602.8,413H56.2c-5.6,0-10.1-4.6-10.1-10.1V44.8c0-5.6,4.6-10.1,10.1-10.1h546.7c5.6,0,10.1,4.6,10.1,10.1
			v358.1C613,408.5,608.4,413,602.8,413z"/>
	</g>
</g>
</svg>
