<?xml version="1.0" encoding="UTF-8"?>
<svg id="Layer_1" data-name="Layer 1" xmlns="http://www.w3.org/2000/svg" version="1.1" viewBox="0 0 141.1 113.3">
  <defs>
    <style>
      .cls-1 {
        fill: #6e4449;
        stroke-width: 0px;
      }
    </style>
  </defs>
  <path class="cls-1" d="M109.8,63.7c-1.4,2.5-2.6,4.4-3.5,6.5-1.1,2.7-2,5.6-2.9,8.4-1.4,4.2-3.7,7.8-7.2,10.6-5.3,4.3-13.3,4.4-18.4,0-1.4-1.2-2.5-2.7-3.4-4.3-2.7-4.8-4.1-10.2-5.2-15.5-1.7-8.5-3.2-16.9-5-25.4-.8-3.8-2.4-7.2-5.1-9.9-6.2-1.2-9.4.3-11.8,5.6-1.2,2.7-2,5.7-3.2,8.4-1.4,3-2.8,6.1-4.7,8.7-2.9,3.9-7,6-12.1,5.9h-4.6c-1.2-2.3-.5-4.6-.6-7.3,1.4-.2,2.6-.6,3.9-.5,4.9.3,7.8-2.1,9.4-6.5,1.2-3.3,2.5-6.5,3.8-9.7,1.7-4,3.7-7.9,7.5-10.3,7.2-4.5,17-4.3,22,5.6,2.8,5.7,4.1,11.9,5.3,18.1,1.4,7.1,2.6,14.4,4.2,21.5.6,2.7,1.7,5.4,3.2,7.7,2.5,4,6.6,4.5,10.1,1.3,1.5-1.4,2.7-3.4,3.6-5.3,1.2-2.7,1.9-5.7,3.1-8.4,1.4-3,2.7-6.1,4.7-8.7,4.3-5.5,10.4-5.8,16.9-5.1v7.2c-3.1.5-6.3.9-10,1.4Z"/>
</svg>