<?xml version="1.0" encoding="utf-8"?>
<!-- Generator: Adobe Illustrator 27.2.0, SVG Export Plug-In . SVG Version: 6.00 Build 0)  -->
<svg version="1.1" id="Layer_1" xmlns="http://www.w3.org/2000/svg" xmlns:xlink="http://www.w3.org/1999/xlink" x="0px" y="0px"
	 viewBox="0 0 609 181" style="enable-background:new 0 0 609 181;" xml:space="preserve">
<style type="text/css">
	.st0{fill:#6E4449;}
</style>
<g>
	<g>
		<path d="M43.1,120.6h1.6l4.3,9.9h-1.8l-1-2.4h-4.6l-1,2.4h-1.8L43.1,120.6z M45.6,126.6l-1.7-3.9l-1.7,3.9H45.6z"/>
		<path d="M50.7,120.7h1.7v8.2h5.2v1.6h-6.9V120.7z"/>
		<path d="M62.8,120.6h1.6l4.3,9.9h-1.8l-1-2.4h-4.6l-1,2.4h-1.8L62.8,120.6z M65.3,126.6l-1.7-3.9l-1.7,3.9H65.3z"/>
		<path d="M69.4,125.6L69.4,125.6c0-2.8,2.1-5.1,5.1-5.1c1.8,0,2.9,0.6,3.8,1.5l-1.1,1.3c-0.8-0.7-1.6-1.2-2.7-1.2
			c-1.9,0-3.2,1.5-3.2,3.5v0c0,1.9,1.4,3.5,3.2,3.5c1.2,0,2-0.5,2.8-1.3l1.1,1.1c-1,1.1-2.1,1.7-4,1.7
			C71.5,130.7,69.4,128.4,69.4,125.6z"/>
		<path d="M79.5,129.1l1-1.2c0.9,0.8,1.9,1.3,3.1,1.3c1.1,0,1.7-0.5,1.7-1.2v0c0-0.7-0.4-1.1-2.2-1.5c-2.1-0.5-3.3-1.1-3.3-2.9v0
			c0-1.7,1.4-2.8,3.3-2.8c1.4,0,2.6,0.4,3.6,1.2l-0.9,1.3c-0.9-0.7-1.8-1-2.7-1c-1,0-1.6,0.5-1.6,1.2v0c0,0.8,0.4,1.1,2.3,1.5
			c2.1,0.5,3.2,1.2,3.2,2.9v0c0,1.8-1.4,2.9-3.5,2.9C82.1,130.6,80.7,130.1,79.5,129.1z"/>
		<path d="M88.7,125.6L88.7,125.6c0-2.8,2.1-5.1,5.1-5.1s5.1,2.3,5.1,5v0c0,2.8-2.1,5.1-5.1,5.1C90.8,130.7,88.7,128.4,88.7,125.6z
			 M97.1,125.6L97.1,125.6c0-1.9-1.4-3.5-3.3-3.5c-1.9,0-3.3,1.6-3.3,3.5v0c0,1.9,1.4,3.5,3.3,3.5C95.8,129.1,97.1,127.5,97.1,125.6
			z"/>
		<path d="M101,120.7h1.6l5.3,6.8v-6.8h1.7v9.8h-1.4l-5.4-7v7H101V120.7z"/>
		<path d="M115,126.6l-3.9-5.9h2l2.7,4.3l2.8-4.3h2l-3.9,5.9v3.9H115V126.6z"/>
		<path d="M33.3,137.5h7.3v1.6H35v2.7h4.9v1.6H35v4h-1.7V137.5z"/>
		<path d="M42.5,137.5h4.4c1.2,0,2.2,0.4,2.8,1c0.5,0.5,0.8,1.3,0.8,2.1v0c0,1.6-1,2.6-2.3,3l2.6,3.7h-2l-2.4-3.4h-2.2v3.4h-1.7
			V137.5z M46.7,142.4c1.2,0,2-0.6,2-1.6v0c0-1.1-0.8-1.6-2-1.6h-2.5v3.3H46.7z"/>
		<path d="M52.6,137.5h7.3v1.5h-5.5v2.5h4.9v1.5h-4.9v2.6h5.6v1.5h-7.3V137.5z"/>
		<path d="M62,137.5h1.7v4.9l4.7-4.9h2.1l-4.1,4.2l4.3,5.6h-2.1l-3.3-4.4l-1.5,1.6v2.8H62V137.5z"/>
		<path d="M70.9,137.5h1.9l3,7.5l2.9-7.5h1.9l-4.1,9.9h-1.5L70.9,137.5z"/>
		<path d="M82.2,137.5h7.3v1.5h-5.5v2.5h4.9v1.5h-4.9v2.6h5.6v1.5h-7.3V137.5z"/>
		<path d="M91.6,137.5h1.6l5.3,6.8v-6.8h1.7v9.8h-1.4l-5.4-7v7h-1.7V137.5z"/>
		<path d="M102.2,142.4L102.2,142.4c0-2.8,2.1-5.1,5.1-5.1c1.8,0,2.9,0.6,3.8,1.5l-1.1,1.3c-0.8-0.7-1.6-1.2-2.7-1.2
			c-1.9,0-3.2,1.5-3.2,3.5v0c0,1.9,1.4,3.5,3.2,3.5c1.2,0,2-0.5,2.8-1.3l1.1,1.1c-1,1.1-2.1,1.7-4,1.7
			C104.3,147.5,102.2,145.2,102.2,142.4z"/>
		<path d="M113.1,137.5h1.7v9.8h-1.7V137.5z"/>
		<path d="M120.9,137.4h1.6l4.3,9.9H125l-1-2.4h-4.6l-1,2.4h-1.8L120.9,137.4z M123.3,143.4l-1.7-3.9l-1.7,3.9H123.3z"/>
	</g>
	<g>
		<path d="M270.6,120.7h1.7v4.9l4.7-4.9h2.1l-4.1,4.2l4.3,5.6h-2.1l-3.3-4.4l-1.5,1.6v2.8h-1.7V120.7z"/>
		<path d="M279.6,125.6L279.6,125.6c0-2.8,2.1-5.1,5.1-5.1s5.1,2.3,5.1,5v0c0,2.8-2.1,5.1-5.1,5.1
			C281.7,130.7,279.6,128.4,279.6,125.6z M288,125.6L288,125.6c0-1.9-1.4-3.5-3.3-3.5c-1.9,0-3.3,1.6-3.3,3.5v0
			c0,1.9,1.4,3.5,3.3,3.5C286.7,129.1,288,127.5,288,125.6z M282.4,118.2h1.8v1.6h-1.8V118.2z M285.3,118.2h1.7v1.6h-1.7V118.2z"/>
		<path d="M291.1,129.2l5.8-7h-5.6v-1.5h7.8v1.3l-5.8,7h5.8v1.5h-8V129.2z"/>
		<path d="M301.2,120.7h7.3v1.5H303v2.5h4.9v1.5H303v2.6h5.6v1.5h-7.3V120.7z"/>
		<path d="M310.6,120.7h3.9c2.3,0,3.7,1.3,3.7,3.3v0c0,2.2-1.8,3.3-3.9,3.3h-1.9v3.2h-1.7V120.7z M314.3,125.8
			c1.3,0,2.1-0.7,2.1-1.8v0c0-1.1-0.8-1.8-2.1-1.8h-2v3.5H314.3z"/>
		<path d="M320,120.7h7.3v1.5h-5.5v2.5h4.9v1.5h-4.9v2.6h5.6v1.5H320V120.7z"/>
		<path d="M328.7,129.1l1-1.2c0.9,0.8,1.9,1.3,3.1,1.3c1.1,0,1.7-0.5,1.7-1.2v0c0-0.7-0.4-1.1-2.2-1.5c-2.1-0.5-3.3-1.1-3.3-2.9v0
			c0-1.7,1.4-2.8,3.3-2.8c1.4,0,2.6,0.4,3.6,1.2l-0.9,1.3c-0.9-0.7-1.8-1-2.7-1c-1,0-1.6,0.5-1.6,1.2v0c0,0.8,0.4,1.1,2.3,1.5
			c2.1,0.5,3.2,1.2,3.2,2.9v0c0,1.8-1.4,2.9-3.5,2.9C331.3,130.6,329.9,130.1,328.7,129.1z"/>
		<path d="M256.9,137.5h7.3v1.6h-5.6v2.7h4.9v1.6h-4.9v4h-1.7V137.5z"/>
		<path d="M266.1,137.5h4.4c1.2,0,2.2,0.4,2.8,1c0.5,0.5,0.8,1.3,0.8,2.1v0c0,1.6-1,2.6-2.3,3l2.6,3.7h-2l-2.4-3.4h-2.2v3.4h-1.7
			V137.5z M270.3,142.4c1.2,0,2-0.6,2-1.6v0c0-1.1-0.8-1.6-2-1.6h-2.5v3.3H270.3z"/>
		<path d="M276.2,137.5h7.3v1.5h-5.5v2.5h4.9v1.5h-4.9v2.6h5.6v1.5h-7.3V137.5z"/>
		<path d="M285.6,137.5h1.7v4.9l4.7-4.9h2.1l-4.1,4.2l4.3,5.6h-2.1l-3.3-4.4l-1.5,1.6v2.8h-1.7V137.5z"/>
		<path d="M294.4,137.5h1.9l3,7.5l2.9-7.5h1.9l-4.1,9.9h-1.5L294.4,137.5z"/>
		<path d="M305.8,137.5h7.3v1.5h-5.5v2.5h4.9v1.5h-4.9v2.6h5.6v1.5h-7.3V137.5z"/>
		<path d="M315.2,137.5h1.6l5.3,6.8v-6.8h1.7v9.8h-1.4l-5.4-7v7h-1.7V137.5z"/>
		<path d="M325.8,142.4L325.8,142.4c0-2.8,2.1-5.1,5.1-5.1c1.8,0,2.9,0.6,3.8,1.5l-1.1,1.3c-0.8-0.7-1.6-1.2-2.7-1.2
			c-1.9,0-3.2,1.5-3.2,3.5v0c0,1.9,1.4,3.5,3.2,3.5c1.2,0,2-0.5,2.8-1.3l1.1,1.1c-1,1.1-2.1,1.7-4,1.7
			C327.9,147.5,325.8,145.2,325.8,142.4z"/>
		<path d="M336.7,137.5h1.7v9.8h-1.7V137.5z"/>
		<path d="M344.5,137.4h1.6l4.3,9.9h-1.8l-1-2.4h-4.6l-1,2.4h-1.8L344.5,137.4z M346.9,143.4l-1.7-3.9l-1.7,3.9H346.9z"/>
	</g>
	<g>
		<path d="M503.8,120.7h1.8l3,4.6l3-4.6h1.8v9.8h-1.7v-7l-3.1,4.6h-0.1l-3.1-4.6v7h-1.7V120.7z"/>
		<path d="M519.4,120.6h1.6l4.3,9.9h-1.8l-1-2.4h-4.6l-1,2.4h-1.8L519.4,120.6z M521.9,126.6l-1.7-3.9l-1.7,3.9H521.9z"/>
		<path d="M526,125.6L526,125.6c0-2.8,2.1-5.1,5.1-5.1c1.7,0,2.8,0.5,3.8,1.3l-1.1,1.3c-0.8-0.6-1.5-1.1-2.7-1.1
			c-1.8,0-3.2,1.6-3.2,3.5v0c0,2,1.3,3.5,3.3,3.5c0.9,0,1.8-0.3,2.4-0.7v-1.8H531V125h4.2v4.1c-1,0.8-2.4,1.5-4.1,1.5
			C528,130.7,526,128.5,526,125.6z"/>
		<path d="M540.8,120.6h1.6l4.3,9.9h-1.8l-1-2.4h-4.6l-1,2.4h-1.8L540.8,120.6z M543.3,126.6l-1.7-3.9l-1.7,3.9H543.3z"/>
		<path d="M547.6,129.1l1-1.2c0.9,0.8,1.9,1.3,3.1,1.3c1.1,0,1.7-0.5,1.7-1.2v0c0-0.7-0.4-1.1-2.2-1.5c-2.1-0.5-3.3-1.1-3.3-2.9v0
			c0-1.7,1.4-2.8,3.3-2.8c1.4,0,2.6,0.4,3.6,1.2l-0.9,1.3c-0.9-0.7-1.8-1-2.7-1c-1,0-1.6,0.5-1.6,1.2v0c0,0.8,0.4,1.1,2.3,1.5
			c2.1,0.5,3.2,1.2,3.2,2.9v0c0,1.8-1.4,2.9-3.5,2.9C550.2,130.6,548.8,130.1,547.6,129.1z"/>
		<path d="M482.9,137.5h7.3v1.6h-5.6v2.7h4.9v1.6h-4.9v4h-1.7V137.5z"/>
		<path d="M492.1,137.5h4.4c1.2,0,2.2,0.4,2.8,1c0.5,0.5,0.8,1.3,0.8,2.1v0c0,1.6-1,2.6-2.3,3l2.6,3.7h-2l-2.4-3.4h-2.2v3.4h-1.7
			V137.5z M496.3,142.4c1.2,0,2-0.6,2-1.6v0c0-1.1-0.8-1.6-2-1.6h-2.5v3.3H496.3z"/>
		<path d="M502.2,137.5h7.3v1.5h-5.5v2.5h4.9v1.5h-4.9v2.6h5.6v1.5h-7.3V137.5z"/>
		<path d="M511.6,137.5h1.7v4.9l4.7-4.9h2.1l-4.1,4.2l4.3,5.6h-2.1l-3.3-4.4l-1.5,1.6v2.8h-1.7V137.5z"/>
		<path d="M520.5,137.5h1.9l3,7.5l2.9-7.5h1.9l-4.1,9.9h-1.5L520.5,137.5z"/>
		<path d="M531.8,137.5h7.3v1.5h-5.5v2.5h4.9v1.5h-4.9v2.6h5.6v1.5h-7.3V137.5z"/>
		<path d="M541.2,137.5h1.6l5.3,6.8v-6.8h1.7v9.8h-1.4l-5.4-7v7h-1.7V137.5z"/>
		<path d="M551.8,142.4L551.8,142.4c0-2.8,2.1-5.1,5.1-5.1c1.8,0,2.9,0.6,3.8,1.5l-1.1,1.3c-0.8-0.7-1.6-1.2-2.7-1.2
			c-1.9,0-3.2,1.5-3.2,3.5v0c0,1.9,1.4,3.5,3.2,3.5c1.2,0,2-0.5,2.8-1.3l1.1,1.1c-1,1.1-2.1,1.7-4,1.7
			C554,147.5,551.8,145.2,551.8,142.4z"/>
		<path d="M562.7,137.5h1.7v9.8h-1.7V137.5z"/>
		<path d="M570.5,137.4h1.6l4.3,9.9h-1.8l-1-2.4H569l-1,2.4h-1.8L570.5,137.4z M573,143.4l-1.7-3.9l-1.7,3.9H573z"/>
	</g>
	<path class="st0" d="M537.3,38.8c-2.1,2.7-2.1,5.6-2.4,8.3c-0.9,7.7-1.4,15.5-2.2,23.3c-0.6,6.3-1,12.6-3,18.6
		c-0.6,1.9-1.5,3.8-2.7,5.2c-3.1,3.6-7.9,3.3-10.6-0.6c-1-1.5-1.8-3.2-2.3-4.9c-0.8-2.9-1.6-5.8-1.9-8.7c-0.6-5.3-0.8-10.6-1.3-15.9
		c-0.6-7.3-1.3-14.5-2.1-22.9c-2.3,5.4-2.2,10-2.8,14.5c-1.3,10-1.7,20.2-4,30.1c-0.5,2.2-1.2,4.5-2.3,6.6c-1.3,2.6-3.6,4.5-6.7,4.4
		c-3.1-0.1-5.6-1.8-6.5-4.7c-1.1-3.6-1.9-7.4-2.3-11.1c-0.4-4.3-0.2-8.6-0.3-13c-1.3-0.5-2.3-1-3.5-1.4c0-2.1,0-4.2,0-6.4
		c2.9-1.9,5.5-0.5,8.1,0.1c3.2,3.2,3,7.2,3.4,10.9c0.4,3.8,0.2,7.7,0.3,11.5c0.1,1.4,0.4,2.8,0.7,4.2c0.3,0,0.7,0,1,0
		c0.7-3.1,1.6-6.2,2-9.3c0.9-6.7,1.5-13.5,2.2-20.3c0.6-6.6,1.3-13.2,3.2-19.6c0.5-1.7,1.3-3.4,2.4-4.9c2.7-3.8,7.3-3.7,10,0.1
		c2.4,3.4,2.9,7.4,3.3,11.4c0.9,8.6,1.4,17.2,2.2,25.8c0.5,5,1.3,9.9,2,14.8c0.1,0.7,0.7,1.3,1.7,3.1c0.8-6.9,1.6-12.6,2.2-18.4
		c1-8.9,1.9-17.8,3-26.7c0.3-2.3,1.1-4.5,1.9-6.7c1.6-4.2,4.1-6.1,7.6-6.1c3.4,0,5.9,2.1,7.4,6.3c2,5.4,2.5,11,2.9,16.6
		c0.6,7.3,0.8,14.6,1.3,21.9c0.2,3.3,0.7,6.6,1.1,9.9c0,0.4,0.5,0.7,1.1,1.7c0.6-2.2,1.3-3.8,1.5-5.5c0.8-6.6,1.6-13.2,2.2-19.8
		c0.8-7.8,1.2-15.6,3.1-23.2c0.4-1.4,1-2.8,1.6-4.2c1.1-2.5,3.1-3.8,5.9-3.7c2.8,0.1,4.7,1.4,5.9,3.9c1.7,3.5,2.2,7.3,2.4,11.1
		c0.3,4.5,0.5,8.9,0.8,13.4c1.5,0.6,2.6,1.1,3.9,1.5c0,2.3,0,4.4,0,6.8c-2.4,0-4.7,0-7.1,0c-3.6-2.1-4.3-5.6-4.6-9.4
		c-0.4-5-0.8-9.9-1.7-15c-0.4,1.4-1,2.8-1.1,4.2c-0.8,7.6-1.5,15.2-2.2,22.8c-0.6,6.3-1.2,12.6-3,18.6c-0.5,1.7-1.2,3.5-2.1,5
		c-3.2,5.1-9.3,5-11.8-0.5c-1.5-3.3-2.5-6.9-2.8-10.5c-1-9.9-1.5-19.9-2.2-29.8C539.4,47.9,538.9,43.5,537.3,38.8z"/>
	<path class="st0" d="M293.3,89c3.1-3.9,3.7-8.2,4.3-12.5c1.2-8.7,2-17.5,3.3-26.2c0.8-5.2,1.9-10.4,4.6-15.1
		c1.6-2.8,3.8-4.6,6.9-5.2c4.2-0.7,7.6,0.7,9.6,4.6c1.5,3.1,2.8,6.4,3.4,9.8c0.8,4.2,0.9,8.6,1.3,12.9c0.7,7.9,1.2,15.9,2,23.8
		c0.3,2.6,1.3,5,2,7.6c2.7-0.2,3.8-1.6,4.3-3.3c1-3.3,1.9-6.7,2.7-10c0.9-3.9,1.7-7.8,3.8-11.3c2.5-4.1,5.6-5.4,10.7-4.2
		c0,2,0,4.1,0,6.6c-1,0.3-2.2,0.6-3.5,1c-2.3,2.3-2.3,5.4-3,8.3c-0.9,3.4-1.5,6.8-2.5,10.1c-1.7,6.1-5.2,10.4-12.2,10.9
		c-4.8-0.5-7.3-3.6-8.7-8.1c-1.7-5.3-2.1-10.7-2.5-16.2c-0.5-7.1-0.7-14.3-1.3-21.4c-0.3-3.1-1.1-6.2-1.8-9.3
		c-0.4-1.7-1.1-3.1-3-3.9c-2,0.8-2.7,2.8-3.1,4.6c-1.2,5.5-2.2,11-3,16.6c-1.1,7.5-1.9,15.1-3.1,22.7c-0.4,2.6-1.3,5.1-2.2,7.6
		c-0.5,1.4-1.4,2.7-2.3,3.8c-4,4.8-9.6,4.8-13.7,0c-2.8-3.3-3.9-7.4-4.4-11.5c-1-7.4-1.5-14.8-2.3-22.3c-0.6-5.6-1.2-11.2-2-16.8
		c-0.2-1.8-0.6-3.6-2.3-4.7c-2.5,1.3-2.7,3.8-3.4,5.9c-0.9,3-1.3,6.2-2.2,9.2c-0.8,2.7-1.7,5.4-3,7.9c-2.7,5.1-6.3,6.6-12.6,5.5
		c0-2.1,0-4.2,0-6.6c1.5-0.4,3.1-0.9,5.2-1.5c0.7-1.6,1.7-3.5,2.3-5.5c0.9-3,1.3-6.2,2.3-9.2c1-3.1,2.1-6.3,3.7-9.2
		c1.9-3.6,5.3-4.9,9.3-4.6c3.6,0.3,5.8,2.7,6.7,5.8c1.3,4.3,2.3,8.6,3,13.1c0.7,5.1,0.7,10.3,1.2,15.4c0.6,5.8,1.2,11.5,2.1,17.3
		C290.4,85,290.9,85.8,293.3,89z"/>
	<path class="st0" d="M118.3,68c-1.4,2.5-2.6,4.4-3.5,6.5c-1.1,2.7-2,5.6-2.9,8.4c-1.4,4.2-3.7,7.8-7.2,10.6
		c-5.3,4.3-13.3,4.4-18.4,0c-1.4-1.2-2.5-2.7-3.4-4.3c-2.7-4.8-4.1-10.2-5.2-15.5c-1.7-8.5-3.2-16.9-5-25.4
		c-0.8-3.8-2.4-7.2-5.1-9.9c-6.2-1.2-9.4,0.3-11.8,5.6c-1.2,2.7-2,5.7-3.2,8.4c-1.4,3-2.8,6.1-4.7,8.7c-2.9,3.9-7,6-12.1,5.9
		c-1.5,0-3,0-4.6,0c-1.2-2.3-0.5-4.6-0.6-7.3c1.4-0.2,2.6-0.6,3.9-0.5c4.9,0.3,7.8-2.1,9.4-6.5c1.2-3.3,2.5-6.5,3.8-9.7
		c1.7-4,3.7-7.9,7.5-10.3c7.2-4.5,17-4.3,22,5.6c2.8,5.7,4.1,11.9,5.3,18.1c1.4,7.1,2.6,14.4,4.2,21.5c0.6,2.7,1.7,5.4,3.2,7.7
		c2.5,4,6.6,4.5,10.1,1.3c1.5-1.4,2.7-3.4,3.6-5.3c1.2-2.7,1.9-5.7,3.1-8.4c1.4-3,2.7-6.1,4.7-8.7c4.3-5.5,10.4-5.8,16.9-5.1
		c0,2.6,0,4.9,0,7.2C125.2,67.1,122,67.5,118.3,68z"/>
</g>
</svg>
