<?xml version="1.0" encoding="UTF-8"?>
<svg id="Layer_1" data-name="Layer 1" xmlns="http://www.w3.org/2000/svg" version="1.1" viewBox="0 0 141.1 113.3">
  <defs>
    <style>
      .cls-1 {
        fill: #6e4449;
        stroke-width: 0px;
      }
    </style>
  </defs>
  <path class="cls-1" d="M59.3,82.4c3.1-3.9,3.7-8.2,4.3-12.5,1.2-8.7,2-17.5,3.3-26.2.8-5.2,1.9-10.4,4.6-15.1,1.6-2.8,3.8-4.6,6.9-5.2,4.2-.7,7.6.7,9.6,4.6,1.5,3.1,2.8,6.4,3.4,9.8.8,4.2.9,8.6,1.3,12.9.7,7.9,1.2,15.9,2,23.8.3,2.6,1.3,5,2,7.6,2.7-.2,3.8-1.6,4.3-3.3,1-3.3,1.9-6.7,2.7-10,.9-3.9,1.7-7.8,3.8-11.3,2.5-4.1,5.6-5.4,10.7-4.2v6.6c-1,.3-2.2.6-3.5,1-2.3,2.3-2.3,5.4-3,8.3-.9,3.4-1.5,6.8-2.5,10.1-1.7,6.1-5.2,10.4-12.2,10.9-4.8-.5-7.3-3.6-8.7-8.1-1.7-5.3-2.1-10.7-2.5-16.2-.5-7.1-.7-14.3-1.3-21.4-.3-3.1-1.1-6.2-1.8-9.3-.4-1.7-1.1-3.1-3-3.9-2,.8-2.7,2.8-3.1,4.6-1.2,5.5-2.2,11-3,16.6-1.1,7.5-1.9,15.1-3.1,22.7-.4,2.6-1.3,5.1-2.2,7.6-.5,1.4-1.4,2.7-2.3,3.8-4,4.8-9.6,4.8-13.7,0-2.8-3.3-3.9-7.4-4.4-11.5-1-7.4-1.5-14.8-2.3-22.3-.6-5.6-1.2-11.2-2-16.8-.2-1.8-.6-3.6-2.3-4.7-2.5,1.3-2.7,3.8-3.4,5.9-.9,3-1.3,6.2-2.2,9.2-.8,2.7-1.7,5.4-3,7.9-2.7,5.1-6.3,6.6-12.6,5.5v-6.6c1.5-.4,3.1-.9,5.2-1.5.7-1.6,1.7-3.5,2.3-5.5.9-3,1.3-6.2,2.3-9.2,1-3.1,2.1-6.3,3.7-9.2,1.9-3.6,5.3-4.9,9.3-4.6,3.6.3,5.8,2.7,6.7,5.8,1.3,4.3,2.3,8.6,3,13.1.7,5.1.7,10.3,1.2,15.4.6,5.8,1.2,11.5,2.1,17.3.5,3.6,1,4.4,3.4,7.6Z"/>
</svg>