<?xml version="1.0" encoding="UTF-8"?>
<svg id="Layer_1" data-name="Layer 1" xmlns="http://www.w3.org/2000/svg" version="1.1" viewBox="0 0 183.7 194.7">
  <defs>
    <style>
      .cls-1 {
        fill: #6d4545;
        stroke-width: 0px;
      }
    </style>
  </defs>
  <path class="cls-1" d="M101.4,147.6h-18.8c-2.8,0-5-2.2-5-5v-23.6h-23.8c-2.8,0-5-2.2-5-5v-18.8c0-2.8,2.2-5,5-5h23.5v-23.5c0-2.7,2.2-5,5-5l19-.3c2.8,0,5.1,2.2,5.1,5v23.6h23.7c2.8,0,5,2.2,5,5v18.6c0,2.7-2.2,4.9-4.9,5l-23.8.7v23.2c0,2.8-2.2,5.1-5,5.1Z"/>
  <path class="cls-1" d="M111.7,30.9c-30.9-3-58.2,2.6-78.2,28.1-10.1,12.9-15.1,27.7-15.7,44-.1,3.2-.7,5.9-3.6,7.7-5.2,3.2-11.6-.7-11-7.3.7-8.6,1.6-17.4,4.1-25.5C18.6,40.8,52.9,15.8,91.6,15.5h20.1c0-2.5,0-4.8,0-7.1.3-5.2,4.2-7.6,8.6-4.9,7.8,4.8,15.5,9.7,23.1,14.9,3.9,2.6,3.9,6.7,0,9.4-7.5,5-15.1,9.8-22.7,14.5-4.7,2.9-8.6.6-8.9-4.9-.2-2.2-.1-4.4-.1-6.5Z"/>
  <path class="cls-1" d="M78.7,192.3c-2.7-.6-6.5-1.2-10.1-2.3-4.4-1.4-6.4-5.3-5.2-9.4,1.2-3.9,4.7-5.8,9.1-4.9,3.1.6,6.2,1.2,9.3,1.9,4.3.9,7,4.4,6.5,8.2-.5,4.1-4,6.8-9.6,6.5Z"/>
  <path class="cls-1" d="M177.7,127.5c-1.5,3.8-3,8.7-5.4,13.2-1.8,3.3-5.4,3.7-8.8,2.3-3.3-1.3-5.1-4.2-4.3-7.6,1-4.3,2.6-8.6,4.4-12.6,1.6-3.4,4.9-4.3,8.5-3.4,3.6.9,5.2,3.4,5.6,8.1Z"/>
  <path class="cls-1" d="M25.4,136.9c1.8,4,.7,8.8-2.9,11.3-.2.1-.4.2-.6.4-3.1,1.8-6.6.5-8.2-2.5-2.3-4.1-4.3-8.6-5.6-13.2-.9-3.1.8-5.8,3.8-7.4,3.2-1.7,6.8-1.3,8.6,1.5,1.8,3,3.3,6.3,4.9,9.9Z"/>
  <path class="cls-1" d="M118.1,173.6c4,0,7.8,2.8,8.4,6,.7,3.5-.5,6.5-3.8,7.8-4.1,1.6-8.4,2.9-12.8,3.8-3.5.7-7-2-7.9-5.4s0-6.7,3.2-8.1c4.3-1.9,9-2.9,12.9-4.1Z"/>
  <path class="cls-1" d="M155.4,45.6c.7.3,2.5.4,3.3,1.4,3.3,4.1,6.6,8.3,9.3,12.8,1.6,2.7-.5,6.8-3.6,8.4-3.4,1.7-6.6,1.1-9-1.7-2.6-3-4.9-6.3-7-9.7-3-4.9.6-11.2,7-11.2Z"/>
  <path class="cls-1" d="M31.8,159.2c2.5-2.2,6.2-2.6,9.1-.9.2.1.3.2.4.3,2.8,2.1,5.5,4.3,8.2,6.6,3.1,2.7,3.7,6.8,1.6,9.9-2,3-6.5,4.2-9.8,2.1-3.6-2.4-7-5.1-10.1-8.1-2.4-2.3-2.6-5.7-.9-8.3.4-.6.9-1.1,1.5-1.6Z"/>
  <path class="cls-1" d="M180.5,98c0,4-2.6,7.2-6.4,7.6-4.1.5-7.6-1.9-8.4-6-.7-3.6-1.2-7.2-1.5-10.8-.4-4.2,2.3-7.7,6.2-8.3,3.6-.6,7,1.8,8.1,5.8.5,1.6.7,3.2,1,4.9.4,2.2.7,4.5,1,6.8Z"/>
  <path class="cls-1" d="M150.7,152.4c6,0,10,6.1,6.9,10.5-2.9,4.1-6.9,7.6-11,10.6-2.8,2.1-6.2.9-8.5-1.7-2.3-2.4-2.9-5.8-.9-8.3,3.3-3.9,7.3-7.1,11.2-10.5.7-.4,1.9-.4,2.3-.6Z"/>
</svg>