<?xml version="1.0" encoding="utf-8"?>
<!-- Generator: Adobe Illustrator 27.2.0, SVG Export Plug-In . SVG Version: 6.00 Build 0)  -->
<svg version="1.1" id="Layer_1" xmlns="http://www.w3.org/2000/svg" xmlns:xlink="http://www.w3.org/1999/xlink" x="0px" y="0px"
	 viewBox="0 0 50 50" style="enable-background:new 0 0 50 50;" xml:space="preserve">
<style type="text/css">
	.st0{fill:#FFFFFF;}
</style>
<g>
	<path class="st0" d="M6.51,9.92c-1.88,0-3.52,1.64-3.52,3.52v25.25c0,1.88,1.64,3.52,3.52,3.52h36.99c1.88,0,3.52-1.64,3.52-3.52
		V13.44c0-1.88-1.64-3.52-3.52-3.52H6.51L6.51,9.92z M6.51,12.86h36.99c0.35,0,0.59,0.23,0.59,0.59v25.25
		c0,0.35-0.23,0.59-0.59,0.59H6.51c-0.35,0-0.59-0.24-0.59-0.59V13.44C5.92,13.09,6.15,12.86,6.51,12.86L6.51,12.86z"/>
	<path class="st0" d="M10.26,15.79c-1.53,0-2,2-0.7,2.7l14.68,8.81c0.47,0.35,1.06,0.35,1.53,0l14.68-8.81
		c1.64-0.94,0.12-3.52-1.53-2.47l-13.97,8.34l-13.86-8.34C10.85,15.79,10.5,15.79,10.26,15.79L10.26,15.79z"/>
</g>
</svg>
