<?xml version="1.0" encoding="utf-8"?>
<!-- Generator: Adobe Illustrator 27.2.0, SVG Export Plug-In . SVG Version: 6.00 Build 0)  -->
<svg version="1.1" id="Layer_1" xmlns="http://www.w3.org/2000/svg" xmlns:xlink="http://www.w3.org/1999/xlink" x="0px" y="0px"
	 viewBox="0 0 220 220" style="enable-background:new 0 0 220 220;" xml:space="preserve">
<style type="text/css">
	.st0{fill:#6D4545;}
	.st1{fill:#F3E7E7;}
	.st2{fill:#747474;}
	.st3{fill:#7F7F7F;}
	.st4{fill:#9A9A9A;}
	.st5{fill:#5C5C5C;}
	.st6{fill:#8D8D8D;}
	.st7{fill:#9B9B9B;}
	.st8{fill:#666666;}
	.st9{fill:#7B7B7B;}
	.st10{fill:#717171;}
</style>
<g>
	<path class="st0" d="M97,216.8c-18.6-2.1-35.1-9.3-49.8-20.7c-9.1-7.1-16.8-15.5-23-25.3c15.8-6.8,31.6-13.6,47.4-20.2
		c5-2.1,7.9-5.3,7.6-10.9c0-3.1-0.1-6.1-0.1-9.2c-3.6-5-6-10.5-6.3-16.8c-0.2-1.1-0.4-2.2-0.6-3.2c-0.1-1.3-0.3-2.6-0.4-3.8
		c-5.6-0.4-7.9-2.3-9.1-7.5c-1.2-5.3-2.6-10.6-3.3-16c-0.3-2.6,0-5.8,1.3-8c1-1.6,1.3-2.7,0.9-4.4c-1.5-7.4-2.6-14.7-0.8-22.2
		c0.1-0.3-0.5-0.7-0.8-1c-0.1-0.7-0.1-1.4-0.2-2.1c1.9-8.8,3.6-17.7,12.9-22.1c3.6-1.8-0.7-1.7-0.6-2.7c0.3-0.2,0.6-0.4,0.9-0.5
		c7.4-3.5,15.2-6.1,21.7-11.5c1.1-0.9,2.8-1,4.1-1.7c1.6-0.9,2,0.1,2.3,1.4c0.7-0.4,1.4-0.8,2.2-1.1c3.6-1.3,7.1-2.5,10.7-3.8
		c1.6,0.3,3.3,0.6,4.9,1c-0.6,0.4-1.2,0.8-2.9,1.9c2.1,0,3,0,4,0c1.1-0.2,2.1-0.4,3.2-0.6c1.5,0,2.9,0,4.8,0
		c-1.1,1.2-1.9,2.2-2.9,3.2c4.7-0.2,9.1-0.4,13.5-0.6c0.1,0.3,0.1,0.5,0.2,0.8c-2,0.8-4.1,1.7-6.4,2.6c3.3,0.8,5.9,1.4,8.6,2
		c-0.3,0.6-0.6,1.2-1,1.7c-0.2,0.3-0.5,0.7-0.7,1c1.6,0.4,3.3,0.5,4.6,1.3c3.5,2.1,6.7,4.6,10.1,6.9c0.7,1.3,1.4,2.6,2.2,3.9
		c-1,0.7-2,1.4-3,2.1c4.2,4,6.9,8.9,7.2,14.8c0,3.4-0.1,6.9-0.1,10.3c-1.1,6.2-2.3,12.3-3.5,18.8c3.8-0.4,4.6,2.3,4.3,5.6
		c-0.2,2.3-0.8,4.5-1.3,6.8c-0.6,2.6-1.2,5.1-1.8,7.7c-0.3,1.7-0.5,3.4-0.8,5.1c-0.9,5-4.1,7.1-8.9,7c-1.3,13.3-2.3,16.6-7.2,23.9
		c0,3.1-0.1,6.2-0.1,9.3c-0.3,5.4,2.4,8.6,7.2,10.6c14.3,6,28.6,12.1,42.8,18.3c1.6,0.7,2.9,1.9,4.4,2.9
		c-9.6,14.1-21.6,25.6-36.6,33.7c-11.1,6-22.9,10.2-35.5,11.5c-1.4,0.2-2.8,0.5-4.2,0.7c-6,0-11.9,0-17.9,0
		C99.7,217.3,98.4,217,97,216.8z"/>
	<path class="st1" d="M79.3,139.7c0.3,5.6-2.6,8.8-7.6,10.9C55.8,157.2,40,164,24.2,170.8c-8.1-13.2-13.4-27.3-15.3-42.8
		c-3-24.3,2.3-46.7,15.2-67.2c9.6-15.4,22.7-27.2,38.8-35.7c2.4-1.2,4.8-2.4,7.1-3.6c0.9,0.6,1.8,1.2,2.8,1.8
		c-9.3,4.5-11,13.3-12.9,22.1c0.1,0.7,0.1,1.4,0.2,2.1c0.3,0.4,0.9,0.8,0.8,1c-1.8,7.5-0.8,14.9,0.8,22.2c0.3,1.7,0.1,2.7-0.9,4.4
		c-1.3,2.2-1.6,5.4-1.3,8c0.7,5.4,2.1,10.7,3.3,16c1.2,5.2,3.5,7.1,9.1,7.5c0.1,1.3,0.3,2.5,0.4,3.8c0.2,1.1,0.4,2.2,0.6,3.2
		c0.3,6.3,2.6,11.8,6.3,16.8C79.2,133.6,79.2,136.6,79.3,139.7z"/>
	<path class="st1" d="M160.3,45.3c-0.3-5.9-3-10.8-7.2-14.8c0.9-0.9,3.9,1.4,3-2.1c-0.7-1.3-1.4-2.6-2.2-3.9
		c5.2,2.8,10.9,5,15.6,8.5c20.2,15.1,33.6,34.8,39.5,59.5c5.2,22,3,43.3-6,63.9c-2.3,5.2-5.1,10-7.7,15.1c-1.5-1-2.8-2.2-4.4-2.9
		c-14.3-6.2-28.5-12.3-42.8-18.3c-4.8-2-7.5-5.2-7.2-10.6c0-3.1,0.1-6.2,0.1-9.3c4.9-7.3,5.9-10.6,7.2-23.9c4.8,0.2,8-2,8.9-7
		c0.3-1.7,0.5-3.4,0.8-5.1c0.6-2.6,1.2-5.1,1.8-7.7c0.5-2.3,1.1-4.5,1.3-6.8c0.3-3.2-0.5-6-4.3-5.6c1.2-6.4,2.3-12.6,3.5-18.8
		C160.3,52.2,160.3,48.7,160.3,45.3z"/>
	<path class="st0" d="M118.9,4.3c-1.6-0.3-3.3-0.6-4.9-1c1.7-0.3,3.4-0.6,5.1-0.9C119.1,3.1,119,3.7,118.9,4.3z"/>
	<path class="st1" d="M72.8,23.3c-0.9-0.6-1.8-1.2-2.8-1.8c0.7-0.3,1.4-0.6,2.1-0.9C72.1,21.6,76.5,21.5,72.8,23.3z"/>
	<path class="st2" d="M97,216.8c1.4,0.2,2.8,0.5,4.2,0.7C99.7,217.3,98.4,217,97,216.8z"/>
	<path class="st3" d="M119.1,217.5c1.4-0.2,2.8-0.5,4.2-0.7C121.8,217,120.4,217.2,119.1,217.5z"/>
	<path class="st4" d="M123.2,5.6c-1.1,0.2-2.1,0.4-3.2,0.6C121.1,6,122.1,5.8,123.2,5.6z"/>
	<path class="st0" d="M140,15.4c0.3-0.6,0.6-1.2,1-1.7c0.2,0.5,0.5,0.9,0.7,1.4C141.2,15.2,140.6,15.3,140,15.4z"/>
	<path class="st5" d="M160.3,45.3c0,3.4-0.1,6.9-0.1,10.3C160.3,52.2,160.3,48.7,160.3,45.3z"/>
	<path class="st6" d="M79.3,139.7c0-3.1-0.1-6.1-0.1-9.2C79.2,133.6,79.2,136.6,79.3,139.7z"/>
	<path class="st7" d="M141.1,130.5c0,3.1-0.1,6.2-0.1,9.3C141,136.7,141,133.6,141.1,130.5z"/>
	<path class="st0" d="M156.2,28.5c0.9,3.5-2.2,1.2-3,2.1C154.2,29.8,155.2,29.1,156.2,28.5z"/>
	<path class="st8" d="M158,94.5c-0.3,1.7-0.5,3.4-0.8,5.1C157.5,97.9,157.7,96.2,158,94.5z"/>
	<path class="st9" d="M60.1,47.6c-0.1-0.7-0.1-1.4-0.2-2.1C60,46.1,60,46.8,60.1,47.6z"/>
	<path class="st10" d="M72.9,113.7c-0.2-1.1-0.4-2.2-0.6-3.2C72.5,111.5,72.7,112.6,72.9,113.7z"/>
</g>
</svg>
