<?xml version="1.0" encoding="utf-8"?>
<!-- Generator: Adobe Illustrator 27.2.0, SVG Export Plug-In . SVG Version: 6.00 Build 0)  -->
<svg version="1.1" id="Layer_1" xmlns="http://www.w3.org/2000/svg" xmlns:xlink="http://www.w3.org/1999/xlink" x="0px" y="0px"
	 viewBox="0 0 220 220" style="enable-background:new 0 0 220 220;" xml:space="preserve">
<style type="text/css">
	.st0{fill:#6D4545;}
	.st1{fill:#F3E7E7;}
	.st2{fill:#989898;}
	.st3{fill:#777777;}
	.st4{fill:#5C5C5C;}
	.st5{fill:#787878;}
	.st6{fill:#757575;}
	.st7{fill:#8A8A8A;}
</style>
<g>
	<path class="st0" d="M74.9,20.5c3.7-4,7.1-8.2,11.2-11.8c4.5-4.1,10-6,16.4-5.5c3,0.3,6.1-0.7,9.2-1.1c2.7,0,5.5,0,8.2,0
		c11.3,1.2,20,7.1,27.3,15.5c1.6,1.9,3.1,3.8,4.7,5.7c1.8,2.9,3.6,5.9,5.5,8.8c4.4,6.8,7.4,14.1,8.5,22.1c0.2,2.7,0.5,5.4,0.7,8.2
		c0.4,6,0.9,11.9,1.3,17.9c0.2,1.1,0.4,2.1,0.7,3.2c1.7,13.4,4.5,26.5,9.1,39.1c2.4,6.7,2.5,13.2,0.7,20c-1.1,3.8-2.2,7.6-3.1,11.5
		c-0.8,3.5-1.3,7.1-2,10.5c7.2,3.2,13.8,6.1,20.4,9.1c-16.3,23.2-38.5,37.2-66.3,42.6c-1.5,0.3-3,0.3-4.4,0.4
		c-1.4,0.2-2.8,0.5-4.2,0.7c-12,0.7-24,0.3-35.5-3c-21.6-6.3-39.7-18-53.7-36c-1-1.3-2.1-2.6-3.1-3.9c2.2-1.4,4.2-3.1,6.5-4.1
		c5.6-2.4,11.3-4.4,17.2-6.7c-1.4-4.8-2.6-9.3-4-13.7c-2.4-7.9-2.2-15.7,1.2-23.3c2-4.5,4.2-9.1,5.7-13.8c2.2-6.7,3.9-13.6,5.8-20.4
		c0.2-1.1,0.4-2.1,0.6-3.2c0-1.9,0-3.9,0-5.8c0-6.4,0-12.8,0-19.2c0.1-1.9,0.2-3.9,0.3-5.8c0.2-1.1,0.5-2.1,0.7-3.2
		c0.9-7.8,3.1-15.1,7-22C70.1,29.2,72.5,24.8,74.9,20.5z"/>
	<path class="st1" d="M60,58.6c-0.1,1.9-0.2,3.9-0.3,5.8c0,6.4,0,12.8,0,19.2c0,1.9,0,3.9,0,5.8c-0.2,1.1-0.4,2.1-0.6,3.2
		c-1.9,6.8-3.6,13.7-5.8,20.4c-1.5,4.7-3.7,9.2-5.7,13.8c-3.4,7.6-3.6,15.4-1.2,23.3c1.4,4.4,2.6,8.9,4,13.7
		c-5.9,2.3-11.6,4.3-17.2,6.7c-2.3,1-4.3,2.7-6.5,4.1c-8.9-13-14.6-27.2-17.1-42.7c-3.3-20.2-0.6-39.7,7.9-58.3
		c8.3-18.4,21-33.1,38-43.8c6.1-3.8,13.1-6.2,19.7-9.2c-2.4,4.3-4.8,8.6-7.3,12.9c-3.9,6.8-6.1,14.2-7,22
		C60.4,56.5,60.2,57.5,60,58.6z"/>
	<path class="st1" d="M193.7,173.7c-6.6-2.9-13.2-5.9-20.4-9.1c0.6-3.4,1.2-7,2-10.5c0.9-3.9,2-7.7,3.1-11.5
		c1.9-6.7,1.8-13.3-0.7-20c-4.6-12.6-7.5-25.7-9.1-39.1c-0.2-1.1-0.4-2.1-0.7-3.2c-0.4-6-0.9-11.9-1.3-17.9
		c-0.2-2.7-0.5-5.4-0.7-8.2c-1.1-8-4.1-15.3-8.5-22.1c-1.9-2.9-3.7-5.9-5.5-8.8c2.3,0.9,4.8,1.4,6.9,2.6C177.3,36.5,191.6,51,201,70
		c8.2,16.5,12.1,34.2,10.7,52.6C210.3,141.2,204.4,158.4,193.7,173.7z"/>
	<path class="st2" d="M119.9,2.2c-2.7,0-5.5,0-8.2,0C114.4,2.2,117.2,2.2,119.9,2.2z"/>
	<path class="st3" d="M118.8,217.5c1.4-0.2,2.8-0.5,4.2-0.7C121.6,217,120.2,217.2,118.8,217.5z"/>
	<path class="st3" d="M59.6,83.6c0-6.4,0-12.8,0-19.2C59.6,70.8,59.6,77.2,59.6,83.6z"/>
	<path class="st4" d="M165.9,54.4c0.2,2.7,0.5,5.4,0.7,8.2C166.4,59.8,166.2,57.1,165.9,54.4z"/>
	<path class="st5" d="M60,58.6c0.2-1.1,0.5-2.1,0.7-3.2C60.4,56.5,60.2,57.5,60,58.6z"/>
	<path class="st6" d="M167.9,80.4c0.2,1.1,0.4,2.1,0.7,3.2C168.4,82.5,168.2,81.5,167.9,80.4z"/>
	<path class="st7" d="M59,92.6c0.2-1.1,0.4-2.1,0.6-3.2C59.4,90.5,59.2,91.6,59,92.6z"/>
</g>
</svg>
