<?xml version="1.0" encoding="utf-8"?>
<!-- Generator: Adobe Illustrator 27.2.0, SVG Export Plug-In . SVG Version: 6.00 Build 0)  -->
<svg version="1.1" id="Layer_1" xmlns="http://www.w3.org/2000/svg" xmlns:xlink="http://www.w3.org/1999/xlink" x="0px" y="0px"
	 viewBox="0 0 200.89 288" style="enable-background:new 0 0 200.89 288;" xml:space="preserve">
<style type="text/css">
	.st0{fill:#FFFFFF;}
	.st1{fill:#2A253B;}
</style>
<g>
	<path class="st0" d="M48.56,27.73c-9.83,0-19.63-0.01-29.42,0c-8.61,0.01-9.75,1.13-9.75,9.86c-0.01,77.03-0.01,154.06,0,231.09
		c0,8.36,1.34,9.7,9.51,9.7c53.99,0,107.98,0,161.96,0c8.01,0,9.49-1.37,9.49-9.21c0.02-77.36,0.02-154.72,0-232.09
		c0-8.08-1.3-9.34-9.25-9.35c-9.96-0.01-19.92,0-29.91,0c-0.41-2.79-0.6-5.11-1.1-7.36c-1.33-5.99-5.86-10.06-11.98-10.08
		c-25.49-0.12-50.99-0.12-76.48,0c-6.11,0.03-10.64,4.11-11.97,10.1C49.16,22.63,48.96,24.95,48.56,27.73z"/>
	<path class="st0" d="M48.56,27.73c0.41-2.78,0.6-5.1,1.1-7.35c1.33-5.99,5.86-10.07,11.97-10.1c25.49-0.12,50.99-0.12,76.48,0
		c6.12,0.03,10.65,4.1,11.98,10.08c0.5,2.25,0.69,4.57,1.1,7.36c9.99,0,19.95-0.01,29.91,0c7.96,0.01,9.25,1.27,9.25,9.35
		c0.02,77.36,0.02,154.72,0,232.09c0,7.83-1.48,9.21-9.49,9.21c-53.99,0-107.98,0-161.96,0c-8.17,0-9.51-1.33-9.51-9.7
		c-0.01-77.03-0.01-154.06,0-231.09c0-8.73,1.14-9.85,9.75-9.86C28.93,27.72,38.73,27.73,48.56,27.73z M21.74,39.54
		c0,75.76,0,151.17,0,226.59c52.32,0,104.24,0,156.2,0c0-75.69,0-151.09,0-226.47c-9.23,0-18,0-27.1,0c0,1.8,0.1,3.3-0.02,4.77
		c-0.58,7.19-5.92,12.69-12.91,12.73c-25.33,0.11-50.66,0.09-75.99,0.01c-5.8-0.02-10.48-3.66-12.14-9.3
		c-0.77-2.63-0.95-5.44-1.42-8.33C39.6,39.54,30.98,39.54,21.74,39.54z M99.99,22.19c-11.48,0-22.97,0.11-34.44-0.07
		c-3.5-0.05-4.79,1.13-4.6,4.61c0.26,4.65,0.34,9.32,0.23,13.97c-0.08,3.45,1.26,4.61,4.72,4.6c22.8-0.12,45.6-0.12,68.39,0
		c3.36,0.02,4.36-1.23,4.29-4.37c-0.1-4.66-0.05-9.33,0.23-13.97c0.23-3.73-1.17-4.91-4.88-4.84
		C122.62,22.32,111.31,22.19,99.99,22.19z"/>
	<path class="st1" d="M21.74,39.54c9.24,0,17.87,0,26.63,0c0.47,2.9,0.65,5.7,1.42,8.33c1.66,5.64,6.34,9.28,12.14,9.3
		c25.33,0.08,50.66,0.1,75.99-0.01c6.98-0.03,12.32-5.54,12.91-12.73c0.12-1.47,0.02-2.97,0.02-4.77c9.1,0,17.87,0,27.1,0
		c0,75.37,0,150.78,0,226.47c-51.96,0-103.89,0-156.2,0C21.74,190.71,21.74,115.3,21.74,39.54z M99.37,104.38
		c20,0,39.99-0.03,59.99,0.03c3.92,0.01,6.64-1.38,6.86-5.5c0.24-4.41-2.66-6.11-6.61-6.5c-0.5-0.05-1-0.02-1.5-0.02
		c-38.83,0-77.65-0.01-116.48,0.01c-5.33,0-8.1,2.12-8.18,6c-0.08,4.09,2.34,5.97,7.92,5.97C60.71,104.4,80.04,104.39,99.37,104.38z
		 M99.63,131.41c19.83,0,39.66-0.04,59.49,0.03c4.11,0.02,7.03-1.34,7.12-5.76c0.09-4.41-2.94-5.97-6.87-6.25
		c-0.5-0.04-1-0.02-1.5-0.02c-38.66,0-77.31-0.01-115.97,0.01c-5.59,0-8.51,2.24-8.43,6.26c0.08,4.01,2.46,5.72,8.19,5.72
		C60.97,131.42,80.3,131.41,99.63,131.41z M99.61,158.42c19.83,0,39.66-0.04,59.48,0.03c4.1,0.01,7.04-1.31,7.14-5.74
		c0.1-4.4-2.92-5.98-6.86-6.27c-0.66-0.05-1.33-0.02-2-0.02c-38.49,0-76.98-0.01-115.47,0.01c-5.61,0-8.51,2.21-8.45,6.23
		c0.06,4.02,2.45,5.74,8.17,5.75C60.95,158.44,80.28,158.43,99.61,158.42z M99.77,173.45c-14,0-27.99,0-41.99,0
		c-5.83,0-11.67-0.14-17.49,0.05c-5.18,0.18-8.46,4.25-6.21,8.14c1.11,1.91,4.37,3.63,6.67,3.64c39.49,0.22,78.98,0.16,118.48,0.15
		c0.67,0,1.56,0.22,1.96-0.11c1.75-1.48,4.59-3.05,4.71-4.75c0.15-2.05-1.63-4.75-3.37-6.25c-1.25-1.07-3.79-0.84-5.76-0.85
		C137.76,173.43,118.76,173.45,99.77,173.45z M80.06,200.47c-12.64,0-25.28-0.02-37.92,0.01c-5.8,0.01-8.58,1.96-8.68,5.96
		c-0.11,4.21,2.36,6.01,8.36,6.02c11.64,0.02,23.28,0.01,34.93,0.01c14.3,0,28.61,0.05,42.91-0.03c5.13-0.03,7.76-3.28,6.38-7.63
		c-1.17-3.69-4.22-4.33-7.56-4.33C105.68,200.46,92.87,200.47,80.06,200.47z"/>
	<path class="st0" d="M99.99,22.19c11.32,0,22.63,0.13,33.95-0.07c3.71-0.07,5.11,1.11,4.88,4.84c-0.29,4.65-0.34,9.32-0.23,13.97
		c0.07,3.14-0.93,4.39-4.29,4.37c-22.8-0.12-45.6-0.12-68.39,0c-3.47,0.02-4.8-1.15-4.72-4.6c0.11-4.66,0.03-9.33-0.23-13.97
		c-0.19-3.47,1.1-4.66,4.6-4.61C77.02,22.3,88.51,22.19,99.99,22.19z"/>
	<path class="st0" d="M99.37,104.39c-19.33,0-38.66,0.01-57.99-0.01c-5.58-0.01-8.01-1.88-7.92-5.97c0.08-3.88,2.84-6,8.18-6
		c38.83-0.03,77.65-0.01,116.48-0.01c0.5,0,1-0.03,1.5,0.02c3.95,0.39,6.85,2.09,6.61,6.5c-0.22,4.12-2.94,5.52-6.86,5.5
		C139.36,104.35,119.37,104.38,99.37,104.39z"/>
	<path class="st0" d="M99.63,131.41c-19.33,0-38.66,0.01-57.99-0.01c-5.73,0-8.11-1.71-8.19-5.72c-0.08-4.02,2.84-6.25,8.43-6.26
		c38.66-0.02,77.31-0.01,115.97-0.01c0.5,0,1-0.02,1.5,0.02c3.93,0.28,6.96,1.85,6.87,6.25c-0.09,4.42-3,5.78-7.12,5.76
		C139.28,131.36,119.46,131.41,99.63,131.41z"/>
	<path class="st0" d="M99.61,158.43c-19.33,0-38.66,0.01-57.99-0.01c-5.72-0.01-8.1-1.72-8.17-5.75c-0.06-4.02,2.84-6.23,8.45-6.23
		c38.49-0.02,76.98-0.01,115.47-0.01c0.67,0,1.34-0.03,2,0.02c3.93,0.29,6.96,1.87,6.86,6.27c-0.1,4.43-3.05,5.76-7.14,5.74
		C139.26,158.38,119.43,158.42,99.61,158.43z"/>
	<path class="st0" d="M99.77,173.45c19,0,37.99-0.02,56.99,0.03c1.97,0.01,4.51-0.23,5.76,0.85c1.74,1.5,3.52,4.2,3.37,6.25
		c-0.12,1.7-2.96,3.27-4.71,4.75c-0.4,0.34-1.29,0.11-1.96,0.11c-39.49,0-78.98,0.06-118.48-0.15c-2.3-0.01-5.56-1.73-6.67-3.64
		c-2.25-3.89,1.02-7.97,6.21-8.14c5.83-0.2,11.66-0.05,17.49-0.05C71.77,173.45,85.77,173.45,99.77,173.45z"/>
	<path class="st0" d="M80.06,200.47c12.81,0,25.61,0,38.42,0c3.34,0,6.39,0.65,7.56,4.33c1.38,4.35-1.26,7.6-6.38,7.63
		c-14.3,0.09-28.61,0.03-42.91,0.03c-11.64,0-23.28,0.01-34.93-0.01c-6-0.01-8.47-1.81-8.36-6.02c0.1-4,2.88-5.95,8.68-5.96
		C54.78,200.45,67.42,200.47,80.06,200.47z"/>
</g>
</svg>
