<?xml version="1.0" encoding="utf-8"?>
<!-- Generator: Adobe Illustrator 27.2.0, SVG Export Plug-In . SVG Version: 6.00 Build 0)  -->
<svg version="1.1" id="Layer_1" xmlns="http://www.w3.org/2000/svg" xmlns:xlink="http://www.w3.org/1999/xlink" x="0px" y="0px"
	 viewBox="0 0 609 114.7" style="enable-background:new 0 0 609 114.7;" xml:space="preserve">
<style type="text/css">
	.st0{opacity:0.3;}
	.st1{fill:#6E4449;}
	.st2{fill:#FFFFFF;}
	.st3{opacity:0.5;}
	.st4{opacity:0.9;}
</style>
<g>
	<g class="st0">
		<g>
			<path class="st1" d="M181.3,97.2H37.5c-6.4,0-11.5-5.2-11.5-11.5V56.9c0-6.4,5.2-11.5,11.5-11.5h43l2,7h-45c-2.5,0-4.5,2-4.5,4.5
				v28.8c0,2.5,2,4.5,4.5,4.5h143.8c2.5,0,4.5-2,4.5-4.5V56.9c0-2.5-2-4.5-4.5-4.5h-46l3-7h43c6.4,0,11.5,5.2,11.5,11.5v28.8
				C192.8,92.1,187.6,97.2,181.3,97.2z"/>
		</g>
		<g>
			<circle class="st1" cx="109.4" cy="38.6" r="20.6"/>
		</g>
		<polygon class="st2" points="118.1,43.6 113.2,38.6 118.1,33.6 114.5,29.9 109.5,34.9 104.5,29.9 100.9,33.6 105.9,38.6 
			100.9,43.6 104.5,47.2 109.5,42.2 114.5,47.2 		"/>
		<g>
			<path d="M78,66.9h1.6l5.3,6.8v-6.8h1.7v9.8h-1.4l-5.4-7v7H78V66.9z"/>
			<path d="M89.1,66.9h7.3v1.5h-5.5V71h4.9v1.5h-4.9v2.6h5.6v1.5h-7.3V66.9z"/>
			<path d="M98,71.8L98,71.8c0-2.8,2.1-5.1,5.1-5.1c1.7,0,2.8,0.5,3.8,1.3l-1.1,1.3c-0.8-0.6-1.5-1.1-2.7-1.1
				c-1.8,0-3.2,1.6-3.2,3.5v0c0,2,1.3,3.5,3.3,3.5c0.9,0,1.8-0.3,2.4-0.7v-1.8H103v-1.5h4.2v4.1c-1,0.8-2.4,1.5-4.1,1.5
				C100.1,76.8,98,74.7,98,71.8z"/>
			<path d="M112.9,66.8h1.6l4.3,9.9H117l-1-2.4h-4.6l-1,2.4h-1.8L112.9,66.8z M115.4,72.8l-1.7-3.9l-1.7,3.9H115.4z"/>
			<path d="M121.7,68.5h-3.1v-1.6h8v1.6h-3.1v8.2h-1.7V68.5z"/>
			<path d="M128.4,66.9h1.7v9.8h-1.7V66.9z M130.2,64l1.5,0.7l-1.8,1.4h-1.3L130.2,64z"/>
			<path d="M131.9,66.9h1.9l3,7.5l2.9-7.5h1.9l-4.1,9.9H136L131.9,66.9z"/>
		</g>
	</g>
	<g class="st3">
		<g>
			<path class="st1" d="M378.8,97.2H235c-6.4,0-11.5-5.2-11.5-11.5V56.9c0-6.4,5.2-11.5,11.5-11.5h43l2,7h-45c-2.5,0-4.5,2-4.5,4.5
				v28.8c0,2.5,2,4.5,4.5,4.5h143.8c2.5,0,4.5-2,4.5-4.5V56.9c0-2.5-2-4.5-4.5-4.5h-45l2-7h43c6.4,0,11.5,5.2,11.5,11.5v28.8
				C390.3,92.1,385.1,97.2,378.8,97.2z"/>
		</g>
		<g>
			<circle class="st1" cx="306.9" cy="38.6" r="20.6"/>
		</g>
		<rect x="297.2" y="36" class="st2" width="19.3" height="5.2"/>
		<g>
			<path d="M268.5,75.3l1-1.2c0.9,0.8,1.9,1.3,3.1,1.3c1.1,0,1.7-0.5,1.7-1.2v0c0-0.7-0.4-1.1-2.2-1.5c-2.1-0.5-3.3-1.1-3.3-2.9v0
				c0-1.7,1.4-2.8,3.3-2.8c1.4,0,2.6,0.4,3.6,1.2l-0.9,1.3c-0.9-0.7-1.8-1-2.7-1c-1,0-1.6,0.5-1.6,1.2v0c0,0.8,0.4,1.1,2.3,1.5
				c2.1,0.5,3.2,1.2,3.2,2.9v0c0,1.8-1.4,2.9-3.5,2.9C271.1,76.8,269.7,76.3,268.5,75.3z"/>
			<path d="M278.2,66.9h7.3v1.5h-5.5V71h4.9v1.5h-4.9v2.6h5.6v1.5h-7.3V66.9z"/>
			<path d="M287.5,66.9h1.8l3,4.6l3-4.6h1.8v9.8h-1.7v-7l-3.1,4.6h-0.1l-3.1-4.6v7h-1.7V66.9z"/>
			<path d="M299.7,66.9h1.7v8.2h5.2v1.6h-6.9V66.9z"/>
			<path d="M308.4,66.9h7.3v1.5h-5.5V71h4.9v1.5h-4.9v2.6h5.6v1.5h-7.3V66.9z"/>
			<path d="M317.3,71.8L317.3,71.8c0-2.8,2.1-5.1,5.1-5.1c1.7,0,2.8,0.5,3.8,1.3l-1.1,1.3c-0.8-0.6-1.5-1.1-2.7-1.1
				c-1.8,0-3.2,1.6-3.2,3.5v0c0,2,1.3,3.5,3.3,3.5c0.9,0,1.8-0.3,2.4-0.7v-1.8h-2.5v-1.5h4.2v4.1c-1,0.8-2.4,1.5-4.1,1.5
				C319.3,76.8,317.3,74.7,317.3,71.8z"/>
			<path d="M328.7,66.9h7.3v1.5h-5.5V71h4.9v1.5h-4.9v2.6h5.6v1.5h-7.3V66.9z"/>
			<path d="M337.4,75.3l1-1.2c0.9,0.8,1.9,1.3,3.1,1.3c1.1,0,1.7-0.5,1.7-1.2v0c0-0.7-0.4-1.1-2.2-1.5c-2.1-0.5-3.3-1.1-3.3-2.9v0
				c0-1.7,1.4-2.8,3.3-2.8c1.4,0,2.6,0.4,3.6,1.2l-0.9,1.3c-0.9-0.7-1.8-1-2.7-1c-1,0-1.6,0.5-1.6,1.2v0c0,0.8,0.4,1.1,2.3,1.5
				c2.1,0.5,3.2,1.2,3.2,2.9v0c0,1.8-1.4,2.9-3.5,2.9C340,76.8,338.6,76.3,337.4,75.3z"/>
		</g>
	</g>
	<g class="st4">
		<g>
			<path class="st1" d="M571.5,97.2H427.7c-6.4,0-11.5-5.2-11.5-11.5V56.9c0-6.4,5.2-11.5,11.5-11.5h43l2,7h-45
				c-2.5,0-4.5,2-4.5,4.5v28.8c0,2.5,2,4.5,4.5,4.5h143.8c2.5,0,4.5-2,4.5-4.5V56.9c0-2.5-2-4.5-4.5-4.5h-45l2-7h43
				c6.4,0,11.5,5.2,11.5,11.5v28.8C583.1,92.1,577.9,97.2,571.5,97.2z"/>
		</g>
		<g>
			<circle class="st1" cx="499.6" cy="38.6" r="20.6"/>
		</g>
		<polygon class="st2" points="508.5,29.1 495.6,42 490.7,37.1 487.6,40.2 495.6,48.2 511.6,32.2 		"/>
		<g>
			<path d="M471.4,66.9h3.9c2.3,0,3.7,1.3,3.7,3.3v0c0,2.2-1.8,3.3-3.9,3.3h-1.9v3.2h-1.7V66.9z M475.1,72c1.3,0,2.1-0.7,2.1-1.8v0
				c0-1.1-0.8-1.8-2.1-1.8h-2V72H475.1z"/>
			<path d="M480.3,71.8L480.3,71.8c0-2.8,2.1-5.1,5.1-5.1s5.1,2.3,5.1,5v0c0,2.8-2.1,5.1-5.1,5.1S480.3,74.6,480.3,71.8z
				 M488.7,71.8L488.7,71.8c0-1.9-1.4-3.5-3.3-3.5s-3.3,1.6-3.3,3.5v0c0,1.9,1.4,3.5,3.3,3.5C487.4,75.3,488.7,73.7,488.7,71.8z"/>
			<path d="M491.8,75.4l5.8-7h-5.6v-1.5h7.8v1.3l-5.8,7h5.8v1.5h-8V75.4z"/>
			<path d="M502,66.9h1.7v9.8H502V66.9z"/>
			<path d="M508.8,68.5h-3.1v-1.6h8v1.6h-3.1v8.2h-1.7V68.5z"/>
			<path d="M515.5,66.9h1.7v9.8h-1.7V66.9z M517.3,64l1.5,0.7l-1.8,1.4h-1.3L517.3,64z"/>
			<path d="M519,66.9h1.9l3,7.5l2.9-7.5h1.9l-4.1,9.9h-1.5L519,66.9z"/>
		</g>
	</g>
</g>
</svg>
