<?xml version="1.0" encoding="UTF-8"?>
<svg id="Layer_1" data-name="Layer 1" xmlns="http://www.w3.org/2000/svg" version="1.1" viewBox="0 0 227.8 114.7">
  <defs>
    <style>
      .cls-1 {
        opacity: .3;
      }

      .cls-2 {
        fill: #6e4449;
      }

      .cls-2, .cls-3 {
        stroke-width: 0px;
      }

      .cls-3 {
        fill: #fff;
      }
    </style>
  </defs>
  <g class="cls-1">
    <path class="cls-2" d="M185.8,96.9H42c-6.4,0-11.5-5.2-11.5-11.5v-28.8c0-6.4,5.2-11.5,11.5-11.5h43l2,7h-45c-2.5,0-4.5,2-4.5,4.5v28.8c0,2.5,2,4.5,4.5,4.5h143.8c2.5,0,4.5-2,4.5-4.5v-28.8c0-2.5-2-4.5-4.5-4.5h-46l3-7h43c6.4,0,11.5,5.2,11.5,11.5v28.8c0,6.4-5.2,11.5-11.5,11.5Z"/>
    <circle class="cls-2" cx="113.9" cy="38.3" r="20.6"/>
    <polygon class="cls-3" points="122.6 43.3 117.7 38.3 122.6 33.3 119 29.7 114 34.7 109 29.7 105.4 33.3 110.4 38.3 105.4 43.3 109 47 114 42 119 47 122.6 43.3"/>
  </g>
</svg>