<?xml version="1.0" encoding="utf-8"?>
<!-- Generator: Adobe Illustrator 27.2.0, SVG Export Plug-In . SVG Version: 6.00 Build 0)  -->
<svg version="1.1" id="Layer_1" xmlns="http://www.w3.org/2000/svg" xmlns:xlink="http://www.w3.org/1999/xlink" x="0px" y="0px"
	 viewBox="0 0 569 469.3" style="enable-background:new 0 0 569 469.3;" xml:space="preserve">
<style type="text/css">
	.st0{fill:#6D4545;}
</style>
<g>
	<path class="st0" d="M543,113.6v276c-0.3,1.4-0.8,2.8-1,4.2c-3.5,21.6-13.2,38.5-35,46.3c-2.6,0.9-5.3,1.7-8,2.5H86
		c-0.9-0.3-1.9-0.7-2.8-0.9c-23.9-3.5-39.7-16.8-47.6-39.5c-1.9-5.4-3.1-11.1-4.6-16.7c0-112,0-224,0-336c0-12.7,10.3-23,23-23
		h402.1c12.7,0,23,10.3,23,23v41H520C532.7,90.6,543,100.9,543,113.6z M441.7,59H68.3c-2.9,0-5.3,2.4-5.3,5.3l0,0
		c0,103.8,0,207.7,0,311.5c0,22.7,12.2,34.8,34.9,34.8c117.8,0,235.7,0,353.5,0c1.8,0,3.5,0,6.5,0C447,397.8,447,383.4,447,368.8
		c0.1-101.2,0-202.3,0-303.5c0-0.3,0-0.7,0-1C447,61.4,444.6,59,441.7,59z"/>
	<path class="st0" d="M95.4,186.8c47.9,0,95.5,0,143.4,0c0,53.1,0,106.1,0,159.4c-47.6,0-95.3,0-143.4,0
		C95.4,293.3,95.4,240.3,95.4,186.8z"/>
	<path class="st0" d="M414.8,123c0,10.6,0,20.9,0,31.4c-106.5,0-212.7,0-319.4,0c0-10.3,0-20.7,0-31.4C201.6,123,308,123,414.8,123z
		"/>
	<path class="st0" d="M271.2,218.4c0-10.5,0-20.8,0-31.4c47.8,0,95.5,0,143.5,0c0,10.4,0,20.8,0,31.4
		C367,218.4,319.4,218.4,271.2,218.4z"/>
	<path class="st0" d="M414.6,282.4c-48,0-95.5,0-143.4,0c0-10.5,0-20.7,0-31.4c47.6,0,95.3,0,143.4,0
		C414.6,261.3,414.6,271.6,414.6,282.4z"/>
	<path class="st0" d="M382.8,315c0,10.6,0,20.9,0,31.4c-37.1,0-74.1,0-111.4,0c0-10.3,0-20.7,0-31.4C308.3,315,345.3,315,382.8,315z
		"/>
</g>
</svg>
