<?xml version="1.0" encoding="utf-8"?>
<!-- Generator: Adobe Illustrator 27.2.0, SVG Export Plug-In . SVG Version: 6.00 Build 0)  -->
<svg version="1.1" id="Layer_1" xmlns="http://www.w3.org/2000/svg" xmlns:xlink="http://www.w3.org/1999/xlink" x="0px" y="0px"
	 viewBox="0 0 763.6 733.8" style="enable-background:new 0 0 763.6 733.8;" xml:space="preserve">
<style type="text/css">
	.st0{fill:url(#SVGID_1_);}
	.st1{fill:#241206;}
	.st2{opacity:0.36;}
	.st3{fill:#C59B6D;}
	.st4{opacity:0.5;}
	.st5{fill:#605C5B;}
	.st6{fill:url(#SVGID_00000180345311121108362180000016209916286101791625_);}
	.st7{fill:url(#SVGID_00000083795913960909831200000002800935838188393141_);}
	.st8{fill:url(#SVGID_00000116206270228820925360000018312716417029411233_);}
	.st9{fill:#FFFFFF;}
	.st10{fill:url(#SVGID_00000159455877955673883860000010441312678968709518_);}
	.st11{fill:url(#SVGID_00000168114503448812500190000001405280898890682555_);}
	.st12{fill:none;stroke:#605C5B;stroke-width:3.1337;stroke-miterlimit:10;}
	.st13{fill:#301F1B;}
	.st14{fill:url(#SVGID_00000013894342393701147770000012495534194854864514_);}
	.st15{fill:url(#SVGID_00000085935033489844836950000002927791562248346300_);}
	.st16{fill:url(#SVGID_00000008133888836147844240000000785071723600087960_);}
	.st17{fill:url(#XMLID_00000104666210445413018970000014603351717594574729_);}
	.st18{fill:#E4B79A;}
	.st19{fill:url(#XMLID_00000076596241140769794700000001793350259245760421_);}
	.st20{fill:url(#XMLID_00000145035040825063847240000014037338958650026385_);}
	.st21{fill:url(#SVGID_00000055675901135713644870000005954395093985185443_);}
	.st22{fill:url(#XMLID_00000010997140564082759120000014044761629460856467_);}
	.st23{fill:url(#XMLID_00000108993951014631923590000004573185208227323030_);}
	.st24{fill:url(#XMLID_00000145028003027255979450000012905962518521081262_);}
	.st25{fill:url(#XMLID_00000084517709228886048280000002282414972661317288_);}
	.st26{opacity:0.85;fill:url(#XMLID_00000013155154364787610700000012624622745291762099_);enable-background:new    ;}
	.st27{fill:url(#XMLID_00000079455826076035339460000010495704125917098164_);}
	.st28{fill:url(#XMLID_00000047028458513152828010000006715528699111015809_);}
</style>
<g id="Layer_2_00000128444665411663102170000016567725084752087685_">
	<g>
		<g>
			<g>
				
					<radialGradient id="SVGID_1_" cx="358.5" cy="406.2" r="274.9" gradientTransform="matrix(1 0 0 -1 0 736)" gradientUnits="userSpaceOnUse">
					<stop  offset="0.7407" style="stop-color:#4F2F14"/>
					<stop  offset="1" style="stop-color:#29190F"/>
				</radialGradient>
				<path class="st0" d="M358.5,604.7c-73.4,0-142.5-28.6-194.4-80.5s-80.5-121-80.5-194.4s28.6-142.5,80.5-194.4
					s121-80.5,194.4-80.5S501,83.5,552.9,135.4s80.5,121,80.5,194.4s-28.6,142.5-80.5,194.4S432,604.7,358.5,604.7z"/>
				<path class="st1" d="M358.5,67.6c35.4,0,69.7,6.9,102,20.6c31.2,13.2,59.3,32.1,83.3,56.2s43,52.1,56.2,83.3
					c13.7,32.3,20.6,66.6,20.6,102s-6.9,69.7-20.6,102c-13.2,31.2-32.1,59.3-56.2,83.3c-24.1,24.1-52.1,43-83.3,56.2
					c-32.3,13.7-66.6,20.6-102,20.6s-69.7-6.9-102-20.6c-31.2-13.2-59.3-32.1-83.3-56.2c-24.1-24.1-43-52.1-56.2-83.3
					c-13.7-32.3-20.6-66.6-20.6-102s6.9-69.7,20.6-102c13.2-31.2,32.1-59.3,56.2-83.3c24.1-24.1,52.1-43,83.3-56.2
					C288.8,74.6,323.1,67.6,358.5,67.6 M358.5,42.1c-158.9,0-287.7,128.8-287.7,287.7s128.8,287.7,287.7,287.7
					s287.7-128.8,287.7-287.7S517.4,42.1,358.5,42.1L358.5,42.1z"/>
			</g>
			<g class="st2">
				<circle class="st3" cx="358.5" cy="329.8" r="173"/>
			</g>
			<g id="XMLID_35_">
				<g class="st4">
					<path class="st5" d="M358.9,63.5c36,0,70.9,7,103.8,21c31.8,13.4,60.3,32.7,84.8,57.1s43.7,53,57.1,84.8
						c13.9,32.9,21,67.8,21,103.8s-7,70.9-21,103.8c-13.4,31.8-32.7,60.3-57.1,84.8c-24.5,24.5-53,43.7-84.8,57.1
						c-32.9,13.9-67.8,21-103.8,21s-70.9-7-103.8-21c-31.8-13.4-60.3-32.7-84.8-57.1c-24.5-24.5-43.7-53-57.1-84.8
						c-13.9-32.9-21-67.8-21-103.8s7-70.9,21-103.8c13.4-31.8,32.7-60.3,57.1-84.8s53-43.7,84.8-57.1
						C288,70.5,322.9,63.5,358.9,63.5 M358.9,60.4c-149,0-269.7,120.8-269.7,269.7S210,599.8,358.9,599.8S628.6,479,628.6,330.1
						S507.8,60.4,358.9,60.4L358.9,60.4z"/>
				</g>
				
					<linearGradient id="SVGID_00000132053420143122427480000017448737916982062999_" gradientUnits="userSpaceOnUse" x1="358.9" y1="698" x2="358.9" y2="113.6" gradientTransform="matrix(1 0 0 -1 0 736)">
					<stop  offset="0" style="stop-color:#815452"/>
					<stop  offset="0.1613" style="stop-color:#F0AA7D"/>
					<stop  offset="0.3548" style="stop-color:#825351"/>
					<stop  offset="0.6915" style="stop-color:#B3816B"/>
					<stop  offset="0.7527" style="stop-color:#FFF8AF"/>
					<stop  offset="0.8925" style="stop-color:#7F5451"/>
					<stop  offset="1" style="stop-color:#FAB17F"/>
				</linearGradient>
				<path style="fill:url(#SVGID_00000132053420143122427480000017448737916982062999_);" d="M358.9,60.4
					c149,0,269.7,120.8,269.7,269.7S507.8,599.9,358.9,599.9S89.2,479.1,89.2,330.1S209.9,60.4,358.9,60.4 M358.9,38
					c-39.4,0-77.7,7.7-113.7,23c-34.8,14.7-66,35.8-92.9,62.6s-47.9,58.1-62.6,92.9c-15.2,36-23,74.3-23,113.7s7.7,77.7,23,113.7
					c14.7,34.8,35.8,66,62.6,92.9c26.8,26.8,58.1,47.9,92.9,62.6c36,15.2,74.3,23,113.7,23s77.7-7.7,113.7-23
					c34.8-14.7,66-35.8,92.9-62.6c26.8-26.8,47.9-58.1,62.6-92.9c15.2-36,23-74.3,23-113.7s-7.7-77.7-23-113.7
					c-14.7-34.8-35.8-66-62.6-92.9S507.4,75.7,472.6,61C436.6,45.7,398.3,38,358.9,38L358.9,38z"/>
				
					<linearGradient id="SVGID_00000183220700848841120300000002531455810061387916_" gradientUnits="userSpaceOnUse" x1="503.4547" y1="656.276" x2="214.3453" y2="155.524" gradientTransform="matrix(1 0 0 -1 0 736)">
					<stop  offset="0" style="stop-color:#ECA87C"/>
					<stop  offset="0.1613" style="stop-color:#80554F"/>
					<stop  offset="0.4346" style="stop-color:#BF9177"/>
					<stop  offset="0.4681" style="stop-color:#FFF4B6"/>
					<stop  offset="0.7527" style="stop-color:#FFC67F"/>
					<stop  offset="1" style="stop-color:#7F5451"/>
				</linearGradient>
				<path style="fill:url(#SVGID_00000183220700848841120300000002531455810061387916_);" d="M358.9,60.4
					c149,0,269.7,120.8,269.7,269.7S507.8,599.9,358.9,599.9S89.2,479.1,89.2,330.1S209.9,60.4,358.9,60.4 M358.9,41.1
					c-39,0-76.9,7.6-112.5,22.7c-34.4,14.6-65.3,35.4-91.9,61.9c-26.5,26.5-47.4,57.5-61.9,91.9c-15.1,35.6-22.7,73.5-22.7,112.5
					s7.6,76.9,22.7,112.5c14.6,34.4,35.4,65.3,61.9,91.9c26.5,26.5,57.5,47.4,91.9,61.9c35.6,15.1,73.5,22.7,112.5,22.7
					s76.9-7.6,112.5-22.7c34.4-14.6,65.3-35.4,91.9-61.9c26.5-26.5,47.4-57.5,61.9-91.9c15.1-35.6,22.7-73.5,22.7-112.5
					s-7.6-76.9-22.7-112.5c-14.6-34.4-35.4-65.3-61.9-91.9c-26.5-26.5-57.5-47.4-91.9-61.9C435.8,48.7,397.9,41.1,358.9,41.1
					L358.9,41.1z"/>
				
					<linearGradient id="SVGID_00000036224205690315730410000012248486942832906637_" gradientUnits="userSpaceOnUse" x1="358.9" y1="677.1" x2="358.9" y2="134.7001" gradientTransform="matrix(1 0 0 -1 0 736)">
					<stop  offset="0" style="stop-color:#80554F"/>
					<stop  offset="0.2097" style="stop-color:#FFFFDC"/>
					<stop  offset="0.5" style="stop-color:#FFFCB5"/>
					<stop  offset="0.5612" style="stop-color:#976C5F"/>
					<stop  offset="0.7527" style="stop-color:#885753"/>
					<stop  offset="1" style="stop-color:#FFFFFF"/>
				</linearGradient>
				<path style="fill:url(#SVGID_00000036224205690315730410000012248486942832906637_);" d="M358.9,60.4
					c149,0,269.7,120.8,269.7,269.7S507.8,599.9,358.9,599.9S89.2,479.1,89.2,330.1S209.9,60.4,358.9,60.4 M358.9,58.9
					c-36.6,0-72.1,7.2-105.6,21.3c-32.3,13.7-61.3,33.2-86.2,58.1s-44.5,53.9-58.1,86.2c-14.1,33.4-21.3,69-21.3,105.6
					s7.2,72.1,21.3,105.6c13.7,32.3,33.2,61.3,58.1,86.2c24.9,24.9,53.9,44.5,86.2,58.1c33.4,14.1,69,21.3,105.6,21.3
					s72.1-7.2,105.6-21.3c32.3-13.7,61.3-33.2,86.2-58.1c24.9-24.9,44.5-53.9,58.1-86.2c14.1-33.4,21.3-69,21.3-105.6
					S623,258,608.8,224.5c-13.7-32.3-33.2-61.3-58.1-86.2c-24.9-24.9-53.9-44.5-86.2-58.1C431,66,395.5,58.9,358.9,58.9L358.9,58.9z
					"/>
			</g>
			<g>
				<path class="st9" d="M248.7,490.7c-1.4-0.8-2.7-1.2-4.1-1.4c-1.4-0.1-2.7,0.1-4.1,0.5c-1.3,0.5-2.6,1.2-3.8,2.1
					s-2.4,2.1-3.5,3.4l-9,10.9l-13.3-11l9.2-11c0.6-0.5,1.3-0.9,2.1-0.9c1-0.1,1.8,0.2,2.6,0.8c0,0,0.1,0.1,0.3,0.2
					c0.1,0.1,0.2,0.2,0.3,0.2l0.4-0.4l-3.4-2.8l0,0l-6.2-5.1l0,0l-3.3-2.7l-0.4,0.4c0,0,0.1,0.1,0.3,0.2c0.1,0.1,0.2,0.2,0.3,0.2
					c0.8,0.6,1.2,1.4,1.3,2.4s-0.2,1.8-0.8,2.5l0,0l-18.8,22.7c-0.9,1.1-1.8,2.1-2.7,3s-1.9,1.7-2.9,2.3c-1,0.6-2.1,1-3.3,1.1
					s-2.5-0.1-3.9-0.5l-0.3,0.5c1.5,1.6,3.1,2.8,4.8,3.5s3.4,1,5.2,0.9c1.7-0.1,3.4-0.6,5.1-1.6c1.6-0.9,3.1-2.2,4.4-3.8l8.5-10.2
					l13.3,11l-9,10.9l0,0c-0.7,0.7-1.5,1.1-2.4,1.2c-1,0.1-1.8-0.2-2.5-0.8c-0.1,0-0.2-0.1-0.3-0.2c-0.1-0.1-0.2-0.2-0.3-0.2
					l-0.4,0.4l3.4,2.8l0,0l6.2,5.1l0,0l3.2,2.7l0.4-0.4c0,0-0.2-0.2-0.5-0.4c-0.7-0.6-1.2-1.4-1.3-2.4s0.1-1.8,0.8-2.6l0,0
					l19.5-23.6c0.9-1.1,1.9-2.1,2.8-3.1c0.9-0.9,1.9-1.6,2.9-2.2s2.1-0.9,3.3-1s2.5,0.1,3.9,0.5l0.3-0.5
					C251.4,492.7,250.1,491.5,248.7,490.7z"/>
				<path class="st9" d="M209.8,471.8c1,0.4,1.7,0.9,2.3,1.5l0.3,0.4l0.4-0.3l-7.4-9.2l-0.4,0.3l0.3,0.4c0.3,0.3,0.4,0.8,0.5,1.3
					s-0.1,1-0.3,1.5c-0.3,0.4-0.8,0.8-1.5,1l-7.2,2.1l-8.1-10.1l3.6-6.3l0,0c0.6-1,1.3-1.5,2.1-1.5s1.5,0.4,1.9,0.9l0.3,0.4l0.4-0.3
					l-10.9-13.7l0,0l-1.9-3.7l0,0l-3.4-6.7l0,0l-2-4.1l-0.5,0.2c0.3,0.6,0.5,0.9,0.5,0.9c0.4,0.8,0.5,1.7,0.2,2.6s-0.9,1.5-1.7,1.9
					l0,0l-19.5,9.8l11.2-36.7l-0.2-0.4c-1,0.7-1.9,1.4-2.8,2c-0.9,0.6-2,1.2-3.2,1.8l-25.3,12.7c-0.9,0.4-1.7,0.4-2.6,0.1
					c-0.9-0.3-1.5-0.9-1.9-1.7l-0.4-0.9l-0.5,0.2l2,4.1l0,0l3.4,6.7l0,0l2,4.1l0.5-0.2c0,0-0.2-0.3-0.5-0.9
					c-0.4-0.9-0.5-1.7-0.2-2.6s0.8-1.5,1.7-2l0,0l19.4-9.7l-11.2,36.7l0.2,0.5c2.1-1.5,4-2.7,5.9-3.7l25.5-12.8l0,0
					c0.8-0.4,1.7-0.5,2.6-0.2s1.5,0.9,1.9,1.7c0,0,0.2,0.3,0.5,0.9l0.1-0.1l0.1,0.1c0.5,0.7,0.9,1.5,1,2.5s-0.1,2-0.6,3.2
					l-17.7,35.1l0.3,0.4c0.3-0.3,0.8-0.5,1.6-0.7c0.7-0.2,1.5-0.5,2.3-0.7s1.5-0.4,2.2-0.6c0.6-0.2,1.1-0.3,1.3-0.3l30.6-8.1
					C208,471.4,208.9,471.5,209.8,471.8z M194.4,471.4l-14.1,4l7.2-12.6L194.4,471.4z"/>
				<path class="st9" d="M139.8,406.8c2.6,0.5,5.4,0.3,8.3-0.4c2.8-0.7,5.3-1.9,7.4-3.6c2.1-1.7,3.8-3.7,5-6.1s2-5,2.2-7.9
					c0.3-2.9,0-6-0.8-9.2c-0.7-2.9-1.7-5.4-3-7.6c-0.6-1-1.2-1.9-1.8-2.7c0.3-0.2,0.6-0.4,0.8-0.6c1.9-1.4,3.5-3.2,4.8-5.2
					c1.2-2,2-4.2,2.4-6.6s0.2-4.9-0.5-7.5s-2-5.3-3.9-7.9l-0.5,0.2c1.2,2.7,1.9,5.2,1.9,7.5c0,2.4-0.5,4.5-1.5,6.5
					c-1,1.9-2.4,3.6-4.2,5s-3.9,2.4-6.3,3l-8.4,2.1c-1.6,0.5-2.7-0.2-3.1-2l-0.2-0.9l-0.5,0.1l3.8,15l0.5-0.1l-0.2-0.8
					c-0.2-0.9-0.2-1.6,0.1-2.2s0.9-1,1.6-1.1l8.1-2.1c1.7,0.2,3.3,0.9,4.7,2.3s2.3,3.2,2.9,5.4c0.5,2,0.6,4,0.2,5.9
					c-0.4,1.9-1.2,3.7-2.4,5.3c-1.2,1.6-2.7,3-4.6,4.2c-1.9,1.2-4.1,2.1-6.6,2.8c-3.4,0.9-6.6,1-9.5,0.5s-5.4-1.7-7.4-3.5
					s-3.4-4.1-4.1-6.8c-0.6-2.2-0.7-4.3-0.5-6.3s0.9-3.9,2-5.6s2.7-3.1,4.8-4.2l-0.1-0.5l-9.1,2.4c-0.3,1.2-0.5,2.6-0.5,4.3
					c0,1.7,0.1,3.5,0.3,5.4s0.6,3.9,1.1,5.8c0.8,3.3,2.1,6.1,3.7,8.6c1.6,2.5,3.5,4.5,5.8,6C134.7,405.3,137.1,406.4,139.8,406.8z"
					/>
				<path class="st9" d="M123,343.8l29.5,11.5c1,0.5,1.7,1.1,2.2,1.8c0.6,0.9,0.9,1.7,0.9,2.6v0.5h0.5l-0.5-11.8h-0.5v0.5
					c0,0.4-0.1,0.9-0.4,1.3s-0.6,0.8-1.1,1s-1.1,0.2-1.8,0l-7-2.6l-0.6-12.9l6.6-3l0,0c1.1-0.5,1.9-0.5,2.6,0.1c0.6,0.5,1,1.2,1,1.9
					v0.5h0.5l-0.8-17.5h-0.5v0.4c0,0.8-0.2,1.7-0.7,2.6c-0.5,0.8-1.3,1.6-2.4,2.2l-35,17.9v0.5c0.4,0,1,0.1,1.7,0.3s1.5,0.5,2.3,0.8
					s1.5,0.5,2.1,0.8S122.8,343.7,123,343.8z M142.5,347.8l-13.7-5l13.3-6L142.5,347.8z"/>
				<path class="st9" d="M117,312c0,0,0-0.2,0.1-0.4c0-0.2,0-0.3,0.1-0.4c0.1-0.9,0.6-1.7,1.4-2.3c0.8-0.6,1.6-0.8,2.6-0.7l30.1,4.5
					l0,0c0.9,0.2,1.7,0.7,2.3,1.4c0.6,0.8,0.8,1.6,0.6,2.6c0,0,0,0.2-0.1,0.4s0,0.3-0.1,0.4l0.5,0.1l0.7-4.4l0,0l1.2-7.8l0,0
					l0.7-4.4l-0.5-0.1c0,0,0,0.2-0.1,0.4c0,0.2,0,0.3-0.1,0.4c-0.1,0.9-0.6,1.7-1.4,2.3c-0.8,0.6-1.6,0.8-2.6,0.7l-30.1-4.5l0,0
					c-0.9-0.2-1.7-0.7-2.3-1.4c-0.6-0.8-0.8-1.6-0.6-2.6c0,0,0-0.2,0.1-0.4s0-0.3,0.1-0.4l-0.5-0.1l-0.6,4.2l0,0l-1.2,8l0,0v0.1l0,0
					l0,0l-0.6,4.2L117,312z"/>
				<path class="st9" d="M120.8,286.3c0.1-0.7,0.5-1.2,1-1.4c0.6-0.2,1.1,0,1.7,0.5l15.2,15.5c1.3-0.7,2.5-1.3,3.6-1.8
					c1-0.5,2.2-1.1,3.3-1.8c1.2-0.6,2.3-1.2,3.5-1.8c1.1-0.6,2.1-1.1,2.9-1.5c0.8-0.4,1.4-0.7,1.6-0.9c1.3-0.7,2.3-1.6,3.2-2.7
					c0.8-1.1,1.4-2.2,1.9-3.3c0.4-1.1,0.7-2.1,0.9-3.1c0.2-0.9,0.3-1.6,0.4-2l0.5-3.3l3.9-10.5l-0.5-0.2l-0.2,0.5
					c-0.2,0.4-0.4,0.8-0.8,1.1c-0.4,0.3-0.9,0.5-1.4,0.5s-1.1-0.3-1.6-0.7l-5.5-5.1l4.5-12.1l7.3-0.2l0,0c1.2,0,2,0.3,2.3,1
					c0.4,0.7,0.4,1.4,0.2,2.1l-0.2,0.5l0.5,0.2l6-16.4h0.1l2.2-3.6l0,0l4.1-6.5l4.3-6.8c2.3-3.7,3.6-7.3,4-10.8
					c0.3-3.5-0.2-6.7-1.8-9.7c-1.5-3-4-5.5-7.3-7.6c-3.4-2.1-6.7-3.2-10.1-3.3c-3.3-0.1-6.5,0.8-9.5,2.7s-5.6,4.6-7.9,8.3l-4,6.3
					l0,0l-4.3,6.9l0,0l-2.3,3.7l0.5,0.2l0.3-0.6c0.5-0.8,1.2-1.3,2.2-1.6c0.9-0.2,1.8-0.1,2.6,0.4l0,0l25.9,16.1
					c0.8,0.5,1.3,1.3,1.5,2.2s0.1,1.8-0.4,2.6l-0.4,0.6l0.2,0.1l-0.3-0.1l-0.2,0.4c-0.3,0.8-0.8,1.5-1.6,2.1s-1.8,1-3.1,1.2l-39.2,3
					l-0.2,0.5c0.4,0.1,0.9,0.5,1.4,0.9c0.6,0.5,1.2,1,1.8,1.6s1.2,1.1,1.6,1.5s0.8,0.8,1,1l22.8,22c0.7,0.8,1.1,1.7,1.3,2.5
					c0.1,0.6,0.1,1.2,0.1,1.7h-0.1c-0.2,1.1-0.7,2.1-1.3,2.9c-0.7,0.8-1.6,1.5-2.9,2.2l-20.5,10.7L124,280.6c-0.5-0.8-1-1.6-1.3-2.5
					c-0.3-1.1-0.4-2.3-0.2-3.5v-0.2l-0.5-0.1v0.2l-1.8,12.2l0.5,0.1L120.8,286.3z M151.2,209.1c0.6-1,1.1-1.8,1.6-2.6s1-1.6,1.6-2.5
					c1.4-2.2,3.2-3.8,5.4-4.7s4.6-1.1,7.3-0.6s5.5,1.6,8.5,3.5c3,1.8,5.2,3.9,6.8,6.1c1.6,2.2,2.5,4.5,2.6,6.8
					c0.2,2.3-0.5,4.6-1.9,6.9c-0.5,0.9-1,1.7-1.5,2.4s-1,1.6-1.6,2.5c-0.2,0.3-0.4,0.6-0.5,0.9l-28.7-17.9
					C150.9,209.6,151.1,209.3,151.2,209.1z M152.3,262.6l-10.7-10l14.5-0.4L152.3,262.6z"/>
				<path class="st9" d="M169.1,179.2l0.5-0.5c0.6-0.7,1.4-1.1,2.4-1.1s1.8,0.2,2.5,0.8l22.6,20.4c0.7,0.7,1,1.5,1.1,2.4
					c0,1-0.2,1.8-0.9,2.5l-0.5,0.5l0.4,0.4l2.9-3.3l0,0l5.3-5.9l0,0l10.7-11.9l0,0l0.1-0.1l-6.6-9.4l-0.4,0.4
					c0.9,1.6,1.6,3.3,1.9,4.9c0.3,1.6,0.3,3.2-0.1,4.7c-0.4,1.5-1.2,3-2.4,4.3l-4.8,5.3l-11.5-10.4l4.9-5.4l0,0c0.9-1,2-1.5,3.3-1.6
					c1.2-0.1,2.4,0.3,3.3,1.2l0.4,0.3l0.4-0.4l-3.9-3.5l0,0l-1.6-1.5l0,0l-3.8-3.5l-0.4,0.4l0.3,0.3c1,0.9,1.5,2,1.6,3.2
					c0.1,1.3-0.3,2.4-1.2,3.4l0,0l-4.9,5.4l-11.9-10.7l6.4-7.1c1.1-1,2.2-1.5,3.5-1.6c1.4-0.1,2.8,0.5,4,1.6l0.5,0.4l0.4-0.4
					l-4.7-4.2l0,0l-1.3-1.2l0,0l-1.2-1.1c-0.1,0.3-0.4,0.9-0.8,1.5c-0.4,0.7-0.9,1.4-1.4,2.1c-0.5,0.7-1,1.4-1.6,2l-5.7,6.3l0,0
					l-5.5,6.1l0,0l-2.8,3.1L169.1,179.2z"/>
				<path class="st9" d="M174.7,161.6c0.2,1.4,0.5,2.8,0.9,3.9h0.5c0.6-1.1,1.1-2.3,1.6-3.6s0.9-2.7,1.3-4c0.4-1.4,0.7-2.7,0.9-4
					c-1-0.4-1.9-0.6-2.9-0.7c-0.9-0.1-1.9,0.1-3,0.5c0,1.1,0.1,2.3,0.1,3.7C174.3,158.7,174.5,160.2,174.7,161.6z"/>
				<path class="st9" d="M258.5,150c-0.8,0.6-1.6,0.8-2.6,0.8c-0.9,0-1.8-0.4-2.6-1.1L228.5,124l-0.4,0.3l3.5,32.3l-30.4-12.5
					l-0.4,0.3l17.2,31.1l0,0c0.5,1,0.7,1.9,0.4,2.9c-0.3,0.9-0.8,1.7-1.6,2.3c-0.4,0.3-0.7,0.5-0.7,0.5l0.3,0.4l4.9-3.6l0,0l1.6-1.2
					l0,0l2.7-2l-0.3-0.4l-0.7,0.5c-0.5,0.3-1,0.4-1.7,0.3c-0.6-0.1-1.1-0.5-1.5-0.9c0-0.1-0.1-0.1-0.1-0.1l-9.9-17.1l25.5,10.7
					l0.4-0.3c-0.5-0.7-0.9-1.6-1.2-2.5s-0.5-2.2-0.7-3.6l-2.3-20.5l13.4,14.6l0,0l0.1,0.1c0.3,0.5,0.5,1,0.5,1.7
					c0,0.6-0.3,1.1-0.8,1.5l-0.7,0.5l0.3,0.4l2.7-2l0,0l5.7-4.2l0,0l4.9-3.6l-0.3-0.4L258.5,150z"/>
				<path class="st9" d="M275,143.3c-0.9,0.4-1.7,0.5-2.6,0.2s-1.6-0.9-2-1.7l0,0l-13.5-27.3c-0.4-0.9-0.4-1.8-0.1-2.7
					c0.3-0.9,0.9-1.6,1.7-2c0.4-0.2,0.6-0.3,0.6-0.3l-0.2-0.5l-3.8,1.9l0,0l-7.4,3.7l0,0l-3.8,1.9l0.2,0.5l0.6-0.3
					c0.9-0.4,1.7-0.5,2.6-0.2c0.9,0.3,1.6,0.9,2,1.7l13.5,27.3l0,0c0.4,0.9,0.4,1.8,0.1,2.7s-0.9,1.6-1.7,2l-0.6,0.3l0.2,0.5l3.9-2
					l0,0l7.1-3.5l0,0l3.9-2l-0.2-0.5C275.6,143,275.4,143.1,275,143.3z"/>
				<path class="st9" d="M315.9,129c-0.8,0.3-1.7,0.3-2.7,0c-0.9-0.2-1.9-0.8-2.8-1.7l-26.5-29.1l-0.5,0.2c0.1,0.4,0.2,1,0.1,1.7
					c0,0.8-0.1,1.6-0.1,2.4c-0.1,0.8-0.1,1.6-0.2,2.2c-0.1,0.7-0.1,1.1-0.2,1.4l-3.3,31.5c-0.2,1.1-0.6,1.9-1.2,2.6
					c-0.7,0.8-1.4,1.3-2.2,1.6l-0.5,0.2l0.2,0.5l11.2-3.6l-0.2-0.5l-0.5,0.2c-0.4,0.1-0.9,0.1-1.4,0s-0.9-0.4-1.3-0.8
					c-0.3-0.4-0.4-1-0.4-1.7l0.6-7.4l12.3-3.9l4.6,5.6l0,0c0.8,0.9,1,1.7,0.6,2.5c-0.3,0.7-0.9,1.2-1.6,1.5l-0.5,0.2l0.2,0.5
					l16.7-5.3l-0.2-0.5L315.9,129z M284.4,126l1.2-14.6l9.3,11.2L284.4,126z"/>
				<path class="st9" d="M439.8,101.3l-3.5-1.1c-0.3-0.2-0.7-0.3-1.1-0.5c-1.1-0.5-2.1-0.9-3.1-1.3s-1.9-0.7-2.6-0.9
					c-2.2-0.7-4.2-0.9-6.1-0.6c-1.8,0.3-3.4,1-4.8,2.1c-1.3,1.1-2.4,2.5-3.1,4.3c-0.8,1.9-1,3.7-0.7,5.7s1.3,3.7,2.8,5.3l7.3,8.9
					c1.2,1.3,2,2.4,2.4,3.5s0.4,2.2,0.1,3.2c-0.5,1.6-1.6,2.8-3.2,3.5c-1.6,0.8-3.6,0.8-5.9,0.1c-2.1-0.6-3.8-1.6-5-3
					s-2-2.9-2.4-4.7c-0.3-1.8-0.1-3.5,0.6-5.3l-0.5-0.1c-0.7,0.6-1.3,1.4-2,2.4c-0.6,1-1.2,2.1-1.5,3.2c-0.4,1.1-0.5,2-0.5,2.9
					c0.5,0.9,1.2,1.7,2.2,2.5s2.1,1.6,3.5,2.3s2.8,1.3,4.4,1.8c4.2,1.3,7.8,1.4,10.9,0.2c3-1.2,5.2-3.4,6.4-6.8
					c0.7-1.9,0.9-3.8,0.5-5.5s-1.2-3.3-2.6-4.7l-8-9.6c-0.9-1-1.6-2-2-3c-0.5-1-0.5-2-0.2-3c0.5-1.4,1.5-2.4,3.1-3
					c1.5-0.6,3.3-0.6,5.4,0c2.2,0.7,3.9,1.8,4.9,3.3s1.2,3.2,0.7,5l0.5,0.2l2.8-6.9l0,0L439.8,101.3z"/>
				<path class="st9" d="M480.7,142.1c1.9-3.7,2.8-7.2,2.6-10.7c-0.2-3.5-1.4-6.7-3.5-9.6s-5.1-5.4-9-7.5s-7.7-3.1-11.3-3.1
					c-3.6-0.1-6.9,0.8-9.9,2.7c-2.9,1.8-5.4,4.6-7.3,8.2c-1.9,3.7-2.8,7.2-2.6,10.7s1.3,6.6,3.5,9.6c2.1,2.9,5.1,5.4,9,7.5
					c3.9,2,7.7,3.1,11.3,3.1c3.6,0.1,6.9-0.8,9.9-2.7C476.4,148.5,478.8,145.8,480.7,142.1z M467,145.6c-2.1,1.9-4.3,3-6.7,3.4
					c-2.3,0.4-4.7,0-7-1.2s-3.9-2.9-4.9-5c-1-2.2-1.4-4.6-1-7.5c0.3-2.8,1.3-5.8,3-9.1c1.7-3.2,3.6-5.8,5.7-7.6
					c2.1-1.9,4.4-3,6.7-3.4c2.3-0.4,4.7,0,6.9,1.2c2.3,1.2,4,2.9,5,5c1,2.2,1.3,4.6,1,7.4s-1.3,5.8-3,9
					C471,141.2,469.1,143.7,467,145.6z"/>
				<path class="st9" d="M483.4,151c-1.9,2.3-3,4.8-3.4,7.3c-0.3,2.5,0.1,5.1,1.4,7.7c1.3,2.6,3.5,5.2,6.5,7.6
					c2.6,2.1,5.2,3.5,7.7,4s5.1,0.4,7.4-0.5s4.5-2.5,6.4-4.8l13.5-16.5l0,0c0.5-0.6,1.1-1,1.9-1c0.8,0,1.5,0.2,2.1,0.7l0.7,0.6
					l0.3-0.4l-3-2.5l0,0l-2.8-2.3l0,0l-3.1-2.5l-0.3,0.4l0.7,0.6c0.6,0.5,1,1.1,1.1,1.9c0.1,0.8-0.1,1.4-0.6,2.1l-13.7,16.7
					c-1.6,1.9-3.2,3.3-5.1,4.1c-1.8,0.8-3.7,1.1-5.5,0.8c-1.9-0.3-3.7-1.1-5.4-2.6c-1.7-1.4-2.8-3-3.4-4.8s-0.6-3.7-0.1-5.7
					s1.6-4,3.3-6.1l13.3-16.2c0.5-0.6,1.1-0.9,1.9-1c0.8,0,1.5,0.2,2.1,0.7l0.7,0.6l0.3-0.4l-3-2.5l0,0l-6.2-5.1l0,0l-3.1-2.5
					l-0.3,0.4l0.7,0.6c0.6,0.5,1,1.1,1.1,1.9c0.1,0.8-0.1,1.4-0.6,2.1L483.4,151z"/>
				<path class="st9" d="M506.4,186.4c-0.9-0.1-1.7-0.5-2.3-1.2c0,0-0.2-0.3-0.7-0.8l-0.4,0.3l2.9,3.6l0,0l4.8,6l0,0l2.8,3.4
					l0.4-0.3c-0.4-0.5-0.6-0.8-0.7-0.8c-0.6-0.7-0.8-1.5-0.7-2.5s0.5-1.7,1.2-2.3l0,0l16.9-13.7l-3.1,38.3l0.3,0.4
					c0.8-0.9,1.5-1.7,2.3-2.5s1.7-1.6,2.7-2.4l22-17.8l0,0c0.8-0.6,1.6-0.8,2.5-0.7s1.7,0.5,2.2,1.2l0.6,0.8l0.4-0.3l-2.8-3.4l0,0
					l-4.9-6.1l0,0l-2.8-3.5l-0.4,0.3c0,0,0.2,0.3,0.7,0.8c0.6,0.7,0.9,1.6,0.8,2.5c-0.1,0.9-0.5,1.7-1.2,2.3l0,0L533,201.7l3.1-38.2
					l-0.3-0.4c-1.7,1.9-3.3,3.5-4.9,4.8l-22.2,17.9C508.1,186.3,507.3,186.5,506.4,186.4z"/>
				<path class="st9" d="M536.9,222.3L536.9,222.3c-0.9,0.4-1.8,0.4-2.7,0.1c-0.9-0.3-1.6-0.9-2-1.7l-0.3-0.6l-0.5,0.2l1.9,3.8l0,0
					l3.7,7.4l0,0l3.4,6.7c1.9,3.9,4.3,6.9,7.1,9s5.9,3.3,9.2,3.5s6.8-0.5,10.3-2.3s6.2-4.1,8-6.9c1.8-2.8,2.7-6,2.7-9.5
					s-1-7.2-2.9-11.1l-6.1-12.2l0,0l-0.9-1.8l0,0l-1.9-3.8l-0.5,0.3l0.3,0.6c0.4,0.9,0.5,1.7,0.2,2.7c-0.3,0.9-0.9,1.6-1.7,2l0,0
					L536.9,222.3z M573.7,228.4c-0.4,2.3-1.5,4.5-3.3,6.6s-4.3,3.9-7.4,5.4c-3.1,1.6-6,2.5-8.8,2.7c-2.7,0.2-5.1-0.2-7.2-1.3
					c-2.1-1.1-3.7-2.8-4.9-5.2c-0.5-0.9-0.9-1.8-1.3-2.6s-0.8-1.7-1.3-2.6c-0.1-0.3-0.3-0.6-0.5-0.9l30.3-15.2
					c0.1,0.2,0.2,0.5,0.3,0.7c0.5,1,1,1.9,1.4,2.8c0.4,0.8,0.9,1.7,1.3,2.7C573.6,223.8,574,226.1,573.7,228.4z"/>
				<path class="st9" d="M555.6,270.5c-0.7-0.8-1.1-1.6-1.3-2.4l-0.1-0.5l-0.5,0.1l2.4,11.5l0.5-0.1l-0.1-0.5
					c-0.1-0.4,0-0.9,0.1-1.4s0.5-0.9,1-1.2c0.4-0.3,1-0.3,1.7-0.2l7.3,1.4l2.6,12.6l-6.1,4l0,0c-1,0.7-1.8,0.8-2.5,0.4
					s-1.1-1-1.3-1.7l-0.1-0.5l-0.5,0.1l3.5,17.1l0.5-0.1l-0.1-0.4c-0.2-0.8-0.1-1.7,0.3-2.7c0.3-0.9,1-1.8,2-2.6l31.8-23.2l-0.1-0.5
					c-0.4,0.1-1,0.1-1.7,0s-1.5-0.2-2.4-0.4c-0.8-0.2-1.5-0.3-2.2-0.4c-0.6-0.1-1.1-0.3-1.3-0.3l-31-6.7
					C557,271.6,556.2,271.1,555.6,270.5z M569.1,277.8l14.4,2.8l-12.1,8L569.1,277.8z"/>
				<path class="st9" d="M601.4,326.3c-0.1-4.7-1.1-8.6-2.8-11.9s-4.1-5.8-7.1-7.5s-6.6-2.5-10.7-2.4c-4.2,0.1-7.8,1.1-10.7,3.1
					c-2.9,1.9-5.1,4.6-6.6,8s-2.2,7.3-2.1,11.8c0.1,2.7,0.5,5.1,1.2,7.1s1.7,3.7,2.8,5s2.4,2.4,3.8,3.1l9.4-0.8v-0.4
					c-3.6-0.5-6.5-1.3-8.7-2.4s-3.7-2.7-4.7-4.6s-1.5-4.3-1.6-7.1c0-2.7,0.7-5.1,2.1-7.1c1.4-2,3.4-3.6,6-4.8
					c2.6-1.2,5.7-1.8,9.4-1.9c3.6-0.1,6.8,0.4,9.4,1.4s4.7,2.6,6.2,4.7c1.5,2,2.3,4.5,2.4,7.5c0.1,3-0.6,5.6-2.1,7.9s-4,4-7.6,5.1
					v0.5l9.4-0.4c0.8-1.6,1.5-3.5,2-5.9C601.2,331.8,601.4,329.2,601.4,326.3z"/>
				<path class="st9" d="M595.2,365.1c-0.7-0.4-1.3-0.8-1.9-1.2c-0.6-0.4-0.9-0.6-1.1-0.8L565.5,346c-0.8-0.7-1.4-1.4-1.8-2.2
					c-0.4-1-0.5-1.9-0.4-2.7l0.1-0.5l-0.5-0.1l-1.8,11.6l0.5,0.1l0.1-0.5c0.1-0.4,0.3-0.8,0.6-1.2c0.3-0.4,0.8-0.6,1.3-0.7
					s1.1,0,1.7,0.4l6.4,3.9l-2,12.8l-7.1,1.6l0,0c-1.2,0.3-2,0.1-2.5-0.6s-0.7-1.3-0.6-2l0.1-0.5l-0.5-0.1l-2.7,17.2h-0.1l-1.5,4
					l0,0l-0.9,2.5l0,0l-4.6,12.2c-1.5,4-2.1,7.8-1.8,11.3s1.6,6.6,3.7,9.2c2.1,2.6,5,4.6,8.7,6s7.2,1.8,10.5,1.2
					c3.3-0.6,6.2-2.1,8.8-4.5s4.6-5.6,6.1-9.7l2.6-7l0,0l1.3-3.4l0.9-2.4l0,0l0.7-1.8l0,0l1.6-4.1l-0.5-0.1l-0.2,0.6
					c-0.3,0.9-0.9,1.5-1.8,2c-0.9,0.4-1.8,0.5-2.7,0.1l0,0l-28.5-10.8c-0.9-0.4-1.5-1-1.9-1.9s-0.4-1.8-0.1-2.6l0.3-0.7l-0.2-0.1
					h0.2l0.1-0.4c0.1-0.8,0.5-1.6,1.2-2.4c0.6-0.7,1.6-1.3,2.8-1.7l37.9-10.6l0.1-0.5c-0.4-0.1-0.9-0.3-1.6-0.6
					C596.6,365.9,595.9,365.5,595.2,365.1z M585.5,407.6c-0.4,1.1-0.8,2-1.1,2.9s-0.7,1.8-1,2.8c-0.9,2.5-2.4,4.4-4.3,5.7
					s-4.3,2-7,2.1s-5.7-0.5-9-1.7s-5.9-2.8-7.9-4.6c-2-1.9-3.3-3.9-3.9-6.2c-0.6-2.3-0.5-4.6,0.5-7.1c0.4-1,0.7-1.9,1-2.7
					c0.3-0.8,0.7-1.7,1-2.8c0.1-0.3,0.2-0.6,0.4-1l31.7,12C585.6,407.1,585.6,407.4,585.5,407.6z M573.8,355.4l12.5,7.7l-14.2,3.2
					L573.8,355.4z"/>
				<path class="st9" d="M573.7,440.5l-0.4,0.6c-0.5,0.8-1.2,1.3-2.1,1.6c-0.9,0.2-1.8,0.1-2.7-0.3l0,0l-26.2-15.6
					c-0.8-0.5-1.3-1.2-1.6-2.2c-0.2-0.9-0.1-1.8,0.4-2.6l0.4-0.6l-0.5-0.3l-2.2,3.6l0,0l-4.2,7.1l0,0l-2.7,4.5l0,0l-5.5,9.3l8.3,7.9
					l0.3-0.5c-1.2-1.4-2.2-2.9-2.8-4.4s-0.9-3.1-0.8-4.6c0.1-1.6,0.6-3.1,1.6-4.7l0,0l3.7-6.2L550,441l-3.7,6.2
					c-0.7,1.1-1.7,1.9-2.9,2.2c-1.2,0.3-2.4,0.1-3.5-0.6l-0.4-0.3l-0.3,0.5l4.5,2.7l0,0l1.9,1.1l0,0l4.4,2.7l0.3-0.5l-0.4-0.2
					c-1.1-0.7-1.9-1.6-2.2-2.8s-0.1-2.4,0.5-3.6l0,0l3.7-6.2l13.7,8.2l-4.9,8.2c-0.9,1.2-1.9,1.9-3.1,2.2c-1.4,0.3-2.8,0.1-4.3-0.8
					l-0.6-0.3l-0.3,0.5l5.5,3.3l0,0l1.9,1.1l0,0l0.8,0.5c0-0.4,0.2-0.9,0.5-1.6s0.6-1.5,1-2.3s0.8-1.6,1.2-2.3l4.3-7.3l0,0l4.2-7.1
					l0,0l2.2-3.6L573.7,440.5z"/>
				<path class="st9" d="M526.5,453.7c-0.7-0.9-1-1.8-1-2.7c0.1-1,0.4-1.8,1.1-2.6c0.4-0.4,0.6-0.6,0.6-0.6l-0.4-0.4l-4.1,4.5l0,0
					l-1.4,1.5l0,0l-2.3,2.5l0.4,0.3l0.6-0.6c0.4-0.4,0.9-0.6,1.6-0.6s1.2,0.2,1.6,0.6c0.1,0,0.1,0.1,0.1,0.1l13,14.8l-27.1-5.6
					l-0.4,0.4c0.7,0.6,1.2,1.4,1.7,2.2c0.4,0.9,0.9,2,1.3,3.4l6.2,19.6l-16-11.7l0,0l-0.1-0.1c-0.4-0.4-0.7-0.9-0.8-1.5
					c-0.1-0.6,0.1-1.2,0.5-1.6l0.6-0.6l-0.4-0.3l-2.2,2.4l0,0l-4.8,5.3l0,0l-4.1,4.5l0.4,0.4l0.6-0.6c0.6-0.7,1.4-1.1,2.4-1.3
					c0.9-0.2,1.8,0.1,2.7,0.6l29.3,20.4l0.3-0.4l-9.7-31l32.2,6.3l0.3-0.4L526.5,453.7L526.5,453.7z"/>
				<path class="st9" d="M516.9,513.3c-0.9,0.7-2,1.1-3.2,1.1s-2.2-0.1-3.2-0.5l0,0l-18.6-7.8l-7.9-10.9c-0.5-0.8-0.7-1.7-0.6-2.6
					s0.6-1.7,1.4-2.3c0,0,0.2-0.2,0.6-0.4l-0.3-0.4l-3.4,2.5l0,0l-6.5,4.8l0,0l-3.5,2.6l0.3,0.4l0.5-0.4c0.8-0.6,1.6-0.8,2.6-0.6
					c1,0.1,1.7,0.6,2.3,1.4l8,11l1.4,20.2l0,0c0.1,1-0.1,2.1-0.6,3.2s-1.1,2-2,2.7l-0.6,0.5l0.3,0.4l10.6-7.7l-0.3-0.4l-0.5,0.4
					c-0.4,0.3-0.9,0.4-1.4,0.4s-1-0.2-1.4-0.6c-0.4-0.3-0.7-0.8-0.7-1.4l0,0l-1.8-16.3l14.8,6.9c0.7,0.4,1.1,1,1.2,1.9
					s-0.2,1.5-0.8,2l-0.6,0.4l0.3,0.4l14.7-10.7l-0.3-0.4L516.9,513.3z M487.8,509.3L487.8,509.3L487.8,509.3L487.8,509.3z"/>
			</g>
			<g>
				<path class="st9" d="M301.6,536.7l-0.1-4.3c0.6-0.3,1.2-0.5,2-0.7c0.8-0.1,1.5-0.2,2.4-0.2c0.8,0,1.6,0.1,2.4,0.3
					c1.4,0.3,2.6,0.9,3.5,1.6c1,0.7,1.6,1.6,2,2.6s0.4,2.1,0.2,3.4c-0.2,1-0.7,1.9-1.3,2.7c-0.6,0.8-1.4,1.6-2.3,2.3
					s-1.8,1.3-2.8,1.9c-1,0.6-1.9,1.1-2.9,1.6s-1.7,0.9-2.4,1.2l6.2,1.5c0.6,0.1,1.1,0.2,1.6,0.1c0.5-0.1,0.9-0.3,1.4-0.6
					c0.4-0.3,0.9-0.8,1.4-1.3l0.3,0.1l-3,5.4l-13.3-3.2l0.1-0.3c1-0.6,2-1.3,3.1-2s2.2-1.5,3.3-2.4c1.1-0.8,2.1-1.7,3.1-2.6
					c1-0.9,1.8-1.8,2.5-2.7s1.1-1.8,1.4-2.8c0.4-1.5,0.3-2.7-0.2-3.7s-1.4-1.6-2.6-1.9c-1.3-0.3-2.4-0.1-3.4,0.6
					c-0.9,0.7-1.6,1.8-2,3.4L301.6,536.7z"/>
				<path class="st9" d="M339.2,537.1c1.7,0.2,3,0.7,4.1,1.7s1.9,2.3,2.4,4s0.6,3.6,0.4,5.9c-0.2,2.2-0.7,4.1-1.5,5.7
					c-0.8,1.6-1.8,2.8-3.1,3.5c-1.3,0.8-2.7,1.1-4.4,0.9c-1.7-0.2-3-0.7-4.1-1.7s-1.9-2.3-2.4-4s-0.6-3.6-0.4-5.9
					c0.2-2.2,0.7-4.1,1.5-5.7c0.8-1.6,1.8-2.7,3.1-3.5C336.1,537.3,337.5,536.9,339.2,537.1z M339.1,538.2c-1.3-0.1-2.4,0.6-3.3,2.2
					c-0.9,1.6-1.5,4-1.8,7.1s-0.1,5.6,0.4,7.3c0.6,1.8,1.5,2.7,2.8,2.8s2.4-0.6,3.3-2.2c0.9-1.6,1.5-4,1.7-7.1
					c0.3-3.1,0.2-5.6-0.4-7.3C341.3,539.3,340.4,538.4,339.1,538.2z"/>
				<path class="st9" d="M370.5,537.7c1.7-0.1,3.1,0.3,4.3,1.1s2.2,2,2.9,3.6c0.7,1.6,1.1,3.5,1.3,5.7c0.1,2.2-0.1,4.2-0.6,5.8
					c-0.5,1.7-1.4,3-2.5,3.9c-1.1,1-2.5,1.5-4.2,1.6s-3.1-0.3-4.3-1.1c-1.2-0.8-2.2-2-2.9-3.6c-0.7-1.6-1.2-3.5-1.3-5.7
					c-0.1-2.2,0.1-4.2,0.6-5.8c0.5-1.7,1.4-3,2.5-3.9C367.5,538.3,368.9,537.8,370.5,537.7z M370.6,538.8c-1.3,0.1-2.3,1-2.9,2.7
					s-0.9,4.2-0.7,7.3c0.2,3.1,0.7,5.5,1.5,7.2c0.8,1.6,1.9,2.4,3.2,2.4c1.3-0.1,2.3-1,2.9-2.7s0.8-4.2,0.7-7.3
					c-0.2-3.1-0.7-5.5-1.5-7.2C373,539.5,371.9,538.7,370.6,538.8z"/>
				<path class="st9" d="M405.7,532.1l0.2,0.2c-1.6,0.9-2.8,1.9-3.7,2.9c-0.9,1.1-1.5,2.2-1.9,3.5c-0.4,1.2-0.5,2.6-0.4,4
					s0.2,2.9,0.6,4.5c0.3,1.5,0.7,2.8,1.2,3.9c0.5,1.1,1,1.8,1.7,2.3s1.4,0.7,2.3,0.5c0.8-0.2,1.5-0.6,1.9-1.2
					c0.4-0.6,0.6-1.3,0.7-2.2s0-1.7-0.2-2.6c-0.2-1-0.5-1.9-0.9-2.5s-0.8-1.1-1.3-1.4c-0.5-0.3-1.1-0.4-1.7-0.3
					c-0.5,0.1-1,0.2-1.5,0.5s-0.8,0.7-1.1,1.1l-0.3-0.2c0.3-0.7,0.7-1.3,1.2-1.8s1.2-0.9,1.9-1.2c0.7-0.3,1.4-0.4,2.2-0.4
					c0.7,0,1.5,0.2,2.1,0.5c0.7,0.3,1.3,0.9,1.8,1.6c0.5,0.7,1,1.7,1.2,2.8c0.3,1.2,0.2,2.4-0.1,3.5c-0.3,1.2-0.9,2.2-1.9,3.1
					c-0.9,0.9-2.2,1.5-3.8,1.8c-1.6,0.3-3,0.3-4.3-0.1c-1.3-0.4-2.4-1.2-3.3-2.5c-0.9-1.2-1.6-2.8-1.9-4.8c-0.4-1.8-0.5-3.5-0.3-5.2
					s0.6-3.2,1.4-4.6c0.7-1.4,1.8-2.6,3.1-3.6C402,533.2,403.7,532.5,405.7,532.1z"/>
			</g>
			<g>
				<g id="XMLID_3_">
					<g id="XMLID_33_">
						<g>
							
								<radialGradient id="SVGID_00000078740177398659050500000003697267838391084178_" cx="358.75" cy="405.8657" r="170.2129" gradientTransform="matrix(1 0 0 -1 0 736)" gradientUnits="userSpaceOnUse">
								<stop  offset="0.2956" style="stop-color:#79481D"/>
								<stop  offset="1" style="stop-color:#3A2316"/>
							</radialGradient>
							<path style="fill:url(#SVGID_00000078740177398659050500000003697267838391084178_);" d="M358.9,500.3
								c-40.9,0-80.3-14.7-111.2-41.4c-30.5-26.4-50.8-62.8-56.9-102.5l-0.4-2.3h10.4c12,0,21.7-9.7,21.7-21.7V319
								c0-5.5,4.5-10,10-10s10,4.5,10,10v62.3c0,12,9.7,21.7,21.7,21.7s21.7-9.7,21.7-21.7V272c0-5.5,4.5-10,10-10s10,4.5,10,10
								v170.4c0,12,9.7,21.7,21.7,21.7s21.7-9.7,21.7-21.7V210.9c0-5.5,4.5-10,10-10s10,4.5,10,10v231.5c0,12,9.7,21.7,21.7,21.7
								s21.7-9.7,21.7-21.7V272c0-5.5,4.5-10,10-10s10,4.5,10,10v109.3c0,12,9.7,21.7,21.7,21.7s21.7-9.7,21.7-21.7V319
								c0-5.5,4.5-10,10-10s10,4.5,10,10v13.3c0,12,9.7,21.7,21.7,21.7h9.3l-0.4,2.3c-6.1,39.7-26.4,76.1-56.9,102.5
								C439.2,485.6,399.7,500.3,358.9,500.3z"/>
							
								<radialGradient id="SVGID_00000167374808485784443700000018103741210406043778_" cx="359" cy="405.8657" r="170.1172" gradientTransform="matrix(1 0 0 -1 0 736)" gradientUnits="userSpaceOnUse">
								<stop  offset="0.2956" style="stop-color:#79481D"/>
								<stop  offset="1" style="stop-color:#3A2316"/>
							</radialGradient>
							<path style="fill:url(#SVGID_00000167374808485784443700000018103741210406043778_);" d="M391.2,452.5c-5.5,0-10-4.5-10-10
								V210.9c0-12-9.7-21.7-21.7-21.7s-21.7,9.7-21.7,21.7v231.5c0,5.5-4.5,10-10,10s-10-4.5-10-10V272c0-12-9.7-21.7-21.7-21.7
								s-21.7,9.7-21.7,21.7v109.3c0,5.5-4.5,10-10,10s-10-4.5-10-10V319c0-12-9.7-21.7-21.7-21.7S211,307,211,319v13.3
								c0,5.5-4.5,10-10,10h-11.6l-0.1-1.9c-0.2-3.9-0.3-7.3-0.3-10.4c0-93.8,76.3-170.1,170.1-170.1S529,236.3,529,330.1
								c0,3.1-0.1,6.5-0.3,10.4l-0.1,1.9h-10.5c-5.5,0-10-4.5-10-10V319c0-12-9.7-21.7-21.7-21.7s-21.7,9.7-21.7,21.7v62.3
								c0,5.5-4.5,10-10,10s-10-4.5-10-10V272c0-12-9.7-21.7-21.7-21.7s-21.7,9.7-21.7,21.7v170.4
								C401.2,448,396.7,452.5,391.2,452.5z"/>
						</g>
						<g class="st4">
							<path class="st12" d="M358.9,500.3c-40.9,0-80.3-14.7-111.2-41.4c-30.5-26.4-50.8-62.8-56.9-102.5l-0.4-2.3h10.4
								c12,0,21.7-9.7,21.7-21.7V319c0-5.5,4.5-10,10-10s10,4.5,10,10v62.3c0,12,9.7,21.7,21.7,21.7s21.7-9.7,21.7-21.7V272
								c0-5.5,4.5-10,10-10s10,4.5,10,10v170.4c0,12,9.7,21.7,21.7,21.7s21.7-9.7,21.7-21.7V210.9c0-5.5,4.5-10,10-10s10,4.5,10,10
								v231.5c0,12,9.7,21.7,21.7,21.7s21.7-9.7,21.7-21.7V272c0-5.5,4.5-10,10-10s10,4.5,10,10v109.3c0,12,9.7,21.7,21.7,21.7
								s21.7-9.7,21.7-21.7V319c0-5.5,4.5-10,10-10s10,4.5,10,10v13.3c0,12,9.7,21.7,21.7,21.7h9.3l-0.4,2.3
								c-6.1,39.7-26.4,76.1-56.9,102.5C439.2,485.6,399.7,500.3,358.9,500.3z"/>
							<path class="st12" d="M391.2,452.5c-5.5,0-10-4.5-10-10V210.9c0-12-9.7-21.7-21.7-21.7s-21.7,9.7-21.7,21.7v231.5
								c0,5.5-4.5,10-10,10s-10-4.5-10-10V272c0-12-9.7-21.7-21.7-21.7s-21.7,9.7-21.7,21.7v109.3c0,5.5-4.5,10-10,10s-10-4.5-10-10
								V319c0-12-9.7-21.7-21.7-21.7S211,307,211,319v13.3c0,5.5-4.5,10-10,10h-11.6l-0.1-1.9c-0.2-3.9-0.3-7.3-0.3-10.4
								c0-93.8,76.3-170.1,170.1-170.1S529,236.3,529,330.1c0,3.1-0.1,6.5-0.3,10.4l-0.1,1.9h-10.5c-5.5,0-10-4.5-10-10V319
								c0-12-9.7-21.7-21.7-21.7s-21.7,9.7-21.7,21.7v62.3c0,5.5-4.5,10-10,10s-10-4.5-10-10V272c0-12-9.7-21.7-21.7-21.7
								s-21.7,9.7-21.7,21.7v170.4C401.2,448,396.7,452.5,391.2,452.5z"/>
						</g>
					</g>
					<g id="XMLID_26_">
						<g class="st4">
							<path class="st13" d="M358.9,165.1c44.1,0,85.5,17.2,116.7,48.3c31.2,31.2,48.3,72.6,48.3,116.7s-17.2,85.5-48.3,116.7
								c-31.2,31.2-72.6,48.3-116.7,48.3s-85.5-17.2-116.7-48.3s-48.3-72.6-48.3-116.7s17.2-85.5,48.3-116.7
								S314.8,165.1,358.9,165.1 M358.9,162c-92.9,0-168.1,75.3-168.1,168.1S266,498.3,358.9,498.3S527,423,527,330.2
								S451.7,162,358.9,162L358.9,162z"/>
						</g>
						
							<linearGradient id="SVGID_00000175308963826665175070000016330390178815238528_" gradientUnits="userSpaceOnUse" x1="358.9" y1="591.2" x2="358.9" y2="220.4" gradientTransform="matrix(1 0 0 -1 0 736)">
							<stop  offset="0" style="stop-color:#511712"/>
							<stop  offset="0.1613" style="stop-color:#C06D3D"/>
							<stop  offset="0.3548" style="stop-color:#521611"/>
							<stop  offset="0.6862" style="stop-color:#83442B"/>
							<stop  offset="0.7527" style="stop-color:#CFBB6F"/>
							<stop  offset="0.8925" style="stop-color:#4F1711"/>
							<stop  offset="1" style="stop-color:#CA743F"/>
						</linearGradient>
						<path style="fill:url(#SVGID_00000175308963826665175070000016330390178815238528_);" d="M358.9,162
							c92.9,0,168.1,75.3,168.1,168.1s-75.3,168.1-168.1,168.1c-92.9,0-168.1-75.3-168.1-168.1S266,162,358.9,162 M358.9,144.8
							c-25,0-49.3,4.9-72.2,14.6c-22.1,9.3-41.9,22.7-58.9,39.7s-30.4,36.8-39.7,58.9c-9.7,22.9-14.6,47.1-14.6,72.2
							s4.9,49.3,14.6,72.2c9.3,22.1,22.7,41.9,39.7,58.9s36.8,30.4,58.9,39.7c22.9,9.7,47.1,14.6,72.2,14.6s49.3-4.9,72.2-14.6
							c22.1-9.3,41.9-22.7,58.9-39.7s30.4-36.8,39.7-58.9c9.7-22.9,14.6-47.1,14.6-72.2s-4.9-49.3-14.6-72.2
							c-9.3-22.1-22.7-41.9-39.7-58.9s-36.8-30.4-58.9-39.7C408.2,149.7,383.9,144.8,358.9,144.8L358.9,144.8z"/>
						
							<linearGradient id="SVGID_00000126310825856980707030000010248344396850592410_" gradientUnits="userSpaceOnUse" x1="421.7627" y1="578.6139" x2="296.0407" y2="233.1956" gradientTransform="matrix(1 0 0 -1 0 736)">
							<stop  offset="0" style="stop-color:#BC6B3C"/>
							<stop  offset="0.1613" style="stop-color:#50180F"/>
							<stop  offset="0.3548" style="stop-color:#8F5437"/>
							<stop  offset="0.5" style="stop-color:#CFB776"/>
							<stop  offset="0.5346" style="stop-color:#CF893F"/>
							<stop  offset="1" style="stop-color:#4F1711"/>
						</linearGradient>
						<path style="fill:url(#SVGID_00000126310825856980707030000010248344396850592410_);" d="M358.9,162
							c92.9,0,168.1,75.3,168.1,168.1s-75.3,168.1-168.1,168.1c-92.9,0-168.1-75.3-168.1-168.1S266,162,358.9,162 M358.9,146.3
							c-24.8,0-48.9,4.9-71.5,14.5c-21.9,9.3-41.5,22.5-58.4,39.4s-30.1,36.5-39.4,58.4c-9.6,22.7-14.5,46.7-14.5,71.5
							s4.9,48.9,14.5,71.5c9.3,21.9,22.5,41.5,39.4,58.4s36.5,30.1,58.4,39.4c22.7,9.6,46.7,14.5,71.5,14.5s48.9-4.9,71.5-14.5
							c21.9-9.3,41.5-22.5,58.4-39.4s30.1-36.5,39.4-58.4c9.6-22.7,14.5-46.7,14.5-71.5s-4.9-48.9-14.5-71.5
							c-9.3-21.9-22.5-41.5-39.4-58.4s-36.5-30.1-58.4-39.4C407.8,151.2,383.7,146.3,358.9,146.3L358.9,146.3z"/>
						
							<linearGradient id="SVGID_00000050649514986127720470000001439284533726960559_" gradientUnits="userSpaceOnUse" x1="358.9" y1="575.6" x2="358.9" y2="236.2" gradientTransform="matrix(1 0 0 -1 0 736)">
							<stop  offset="0" style="stop-color:#50180F"/>
							<stop  offset="0.2097" style="stop-color:#CFC29C"/>
							<stop  offset="0.5" style="stop-color:#CFBF75"/>
							<stop  offset="0.7527" style="stop-color:#581A13"/>
							<stop  offset="1" style="stop-color:#CFC2BF"/>
						</linearGradient>
						<path style="fill:url(#SVGID_00000050649514986127720470000001439284533726960559_);" d="M358.9,162
							c92.9,0,168.1,75.3,168.1,168.1s-75.3,168.1-168.1,168.1c-92.9,0-168.1-75.3-168.1-168.1S266,162,358.9,162 M358.9,160.4
							c-45.3,0-87.9,17.7-120,49.7c-32.1,32.1-49.7,74.7-49.7,120s17.7,87.9,49.7,120c32.1,32.1,74.7,49.7,120,49.7
							s87.9-17.7,120-49.7c32.1-32.1,49.7-74.7,49.7-120s-17.7-87.9-49.7-120C446.8,178.1,404.2,160.4,358.9,160.4L358.9,160.4z"/>
					</g>
					<g id="XMLID_15_">
						<g>
							
								<radialGradient id="XMLID_00000062873375099278843810000017342515438592744891_" cx="-2531.0173" cy="14.7799" r="20.3744" gradientTransform="matrix(-0.7071 -0.7071 -0.7071 0.7071 -1558.3899 -1331.9749)" gradientUnits="userSpaceOnUse">
								<stop  offset="0.2956" style="stop-color:#FFF3AF"/>
								<stop  offset="1" style="stop-color:#FFC89C"/>
							</radialGradient>
							
								<circle id="XMLID_22_" style="fill:url(#XMLID_00000062873375099278843810000017342515438592744891_);" cx="220.8" cy="468.2" r="20.4"/>
							<path id="XMLID_21_" class="st18" d="M230.2,458.8c5.9,5.9,9.2,8.6,11,9.8c0.1-5.4-1.9-10.8-5.9-14.9
								c-4.1-4.1-9.5-6.1-14.9-5.9C221.7,449.7,224.5,453,230.2,458.8z"/>
						</g>
						<g>
							
								<radialGradient id="XMLID_00000152253831711792730740000002710740647303558529_" cx="-2531.0173" cy="-376.5274" r="20.3744" gradientTransform="matrix(-0.7071 -0.7071 -0.7071 0.7071 -1558.3899 -1331.9749)" gradientUnits="userSpaceOnUse">
								<stop  offset="0.2956" style="stop-color:#FFF3AF"/>
								<stop  offset="1" style="stop-color:#FFC89C"/>
							</radialGradient>
							
								<circle id="XMLID_20_" style="fill:url(#XMLID_00000152253831711792730740000002710740647303558529_);" cx="497.5" cy="191.5" r="20.4"/>
							<path id="XMLID_18_" class="st18" d="M488.1,200.8c-5.9-5.9-9.2-8.6-11-9.8c-0.1,5.4,1.9,10.8,5.9,14.9
								c4.1,4.1,9.5,6.1,14.9,5.9C496.7,209.9,493.9,206.6,488.1,200.8z"/>
						</g>
						
							<linearGradient id="XMLID_00000154392734779164141610000017943624253024915847_" gradientUnits="userSpaceOnUse" x1="-2538.8403" y1="-449.9354" x2="-2523.1721" y2="-449.9354" gradientTransform="matrix(-0.7071 -0.7071 -0.5774 0.5774 -1690.525 -1199.8396)">
							<stop  offset="0" style="stop-color:#FFB894"/>
							<stop  offset="0.2097" style="stop-color:#FFFFFF"/>
							<stop  offset="0.5" style="stop-color:#FFFFEB"/>
							<stop  offset="1" style="stop-color:#FFB896"/>
						</linearGradient>
						<polygon id="XMLID_16_" style="fill:url(#XMLID_00000154392734779164141610000017943624253024915847_);" points="479.6,198.3 
							490.7,209.4 238.3,461.8 227.2,450.7 						"/>
					</g>
					<g id="XMLID_4_">
						<g id="XMLID_13_">
							
								<linearGradient id="SVGID_00000085213021930682041950000000601630343183429545_" gradientUnits="userSpaceOnUse" x1="167.9" y1="454.25" x2="454.6205" y2="454.25" gradientTransform="matrix(1 0 0 -1 0 736)">
								<stop  offset="0.3602" style="stop-color:#FFB896;stop-opacity:0"/>
								<stop  offset="1" style="stop-color:#FFCF9F"/>
							</linearGradient>
							<path style="fill:url(#SVGID_00000085213021930682041950000000601630343183429545_);" d="M232.1,140.9l210.8,223
								c0.7,0.7,1.3,1.4,1.9,2.1c11.6,13.7,11,34.2-1.8,47.1c-6.8,6.8-15.7,10.1-24.5,10.1c-8.9,0-17.8-3.4-24.5-10.1l-0.2-0.2
								l-0.1-0.1L170,203l5.6-8.2l-0.1-0.1l4.9-7.3l2.4-2.4l0,0l0,0l3.7-3.7l0.3,0.3l7.3-7.3l211.8,226.3c3.5,3.4,8,5.1,12.5,5.1
								s8.9-1.7,12.3-5.1c6.8-6.8,6.8-17.9,0-24.7L207,161.3l4.6-4.3l-0.4-0.4l3.8-3.5l-0.1-0.1l1.6-1.3l1-0.9l1.2-0.8l1.6-1.3
								l0.1,0.1L232.1,140.9 M232.3,138.9l-1.1,0.7l-10.6,7.1l-0.2-0.2l-1.1,0.9l-1.6,1.3l-1.1,0.7l-0.1,0.1l-0.1,0.1l-1,0.9
								l-1.6,1.3l-1.4,1.1l0.2,0.2l-2.6,2.4l-1.2,1.1l0.4,0.4l-3.4,3.2l-1.2,1.1l1.2,1.1L429.5,377c6.1,6.2,6.1,16.3-0.1,22.4
								c-3,3-6.9,4.6-11.2,4.6c-4.2,0-8.3-1.7-11.4-4.7L195.2,173.2l-1.1-1.2l-1.1,1.1l-6.2,6.2l-0.3-0.3l-1.1,1.1l-3.7,3.7
								l-2.4,2.4l-0.1,0.1l-0.1,0.1l-4.9,7.3l-0.7,1.1l0.1,0.1l-4.9,7.2l-0.8,1.1l1,0.9l223.6,209.7l0.1,0.1l0.1,0.1
								c6.9,6.9,16,10.6,25.7,10.6s18.8-3.8,25.6-10.6c6.5-6.5,10.2-15.1,10.6-24.2c0.3-9.1-2.7-18-8.6-24.9c-0.6-0.7-1.3-1.5-2-2.2
								L233.2,139.8L232.3,138.9L232.3,138.9z"/>
						</g>
						
							<linearGradient id="XMLID_00000101088553383864407860000014230295516967373706_" gradientUnits="userSpaceOnUse" x1="-295.5996" y1="-750.4386" x2="-295.5996" y2="-405.8622" gradientTransform="matrix(0.7071 -0.7071 -0.7071 -0.7071 120.6834 -326.4536)">
							<stop  offset="5.376345e-03" style="stop-color:#FFFFFF"/>
							<stop  offset="1" style="stop-color:#FFB896;stop-opacity:0.3"/>
						</linearGradient>
						<path id="XMLID_12_" style="fill:url(#XMLID_00000101088553383864407860000014230295516967373706_);" d="M442.7,412.8
							c-13.5,13.5-35.6,13.5-49.1,0L170,203l9.9-14.5l225.7,211.9c7,7,18.1,7,24.9,0.2s6.8-17.9,0-24.7l-213-225.2l14.6-9.8
							l210.8,223C456.2,377.2,456.2,399.2,442.7,412.8z"/>
						
							<linearGradient id="XMLID_00000179640055449366667190000001651459380426938536_" gradientUnits="userSpaceOnUse" x1="-295.0339" y1="-750.7217" x2="-295.0339" y2="-405.9329" gradientTransform="matrix(0.7071 -0.7071 -0.7071 -0.7071 120.6834 -326.4536)">
							<stop  offset="5.376345e-03" style="stop-color:#FFFFFF"/>
							<stop  offset="1" style="stop-color:#FFB896;stop-opacity:0.3"/>
						</linearGradient>
						<path id="XMLID_11_" style="fill:url(#XMLID_00000179640055449366667190000001651459380426938536_);" d="M442.9,413
							c-13.5,13.5-35.6,13.5-49.1,0L181.4,186.9l12.6-12.6l212.2,226.8c6.6,6.6,17.7,6.6,24.5-0.2s6.8-17.9,0-24.7L207,161.3
							l12.5-11.8l223.3,214.3C456.5,377.5,456.5,399.5,442.9,413z"/>
						
							<linearGradient id="XMLID_00000094619628531660754970000002636444354138237877_" gradientUnits="userSpaceOnUse" x1="-295.0339" y1="-750.4386" x2="-295.0339" y2="-405.5793" gradientTransform="matrix(0.7071 -0.7071 -0.7071 -0.7071 120.6834 -326.4536)">
							<stop  offset="5.376345e-03" style="stop-color:#FFFFFF"/>
							<stop  offset="1" style="stop-color:#FFB896;stop-opacity:0.3"/>
						</linearGradient>
						<path id="XMLID_10_" style="fill:url(#XMLID_00000094619628531660754970000002636444354138237877_);" d="M442.7,412.8
							c-13.5,13.5-35.6,13.5-49.1,0L175.5,194.7l4.9-7.3l6.1-6.1l219.3,219.3c6.8,6.8,17.9,6.8,24.7,0s6.8-17.9,0-24.7L211.2,156.6
							l6.3-5.9l7.3-4.9l217.9,217.9C456.2,377.2,456.2,399.2,442.7,412.8z"/>
						
							<linearGradient id="XMLID_00000153680212936487235310000008526712514338920593_" gradientUnits="userSpaceOnUse" x1="-295.0339" y1="-745.2062" x2="-295.0339" y2="-405.5793" gradientTransform="matrix(0.7071 -0.7071 -0.7071 -0.7071 120.6834 -326.4536)">
							<stop  offset="5.376345e-03" style="stop-color:#FFFFFF"/>
							<stop  offset="1" style="stop-color:#FFB896;stop-opacity:0.3"/>
						</linearGradient>
						<path id="XMLID_9_" style="fill:url(#XMLID_00000153680212936487235310000008526712514338920593_);" d="M439,409.1
							c-11.5,11.5-30.3,11.5-41.8,0L178.4,190.3l4.4-5.3l219.3,219.3c8.8,8.8,23.2,8.8,32,0s8.8-23.2,0-32L214.9,152.9l5.4-4.3
							L439,367.3C450.6,378.9,450.6,397.6,439,409.1z"/>
						
							<radialGradient id="XMLID_00000126323261865677125710000017717541996769473441_" cx="-295.1373" cy="-748.1549" r="11.5969" gradientTransform="matrix(0.7071 -0.7071 -0.7071 -0.7071 120.6834 -326.4536)" gradientUnits="userSpaceOnUse">
							<stop  offset="0.2956" style="stop-color:#FFF3AF"/>
							<stop  offset="1" style="stop-color:#FFC89C"/>
						</radialGradient>
						
							<path id="XMLID_8_" style="opacity:0.85;fill:url(#XMLID_00000126323261865677125710000017717541996769473441_);enable-background:new    ;" d="
							M438.9,409.6c-7.6,7.6-9.8,10.8-10.4,12c5.3-1.6,10.3-4.5,14.4-8.6s6.9-9,8.6-14.2C450.4,399.3,447.3,401.3,438.9,409.6z"/>
						<g>
							
								<radialGradient id="XMLID_00000085239115351180730130000009968035386647229323_" cx="-295.6179" cy="-828.5042" r="20.1288" gradientTransform="matrix(0.7071 -0.7071 -0.7071 -0.7071 120.6834 -326.4536)" gradientUnits="userSpaceOnUse">
								<stop  offset="0.2956" style="stop-color:#FFF3AF"/>
								<stop  offset="1" style="stop-color:#FFC89C"/>
							</radialGradient>
							<path id="XMLID_7_" style="fill:url(#XMLID_00000085239115351180730130000009968035386647229323_);" d="M489,449.4l-10,9.4
								c-3.9,7.7-2.7,17.3,3.7,23.7c8,8,20.9,8,28.8,0c8-8,8-20.9,0-28.8C505.5,447.6,496.5,446.2,489,449.4z"/>
							<path id="XMLID_6_" class="st18" d="M488,459c6.1-6.1,8.9-9.5,10.1-11.3c-5.6-0.2-11.2,1.8-15.4,6c-4.2,4.2-6.2,9.8-6,15.5
								C478.7,467.8,482.1,464.9,488,459z"/>
						</g>
						
							<linearGradient id="XMLID_00000109017351779875510720000003018334581788958385_" gradientUnits="userSpaceOnUse" x1="-301.9134" y1="-1564.1147" x2="-288.1371" y2="-1564.1147" gradientTransform="matrix(0.7071 -0.7071 -0.4202 -0.4202 14.9275 -432.2095)">
							<stop  offset="0" style="stop-color:#FFB894"/>
							<stop  offset="0.2097" style="stop-color:#FFFFFF"/>
							<stop  offset="0.5" style="stop-color:#FFFFEB"/>
							<stop  offset="1" style="stop-color:#FFB896"/>
						</linearGradient>
						<path id="XMLID_5_" style="fill:url(#XMLID_00000109017351779875510720000003018334581788958385_);" d="M489.6,450l-42.4-42.4
							l-9.7,9.7l42.2,42.2C484.3,455.2,485.7,453.6,489.6,450z"/>
					</g>
				</g>
			</g>
		</g>
		<g>
			<circle class="st9" cx="358.9" cy="109.8" r="6.6"/>
			<circle class="st9" cx="444.1" cy="533.5" r="6.6"/>
			<circle class="st9" cx="263.2" cy="533.5" r="6.6"/>
		</g>
	</g>
	<g>
		<path d="M522.6,617.1c-1.6-2.8-4.2-5.3-7.8-7c-8.4-4.1-22.7-1.7-36.8,4.9c-13.3,6.2-26.7,16.2-34.7,27.7
			c-3.8,5.3-6.2,11.6-6.4,17.3c-0.1,2.6,0.2,5.1,1.1,7.3c1,2.4,2.6,4.4,4.9,6.1c2.9,2,6.8,3.3,11.7,3.5c0.8,0,1.1-0.5,0.7-1
			s-1.4-1-2.1-1c-3.8-0.1-6.6-0.9-8.5-2.3c-1.7-1.2-2.9-2.8-3.6-4.6c-0.8-2-1.2-4.3-1.1-6.8c0.2-5.5,2.6-11.7,6.2-16.8
			c8-11.4,21.2-21.3,34.3-27.4c13.3-6.2,26.5-8.8,33.5-5.3c2.6,1.3,4.4,3.1,5.6,5.3c1.5,2.7,2,5.7,1.7,9.2s-1.4,7.2-3.3,10.9
			c-4.1,8.4-11.9,17-21.8,22.6c1.4-7,2.5-13.9,3.4-19.3c0.6,0.4,1.2,0.8,1.8,1.3c0.7,0.5,1.7,0.8,2.2,0.6c0.6-0.2,0.5-0.7-0.2-1.3
			c-1.2-1-2.4-1.8-3.5-2.3c0.8-5.3,1.3-8.7,1.3-8.8c0.1-0.5-0.5-1-1.3-1.4c-0.8-0.3-1.7-0.3-1.7,0.1l-1.8,6.1
			c-0.1,0.3,0.2,0.7,0.7,1.1l-0.3,1.7c-4.1-1.1-7.5,0.7-10.2,4.1c-4.2,5.2-6.9,14.8-8.3,24.5c-0.8,0-1.7,0-2.4-0.2
			c-1.8-0.2-3.2-0.7-4.3-1.3h-0.1c-1.1-0.7-2-1.7-2.5-2.8c-0.8-1.5-1.2-3.1-1-4.6c0.1-0.5-0.6-1.1-1.4-1.4c-0.9-0.3-1.6-0.2-1.7,0.3
			c-0.1,1.7,0.2,3.6,1.2,5.3c0.9,1.6,2.2,3,4,4.2h0.1c1.9,1.2,4.2,2.1,7,2.4c0.3,0,0.6,0.1,1,0.1c-0.1,0.4-0.1,0.9-0.1,1.3
			c-1.2,10.6-0.6,20.7,1.3,24.1c1.3,2.4,3,3.2,5,2.1c4.2-2.3,8.2-17.2,11.3-32.1c0.8-0.4,1.7-0.9,2.6-1.4
			c10.4-5.6,18.6-14.5,23-23.4c1.9-3.8,3-7.6,3.3-11.2C524.8,623.4,524.2,620,522.6,617.1z M482,693.1c-1.7-3.5-2-12.9-0.9-23
			c0.1-0.9,0.2-1.7,0.3-2.6c3-0.3,6.5-1.2,10.5-2.8C489,678.1,485.6,690.5,482,693.1z M492.6,661.4c-4.2,2.1-7.8,3.3-10.9,3.9
			c1.4-9,4-17.6,7.9-22.4c2-2.5,4.3-4,6.9-3.8C495.6,645.2,494.2,653.3,492.6,661.4z"/>
		<path d="M527.1,634.4c0.1,0,0.2,0,0.3,0c2.2-0.5,2.6-5.7,2.1-6.7c-0.1-0.4-1.6-0.5-1.7-0.1c-0.3,0.4-0.4,1-0.3,1.3
			c0.3,0.5,0.3,1.7,0.2,2.8c0,0.3,0,0.6-0.1,0.8c-0.2,0-0.5,0.4-0.6,0.8C526.8,633.9,526.9,634.4,527.1,634.4z"/>
		<path d="M563.6,621.3c-0.8,0-0.8,0.5-0.8,0.8c0.2,3.8-6,22.2-8.5,26.6c-0.4,0.8-2.6,3.6-3.7,3.2c-2.2-1.4-3.7-11.1-4.4-22.5
			c0.2,0,0.2-0.1,0.3-0.2c0-0.1,8.8-24.7,7.5-35.8c-0.3-3-1-4.7-1.9-5.5c-1-0.8-2.3-1-3.6-0.6c-0.8,0.2-1.5,0.7-2.1,1.4
			c-1.6,1.9-3.1,5.7-3.2,10.1c-0.3,0.3-1,19.2,0,34.9c-0.5,0-0.8,0.5-0.9,0.9c-0.1,0.1-4.7,12.5-5.9,11c-1.5-1.7-1.7-3.9-1.7-4.3
			c0-0.5-0.6-0.9-1.4-1.2c-1-0.3-1.7-0.1-1.8,0.3c0,0-2.1,10.7-4.1,12.7c-1-3.5-1-6.8,0.4-10.2c0.6-1.7,3.1-5.1,5.2-4.6
			c0.6,0.5,1.6,0.7,2.3,0.5c0.6-0.2,0.6-0.7-0.1-1.2c-3.4-3.3-8.9,0-10.5,4.2c-1,2.4-1.3,5.4-1.1,7.8c0.1,1.1,0.3,2.1,0.7,3
			c0.4,1.1,1.2,1.9,2.4,2.4c0.6,0.2,1.3,0.4,1.9,0.3c1.9-0.2,3.2-3.7,4.3-7.4c1.8,3.4,4.7,3,6.9-0.4c1.1-1.6,2.1-4.6,3.7-9.2
			c0.8,8.4,2.3,15.2,4.8,16.1c3.3,1.5,6.5-2.2,8-5c2.5-4.4,8.8-23.6,8.5-27.5C565,621.6,564.4,621.3,563.6,621.3z M546,598.9
			c0.2-4.3,1.5-8,3-9.8c0.3-0.3,0.6-0.6,0.8-0.7c0.8,0.7,1.3,2.3,1.6,4.9c0.8,7.4-2.8,20.7-5.3,28.8
			C545.7,610.1,546,598.9,546,598.9z"/>
		<path d="M647.5,551c-1.7-3.6-3.8-7.1-6.2-10.2c2.9-3.8,4.6-6.1,4.7-6.2c0.3-0.4-0.2-0.9-1.1-1c-0.9-0.2-1.8,0-2.1,0.5
			c0,0-1.2,1.6-3.2,4.3c-1-2.6-2.2-5.2-3.4-7.9c-6.4-13.9-10.6-22.2-13.5-26.8c-3.9-6.3-6.3-6.8-8.3-4.3c-0.6,0.8,0,13.7,1,31
			c-16.7,4.1-29.2,27.4-34.3,46.1c-1.4,4.8-2.2,9.3-2.5,13.2c-0.2,3.8,0,6.9,0.9,8.8c0.9,2,2.6,3,5.2,2.7c6.2-0.6,19.8-15,32.6-30.3
			c0.9,19.5,1.5,38.1,0.9,48.5c-0.2-0.3-0.8-0.6-1.6-0.6c-0.9,0-1.7,0.3-1.7,0.8c-0.1,0.1-0.2,7.8,1.7,8.8c1.7,0.9,2.9,0.6,3.7-0.7
			c2.2-4.1,1.4-31.9,0.1-60.6c6.9-8.4,13.4-16.7,18.1-22.8c4,10.1,7,19.2,9.1,25.8c2.1,6.5,3.5,10.7,4.6,11.3
			c1.5,0.8,2.6,0.6,3.2-0.5c0.4-0.7,0.2-3.8-0.7-8.1C653.6,567,651.3,558.7,647.5,551z M583.9,599.7c-0.3,0-0.7-0.5-1.2-1.4
			c-0.8-1.8-1.1-4.8-0.8-8.5c0.3-3.8,1.1-8.2,2.4-13c4.9-17.8,16.2-39.7,31.1-44.5l0.2,4.5c0.5,9.5,1.1,20,1.5,30.4
			C604,583.1,589.7,599.1,583.9,599.7z M617.5,500c0.3-0.4,0.2,1.4,1.9,4.2c2.8,4.5,7,12.8,13.4,26.7c0.5,1,1,2.1,1.4,3.1
			c-0.8-0.6-1.7-1.1-2.6-1.6c-3.8-2.1-8.2-3.1-13-2.5C617.8,512.9,617.2,500.5,617.5,500z M620.3,563.2c-0.4-9.1-0.9-18.1-1.3-26.4
			l-0.3-5.3c3.9-0.5,7.3,0.2,10.5,1.9c2.8,1.5,5.2,3.7,7.5,6.2l0.7,1.7C633.2,546.8,627.1,554.8,620.3,563.2z M646.4,556.3
			c1.5,3.7,2.8,7.4,3.7,10.8C649,563.9,647.9,560.3,646.4,556.3z"/>
		<path d="M683,548.6c-2.8-0.4-26-49.1-32.1-61.9c-0.9-2-1.5-3.1-1.5-3.1c-0.3-0.4-1.1-0.5-2-0.3c-1,0.2-1.5,0.7-1.3,1.1l1.2,2.7
			c1.7,3.5,4.7,10.6,7.8,20c1.3,4.2,2.5,8.4,3.3,12.2c-1.4,0-3.2,0-4.8,2.6c-1.9,2.7,0,7.8,1.3,10.5c0.8,1.5,1.8,2.8,2.7,3.4
			c3.6,2.6,5.7-1.4,5.7-4.5c0-2.3-0.3-5.5-0.9-9.1l-0.1-0.1c0.6-0.3,0.7-0.7,0.4-1c-0.1,0-0.3-0.3-0.8-0.6c-0.3-2-0.8-4-1.3-6.1
			c8.6,17.2,18.2,35.4,20.5,35.7c0.8,0.2,1.8-0.1,2.3-0.5C684,549.2,683.9,548.7,683,548.6z M660,534.1c-0.6-0.5-1.2-1.5-1.8-2.6
			c-1.1-2.3-2.7-6.9-1.1-9.2c0.5-0.9,1.3-0.9,1.8-0.7l0.3,1.2c0.6,3.6,0.9,6.7,0.9,9C660.1,532.8,660.1,533.6,660,534.1z"/>
		<path d="M667,485.3c0.2,0.5,1,0.5,1.9,0.3c0.8-0.3,1.5-0.8,1.3-1.3l-2.5-6.1c-0.2-0.4-1-0.5-1.9-0.3c-0.9,0.3-1.5,0.8-1.3,1.3
			L667,485.3z"/>
		<path d="M687,468.3c-0.9,0.4-0.7,1.3-0.4,1.7c2.9,3.9,3,26.4-4.8,18c-0.1-0.3-0.2-0.6-0.3-0.8c0.4-1.1,1.2-4.4,1.1-7.9
			c-0.1-2.1-1-4.2-2.1-5.7c-0.5-0.7-1.1-1.3-1.7-1.6c-0.8-0.5-1.8-0.7-2.9-0.3c-0.8,0.2-1.4,0.6-1.8,1.2c-0.5,0.7-0.5,3,0,5.7
			c0.4,2.1,1.2,4.4,2.1,6.5c1,2.2,2.3,4.1,3.9,5.2c0.2,0.1,0.3,0.2,0.5,0.3c0.8,3.5,1.5,7.7,0.4,9.2c-0.7,0.5-1.8,0-3.3-1.9
			c-0.5-0.7-1-1.5-1.4-2.3c0.5-1.5,1-3.2,1.3-4.5c0.2-0.4,0.1-0.8-0.8-0.7c-0.8,0.1-0.7,0.7-0.8,1.2c-0.2,0.8-0.4,1.5-0.6,2.2
			c-0.9-1.9-1.6-3.8-2-5c-0.1-0.5-0.9-0.6-1.8-0.4c-0.9,0.2-1.5,0.8-1.4,1.3c0.4,1.9,1.7,5,3.4,7.7c-0.7,0.2-1.8-0.4-2.6-0.3
			c-2.5,0.4-3.1,4.3-3.3,7.3l-2.7-4.7c-0.2-0.4-1.1-0.5-2-0.2c-0.8,0.2-1.4,0.8-1.2,1.2l10.5,18.4c0.2,0.4,1.1,0.5,2,0.2
			c0.8-0.2,1.4-0.8,1.2-1.2c-0.4-0.7-4.5-7.5-4.5-7.7c0,0-2.1-9-0.3-9.4c2.2-0.5,3.1-0.7,4-1.9l0,0c1.8,2.4,3.9,4.1,6.1,4
			c3.9-0.2,3.3-6.4,2.1-11.5c2,0.4,4.1-0.1,5.8-1.3c5-3.6,2.4-18.2-0.1-21.7C688.1,468.1,687.8,468,687,468.3z M677.3,477.8
			c-0.3-1.4-0.4-2.6-0.4-3.5c0.2,0.3,0.4,0.4,0.6,0.7c1,1.4,1.9,3.3,2,5.2c0,1.4-0.1,2.6-0.3,3.7
			C678.3,481.9,677.7,479.7,677.3,477.8z"/>
		<path d="M708.2,433.6c3.7-3.1-3.5-14.1-3.5-14.1c-0.3-0.4-0.3-0.9-1.1-0.4c-0.8,0.4-0.1,1.5,0.1,1.8c0,0.1,4.7,10.2,2.4,12.2
			c0,0-1.8-1.8-3.5-3.3c-1-0.9-1.8-1.7-2.5-2.1c-1.7-1.1-3.2-1.1-4.6,0.9v0.1c-0.9,1.5,1,6.9,3.2,11.9l-2.8-2.9
			c-0.3-0.3-1.2-0.3-2,0.2c-0.8,0.4-1.1,1.1-0.8,1.5l3.9,4c-0.1,0-0.3,0-0.6,0.2c-0.9,0.3-0.2,1.5,0,1.8c0,0.1,3.9,10.6,1.5,12.3
			c0,0-1.7-1.9-3.2-3.6c-0.9-0.9-1.7-1.8-2.4-2.3c-1.6-1.2-3.1-1.4-4.6,0.6l-0.1,0.1c-1,1.4,0.5,6.9,2.3,12.1l-2.6-3.1
			c-0.3-0.4-1.2-0.4-2,0.1c-0.8,0.4-1.2,1-0.9,1.4l9.2,11c0.3,0.4,1.1,0.3,2-0.1c0.7-0.4,1.2-1,1-1.3c-0.2-0.4-5.8-13.6-6.4-18.6
			c0.5,0.4,1,1,1.4,1.5c2.3,2.5,4.9,5.3,8.3,2.8c3.9-2.9-2.5-14.3-2.5-14.3c-0.1-0.1-0.1-0.2-0.1-0.3l5.8,5.9c0.3,0.3,1.2,0.2,2-0.2
			c0.7-0.4,1.1-1,0.9-1.4c-0.2-0.4-6.7-13.1-7.7-18.1c0.5,0.4,1,0.9,1.5,1.4C702.2,433.7,705,436.3,708.2,433.6z"/>
	</g>
</g>
</svg>
