<?xml version="1.0" encoding="utf-8"?>
<!-- Generator: Adobe Illustrator 27.2.0, SVG Export Plug-In . SVG Version: 6.00 Build 0)  -->
<svg version="1.1" id="Layer_2" xmlns="http://www.w3.org/2000/svg" xmlns:xlink="http://www.w3.org/1999/xlink" x="0px" y="0px"
	 viewBox="0 0 579.11 579.48" style="enable-background:new 0 0 579.11 579.48;" xml:space="preserve">
<style type="text/css">
	.st0{fill:#6D4545;}
	.st1{fill:none;stroke:#6D4545;stroke-width:3;stroke-miterlimit:10;}
	.st2{fill:#FFFFFF;stroke:#704848;stroke-width:3;stroke-miterlimit:10;}
</style>
<g>
	<g>
		<path class="st0" d="M179.62,450.49c-1.36-0.79-2.74-1.25-4.12-1.37c-1.38-0.12-2.73,0.06-4.07,0.52
			c-1.34,0.47-2.62,1.17-3.84,2.1c-1.23,0.94-2.38,2.06-3.45,3.36l-9,10.9l-13.34-11.02l9.16-11.05c0.59-0.54,1.29-0.86,2.13-0.92
			c0.97-0.08,1.82,0.18,2.56,0.79c0.03,0.02,0.11,0.09,0.25,0.21c0.14,0.12,0.23,0.19,0.25,0.21l0.35-0.42l-3.22-2.66v0l-6.36-5.25
			v0l-3.27-2.7l-0.35,0.42c0.03,0.02,0.11,0.09,0.25,0.21c0.14,0.12,0.23,0.19,0.25,0.21c0.76,0.63,1.18,1.43,1.26,2.4
			c0.08,0.97-0.17,1.81-0.76,2.51l0.04,0.03l-18.85,22.74c-0.89,1.07-1.8,2.07-2.74,2.98c-0.94,0.91-1.92,1.67-2.95,2.27
			c-1.02,0.61-2.12,0.97-3.29,1.1c-1.17,0.12-2.46-0.06-3.86-0.55l-0.26,0.49c1.48,1.6,3.08,2.75,4.78,3.45
			c1.71,0.7,3.43,0.98,5.18,0.85c1.75-0.13,3.44-0.65,5.07-1.56c1.63-0.91,3.11-2.17,4.44-3.78l8.46-10.21l13.34,11.02l-9.04,10.94
			v0c-0.66,0.74-1.47,1.14-2.42,1.21c-0.96,0.07-1.79-0.19-2.5-0.78c-0.06-0.05-0.16-0.13-0.3-0.25c-0.14-0.12-0.23-0.19-0.25-0.21
			l-0.35,0.42l3.39,2.8l0,0l6.23,5.15l0,0l3.22,2.66l0.35-0.42c-0.03-0.02-0.2-0.16-0.51-0.42c-0.73-0.61-1.15-1.39-1.26-2.36
			c-0.1-0.97,0.15-1.82,0.75-2.55l0,0l19.51-23.62c0.93-1.13,1.86-2.15,2.78-3.06c0.92-0.91,1.88-1.64,2.89-2.21
			c1.01-0.56,2.11-0.9,3.29-1c1.18-0.1,2.49,0.07,3.93,0.5l0.27-0.49C182.33,452.49,180.99,451.28,179.62,450.49z"/>
		<path class="st0" d="M140.64,431.62c0.98,0.37,1.73,0.88,2.25,1.54l0.31,0.39l0.43-0.34l-7.35-9.19l-0.43,0.34l0.31,0.39
			c0.27,0.34,0.44,0.77,0.5,1.29c0.06,0.52-0.05,1-0.34,1.47c-0.27,0.44-0.76,0.77-1.45,1l-7.16,2.06l-8.06-10.08l3.6-6.33
			l0.01,0.01c0.58-1.03,1.28-1.52,2.1-1.47c0.82,0.05,1.45,0.36,1.91,0.94l0.31,0.39l0.43-0.34L117.09,400l-0.04,0.03l-1.79-3.57
			l0,0l-3.45-6.88l0,0l-2.04-4.08l-0.49,0.25c0.3,0.59,0.45,0.9,0.47,0.93c0.41,0.82,0.47,1.67,0.17,2.56s-0.85,1.53-1.67,1.94
			l0,0.01l-19.47,9.79l11.21-36.73l-0.22-0.44c-0.95,0.72-1.88,1.38-2.8,1.96c-0.92,0.58-1.98,1.18-3.2,1.79l-25.33,12.68
			c-0.87,0.39-1.74,0.44-2.6,0.14c-0.87-0.3-1.51-0.86-1.92-1.68l-0.44-0.88l-0.49,0.25l2.04,4.08l0,0l3.37,6.74l0,0l2.04,4.08
			l0.49-0.25c-0.02-0.03-0.17-0.34-0.47-0.93c-0.43-0.85-0.5-1.71-0.21-2.57c0.29-0.86,0.85-1.52,1.68-1.98l0,0l19.44-9.73
			l-11.23,36.69l0.25,0.49c2.06-1.53,4.02-2.75,5.85-3.67l25.52-12.78l0,0c0.82-0.41,1.67-0.47,2.56-0.17s1.53,0.85,1.94,1.67
			c0.02,0.03,0.17,0.34,0.47,0.93l0.12-0.06l0.08,0.1c0.53,0.66,0.86,1.5,0.99,2.52c0.13,0.96-0.08,2.03-0.59,3.21l-17.75,35.11
			l0.31,0.39c0.32-0.25,0.83-0.5,1.55-0.75c0.72-0.25,1.48-0.49,2.27-0.72s1.52-0.44,2.16-0.6s1.09-0.27,1.33-0.32l30.63-8.09
			C138.89,431.26,139.83,431.31,140.64,431.62z M125.31,431.24l-14.07,4.04l7.18-12.65L125.31,431.24z"/>
		<path class="st0" d="M70.67,366.63c2.63,0.46,5.41,0.32,8.32-0.42c2.84-0.73,5.32-1.92,7.43-3.6c2.11-1.67,3.78-3.71,5-6.1
			c1.23-2.39,1.97-5.04,2.23-7.95c0.26-2.9-0.02-5.96-0.83-9.15c-0.73-2.88-1.75-5.41-3.05-7.6c-0.58-0.98-1.18-1.87-1.79-2.69
			c0.28-0.18,0.56-0.36,0.83-0.55c1.94-1.44,3.52-3.17,4.75-5.19c1.23-2.02,2.02-4.22,2.39-6.63c0.37-2.4,0.21-4.92-0.48-7.54
			c-0.69-2.62-1.98-5.27-3.87-7.92l-0.51,0.24c1.25,2.67,1.88,5.19,1.9,7.55c0.02,2.36-0.48,4.51-1.48,6.45
			c-1,1.94-2.4,3.59-4.21,4.96c-1.81,1.37-3.89,2.37-6.26,3.02l-8.37,2.14c-1.62,0.49-2.66-0.17-3.12-1.99l-0.22-0.85l-0.53,0.14
			l3.82,14.98l0.53-0.14l-0.2-0.8c-0.23-0.89-0.19-1.63,0.12-2.21c0.3-0.59,0.85-0.96,1.64-1.13l8.1-2.07
			c1.74,0.16,3.3,0.93,4.67,2.3c1.37,1.37,2.34,3.16,2.9,5.36c0.52,2.03,0.58,4,0.18,5.92s-1.19,3.69-2.36,5.31
			c-1.17,1.62-2.71,3.04-4.62,4.24c-1.91,1.21-4.1,2.13-6.59,2.76c-3.45,0.88-6.63,1.05-9.55,0.51c-2.92-0.54-5.38-1.7-7.39-3.48
			c-2-1.78-3.36-4.05-4.07-6.82c-0.55-2.17-0.71-4.27-0.48-6.32c0.24-2.05,0.9-3.91,2.01-5.59c1.1-1.68,2.7-3.09,4.79-4.23
			l-0.12-0.48l-9.1,2.38c-0.3,1.18-0.47,2.6-0.5,4.27c-0.03,1.67,0.06,3.47,0.27,5.41s0.56,3.88,1.06,5.83
			c0.83,3.27,2.06,6.14,3.68,8.63c1.62,2.48,3.54,4.5,5.77,6.05C65.6,365.16,68.04,366.16,70.67,366.63z"/>
		<path class="st0" d="M53.87,303.61l29.52,11.52c0.95,0.49,1.68,1.09,2.15,1.81c0.57,0.88,0.88,1.73,0.91,2.58l0.02,0.49l0.55-0.02
			l-0.52-11.76l-0.55,0.02l0.02,0.49c0.02,0.44-0.1,0.88-0.35,1.34c-0.25,0.45-0.63,0.78-1.14,0.99c-0.48,0.19-1.06,0.17-1.76-0.05
			l-7-2.56l-0.57-12.9l6.64-3l0,0.01c1.08-0.49,1.93-0.47,2.56,0.05s0.96,1.15,0.99,1.88l0.02,0.5l0.55-0.02l-0.77-17.47l-0.55,0.02
			l0.02,0.44c0.04,0.84-0.19,1.72-0.68,2.62c-0.46,0.85-1.26,1.59-2.36,2.24l-35.04,17.91l0.02,0.49c0.4-0.02,0.97,0.09,1.69,0.31
			s1.48,0.48,2.26,0.75c0.78,0.28,1.48,0.54,2.1,0.79S53.65,303.51,53.87,303.61z M73.37,307.59l-13.74-5.03l13.26-5.99
			L73.37,307.59z"/>
		<path class="st0" d="M51.66,246.12c0.11-0.72,0.46-1.19,1.04-1.4c0.58-0.2,1.14-0.05,1.68,0.46l15.17,15.53
			c1.32-0.65,2.51-1.25,3.55-1.8c1.05-0.55,2.16-1.13,3.35-1.75c1.19-0.62,2.34-1.22,3.47-1.79s2.09-1.08,2.9-1.51
			c0.81-0.44,1.35-0.72,1.63-0.87c1.29-0.7,2.34-1.59,3.15-2.67c0.81-1.08,1.43-2.19,1.86-3.31c0.43-1.12,0.73-2.14,0.9-3.06
			s0.29-1.58,0.35-1.98l0.5-3.32l3.88-10.54l-0.52-0.19l-0.17,0.46c-0.15,0.41-0.43,0.78-0.84,1.1c-0.41,0.32-0.89,0.47-1.43,0.47
			c-0.52,0-1.05-0.25-1.61-0.73l-5.46-5.07l4.46-12.11l7.28-0.19l0,0.01c1.18-0.03,1.97,0.31,2.34,1.04
			c0.38,0.73,0.44,1.43,0.19,2.12l-0.17,0.46l0.52,0.19l6.03-16.37l0.07,0.04l2.33-3.73l0,0l3.97-6.36l4.27-6.85
			c2.29-3.67,3.61-7.26,3.96-10.76c0.35-3.5-0.25-6.73-1.79-9.71c-1.54-2.97-3.99-5.5-7.35-7.6c-3.36-2.1-6.71-3.18-10.06-3.26
			c-3.34-0.08-6.51,0.81-9.5,2.66c-2.99,1.85-5.63,4.61-7.92,8.28L79,169.53l-3.64,5.84l0,0l-2.24,3.59l0.5,0.24l0.35-0.56
			c0.5-0.81,1.23-1.33,2.17-1.56c0.94-0.23,1.82-0.1,2.63,0.41l0,0l25.85,16.13c0.79,0.54,1.29,1.27,1.51,2.21
			c0.22,0.94,0.07,1.81-0.43,2.62l-0.38,0.61l0.19,0.12l-0.3-0.11l-0.15,0.41c-0.29,0.79-0.84,1.51-1.64,2.15
			c-0.76,0.6-1.78,0.98-3.05,1.16l-39.23,2.96l-0.17,0.46c0.38,0.14,0.86,0.45,1.44,0.94c0.58,0.49,1.18,1.01,1.8,1.57
			c0.61,0.56,1.16,1.07,1.63,1.54s0.79,0.79,0.96,0.97l22.76,22.04c0.69,0.82,1.13,1.66,1.29,2.51c0.11,0.6,0.13,1.15,0.07,1.67
			l-0.07-0.01c-0.2,1.12-0.65,2.07-1.35,2.86c-0.69,0.79-1.65,1.52-2.86,2.19l-20.51,10.72L54.9,240.42
			c-0.54-0.75-0.97-1.6-1.25-2.54c-0.33-1.11-0.41-2.26-0.23-3.46l0.03-0.22l-0.49-0.07l-0.03,0.22l-1.83,12.24l0.49,0.07
			L51.66,246.12z M83.73,166.32c0.49-0.78,1.01-1.62,1.57-2.52c1.4-2.24,3.18-3.8,5.36-4.69c2.18-0.89,4.61-1.1,7.3-0.63
			c2.69,0.47,5.51,1.62,8.47,3.47c2.96,1.84,5.23,3.87,6.84,6.08c1.6,2.21,2.48,4.49,2.64,6.83c0.16,2.35-0.46,4.64-1.86,6.88
			c-0.54,0.87-1.05,1.68-1.51,2.43s-0.99,1.58-1.56,2.5c-0.17,0.28-0.36,0.58-0.54,0.86l-28.74-17.94c0.13-0.21,0.28-0.44,0.41-0.65
			C82.7,167.97,83.24,167.1,83.73,166.32z M83.23,222.44l-10.73-9.95l14.54-0.39L83.23,222.44z"/>
		<path class="st0" d="M47.86,271.86c0-0.04,0.02-0.15,0.05-0.35c0.03-0.2,0.05-0.32,0.05-0.35c0.14-0.94,0.6-1.7,1.37-2.27
			c0.77-0.57,1.63-0.8,2.58-0.7l30.13,4.51l0,0c0.94,0.18,1.69,0.65,2.26,1.42c0.57,0.77,0.79,1.63,0.64,2.57
			c-0.01,0.04-0.02,0.15-0.05,0.35c-0.03,0.2-0.05,0.32-0.05,0.35l0.54,0.08l0.65-4.35l0,0l1.17-7.83l0,0l0.02-0.15l0-0.01l0,0
			l0.63-4.19l-0.54-0.08c0,0.04-0.02,0.15-0.05,0.35s-0.05,0.32-0.05,0.35c-0.14,0.94-0.6,1.7-1.37,2.27
			c-0.77,0.57-1.63,0.8-2.58,0.7l-30.13-4.51l0,0c-0.94-0.18-1.69-0.65-2.26-1.42c-0.57-0.77-0.79-1.63-0.64-2.57
			c0.01-0.04,0.02-0.15,0.05-0.35s0.05-0.32,0.05-0.35l-0.54-0.08l-0.63,4.19l0,0l-1.2,8l0,0l-0.02,0.14l0,0.02l0,0l-0.63,4.19
			L47.86,271.86z"/>
		<path class="st0" d="M105.6,121.41c0.23,1.44,0.53,2.75,0.9,3.93l0.54-0.03c0.59-1.09,1.13-2.3,1.63-3.61
			c0.49-1.31,0.93-2.66,1.31-4.04c0.38-1.38,0.7-2.73,0.94-4.04c-0.98-0.39-1.94-0.61-2.88-0.67c-0.94-0.06-1.94,0.1-3.01,0.47
			c0.03,1.06,0.07,2.3,0.13,3.71S105.37,119.97,105.6,121.41z"/>
		<path class="st0" d="M100,139.02l0.48-0.53c0.64-0.71,1.44-1.09,2.39-1.14c0.96-0.05,1.8,0.23,2.53,0.84l22.62,20.42
			c0.68,0.67,1.05,1.48,1.1,2.44c0.05,0.96-0.25,1.79-0.88,2.5l-0.48,0.53l0.41,0.37l2.95-3.27l0,0l5.31-5.88l0,0l3.61-4v0
			l3.55-3.93l3.56-3.95l0,0l0.11-0.12l-6.63-9.4l-0.37,0.41c0.94,1.64,1.58,3.27,1.91,4.91c0.33,1.63,0.29,3.2-0.11,4.72
			c-0.4,1.51-1.22,2.95-2.45,4.31v0l-4.83,5.35l-11.47-10.35l4.86-5.39l0,0c0.94-0.98,2.03-1.51,3.27-1.57
			c1.24-0.06,2.35,0.35,3.33,1.23l0.37,0.33l0.37-0.41l-3.84-3.46l0,0l-1.71-1.55l0,0l-3.84-3.46l-0.37,0.41l0.33,0.29
			c0.98,0.88,1.51,1.95,1.59,3.21c0.08,1.26-0.32,2.4-1.21,3.43l0,0l-4.86,5.39l-11.88-10.72l6.42-7.11
			c1.07-0.99,2.24-1.54,3.51-1.59c1.44-0.06,2.78,0.47,4.04,1.6l0.49,0.44l0.37-0.41l-4.78-4.31l0,0l-1.18-1.07l0,0l-1.18-1.07
			c-0.11,0.34-0.37,0.85-0.78,1.52c-0.41,0.67-0.87,1.38-1.39,2.12c-0.52,0.74-1.05,1.41-1.59,2.01l-5.68,6.29l0,0l-5.53,6.12l0,0
			l-2.84,3.14L100,139.02z"/>
		<path class="st0" d="M190.06,109.27l-0.71,0.52c-0.77,0.57-1.64,0.83-2.62,0.8c-0.93-0.03-1.79-0.41-2.56-1.12l-24.78-25.71
			l-0.4,0.29l3.48,32.29l-30.4-12.46l-0.4,0.29l17.25,31.08l-0.02,0.01c0.53,0.97,0.67,1.93,0.41,2.88
			c-0.26,0.94-0.79,1.71-1.59,2.3c-0.44,0.33-0.68,0.5-0.71,0.52l0.33,0.44l4.92-3.62l0,0l1.64-1.21l0,0l2.75-2.02l-0.29-0.4
			l-0.71,0.52c-0.47,0.35-1.03,0.45-1.66,0.3c-0.63-0.15-1.12-0.46-1.47-0.93c-0.04-0.06-0.08-0.1-0.1-0.13l-9.91-17.07l25.46,10.73
			l0.44-0.33c-0.54-0.74-0.95-1.58-1.21-2.52c-0.26-0.94-0.48-2.15-0.65-3.62l-2.29-20.46l13.44,14.63c0,0,0,0.01,0.01,0.01
			c0.02,0.03,0.05,0.07,0.1,0.13c0.35,0.47,0.51,1.03,0.48,1.67c-0.03,0.64-0.3,1.14-0.8,1.51l-0.67,0.49l0.29,0.4l2.66-1.96l0,0
			l7.13-5.25v0l3.5-2.58L190.06,109.27z"/>
		<path class="st0" d="M205.91,103.14c-0.86,0.42-1.74,0.48-2.65,0.17c-0.91-0.31-1.59-0.88-2.05-1.72l0,0L187.7,74.29
			c-0.39-0.87-0.43-1.76-0.12-2.67c0.31-0.91,0.89-1.57,1.74-2c0.39-0.2,0.61-0.3,0.64-0.32l-0.24-0.49l-3.8,1.88l0,0l-7.39,3.66
			l0,0l-3.8,1.88l0.24,0.49l0.64-0.32c0.85-0.42,1.74-0.48,2.65-0.17c0.91,0.31,1.59,0.88,2.04,1.71l13.52,27.31
			c0.39,0.87,0.43,1.76,0.12,2.67c-0.31,0.91-0.89,1.57-1.74,2l-0.64,0.32l0.24,0.49l3.94-1.95l0,0l7.1-3.51l0,0l3.94-1.95
			l-0.24-0.49C206.52,102.84,206.3,102.95,205.91,103.14z"/>
		<path class="st0" d="M246.8,88.85c-0.8,0.26-1.71,0.27-2.71,0.03c-0.94-0.22-1.87-0.79-2.79-1.69l-26.5-29.08l-0.47,0.15
			c0.12,0.38,0.17,0.96,0.15,1.71c-0.03,0.76-0.07,1.55-0.13,2.38c-0.06,0.83-0.13,1.57-0.21,2.23c-0.08,0.66-0.13,1.11-0.17,1.35
			l-3.34,31.5c-0.22,1.05-0.61,1.91-1.18,2.56c-0.69,0.78-1.44,1.3-2.24,1.56l-0.47,0.15l0.17,0.52l11.21-3.6l-0.17-0.52l-0.47,0.15
			c-0.42,0.13-0.88,0.14-1.38,0.01s-0.92-0.41-1.25-0.84c-0.31-0.41-0.45-0.98-0.42-1.71l0.63-7.43l12.29-3.95l4.64,5.62l-0.01,0
			c0.75,0.91,0.96,1.74,0.62,2.49c-0.34,0.74-0.86,1.23-1.56,1.45l-0.47,0.15l0.17,0.52l16.65-5.35l-0.17-0.52L246.8,88.85z
			 M215.26,85.81l1.23-14.58l9.26,11.21L215.26,85.81z"/>
		<path class="st0" d="M370.73,61.07l-3.55-1.09c-0.34-0.15-0.69-0.31-1.07-0.47c-1.07-0.46-2.11-0.89-3.12-1.28
			c-1.01-0.39-1.87-0.69-2.57-0.91c-2.21-0.68-4.23-0.88-6.06-0.6c-1.83,0.28-3.42,0.97-4.75,2.07c-1.34,1.1-2.36,2.54-3.06,4.32
			c-0.8,1.86-1.04,3.75-0.71,5.65s1.27,3.67,2.8,5.29l7.32,8.93c1.22,1.26,2.02,2.43,2.4,3.5c0.38,1.08,0.4,2.16,0.06,3.24
			c-0.5,1.61-1.55,2.79-3.16,3.54c-1.61,0.75-3.58,0.79-5.9,0.11c-2.11-0.61-3.79-1.6-5.04-2.97c-1.25-1.36-2.03-2.93-2.35-4.7
			c-0.32-1.77-0.13-3.52,0.56-5.27l-0.47-0.15c-0.68,0.6-1.35,1.41-1.99,2.44c-0.64,1.03-1.15,2.08-1.52,3.16
			c-0.37,1.08-0.54,2.04-0.49,2.9c0.46,0.87,1.18,1.72,2.15,2.53s2.15,1.58,3.52,2.29s2.83,1.3,4.37,1.78
			c4.21,1.3,7.83,1.37,10.87,0.21c3.04-1.15,5.18-3.42,6.41-6.8c0.71-1.93,0.88-3.76,0.51-5.48c-0.37-1.73-1.22-3.29-2.55-4.7
			l-8.03-9.61c-0.88-1-1.55-1.99-2.02-2.98c-0.46-0.99-0.51-2-0.16-3.04c0.5-1.38,1.53-2.37,3.07-2.97c1.54-0.6,3.33-0.58,5.37,0.04
			c2.24,0.69,3.87,1.8,4.88,3.32c1.01,1.52,1.23,3.19,0.67,5.01l0.53,0.16l2.82-6.9c0,0,0,0-0.01,0L370.73,61.07z"/>
		<path class="st0" d="M411.59,101.96c1.91-3.67,2.77-7.24,2.57-10.69c-0.21-3.46-1.37-6.66-3.49-9.6
			c-2.12-2.95-5.14-5.44-9.04-7.47s-7.67-3.08-11.3-3.13c-3.63-0.05-6.92,0.84-9.86,2.68c-2.94,1.84-5.36,4.58-7.26,8.22
			c-1.92,3.67-2.78,7.23-2.59,10.68s1.34,6.64,3.47,9.59c2.12,2.95,5.14,5.44,9.04,7.47c3.9,2.03,7.67,3.08,11.3,3.13
			c3.63,0.05,6.93-0.83,9.88-2.66C407.27,108.34,409.7,105.6,411.59,101.96z M397.86,105.41c-2.12,1.88-4.34,3.02-6.69,3.43
			c-2.34,0.41-4.67,0.02-6.98-1.19c-2.28-1.19-3.92-2.86-4.92-5.01c-1.01-2.16-1.35-4.64-1.04-7.46c0.31-2.82,1.3-5.83,2.98-9.05
			c1.68-3.22,3.58-5.76,5.71-7.63c2.13-1.87,4.37-3.01,6.71-3.42c2.34-0.41,4.65-0.02,6.93,1.16c2.31,1.2,3.96,2.88,4.97,5.04
			c1,2.16,1.34,4.64,1.02,7.45c-0.33,2.81-1.33,5.82-3,9.04C401.87,100.99,399.97,103.54,397.86,105.41z"/>
		<path class="st0" d="M414.27,110.79c-1.91,2.33-3.03,4.76-3.38,7.29c-0.35,2.54,0.13,5.11,1.45,7.73
			c1.31,2.62,3.47,5.16,6.48,7.62c2.58,2.12,5.16,3.46,7.75,4.04s5.06,0.42,7.44-0.48s4.51-2.51,6.42-4.84l13.49-16.46l0,0
			c0.51-0.62,1.15-0.95,1.91-0.99c0.76-0.04,1.46,0.2,2.08,0.71l0.68,0.56l0.35-0.43l-3.02-2.48v0l-2.85-2.34l0,0l-3.06-2.51
			l-0.35,0.43l0.68,0.56c0.62,0.51,0.99,1.15,1.11,1.9c0.11,0.76-0.08,1.45-0.59,2.07l-13.7,16.72c-1.56,1.9-3.25,3.27-5.07,4.1
			c-1.82,0.83-3.67,1.11-5.55,0.82c-1.88-0.28-3.68-1.13-5.41-2.55c-1.7-1.39-2.84-2.99-3.43-4.8c-0.58-1.8-0.6-3.72-0.06-5.74
			c0.54-2.02,1.64-4.04,3.29-6.05l13.25-16.17c0.51-0.62,1.15-0.95,1.91-0.99c0.76-0.04,1.46,0.2,2.08,0.71l0.68,0.56l0.35-0.43
			l-3.02-2.48v0l-6.17-5.06l0,0l-3.06-2.51l-0.35,0.43l0.68,0.56c0.62,0.51,0.99,1.15,1.11,1.9c0.11,0.76-0.08,1.45-0.59,2.07
			L414.27,110.79z"/>
		<path class="st0" d="M437.28,146.23c-0.93-0.1-1.68-0.5-2.26-1.22c-0.02-0.03-0.24-0.3-0.66-0.81l-0.43,0.35l2.87,3.55l0,0
			l4.84,5.99l0,0l2.77,3.42l0.43-0.35c-0.42-0.51-0.63-0.79-0.66-0.81c-0.58-0.71-0.81-1.53-0.72-2.46s0.5-1.68,1.22-2.26l0-0.01
			l16.93-13.73l-3.11,38.27l0.31,0.39c0.77-0.91,1.55-1.75,2.32-2.51c0.77-0.77,1.69-1.57,2.74-2.43l22.03-17.8l0,0
			c0.76-0.57,1.6-0.8,2.52-0.69c0.91,0.11,1.66,0.52,2.23,1.23l0.62,0.77l0.43-0.35l-2.77-3.42v0l-4.91-6.08l0,0l-2.8-3.47
			l-0.43,0.35c0.02,0.03,0.24,0.3,0.66,0.81c0.6,0.74,0.85,1.56,0.75,2.47c-0.1,0.9-0.5,1.67-1.22,2.29v0l-16.91,13.66l3.14-38.24
			l-0.35-0.43c-1.69,1.93-3.34,3.54-4.93,4.83l-22.21,17.94C439.03,146.09,438.21,146.33,437.28,146.23z"/>
		<path class="st0" d="M467.81,182.16L467.81,182.16c-0.87,0.39-1.76,0.44-2.67,0.14c-0.91-0.3-1.58-0.88-2.01-1.73l-0.32-0.64
			l-0.49,0.25l1.9,3.79l0,0l3.7,7.38l0,0l3.35,6.69c1.94,3.87,4.31,6.86,7.12,8.98c2.81,2.12,5.88,3.3,9.22,3.53
			c3.34,0.23,6.78-0.54,10.32-2.31s6.21-4.07,8.02-6.88c1.81-2.81,2.7-5.98,2.68-9.5c-0.02-3.52-1-7.21-2.94-11.08l-6.14-12.24l0,0
			l-0.91-1.82l0,0l-1.9-3.79l-0.47,0.3l0.3,0.59c0.43,0.85,0.49,1.74,0.2,2.67c-0.29,0.93-0.87,1.6-1.72,2.03l0,0L467.81,182.16z
			 M504.54,188.23c-0.38,2.32-1.46,4.51-3.26,6.56c-1.8,2.05-4.26,3.86-7.37,5.42c-3.11,1.56-6.03,2.45-8.75,2.67
			c-2.72,0.22-5.12-0.22-7.21-1.31c-2.08-1.09-3.72-2.81-4.9-5.17c-0.46-0.92-0.89-1.77-1.28-2.56s-0.83-1.66-1.32-2.63
			c-0.15-0.29-0.31-0.61-0.46-0.91l30.29-15.19c0.11,0.23,0.23,0.47,0.34,0.69c0.51,1.02,0.97,1.93,1.38,2.75
			c0.41,0.82,0.85,1.7,1.33,2.65C504.51,183.57,504.92,185.91,504.54,188.23z"/>
		<path class="st0" d="M486.46,230.3c-0.7-0.77-1.14-1.57-1.31-2.4l-0.1-0.48l-0.54,0.11l2.37,11.53l0.54-0.11l-0.1-0.49
			c-0.09-0.43-0.04-0.89,0.14-1.38s0.5-0.87,0.97-1.15c0.44-0.27,1.03-0.34,1.75-0.23l7.31,1.42l2.6,12.64l-6.08,4.01l0-0.01
			c-0.99,0.65-1.83,0.77-2.54,0.35c-0.7-0.42-1.13-0.98-1.28-1.7l-0.1-0.49l-0.54,0.11l3.52,17.13l0.54-0.11l-0.09-0.43
			c-0.17-0.83-0.08-1.72,0.26-2.69c0.32-0.91,0.99-1.78,1.98-2.59l31.76-23.22l-0.1-0.49c-0.4,0.08-0.97,0.07-1.72-0.04
			s-1.54-0.24-2.35-0.39c-0.82-0.15-1.55-0.3-2.2-0.45c-0.65-0.15-1.09-0.25-1.33-0.32l-30.96-6.7
			C487.86,231.42,487.04,230.94,486.46,230.3z M499.95,237.6l14.37,2.79l-12.14,8L499.95,237.6z"/>
		<path class="st0" d="M532.25,286.07c-0.13-4.65-1.05-8.64-2.76-11.94c-1.71-3.31-4.08-5.82-7.12-7.53
			c-3.04-1.71-6.61-2.51-10.71-2.39c-4.21,0.12-7.78,1.14-10.7,3.05c-2.92,1.92-5.12,4.57-6.62,7.97c-1.5,3.4-2.2,7.33-2.11,11.81
			c0.08,2.75,0.48,5.12,1.22,7.12c0.74,2,1.67,3.66,2.81,4.98c1.14,1.32,2.4,2.37,3.78,3.14l9.44-0.76l-0.01-0.44
			c-3.61-0.49-6.49-1.29-8.65-2.42c-2.16-1.13-3.73-2.66-4.7-4.57c-0.97-1.92-1.5-4.29-1.58-7.11c0-2.71,0.7-5.09,2.11-7.13
			c1.41-2.04,3.42-3.64,6.03-4.79c2.61-1.16,5.73-1.79,9.35-1.89c3.63-0.1,6.76,0.38,9.39,1.44s4.7,2.62,6.18,4.67
			c1.49,2.05,2.27,4.54,2.36,7.47c0.08,3-0.62,5.65-2.11,7.93c-1.5,2.28-4.04,3.97-7.64,5.06l0.01,0.49l9.4-0.38
			c0.8-1.56,1.46-3.52,1.98-5.86C532.11,291.64,532.33,289,532.25,286.07z"/>
		<path class="st0" d="M526.09,324.91c-0.71-0.43-1.35-0.82-1.9-1.19c-0.56-0.37-0.93-0.62-1.13-0.76l-26.63-17.13
			c-0.84-0.67-1.44-1.4-1.76-2.21c-0.39-0.97-0.51-1.87-0.38-2.7l0.08-0.49l-0.54-0.08l-1.82,11.63l0.54,0.08l0.08-0.49
			c0.07-0.43,0.27-0.85,0.61-1.24c0.34-0.39,0.78-0.64,1.31-0.74c0.51-0.1,1.08,0.04,1.71,0.39l6.36,3.9l-2,12.75l-7.1,1.62l0-0.01
			c-1.16,0.26-1.99,0.08-2.5-0.56s-0.71-1.32-0.6-2.04l0.08-0.49l-0.54-0.08l-2.7,17.22l-0.07-0.03l-1.49,3.96l0,0l-0.93,2.47l0,0
			l-4.62,12.25c-1.53,4.05-2.12,7.82-1.77,11.32c0.35,3.5,1.56,6.56,3.66,9.17c2.09,2.61,4.99,4.62,8.7,6.01
			c3.71,1.4,7.2,1.81,10.5,1.23c3.29-0.58,6.23-2.07,8.8-4.47c2.57-2.4,4.62-5.63,6.15-9.67l2.64-7l0,0l1.3-3.44l0.9-2.38l0,0
			l0.66-1.75l0,0l1.55-4.12l-0.53-0.14l-0.23,0.62c-0.34,0.89-0.94,1.54-1.83,1.96c-0.88,0.41-1.77,0.45-2.66,0.11l0,0l-28.51-10.75
			c-0.88-0.37-1.52-0.99-1.91-1.87c-0.4-0.88-0.42-1.76-0.09-2.65l0.25-0.67l-0.15-0.06l0.24,0.04l0.07-0.43
			c0.13-0.83,0.53-1.64,1.19-2.43c0.62-0.74,1.55-1.31,2.76-1.73l37.89-10.61l0.08-0.49c-0.4-0.06-0.93-0.28-1.6-0.64
			C527.49,325.73,526.8,325.33,526.09,324.91z M516.36,367.42c-0.4,1.06-0.76,2.02-1.09,2.88c-0.32,0.86-0.67,1.78-1.05,2.78
			c-0.93,2.47-2.38,4.35-4.34,5.65s-4.3,1.98-7.03,2.05c-2.73,0.07-5.72-0.51-8.98-1.74c-3.26-1.23-5.89-2.77-7.9-4.62
			c-2-1.85-3.31-3.92-3.93-6.18c-0.61-2.27-0.45-4.64,0.48-7.11c0.36-0.96,0.7-1.85,1.01-2.68c0.31-0.82,0.66-1.74,1.04-2.75
			c0.12-0.31,0.24-0.64,0.36-0.95l31.7,11.95C516.54,366.94,516.44,367.19,516.36,367.42z M504.73,315.18l12.47,7.65l-14.18,3.24
			L504.73,315.18z"/>
		<path class="st0" d="M504.63,400.3l-0.37,0.61c-0.49,0.82-1.2,1.34-2.13,1.58c-0.93,0.23-1.81,0.12-2.65-0.33l0,0l-26.16-15.62
			c-0.8-0.52-1.31-1.25-1.55-2.17c-0.23-0.93-0.11-1.8,0.38-2.62l0.37-0.61l-0.47-0.28l-2.17,3.64l0,0l-4.23,7.08l0,0l-2.68,4.49
			l0,0l-5.53,9.25l8.34,7.92l0.28-0.47c-1.24-1.42-2.18-2.91-2.83-4.44c-0.64-1.54-0.91-3.09-0.81-4.65
			c0.1-1.56,0.62-3.13,1.56-4.71v0l3.69-6.19l13.27,7.92l-3.72,6.24c-0.73,1.14-1.69,1.87-2.9,2.17c-1.21,0.3-2.38,0.12-3.51-0.56
			l-0.42-0.25l-0.28,0.47l4.53,2.71l0,0l1.89,1.13v0l4.44,2.65l0.28-0.47l-0.38-0.23c-1.13-0.68-1.86-1.62-2.18-2.84
			s-0.15-2.42,0.52-3.6l0,0l3.72-6.23l13.74,8.21l-4.91,8.22c-0.86,1.18-1.9,1.95-3.14,2.25c-1.4,0.34-2.82,0.08-4.27-0.79
			l-0.57-0.34l-0.28,0.47l5.53,3.3l0,0l1.89,1.13l0,0l0.85,0.51c0.04-0.36,0.2-0.91,0.47-1.64c0.27-0.74,0.59-1.52,0.95-2.35
			c0.36-0.82,0.75-1.58,1.16-2.27l4.35-7.28l0,0l4.23-7.08l0,0l2.17-3.64L504.63,400.3z"/>
		<path class="st0" d="M457.39,413.48c-0.71-0.85-1.03-1.76-0.96-2.74c0.07-0.98,0.44-1.83,1.11-2.56c0.37-0.41,0.57-0.62,0.59-0.65
			l-0.41-0.37l-4.12,4.51l0,0l-1.37,1.5l0,0l-2.3,2.52l0.37,0.33l0.59-0.65c0.4-0.43,0.92-0.64,1.57-0.62s1.19,0.23,1.62,0.63
			c0.05,0.05,0.09,0.08,0.12,0.11l13.04,14.82l-27.06-5.58l-0.37,0.41c0.68,0.62,1.24,1.37,1.68,2.24c0.44,0.88,0.89,2.02,1.34,3.42
			l6.22,19.62l-16.02-11.73c0,0-0.01-0.01-0.01-0.01c-0.03-0.02-0.07-0.06-0.12-0.11c-0.43-0.4-0.7-0.91-0.79-1.54
			c-0.09-0.63,0.07-1.18,0.49-1.64l0.56-0.61l-0.37-0.33l-2.23,2.44l0,0l-4.82,5.28v0l-4.08,4.47l0.41,0.37l0.59-0.65
			c0.64-0.7,1.45-1.14,2.41-1.3c0.92-0.15,1.83,0.06,2.73,0.6l29.3,20.4l0.33-0.37l-9.68-31L480,441l0.33-0.37l-22.96-27.14
			L457.39,413.48z"/>
		<path class="st0" d="M447.75,473.07c-0.95,0.69-2.02,1.06-3.21,1.11c-1.19,0.05-2.24-0.12-3.15-0.5l-0.01,0.01l-18.57-7.78
			l-7.93-10.9c-0.53-0.79-0.72-1.66-0.57-2.61c0.15-0.95,0.61-1.7,1.38-2.26c0.03-0.02,0.22-0.16,0.58-0.42l-0.32-0.44l-3.42,2.49
			l0,0l-6.54,4.76l0,0l-3.51,2.56l0.32,0.44l0.53-0.39c0.77-0.56,1.64-0.77,2.6-0.63c0.96,0.14,1.72,0.59,2.28,1.36l7.98,10.96
			l1.36,20.2l-0.04,0.03c0.05,1.01-0.14,2.07-0.56,3.2s-1.1,2.02-2.02,2.69l-0.62,0.45l0.32,0.44l10.63-7.73l-0.32-0.45l-0.53,0.39
			c-0.42,0.3-0.89,0.43-1.42,0.39c-0.53-0.04-1.01-0.24-1.44-0.58c-0.43-0.34-0.67-0.82-0.7-1.43l-0.01,0.01l-1.77-16.32l14.76,6.91
			c0.73,0.41,1.15,1.03,1.25,1.87c0.1,0.86-0.17,1.52-0.83,2l-0.58,0.42l0.32,0.44l14.72-10.71l-0.32-0.44L447.75,473.07z
			 M418.74,469.15l0.02-0.02L418.74,469.15L418.74,469.15z"/>
	</g>
	<g>
		<path class="st0" d="M242.91,492.88c-1.01-0.77-2.27-1.34-3.73-1.69c-0.78-0.19-1.61-0.3-2.47-0.33
			c-0.85-0.02-1.67,0.03-2.46,0.17c-0.81,0.15-1.53,0.39-2.14,0.73l-0.27,0.15l0.13,5.04l1.15,0.28l0.11-0.49
			c0.34-1.47,0.93-2.51,1.77-3.1c0.84-0.59,1.82-0.76,3.01-0.53c1.09,0.21,1.84,0.73,2.28,1.6c0.46,0.89,0.53,2.01,0.2,3.34
			c-0.21,0.84-0.63,1.71-1.27,2.58c-0.66,0.9-1.47,1.79-2.41,2.66c-0.95,0.88-1.98,1.74-3.08,2.56c-1.11,0.83-2.21,1.62-3.29,2.35
			c-1.09,0.74-2.12,1.41-3.06,2.02l-0.17,0.11L227,511.3l14.11,3.44l3.55-6.28l-1.23-0.3l-0.2,0.23c-0.46,0.53-0.9,0.95-1.31,1.25
			c-0.37,0.28-0.75,0.45-1.13,0.51c-0.39,0.06-0.85,0.03-1.37-0.1l-4.93-1.2c0.39-0.2,0.8-0.41,1.24-0.63
			c0.91-0.46,1.88-1,2.88-1.59c0.99-0.59,1.96-1.25,2.87-1.96c0.92-0.72,1.72-1.52,2.39-2.38c0.69-0.88,1.16-1.86,1.42-2.89
			c0.32-1.32,0.26-2.55-0.17-3.67C244.69,494.62,243.94,493.66,242.91,492.88z"/>
		<path class="st0" d="M274.52,498.27c-1.18-1.06-2.67-1.69-4.42-1.85c-1.76-0.16-3.33,0.18-4.67,1.01
			c-1.33,0.82-2.42,2.07-3.25,3.71c-0.81,1.62-1.33,3.59-1.54,5.87c-0.21,2.27-0.06,4.3,0.44,6.04c0.51,1.78,1.36,3.21,2.51,4.26
			c1.17,1.06,2.65,1.69,4.41,1.85c0.28,0.03,0.56,0.04,0.84,0.04c1.42,0,2.71-0.35,3.85-1.05c1.34-0.82,2.44-2.08,3.25-3.73
			c0.8-1.63,1.31-3.6,1.52-5.85c0.21-2.28,0.07-4.32-0.42-6.05C276.54,500.75,275.69,499.32,274.52,498.27z M269.9,498.55
			c1.13,0.1,1.92,0.91,2.41,2.46c0.54,1.68,0.67,4.07,0.39,7.12c-0.28,3.05-0.85,5.38-1.69,6.92c-0.77,1.44-1.7,2.09-2.82,1.98
			c-1.11-0.1-1.89-0.91-2.4-2.46c-0.55-1.68-0.68-4.07-0.4-7.12c0.28-3.04,0.85-5.37,1.7-6.92c0.73-1.34,1.58-1.99,2.59-1.99
			C269.75,498.54,269.83,498.54,269.9,498.55z"/>
		<path class="st0" d="M309.16,501.98c-0.76-1.67-1.81-2.96-3.12-3.83c-1.33-0.88-2.89-1.27-4.65-1.17
			c-1.76,0.1-3.27,0.67-4.47,1.69c-1.19,1.01-2.09,2.41-2.66,4.15c-0.56,1.71-0.78,3.74-0.65,6.03c0.13,2.27,0.58,4.25,1.33,5.91
			c0.77,1.68,1.82,2.97,3.12,3.84c1.18,0.79,2.56,1.19,4.11,1.19c0.17,0,0.35-0.01,0.53-0.02c1.76-0.1,3.27-0.67,4.49-1.69
			c1.2-1.01,2.1-2.41,2.67-4.17c0.55-1.72,0.77-3.75,0.64-6.01C310.35,505.61,309.91,503.62,309.16,501.98z M299.83,515.56
			c-0.79-1.58-1.28-3.92-1.45-6.98c-0.17-3.05,0.05-5.44,0.65-7.09c0.56-1.54,1.38-2.31,2.49-2.38c1.13-0.06,2.03,0.62,2.75,2.08
			c0.78,1.58,1.26,3.92,1.44,6.98c0.17,3.05-0.04,5.44-0.64,7.1c-0.55,1.54-1.37,2.31-2.5,2.38
			C301.47,517.71,300.56,517.02,299.83,515.56z"/>
		<path class="st0" d="M342.98,506.27c-0.3-1.22-0.74-2.24-1.32-3.02c-0.58-0.79-1.26-1.37-2.01-1.75
			c-0.75-0.37-1.53-0.57-2.34-0.59c-0.81-0.02-1.59,0.12-2.35,0.42c-0.75,0.3-1.43,0.73-2.03,1.28c-0.6,0.56-1.06,1.22-1.37,1.98
			l-0.07,0.16c-0.11-0.82-0.19-1.62-0.22-2.38c-0.06-1.34,0.09-2.63,0.43-3.81c0.33-1.16,0.93-2.26,1.77-3.27
			c0.85-1.01,2.05-1.95,3.56-2.8l0.54-0.3l-0.76-0.86l-0.28,0.06c-2.11,0.42-3.89,1.17-5.31,2.22c-1.42,1.06-2.52,2.34-3.29,3.81
			c-0.77,1.46-1.24,3.08-1.42,4.82c-0.18,1.72-0.08,3.51,0.3,5.31c0.4,2.03,1.08,3.7,2.03,4.96c0.96,1.29,2.15,2.17,3.53,2.63
			c0.76,0.25,1.57,0.38,2.42,0.38c0.68,0,1.39-0.08,2.12-0.24c1.64-0.36,2.99-1.02,3.99-1.96c1-0.94,1.68-2.05,2.02-3.29
			C343.24,508.8,343.27,507.54,342.98,506.27z M332.41,505.78l0.3-0.52c0.21-0.37,0.52-0.69,0.91-0.94c0.39-0.26,0.81-0.4,1.28-0.45
			c0.54-0.06,1.02,0.02,1.44,0.25c0.43,0.22,0.81,0.62,1.12,1.17c0.34,0.59,0.63,1.39,0.85,2.37c0.2,0.84,0.27,1.68,0.21,2.49
			c-0.05,0.77-0.25,1.43-0.6,1.97c-0.32,0.5-0.82,0.81-1.53,0.96c-0.74,0.15-1.36,0.03-1.9-0.38c-0.58-0.44-1.1-1.17-1.53-2.15
			c-0.45-1.03-0.84-2.31-1.14-3.79c-0.12-0.59-0.22-1.16-0.31-1.73L332.41,505.78z"/>
	</g>
	<path class="st1" d="M123.33,313.88h8.35c11.96,0,21.7-9.73,21.7-21.7v-13.32c0-5.53,4.5-10.03,10.03-10.03s10.03,4.5,10.03,10.03
		v62.28c0,11.96,9.73,21.7,21.7,21.7s21.7-9.73,21.7-21.7V231.86c0-5.53,4.5-10.03,10.03-10.03s10.03,4.5,10.03,10.03v170.39
		c0,11.96,9.73,21.7,21.7,21.7c11.96,0,21.7-9.73,21.7-21.7v-231.5c0-5.53,4.5-10.03,10.03-10.03 M290.32,160.72
		c5.53,0,10.03,4.5,10.03,10.03v231.5c0,11.96,9.73,21.7,21.7,21.7s21.7-9.73,21.7-21.7V231.86c0-5.53,4.5-10.03,10.03-10.03
		s10.03,4.5,10.03,10.03v109.29c0,11.96,9.73,21.7,21.7,21.7s21.7-9.73,21.7-21.7v-62.28c0-5.53,4.5-10.03,10.03-10.03
		s10.03,4.5,10.03,10.03v13.32c0,11.96,9.73,21.7,21.7,21.7h7.25 M457.33,303.88h-8.37c-6.45,0-11.7-5.25-11.7-11.7v-13.32
		c0-11.04-8.99-20.03-20.03-20.03c-11.04,0-20.03,8.99-20.03,20.03v62.28c0,6.45-5.25,11.7-11.7,11.7s-11.7-5.25-11.7-11.7V231.86
		c0-11.04-8.99-20.03-20.03-20.03s-20.03,8.99-20.03,20.03v170.39c0,6.45-5.25,11.7-11.7,11.7s-11.7-5.25-11.7-11.7v-231.5
		c0-11.04-8.99-20.03-20.03-20.03l0,0c-11.04,0-20.03,8.99-20.03,20.03v231.5c0,6.45-5.25,11.7-11.7,11.7
		c-6.45,0-11.7-5.25-11.7-11.7V231.86c0-11.04-8.99-20.03-20.03-20.03s-20.03,8.99-20.03,20.03v109.29c0,6.45-5.25,11.7-11.7,11.7
		s-11.7-5.25-11.7-11.7v-62.28c0-11.04-8.99-20.03-20.03-20.03c-11.04,0-20.03,8.99-20.03,20.03v13.32c0,6.45-5.25,11.7-11.7,11.7
		h-9.47"/>
	<g>
		<circle class="st0" cx="289.83" cy="69.62" r="6.59"/>
		<circle class="st0" cx="374.97" cy="493.33" r="6.59"/>
		<circle class="st0" cx="194.13" cy="493.33" r="6.59"/>
	</g>
	<circle class="st1" cx="289.43" cy="289.59" r="287.67"/>
	<circle id="XMLID_92_" class="st1" cx="289.77" cy="289.95" r="168.13"/>
	<circle id="XMLID_96_" class="st1" cx="289.77" cy="289.95" r="269.73"/>
	<path class="st2" d="M429.02,407.55c0.01-0.01,0.01-0.02,0.02-0.03c-0.26-0.01-0.52,0.01-0.79,0.01c-0.39,0-0.77,0-1.16,0.01
		c-0.15,0.01-0.29,0.02-0.44,0.03c-0.57,0.04-1.13,0.1-1.7,0.19c-0.05,0.01-0.11,0.02-0.16,0.02c-1.66,0.27-3.3,0.73-4.87,1.41l0,0
		l-41.72-41.72c1.83-2.76,3.23-5.73,4.19-8.81c-0.11,0.05-0.24,0.11-0.39,0.2c3.93-12.04,1.13-25.81-8.42-35.36l-53.15-53.15
		l100.25-100.25c7.38,3.03,16.17,1.56,22.16-4.43c7.95-7.95,7.95-20.85,0-28.81c-7.95-7.95-20.85-7.95-28.81,0
		c-3.86,3.86-5.83,8.89-5.94,13.95c-0.01,0-0.01-0.01-0.02-0.01c0,0.1,0.01,0.19,0.01,0.29c0,0.28,0.01,0.56,0.02,0.83
		c0.01,0.38,0.02,0.75,0.05,1.13c0.03,0.29,0.07,0.58,0.11,0.86c0.05,0.37,0.09,0.74,0.16,1.1c0.05,0.28,0.12,0.55,0.19,0.83
		c0.09,0.37,0.17,0.75,0.27,1.11c0.07,0.25,0.17,0.5,0.25,0.75c0.13,0.38,0.25,0.77,0.4,1.15c0.02,0.06,0.05,0.11,0.07,0.17
		L309.35,259.28L155.69,105.61l-7.29,4.88l-6.29,5.89l155.07,155.07l-24.73,24.73L117.38,141.12l-6.09,6.09l-4.9,7.27l153.88,153.88
		L159.49,409.14c-0.1-0.04-0.2-0.08-0.3-0.11c-0.06-0.02-0.12-0.04-0.17-0.06c-0.58-0.22-1.17-0.42-1.77-0.59
		c-0.02-0.01-0.04-0.01-0.06-0.02c-6.84-1.89-14.47-0.16-19.85,5.21c-7.95,7.95-7.95,20.85,0,28.81c7.95,7.95,20.85,7.95,28.81,0
		c5.39-5.39,7.11-13.03,5.21-19.88c-0.01-0.02-0.01-0.04-0.01-0.06c-0.17-0.6-0.37-1.19-0.59-1.77c-0.02-0.06-0.04-0.11-0.06-0.17
		c-0.04-0.09-0.07-0.19-0.11-0.28l100.77-100.77l53.15,53.15c9.49,9.49,23.15,12.32,35.14,8.49c-0.09,0.15-0.16,0.28-0.22,0.4
		c3.16-0.96,6.21-2.39,9.05-4.26l41.41,41.41c-0.33,0.65-0.61,1.32-0.87,2c-0.02,0.06-0.04,0.11-0.06,0.17
		c-0.22,0.59-0.41,1.18-0.57,1.78c-0.02,0.07-0.04,0.13-0.06,0.2c-0.17,0.64-0.31,1.29-0.41,1.94c-0.02,0.14-0.03,0.28-0.05,0.42
		c-0.06,0.42-0.11,0.85-0.14,1.28c-0.04,0.44-0.05,0.88-0.06,1.31c0,0.04,0,0.08,0,0.11c0,0.37-0.03,0.74-0.01,1.11
		c0.02-0.01,0.03-0.02,0.05-0.03c0.24,4.86,2.21,9.65,5.92,13.37c7.96,7.96,20.86,7.96,28.82,0c7.96-7.96,7.96-20.86,0-28.82
		C438.71,409.74,433.9,407.78,429.02,407.55z M336.68,360.42l-53.15-53.15l24.73-24.73l53.15,53.15c6.82,6.82,6.82,17.91,0,24.73
		C354.59,367.24,343.49,367.24,336.68,360.42z"/>
</g>
</svg>
