<?xml version="1.0" encoding="utf-8"?>
<!-- Generator: Adobe Illustrator 27.2.0, SVG Export Plug-In . SVG Version: 6.00 Build 0)  -->
<svg version="1.1" id="Layer_1" xmlns="http://www.w3.org/2000/svg" xmlns:xlink="http://www.w3.org/1999/xlink" x="0px" y="0px"
	 viewBox="0 0 1024 1024" style="enable-background:new 0 0 1024 1024;" xml:space="preserve">
<style type="text/css">
	.st0{fill:#FFFFFF;}
</style>
<path class="st0" d="M658.2,523.8l-151.9,87.7c-31.6,18.2-71-4.6-71-41V395c0-36.4,39.5-59.2,71-41l151.9,87.7
	C689.7,460.1,689.7,505.6,658.2,523.8z"/>
<path class="st0" d="M533.2,870c-217.2,0-394-176.7-394-394S316,82,533.2,82s394,176.7,394,394S750.4,870,533.2,870z M533.2,132.9
	C344,132.9,190.1,286.8,190.1,476S344,819.1,533.2,819.1S876.3,665.2,876.3,476S722.4,132.9,533.2,132.9L533.2,132.9z"/>
</svg>
