<?xml version="1.0" encoding="utf-8"?>
<!-- Generator: Adobe Illustrator 27.2.0, SVG Export Plug-In . SVG Version: 6.00 Build 0)  -->
<svg version="1.1" id="Layer_1" xmlns="http://www.w3.org/2000/svg" xmlns:xlink="http://www.w3.org/1999/xlink" x="0px" y="0px"
	 viewBox="0 0 183.7 194.7" style="enable-background:new 0 0 183.7 194.7;" xml:space="preserve">
<style type="text/css">
	.st0{fill:#6D4545;}
	.st1{fill:#FFFFFF;}
</style>
<g>
	<path class="st0" d="M92.2,8.7c48.5,0.1,88.1,39.8,88.1,88.5c0.1,49.1-39.7,89-88.6,88.9c-49,0-88.6-39.9-88.5-89
		C3.4,48,43.1,8.6,92.2,8.7z M109,20c0.8,0.6,1.6,1.3,2.5,1.8c16,9.8,23,24.2,19.9,42.6c-3.1,18.4-16.1,27.2-33.1,31.3
		c-5.3,1.3-10.8,1.8-16.2,3C63,103.3,49.8,122,51.9,141.3c2.3,20.8,18.7,36.5,39,36.5c31.1-0.1,55.3-13.7,70.7-40.6
		c15.2-26.6,14.8-54.1-0.6-80.8C149.4,36.4,132,24.1,109,20z M105.8,55.4c-0.1-7.7-6.6-14.2-14.1-14.2c-7.6,0-14.1,6.5-14.2,14.1
		c-0.1,8,6.6,14.8,14.5,14.6C99.6,69.7,105.9,63.1,105.8,55.4z"/>
	<path class="st1" d="M109,20c23,4.1,40.4,16.4,51.9,36.4c15.4,26.6,15.9,54.2,0.6,80.8c-15.4,26.9-39.6,40.5-70.7,40.6
		c-20.3,0.1-36.7-15.7-39-36.5c-2.1-19.3,11.1-38,30.2-42.5c5.3-1.3,10.8-1.8,16.2-3c17-4.1,30-12.9,33.1-31.3
		c3.1-18.4-3.9-32.8-19.9-42.6C110.6,21.3,109.8,20.6,109,20z M105.9,139c-0.2-7.7-6.6-14.1-14.2-14.2c-7.9,0-14.6,6.9-14.4,14.9
		c0.2,7.6,6.7,14.1,14.3,14.2C99.5,154,106.1,147.1,105.9,139z"/>
	<path class="st1" d="M105.8,55.4c0.1,7.7-6.2,14.3-13.8,14.5c-7.9,0.2-14.7-6.6-14.5-14.6c0.1-7.6,6.7-14.1,14.2-14.1
		C99.2,41.2,105.7,47.7,105.8,55.4z"/>
	<path class="st0" d="M105.9,139c0.2,8.1-6.4,14.9-14.4,14.9c-7.6-0.1-14.1-6.5-14.3-14.2c-0.2-8,6.5-14.9,14.4-14.9
		C99.3,124.9,105.8,131.3,105.9,139z"/>
</g>
</svg>
