<?xml version="1.0" encoding="utf-8"?>
<!-- Generator: Adobe Illustrator 27.2.0, SVG Export Plug-In . SVG Version: 6.00 Build 0)  -->
<svg version="1.1" id="Layer_1" xmlns="http://www.w3.org/2000/svg" xmlns:xlink="http://www.w3.org/1999/xlink" x="0px" y="0px"
	 viewBox="0 0 207.5 68.5" style="enable-background:new 0 0 207.5 68.5;" xml:space="preserve">
<style type="text/css">
	.st0{fill:#6D4545;}
</style>
<g>
	<g>
		<path class="st0" d="M153.7,39.7c-1.3,0.6-2.3,0.4-3.4-0.2c-2.2-1.3-4.7-2.1-7.2-2.7c-0.5-0.1-0.9-0.4-1.3-0.6
			c-0.1,0-0.2-0.1-0.2-0.1c-1.5,0.7-2.9-0.2-4.3-0.3c-1.5-0.1-3-0.4-4.4-0.6c-6.5-1-13-1.6-19.6-1.6c-2.8,0-5.7-0.1-8.5-0.2
			c-0.4,0-0.9,0-1.6,0c0.5,0.9,0.9,1.7,1.4,2.4c1.5,1.8,3.2,3.2,5.4,4.1c1.7,0.7,3,1.8,4.2,3.1c2.7,0.5,5.5-0.2,8.2,0.9
			c0,0.1,0,0.3,0.1,0.4c-0.4,0.2-0.7,0.6-1.1,0.7c-2.3,0.7-4.6,1.4-7,1.6c-1.4,0.1-2.7,0.6-4,0.9c-2.7,0.6-5.4,0.7-8.1-0.3
			c-0.9-0.4-2-0.4-3-0.4c-1.5,0-3,0.1-4.5,0c-1.1,0-2.1,0.1-3.1,0.1c-1,0-2-0.2-3-0.1c-1,0.1-2-0.1-3-0.2c-0.4,0-0.8-0.3-1-0.5
			c-0.1-0.1,0.1-0.7,0.3-0.9c1.9-2,4.1-3.7,6.8-4.6c0.8-0.3,1.6-0.7,2.2-1.3c1.4-1.7,2.7-3.5,3.6-5.7c-2.1,0-4.1-0.1-6.1,0
			c-4.3,0.2-8.7,0.5-13,0.9c-4.8,0.5-9.6,1.3-14.4,1.9c-2.2,0.3-4.4,0.6-6.6,0.7c13.3-3.2,26.8-3.6,40.4-4.4
			c0.1-0.5,0.1-0.9,0.2-1.4c-1.6,0-3.1-0.1-4.7,0c-4.6,0.2-9.3,0.4-13.9,0.7c-2.9,0.2-5.8,0.6-8.8,0.7c-2,0.1-4,0.4-6,0.6
			c-2,0.2-4,0.5-6,0.8c-7.6,1-15,2.8-22.1,5.6c-1.5,0.6-3,0.7-4.5,0.2c-0.2,0-0.3-0.2-0.6-0.4c0.5-0.2,0.9-0.5,1.3-0.6
			c2.9-0.9,5.8-1.7,8.6-2.7c5.3-1.8,10.8-2.6,16.3-3.3c7.1-1,14.3-1.6,21.4-2c6-0.3,12.1-0.5,18.1-0.7c1,0,1,0,1.1-1.2
			c-1.7,0-3.4,0-5.1,0c-2.2,0-4.4,0.1-6.6,0.1c-0.8,0-1.7,0.3-2.4,0.2c-1.1-0.2-2.2,0.2-3.3,0.3c-1.1,0-2.2,0.1-3.3,0.1
			c-3.5,0.2-6.9,0.4-10.4,0.7c-6.6,0.6-13.3,0.7-19.8,2.1c-3.8,0.8-7.5,2-11.3,3c-3.1,0.8-6.1,1.8-9.3,2c-1,0.1-1.9,0-2.9-0.1
			c-0.4,0-0.8-0.4-1-0.7c-0.1-0.2,0.2-0.8,0.4-1c0.7-0.5,1.4-1,2.1-1.2c2.6-0.7,5.3-1.5,8-2c2.9-0.5,5.7-1.1,8.6-1.5
			c4.9-0.6,9.7-1.4,14.6-1.9c2.2-0.2,4.4-0.6,6.6-0.7c2.3-0.1,4.5-0.3,6.8-0.5c2.3-0.2,4.5-0.4,6.8-0.4c6.9-0.2,13.8-0.4,20.8-0.6
			c1,0,1.4-0.3,1.9-1.2c0.6-1.2,0.7-2.2,0-3.4c-0.3-0.6-0.5-1.4-0.5-2.1c0-1.9,1.5-3.1,3.3-2.7c0.6,0.1,1.4,0.3,1.1,1.2
			c1.3,1.4,0.4,2.7-0.5,3.8c-0.8,0.9-0.9,1.8-0.5,2.9c0.2,0.4,0.3,0.9,0.5,1.5c1.8,0,3.6-0.1,5.4,0c7.6,0.3,15.2,0.6,22.9,1
			c4.2,0.2,8.4,0.5,12.6,0.9c1.6,0.2,3.3,0.1,4.9,0.4c1.6,0.3,3.3,0.2,5,0.4c1.7,0.1,3.4,0.3,5.1,0.5c1.6,0.2,3.3,0.5,4.9,0.7
			c5,0.9,9.9,2.2,14.6,4.1c0.8,0.3,1.5,0.9,2.4,1.2c0.4,0.1,0.7,0.4,0.9,0.7c0.5,0.5,0.9,1.1,0.5,1.8c-0.3,0.6-1,0.7-1.6,0.6
			c-0.9-0.2-1.7-0.4-2.5-0.7c-6.8-2.6-13.8-4.4-21-5.7c-6-1.1-12.1-1.8-18.2-2.3c-5.6-0.5-11.3-0.9-16.9-1.3
			c-6.1-0.4-12.2-0.6-18.3-0.5c-0.2,0-0.4,0-0.7,0c0,0.4,0,0.7,0,1.2c0.5,0,1,0,1.5,0c6.6,0.1,13.1,0.1,19.7,0.4
			c7,0.3,13.9,0.8,20.8,1.8c6.6,0.9,13.2,1.9,19.6,3.7c1.3,0.4,2.6,0.9,3.9,1.5c-1.5,0.8-3.1,0.8-4.7,0.3c-1.6-0.5-3-1.3-4.6-1.7
			c-2-0.5-4-0.8-6-1.1c-4.5-0.7-9.1-1.5-13.6-2.1c-4.3-0.5-8.7-0.9-13-1.1c-6.8-0.3-13.6-0.5-20.4-0.7c-1,0-2,0-3,0
			c0,1.7,0,1.6,1.3,1.6c1.7,0,3.5,0.1,5.2,0.1c3.5,0.1,6.9,0.2,10.4,0.3c7.9,0.2,15.8,1.1,23.6,2.7c2.9,0.6,5.9,1.2,8.6,2.6
			c0.5,0.2,0.9,0.5,1.4,0.8C153.6,39.2,153.6,39.5,153.7,39.7z M102.3,28.6c-0.2-0.4-0.4-1.1-0.8-1.2c-0.5-0.2-1.3-0.1-1.7,0.2
			c-0.7,0.7-1,1.6-0.7,2.6c0.2,0.7,0.6,1.2,1.4,1.2c0.7,0,1.1-0.5,1.3-1.1C102,29.8,102.1,29.3,102.3,28.6z M100.6,24.7
			c0.7,0.1,1.1-0.1,1-0.7c-0.1-0.7,0.1-1.2,0.6-1.6c0.2-0.2,0.4-0.4,0.5-0.6c0.1-0.4,0.1-1-0.1-1.3c-0.3-0.6-1-0.6-1.6-0.5
			c-0.5,0.1-1,0.3-0.9,0.9c0.1,0.6-0.4,1.3,0.4,1.8c0.2,0.1,0.2,0.6,0.2,0.8C100.7,23.8,100.6,24.2,100.6,24.7z"/>
		<path class="st0" d="M18.5,41c-0.5,0.1-1.1,0.3-1.6,0.5c-1,0.4-2.1,0.8-3,1.3c-1.2,0.6-1.4,1.7-0.3,2.5c1.4,1,2.8,1.9,4.4,2.6
			c5.6,2.5,11.5,4,17.4,5.2c6.1,1.1,12.2,2,18.3,2.9c2.1,0.3,4.3,0.4,6.4,0.6c3.5,0.4,7,0.6,10.5,0.8c3.5,0.2,7.1,0.4,10.6,0.5
			c3.5,0.1,7.1,0.2,10.6,0.2C95.4,58,99,58,102.5,58c3.6,0,7.1,0.1,10.7-0.1c7.8-0.3,15.7-0.6,23.5-0.9c1.7-0.1,3.4,0,5.1-0.1
			c2.1-0.2,4.1-0.5,6.2-0.8c4.8-0.7,9.6-1.3,14.4-2.1c8-1.3,15.6-3.7,22.9-7.2c0.4-0.2,0.8-0.2,1.2-0.3c0.1,0,0.3,0,0.3-0.1
			c0-0.9,0.8-0.8,1.2-1.1c1-0.7,2-1.2,3-1.8c1.4-0.9,3-1.5,4.7-1.6c1.4-0.1,2.9-0.4,4.3-0.4c2.6,0,3.3,1,2,3.3
			c-0.3,0.6-0.4,1.6-1.5,1.5c0,0-0.1,0.1-0.1,0.2c0.2,1.2-0.9,1.4-1.6,1.9c-2.3,1.5-4.9,2.4-7.5,3.1c-2.7,0.7-5.3,1.3-8,1.8
			c-6.4,1.3-12.9,2.5-19.3,3.6c-1.3,0.2-2.6,0.5-3.9,0.7c-1.4,0.2-2.8,0.4-4.1,0.6c-1.4,0.2-2.9,0.4-4.3,0.7
			c-1.4,0.2-2.8,0.4-4.2,0.7c-1.4,0.2-2.8,0.4-4.2,0.6c-1.3,0.2-2.5,0.2-3.8,0.4c-0.8,0.1-1.5-0.1-2.3,0.2c-0.9,0.3-1.8,0.2-2.7,0.3
			c-0.9,0.1-1.7,0.2-2.6,0.2c-0.9,0.1-1.8,0.1-2.8,0.1c-0.9,0-1.7,0.1-2.6,0.2c-0.9,0-1.8,0-2.6,0.1c-0.9,0-1.8,0.1-2.8,0.1
			c-0.9,0-1.8,0.1-2.6,0.1c-9.9,0.1-19.7,0.1-29.6-0.4c-3.9-0.2-7.7-0.4-11.6-0.6c-0.4,0-0.8-0.2-1.3-0.4c-0.1,0-0.2,0-0.3,0
			c-0.3,0.1-0.7,0.3-1,0.2c-3-0.3-6.1-0.3-9.1-0.6c-4.1-0.3-8.1-0.6-12.2-1c-5.8-0.5-11.5-1.1-17.3-1.6c-1-0.1-1.9-0.5-2.9-0.5
			c-1.1,0-2.2-0.3-3.4-0.5c-1.1-0.2-2.2-0.4-3.2-0.6c-1.1-0.2-2.2-0.5-3.3-0.7c-1.1-0.2-2.1-0.5-3.2-0.8c-1-0.3-2-0.8-3-1.1
			c-0.9-0.3-1.8-0.3-2.6-0.6c-1.9-0.7-3.9-1.3-5.8-2.1c-1.8-0.8-3.2-1.9-3.6-4c-0.3-1.4,0.2-2.5,1.4-3.4c3.7-2.5,7.8-2.9,12-2.6
			C18.4,40.8,18.4,40.9,18.5,41z"/>
		<path class="st0" d="M42.9,45.7c0.6,0.2,1.5,0,1.8,0.9c1.5-0.4,2.6,0.8,3.9,1.2c4,1.1,8,1.9,12.1,1.8c0.4,0,0.9-0.3,1.1,0.3
			c0,0,0.2,0.1,0.2,0.1c1.1-0.8,2.3-0.6,3.4,0c0.4-0.6,1.1-0.4,1.7-0.3c1.7,0.3,3.4,0.1,5.1,0.3c1.4,0.2,2.8,0,4.3,0
			c1.7-0.1,3.5-0.3,5.2-0.2c1,0.1,1.9-0.2,2.8-0.2c1.1,0,2.2-0.2,3.3-0.2c1.1-0.1,2.1-0.1,3.2-0.1c4.9-0.1,9.8-0.1,14.7-0.3
			c7.6-0.4,15.2-1,22.8-1.5c1.4-0.1,2.8-0.5,4.3-0.7c3.2-0.4,6-1.6,8.7-3.2c2.5-1.6,5.3-1.9,8.2-1.8c0.8,0,1.7,0.1,2,1
			c0.2,0.8-0.5,1.5-1.2,1.9c-1.6,0.9-3.2,1.9-5.2,1.8c-0.6,0-1.2,0.6-1.8,0.8c-3.3,0.7-6.7,1.3-10.1,1.9c-2.6,0.4-5.3,0.8-7.9,1
			c-4.6,0.3-9.2,0.6-13.8,0.7c-4.7,0.2-9.5,0.2-14.2,0.2c-10.9-0.1-21.7-0.2-32.6-0.3c-2.1,0-4.2-0.5-6.2-0.7
			c-1.9-0.2-3.7-0.4-5.6-0.5c-3.6-0.3-7.1-1.2-10.5-2.1c-0.2,0-0.4-0.1-0.5-0.2c-0.2-0.2-0.5-0.5-0.5-0.8c0-0.2,0.4-0.4,0.6-0.5
			C42.3,45.6,42.6,45.7,42.9,45.7z"/>
		<path class="st0" d="M104.5,33.9c0.4,0,0.8-0.1,1.1-0.1c5.3,0.2,10.7,0.4,16,0.7c3.7,0.2,7.4,0.6,11.1,1.2c2.3,0.3,4.6,1,6.9,1.5
			c0.5,0.1,1.4,0.3,1.3,1.1c-0.1,0.3-0.9,0.6-1.4,0.7c-1.2,0.3-2.5,0.5-3.7,0.8c-0.6,0.1-1.1-0.1-1.7,0.3c-0.5,0.3-1.4,0.3-2,0.4
			c-0.7,0.1-1.4,0.2-2.1,0.4c-0.6,0.1-1.3,0.2-1.9,0.4c-0.7,0.1-1.4,0.2-2.1,0.3c-0.7,0.1-1.4,0.2-2.1,0.4c-1.1,0.3-2.1,0.1-3.1-0.5
			c-1.7-1-3.5-1.6-5.5-1.6c-0.8,0-1.7-0.2-2.5-0.1c-3.3,0.2-5.5-1.5-7.4-4c-0.3-0.4-0.5-0.8-0.8-1.2
			C104.5,34.4,104.5,34.2,104.5,33.9z"/>
		<path class="st0" d="M62.4,37.8c4-0.9,8-1.1,12.1-1.1c0-0.1,0-0.2,0-0.3c-0.8-0.2-1.6-0.4-2.6-0.6c2.2-0.8,22.8-2.2,24.3-1.8
			c-1.1,1.6-2.2,3.3-3.4,4.8c-0.9,1.2-2.3,1.4-3.7,1.5c-4.3,0.2-8.6,0.2-12.8-0.9c-4-1-8.2-1.3-12.4-1.4c-0.5,0-1,0-1.6,0
			C62.4,38,62.4,37.9,62.4,37.8z"/>
		<path class="st0" d="M73.1,51.6c3,0,5.9,0,8.9,0c7.3,0,14.5,0.1,21.8,0.1c5.8-0.1,11.7-0.2,17.5-0.5c5.2-0.3,10.3-0.7,15.4-1.3
			c5.2-0.6,11.1-1.8,15.9-4c1.4-0.7,3-1.1,4.6-1.5c0.4-0.1,0.9-0.1,1.4-0.2c0.1,0.1,0.1,0.2,0.2,0.3c-0.4,0.4-0.7,0.8-1.1,1.2
			c-1.7,1.4-3.8,2.1-5.9,2.7c-6.2,1.7-12.5,2.7-18.9,3.2c-10.4,0.9-20.9,1.5-31.4,1.3c-7.2-0.1-14.4-0.5-21.7-0.8
			C77.6,52,75.4,51.8,73.1,51.6C73.1,51.6,73.1,51.6,73.1,51.6z"/>
		<path class="st0" d="M86.5,53.2c0.2,0,0.5-0.1,0.7-0.1c2,0.1,3.9,0.3,5.9,0.4c2.5,0.1,5,0,7.4,0c2.9,0,5.8-0.1,8.7-0.1
			c1.5,0,3.1,0.1,4.6,0.1c1.2-0.1,2.4-0.5,3.7,0c1.7-0.8,3.6-0.3,5.4-0.5c3.5-0.3,7-0.4,10.5-0.7c4.6-0.5,9.3-1.2,13.9-2
			c3.6-0.6,7.1-1.8,10.5-3.3c1.8-0.8,3.6-1.7,5.5-2.4c0.9-0.3,1.7-0.8,3-0.3c-0.7,0.6-1.2,1.2-1.8,1.7c-2.2,1.6-4.8,2.6-7.4,3.4
			c-4.3,1.3-8.7,2.2-13.1,2.7c-4.9,0.5-9.8,1-14.6,1.4c-1.3,0.1-2.7,0.3-4,0.2c-1-0.1-1.9,0.3-2.9,0.2c-1-0.1-2,0.1-3,0.1
			c-1.1,0-2.1,0.1-3.2,0.1c-1,0-2,0-3,0c-1.1,0-2.1,0.1-3.2,0.1c-5.3-0.1-10.6-0.1-15.9-0.2c-2.2,0-4.4-0.1-6.6-0.2
			c-0.4,0-0.8-0.1-1.2-0.2C86.4,53.4,86.5,53.3,86.5,53.2z"/>
		<path class="st0" d="M84.5,48.6c-1.2,0.1-2.3,0.3-3.5,0.4c-4.8,0.4-9.6,0.4-14.4-0.1c-1.4-0.2-2.9-0.1-4.3-0.1
			c-4-0.1-7.9-0.6-11.8-1.6c-0.6-0.2-1.3-0.4-1.8-0.8c-0.7-0.4-0.7-1-0.2-1.7c0.3-0.3,0.7-0.6,1-0.8c1.3-0.7,1.5-0.6,1.6,0.9
			c0,0.7,0.4,0.9,1,1.1c1.1,0.3,2.1,0.6,3.2,0.7c3.4,0.2,6.7,0.5,10.1,0.6c4.5,0.1,9,0,13.5,0c1.5,0,3,0.3,4.5,0.5
			c0.4,0.1,0.8,0.3,1.2,0.5C84.5,48.4,84.5,48.5,84.5,48.6z"/>
		<path class="st0" d="M56.8,41.8c0.8-1.1,1.9-1.5,2.9-1.6c2.3-0.2,4.6-0.4,6.9-0.1c3.4,0.3,6.8,1,10.2,1.5c2.2,0.4,4.4,0.6,6.6-0.2
			c0.6-0.2,1.2-0.1,1.9,0c-1.8,1.3-3.7,2.1-5.9,2.2c-2,0.1-3.9,0-5.9,0c-0.4,0-0.8-0.3-1.1-0.4c-0.1,0-0.1-0.1-0.2-0.1
			c-1.3,0.8-2.6-0.2-3.9-0.2c-1.3-0.1-2.6-0.4-3.9-0.5c-2.4-0.3-4.9-0.7-7.3-0.3C57.2,41.9,57.1,41.9,56.8,41.8z"/>
		<path class="st0" d="M85.9,53.4C69.4,54,53.3,51.3,37.4,47c0-0.1,0-0.2,0-0.3c2.6,0.6,5.3,1.3,7.9,1.8c2.6,0.5,5.2,1.2,7.8,1.4
			c2.7,0.3,5.5,0.8,8.2,1.2c2.7,0.4,5.5,0.7,8.2,0.9c2.7,0.3,5.4,0.5,8.1,0.6c2.7,0.2,5.5,0.3,8.2,0.4C86,53.2,85.9,53.3,85.9,53.4z
			"/>
		<path class="st0" d="M176.4,43.5c0.7,0.6,0.6,1.3,0.2,1.8c-0.7,0.8-1.5,1.8-2.5,2.3c-1.9,1-4,1.8-6,2.5c-4.9,1.6-10,2.6-15.1,3.2
			c-3.3,0.4-6.6,0.7-9.8,1c-0.3,0-0.6,0-0.9-0.2c1.6-0.2,3.1-0.3,4.7-0.5c3.5-0.6,7-1.1,10.5-1.8c2.5-0.5,4.9-1.2,7.4-1.7
			c1.3-0.3,2.5-0.8,3.7-1.2c1.3-0.4,2.5-0.8,3.7-1.3c0.8-0.4,1.6-0.8,2.4-1.3c0.8-0.5,1.4-1.2,1.5-2.2
			C176.1,43.9,176.3,43.7,176.4,43.5z"/>
		<path class="st0" d="M45.4,45.4c-1.3-1-1.4-1.4-0.6-2.3c0.5-0.5,1.1-0.9,1.7-1.1c2.3-0.7,4.6-1.3,7-1.8c0.9-0.2,1.8-0.3,2.8-0.3
			c-0.7,0.3-1.3,0.6-2,0.8c-1.8,0.6-3.6,1.1-5.4,1.7c-0.6,0.2-1.2,0.5-1.5,1.2c-0.1,0.3-0.6,0.4-1,0.5
			C45.9,44.2,45.4,44.4,45.4,45.4z"/>
		<path class="st0" d="M101.7,10.7c-1.3,0-2.2-0.7-2.2-1.9c0-1.3,0.8-2.1,2-2.1c1.3,0,2.2,0.9,2.1,2.3
			C103.7,10,102.9,10.7,101.7,10.7z M101.7,10.3c0.5-0.5,1.2-0.8,1.2-1.1c0.1-0.7-0.6-0.9-1.2-0.9c-0.8,0-1.5,0.4-1.3,0.9
			C100.6,9.6,101.1,9.9,101.7,10.3z"/>
		<path class="st0" d="M119.9,47.4c1.5-0.2,3-0.5,4.7-0.7c-0.3-0.2-0.4-0.3-0.6-0.5c1.3-0.7,2.7-0.6,4.1-0.4
			C127.2,46.8,123,47.7,119.9,47.4z"/>
		<path class="st0" d="M50.3,39.2c2.5-0.9,5.2-1.4,7.9-1.3C55.6,38.6,53,38.9,50.3,39.2z"/>
	</g>
</g>
</svg>
