<?xml version="1.0" encoding="utf-8"?>
<!-- Generator: Adobe Illustrator 27.2.0, SVG Export Plug-In . SVG Version: 6.00 Build 0)  -->
<svg version="1.1" id="Layer_1" xmlns="http://www.w3.org/2000/svg" xmlns:xlink="http://www.w3.org/1999/xlink" x="0px" y="0px"
	 viewBox="0 0 172.5 170.4" style="enable-background:new 0 0 172.5 170.4;" xml:space="preserve">
<style type="text/css">
	.st0{fill:#6D4545;}
	.st1{fill:#FFFFFF;}
</style>
<g>
	<g>
		<path class="st0" d="M142.4,29.2c1.8,1.8,3.7,3.4,5.4,5.3c10.6,12.1,17,26.2,18.8,42.1c4.2,37-16.7,71.1-51.5,84.4
			c-11.4,4.4-23.2,6-35.2,4.8c-30.6-3.2-52.8-18.8-66.5-46.2c-5.4-10.9-7.8-22.6-7.7-34.7C6,47.3,32.1,14.8,69.1,7.4
			C74.7,6.3,80.3,5.8,86,6c0.3,0,0.5,0.1,0.8,0.2c-23,0.7-42.5,9.2-58,26.3C18.3,44,12,57.6,9.8,73.1c-5.2,35.6,14.3,68.3,44.6,82.2
			c30.4,14,66.5,7.1,89.4-17.4c14.4-15.4,21.5-33.7,21.2-54.7C164.6,62.3,156.8,44.3,142.4,29.2z"/>
		<path class="st0" d="M14.6,80.3c0.3-2.6,0.5-5.2,0.9-7.8c2.7-15.6,9.8-29,21.5-39.8c11.2-10.4,24.5-16.7,39.8-18.6
			c37.6-4.7,72.4,19.8,80.2,57c4.8,22.9-0.4,43.8-15.3,61.9c-11.5,13.9-26.4,22.4-44.3,24.9c-26.4,3.7-48.5-4.8-65.8-25.2
			c-0.2-0.2-0.3-0.5-0.4-0.8c17.3,19,38.7,27.6,64.2,24c20.8-2.9,37-13.6,48.5-31.1c22.4-34.1,10.7-80.5-25.2-99.8
			c-22-11.8-44.6-12-66.7-0.3C29.9,36.6,17.9,55.6,14.6,80.3z"/>
		<path class="st0" d="M123.3,139.6c-2.4,1.5-4.7,3.1-7.2,4.4c-10.9,5.8-22.5,8.3-34.7,7.4c-28.7-2.1-53-23.8-58.6-51.9
			c-6.1-30.8,10.1-62.5,40.8-74.3c37.7-14.5,78.6,8.2,86.8,46.5c1.8,8.4,1.9,16.9,0.1,25.4c0,0.1-0.1,0.3-0.2,0.4
			c2.5-17.4-1-33.5-11.4-47.8c-10.4-14.3-24.5-22.8-42-25.4C69.7,20.1,43,34.3,30.9,59c-12.1,24.7-6.8,54.2,12.9,73.3
			c18.8,18.2,51.6,25.2,79.1,6.9C123.1,139.3,123.2,139.5,123.3,139.6z"/>
		<path class="st0" d="M56,36.2c-24.6,15.5-32.8,46.6-22,71.1c10.6,24.1,34.7,36.5,58.2,34c25.9-2.8,47.1-22.7,50.5-49.8
			c3.4-27.7-14.2-54.5-41.3-61.9c0.7,0.2,1.5,0.3,2.2,0.5c21.1,6.5,34.7,20.5,40,41.8c8.1,32.8-13.3,65.4-46.6,71.5
			c-32,5.9-62.3-14.9-68.5-46.9c-4.5-23.5,6-47.4,26.4-59.7C55.2,36.6,55.6,36.4,56,36.2z"/>
		<path class="st0" d="M38.9,107.9c-9.2-17.3-7.6-44.1,12.7-61.6c20.7-17.9,51-17.1,71.1,1.7C142,66,144.8,96.6,129,117.7
			c-16.5,22.2-43.2,24.9-59.7,17.9c14.6,4.5,28.6,3.2,42-4.3c9.4-5.4,16.4-13.1,20.9-23c9.3-20.3,4.4-43.7-11.4-58.4
			c-16.7-15.6-40.6-18.5-59.9-7.6c-11.6,6.5-19.6,16.1-23.8,28.7C33,83.4,33.8,95.8,38.9,107.9z"/>
		<path class="st0" d="M129.1,105.9c-6.7,16.8-26.4,31.4-51.1,27c-23.9-4.3-40.6-26-38.7-50.7c1.9-24,20.9-42.8,45.1-43.9
			c25.3-1.2,41.7,16.3,46.1,30.8c-4.6-10.9-12-19.2-22.7-24.4c-10.6-5.2-21.7-6.2-33.1-2.9c-20,5.7-33.4,24-33.2,45
			c0.2,20.5,14.2,38.4,34.5,43.8C95.9,136,118.9,126.9,129.1,105.9z"/>
		<path class="st0" d="M76,45c15.1-4.8,36.4,0.4,47.5,19.8c10.6,18.5,5.7,42.3-11.3,55.3c-16.9,12.9-41,11.4-56-3.3
			c-15.1-14.8-15.5-36.1-8-49.1c-5.3,12-5.3,24,0.3,35.9c3.9,8.2,9.9,14.3,17.9,18.6c15.7,8.4,35.5,5.6,48.2-6.9
			c13.2-12.9,16.4-32.3,8-48.8C115.3,51.9,97.6,40.2,76,45z"/>
		<path class="st0" d="M62.3,115.6c-11-7.7-18.7-25.3-11.9-43.1c7-18.5,26.4-28.3,45.4-23.6c19.9,5,31.5,23.5,29.1,42.2
			c-1.2,9.7-5.5,17.8-13,24.2c-4.9,4.2-10.5,7-16.9,8.1c18.4-4.5,29.1-21.4,28.6-37.3c-0.5-16.4-11.4-30.8-27.8-35.2
			c-15.4-4.2-32,2.4-40.9,15.9C46.7,79.1,45.5,101.6,62.3,115.6z"/>
		<path class="st0" d="M105.5,57.5c-11.2-6.6-22.8-7.4-34.4-1.3c-8.4,4.4-13.9,11.4-16.5,20.6c-5.2,18.6,6.5,37.9,25.4,41.8
			c10.7,2.2,20.5-0.2,28.9-7.4c8.3-7.1,12-16.4,11.7-27.3c1.9,15.3-8.6,30.9-23.8,35.4c-16.5,4.9-33.7-2.4-41.3-17.6
			C48,86.4,52.3,68,65.8,58C79.1,48.2,95.9,49.9,105.5,57.5z"/>
		<path class="st0" d="M55.4,86.6c1.1,17.3,13.2,26.7,24.1,28.8c13.2,2.7,26.2-3.3,32.7-14.9c6.3-11.3,4.7-25.6-4.1-35.1
			c-5.2-5.6-11.6-8.9-19.2-9.7c-7.5-0.8-14.4,1.1-20.7,5.4c7.5-6.7,21.8-9.3,34.1-2c13.3,7.9,18.7,24.4,12.8,38.9
			c-5.7,14-21.1,22-35.9,18.5C62.9,112.7,54.9,98.3,55.4,86.6z"/>
		<path class="st0" d="M81.2,113.4c-9.4-1.1-20.3-9.1-22.5-22.5C56.3,76.4,65,63.8,77.6,59.5c12.7-4.3,27,1.1,33.6,12.9
			c6.4,11.4,3.5,24.5-3.2,31.3c6.1-8.4,7.7-17.4,4-27.2c-2.7-7.1-7.8-12.2-14.8-15.1c-14.5-6-30.9,1.4-36.1,16.1
			C55.8,92.3,63.9,109.4,81.2,113.4z"/>
	</g>
</g>
<g>
	<path class="st1" d="M106.4,107.9c0.1,0,0.4-0.1,0.6-0.3c2.1-1.6,3-5.5,1.7-7.3c-1.2-1.8-2-4.3-2-6.7l-0.1-1.9
		c0.1-6.3-0.8-13.3-2.2-17.6l0-0.1c-0.4-2.8-0.7-4.3-1-5.6c-0.2-0.9-0.3-1.6-0.4-2.5l-1-7.5c-0.1-0.4-0.1-0.9-0.1-1.3
		c-0.1-0.9-0.1-1.7-0.4-2.5c-1-2.4-3-3.7-6-3.7c-2.1,0-3.5-0.8-4.3-2.3c-1.1-2-1.1-3.8-0.2-5.4c1.7-2.8,1.5-5.8,1.3-9.1l0-0.6
		c0-0.7-0.4-1.5-1-2.2c-1.4-1.8-3.3-2.3-5.6-1.7c-2.2,0.6-3.4,2.2-3.6,4.6c-0.2,2.8-0.2,6,1.4,9.2c0.8,1.7,0.9,3.3,0.3,4.6
		c-0.7,1.4-2.1,2.4-4.2,2.8c-2,0.4-3.6,1-4.8,1.8c-0.8,0.5-1.6,1.7-1.8,2.7c-0.3,1.6-0.4,3.3-0.5,5c-0.1,1.2-0.1,2.3-0.3,3.5
		c-0.1,0.7-0.3,1.4-0.4,2.1c-0.2,0.8-0.4,1.6-0.4,2.3c-0.2,4.4-0.7,8-1.6,11.4c-0.3,1.1-0.2,2.3-0.2,3.5c0,0.5,0,1.1,0,1.6
		c0,0.6,0,1.2,0,1.8c0,1.2,0,2.4-0.1,3.6c0,0.1,0,0.3,0,0.6c0,0.7,0,1.8-0.2,3c-0.3,2.3-1,4.6-1.7,5.8c-1.1,1.9,0,5.7,2.2,7.2
		c0.2,0.2,0.6,0.2,0.7,0.2c0.1-0.1,0.2-0.3,0.2-0.5c-0.2-0.9-0.5-1.8-1-2.7c-0.7-1.6-0.7-2,0.4-3.6l0.7-1l0.2,1.2
		c0,0.3,0.1,0.5,0.1,0.8c0.1,0.6,0.2,1.2,0.3,1.8c0.1,0,0.2,0.1,0.3,0.1c0,0,0,0,0-0.1c0.1-0.5,0.2-1,0.3-1.5c0.4-1.7,0.7-3.4,0-5.1
		c-0.3-0.8-0.4-1.7-0.5-2.9l0,0l0,0c0-0.4,0.1-0.9,0.2-1.3c0.2-0.9,0.5-1.9,0.8-2.8c0.6-2.3,1.3-4.6,1.7-7c0.7-3.6,1.2-7.3,1.7-10.9
		c0.2-1.5,0.4-3.1,0.7-4.6l0.6-3.8l0.4,3.9c0.1,1.2,0.2,2.3,0.3,3.5c0.3,2.8,0.5,5.6,1,8.4c0.4,2.4,0.2,4.7-0.7,7
		c-1.5,3.7-2.1,7.1-2,10.4c0.1,2.8,0.3,5.2,0.5,7.3c0.1,0.5,0.1,1,0.2,1.5c0.3,2.8,0.6,5.7,1.2,8.5c1.1,5.3,2.2,11.5,0.9,18
		c-0.5,2.5-0.2,5.2,0.1,7.9c0.1,0.5,0.1,1,0.2,1.5c0.1,1.1,0.4,2.1,0.7,3.2c0.3,1.1,0.7,2.3,0.8,3.5c0.5,4.9-0.5,14.7-1.2,17.1
		c1,0.2,3.7,0.2,4.6,0l0-0.4l1,0.2c0.3,0.1,0.6,0.1,0.7,0.1c-0.1-0.6-0.4-2.2-0.6-3.4c-0.1-0.8-0.3-1.5-0.4-2.2c0,0,0-0.1,0-0.1
		c-0.1-0.1-0.2-0.4-0.1-0.6c0.5-1.5,0.2-3-0.2-4.5c-0.3-1.2-0.5-2.4-0.4-3.6c0.3-3.4,0.6-6.8,1-10.1l0.2-1.6
		c0.1-1.1,0.3-2.3,0.5-3.4c0.1-0.6,0.2-1.3,0.3-1.9c0.3-2.2,0.6-4.4,0.9-6.6l0.8-5.7l0.6,2.7c0.8,3.6,1.2,7.3,1.3,11.7
		c0,3.4,0.2,6.9,0.4,10.2c0.1,1.3,0.2,2.7,0.2,4c0,0.7,0,1.9-0.1,2.7c-0.1,1.5-0.3,3.5-0.5,5.5c-0.3,2.7-0.6,5.7-0.7,6.7
		c0.8,0.1,2.9,0.1,6.5,0.1l-0.2-0.7c-0.3-0.9-0.6-1.7-0.9-2.4c-0.1-0.3-0.2-0.5-0.3-0.8c-0.3-0.6-0.6-1.3-0.6-2
		c-0.2-3.3-0.3-6.6,0.8-9.8c2.1-6.5,2.8-13,1.8-19.4c-0.2-1.6-0.2-3.1,0-4.6c0.5-3.8,1.1-7.6,1.6-11.3c0.5-3.3,1-6.7,1.5-10
		c0.6-4.1,1-9.6-0.9-14.8c-1.6-4.4-2.2-8.3-1.8-12.2c0.2-2.6,0.4-5.2,0.5-7.9c0.1-1.2,0.1-2.5,0.2-3.8l0.1-2.2l0.9,2.1
		c0.1,0.2,0.2,0.4,0.3,0.6c0.2,0.3,0.3,0.6,0.3,0.9c1.1,5.4,2,9.8,2.8,13.9c0.5,2.3,0.8,4.3,1.3,6.6l0.2,1c0.3,1.3,0.6,2.5,1.1,3.9
		c0.2,0.6,0.3,1.2,0.4,1.9c0.1,1.1-0.1,2.9-0.4,3.9c-0.5,1.8-0.1,3.4,0.4,5.1c0.1,0.5,0.3,1,0.4,1.5c0,0,0,0,0,0
		c0.1,0,0.2-0.1,0.3-0.1c0.1-0.6,0.2-1.2,0.2-1.8c0-0.3,0-0.5,0.1-0.8l0.1-1.2l0.8,0.9c1.2,1.5,1.3,1.9,0.7,3.6
		c-0.4,0.9-0.6,1.8-0.8,2.7C106.1,107.5,106.3,107.8,106.4,107.9z"/>
	<path class="st0" d="M106.3,93.6c0,1.8,1.1,4.8,1.9,6.3c1.1,2,0.7,4.7-0.9,6.5c0.6-1.5,0.7-2.9,0.2-4.4c-0.5-1.3-1.1-1.6-2.5-1.2
		c-0.7,0.2-0.7-0.1-0.8-0.5c-0.1-0.3-0.1-0.7,0-1c0.5-1.7,0.6-4.5,0.6-5.2s0-1.4-0.1-1.8c-1.1-4.7-2-8.4-3-13.1
		c-1.1-5.6-1.5-11.4-4-16.8c-0.2-0.4-0.2-1.3,0.2-1.6c1-1.1,2.2-2,3.4-3c0.5,3.4,1.3,6.8,1.9,9.5c0.6,2.7,1.4,7.6,1.4,7.6
		c0,0.5,0.1,1,0.3,1.5c1.1,3.5,1.3,6.6,1.3,10.3C106.1,89.2,106.2,91.1,106.3,93.6z M83.3,41.9c-1.1-2.9-0.8-5.9-0.5-8.8
		c0.2-1.9,2-3,4.1-3c3,0,4.1,1,4.9,4c0.7,2.9,0.2,5.6-0.9,8.2c-0.8,2-2.1,2.6-4.2,2.5C84.8,44.7,83.9,43.5,83.3,41.9z M83.5,49.9
		c0.4-1.4,1-2.7,1.5-4.2c0.7,0.1,1.5,0.2,2.3,0.2c0.8-0.1,1.6-0.3,2.4-0.5c0.5,1.6,1.1,3.3,1.7,5.5c-0.2,0.3-0.5,1-1,1.5
		c-2.4,2.6-5.1,1.7-6.8-0.3C83.3,51.5,83.3,50.5,83.5,49.9z M76.9,63.6c-1,6.3-1.9,12.7-3,19c-0.3,2-1.1,3.9-1.6,5.9
		c-0.6,2.2-1,3.6-1,5c0,1.6,0.3,3.2,0.9,4.8c0.1,0.3,0.2,0.7,0.1,1c-0.1,0.4-0.1,0.7-0.8,0.5c-1.5-0.3-2,0.1-2.5,1.3
		c-0.5,1.5-0.3,3,0.4,4.4c-1.7-1.7-2.2-4.4-1.3-6.5c0.8-1.6,1.6-3.2,1.7-5.1c0.1-3.2,0-6.9,0.1-10.1c0-2.4,0.4-4.7,1.1-7
		c0.6-2.1,0.6-4.3,0.9-6.5c0.4-3.1,0.8-6.2,1.3-9.3c0.1-1,0.3-2,0.5-3.2c0.5,0.4,1,0.8,1.5,1.2C76.9,60.2,77.1,61.8,76.9,63.6z
		 M95.8,165.1c0.3,0,0.4-0.3,0.3-0.5c-0.5-1.3-0.8-2.3-1.2-3.3c-0.3-0.9-0.9-1.7-0.9-2.6c-0.2-3.2-0.3-6.4,0.7-9.6
		c2.1-6.4,2.8-12.9,1.8-19.6c-0.2-1.5-0.2-3,0-4.5c1-7.1,2.1-14.2,3.1-21.3c0.7-5.1,0.8-10.2-0.9-15.1c-1.4-3.9-2.2-7.8-1.8-11.9
		c0.3-3.8,0.4-7.6,0.7-11.7c0.3,0.6,0.5,1,0.6,1.4c0.9,4.6,1.9,9.3,2.8,13.9c0.5,2.7,1,4.8,1.5,7.6c0.3,1.3,0.7,2.7,1.1,4
		c0.2,0.6,0.3,1.2,0.4,1.8c0.1,1.1-0.1,2.8-0.4,3.8c-0.7,2.5,0.2,4.7,0.7,6.9c0,0.2,0.4,0.5,0.5,0.4c0.3-0.1,0.7-0.3,0.8-0.5
		c0.2-0.9,0.2-1.8,0.3-2.7c1.1,1.4,1.1,1.6,0.6,3c-0.4,0.9-0.7,1.9-0.8,2.8c-0.1,0.3,0.3,0.9,0.6,1c0.3,0.1,0.8-0.1,1.1-0.3
		c2.2-1.7,3.3-5.9,1.8-8c-1.3-1.9-1.9-4.4-1.9-6.4l-0.1-1.9c0.1-6.7-0.9-13.7-2.2-17.7c-0.7-4.8-1.1-6-1.4-8.1c-0.3-2.1-0.7-5-1-7.5
		c-0.2-1.3,0-2.7-0.5-3.9c-1.2-2.8-3.6-4-6.5-4.1c-1.7,0-3.1-0.5-3.8-2c-0.8-1.5-1.2-3.2-0.2-4.9c1.9-3.1,1.5-6.6,1.3-9.9
		c-0.1-0.9-0.5-1.8-1.1-2.5c-1.6-2-3.7-2.5-6.2-1.8c-2.4,0.7-3.7,2.4-3.9,5c-0.2,3.2-0.1,6.4,1.4,9.4c1.7,3.3,0.1,5.9-3.5,6.7
		c-1.7,0.4-3.5,0.9-4.9,1.9c-0.9,0.6-1.8,1.9-2,3c-0.5,2.8-0.4,5.7-0.7,8.5c-0.2,1.5-0.8,3-0.9,4.5c-0.2,3.8-0.6,7.6-1.6,11.3
		c-0.4,1.7-0.2,3.5-0.2,5.3c0,1.8,0,3.6-0.1,5.3c0,0.5,0,1.9-0.2,3.5c-0.3,2.1-1,4.5-1.7,5.6c-1.3,2.1,0,6.3,2.3,7.8
		c0.3,0.2,0.9,0.4,1.1,0.3c0.3-0.1,0.6-0.7,0.5-1c-0.2-0.9-0.6-1.9-1-2.8c-0.6-1.4-0.7-1.6,0.4-3.1c0.2,0.9,0.2,1.8,0.5,2.7
		c0.1,0.2,0.5,0.4,0.8,0.5c0.1,0,0.5-0.3,0.5-0.5c0.3-2.3,1.2-4.6,0.3-7c-0.3-0.8-0.4-1.8-0.4-2.8c0-0.4,0.1-0.8,0.2-1.2
		c0.8-3.3,1.8-6.5,2.5-9.9c0.9-5.1,1.6-10.3,2.4-15.5c0.4,3.9,0.7,8,1.4,12c0.4,2.4,0.1,4.5-0.7,6.7c-1.3,3.4-2.2,7-2,10.7
		c0.1,2.5,0.2,4.9,0.5,7.3c0.4,3.4,0.7,6.8,1.4,10c1.3,5.9,2.2,11.7,0.9,17.8c-0.6,3-0.1,6.4,0.3,9.6c0.2,2.3,1.3,4.4,1.5,6.7
		c0.5,5.7-0.8,16.5-1.3,17.2c-0.5,0.7,5.7,0.6,5.7,0.1s-0.6-1.2-0.9-1.6h-3.6c0.2-1.1,0.3-2.1,0.5-3.1c1.3-5.1,1.3-10.2-0.1-15.3
		c-1.2-4.4-1.5-10.1-0.9-14.6c1.8,0.3,3.6,0.6,5.9,0.9c-0.3,2.7-0.6,5.3-0.9,7.9c-0.4,2.8-1,5.5-1.1,8.3c-0.1,2.2,0.3,4.4,0.5,6.6
		c0,0.1,0.1,0.2,0.1,0.2c-0.3,3,0.6,5.8,0.8,8.7c0,0.4-0.1,0.9-0.2,1.7c0,0.2,0.1,0.3,0.2,0.3c0.5,0.1,1.4,0.3,1.4-0.1
		c0-0.6-0.7-3.9-1-5.9c0-0.2-0.2-0.4-0.1-0.5c0.9-2.8-0.8-5.5-0.6-8.2c0.3-3.9,0.7-7.7,1.2-11.6c0.2-1.8,0.5-3.5,0.7-5.3
		c0.4-3.2,0.9-6.3,1.3-9.6c0.9,3.9,1.2,7.7,1.2,11.6c0,4.7,0.4,9.5,0.7,14.2c0,0.7,0,1.9-0.1,2.6c-0.4,4-1.2,12.3-1.2,12.6
		C88.6,165.2,94.1,165.1,95.8,165.1z M95.1,144.1c-0.4,1.7-0.8,3.5-1.4,5.1c-1,2.9-1.1,5.8-0.8,8.8c0.2,1.7,1.1,3.3,1.7,5.2
		c-1.3,0-2.6,0-4,0c0,0.4-0.1,0.9-0.1,1.3c-0.1,0-0.4,0-0.4-0.1c-0.1-0.7-0.3-1.4-0.3-2.1c0.1-1.6,0.4-3.2,0.5-4.8
		c0.2-2.1,0.6-4.2,0.5-6.3c-0.2-5.2-0.6-10.3-0.9-15.4c-0.1-1.8,0-3.7,0-5.7c1.9-0.2,3.7-0.4,5.8-0.6
		C95.9,134.6,96.2,139.4,95.1,144.1z M98.4,91.1c0.9,4.4,0.7,8.8,0.2,13.2c-0.7,5.9-1.9,11.7-2.7,17.6c-0.3,2,0,4.1,0,5.9
		c-1.6,1.5-3.4,1.2-5,1c-0.4,0-1-0.7-1.1-1.1c-0.3-0.8-0.3-1.7-0.4-2.5c0-3.1,0-6.3,0-9.4c-0.1-4-0.4-8-0.5-11.9
		c0-1.1,0.3-2.3,0.5-3.6c-2.4-0.3-3.4-3.7-6.6-3.3c0.6,0.4,1.1,0.8,1.8,1.1c2,0.9,2.9,2.5,3.1,4.6c0.1,1.2,0.1,2.4,0,3.6
		c-0.1,4.8-0.3,9.7-0.5,14.5c-0.1,2.4-0.3,4.7-0.6,7.1c-0.1,0.6-0.4,1.3-0.7,2.1c-1.3,0-2.6,0.1-3.8,0c-1.7-0.2-2.4-1.2-1.8-2.8
		c0.9-2.5,0.1-4.9-0.2-7.3c-0.8-5.5-2.2-11-2.7-16.5c-0.4-4.5-0.7-9.1,0.4-13.7c3,0.6,5.7,1.4,8.5,1.7c3.3,0.4,6.6-0.4,9.7-1.5
		C97.9,89,98,89.1,98.4,91.1z M96.3,66.1c0,3.1,0.3,6.1-0.1,9.1c-0.5,3.9-0.6,7.8,1,11.5c0.1,0.3,0.1,0.7,0.2,0.9
		c-2.8,3.3-15.5,3.4-19.1,0.2c0.6-1.6,1.1-3.3,1.7-5c0.5-0.1,1.1-0.2,1.8-0.4c-0.2-0.3-0.4-0.5-0.6-0.6c-0.8-0.3-1.5-0.6-1.6-1.7
		c-0.4-4.7-0.8-9.4-1.3-14.2c1,0.2,1.8,0.4,2.7,0.7c0-0.5,0-0.7,0-0.7c-2.1-0.5-3.2-1.7-3.1-4c0-1-0.4-2-0.6-3
		c-0.5-0.1-1.1,0-1.4-0.3c-1.1-0.9-2.4-1.8-2.4-3.4c0.1-1.6,1.3-2.4,2.6-2.8c1.8-0.6,3.6-0.9,5.5-1.4c1.4,1.9,2.9,3.8,5.4,3.9
		c2.6,0.1,4.1-1.7,5.3-3.7c1.3,0.1,2.6,0.1,3.8,0.3c1,0.2,2.1,0.5,3,1.1c2.2,1.4,2.3,2.5,0.8,4.6c-0.3,0.4-0.5,0.9-0.9,1.2
		c-1.9,1.3-3.1,2.8-3.1,5.3c0,0.9-1.5,1.7-2.8,3C94.5,66.4,95.3,66.3,96.3,66.1z"/>
</g>
</svg>
