<?xml version="1.0" encoding="utf-8"?>
<!-- Generator: Adobe Illustrator 27.2.0, SVG Export Plug-In . SVG Version: 6.00 Build 0)  -->
<svg version="1.1" id="Layer_1" xmlns="http://www.w3.org/2000/svg" xmlns:xlink="http://www.w3.org/1999/xlink" x="0px" y="0px"
	 viewBox="0 0 569 533" style="enable-background:new 0 0 569 533;" xml:space="preserve">
<style type="text/css">
	.st0{fill:#6D4545;}
</style>
<g>
	<path class="st0" d="M540.5,155.7v297.6c-0.2,0.3-0.4,0.6-0.4,0.9c-3.6,23.9-23.6,40.2-49.3,39.1c-5.9-0.3-11.8,0-18.7,0
		c1.8,2,2.9,3.2,4,4.4c5.9,6.6,5.9,15.2,0.1,21.1c-6,6-14.9,6.1-21.5-0.2c-7.7-7.4-15-15.1-22.8-22.4c-1.6-1.5-4.2-2.7-6.4-2.7
		c-93.6-0.1-187.3-0.1-280.9,0c-2.2,0-4.8,1.2-6.4,2.7c-7.7,7.3-15.1,15.1-22.8,22.4c-6.6,6.3-15.5,6.2-21.5,0.2
		c-5.8-5.9-5.8-14.5,0.1-21.1c1.1-1.3,2.3-2.5,4-4.4c-8.5,0-15.9,0.1-23.2,0c-15.4-0.2-28.6-5.7-37.3-18.6c-1.3-2-2.4-4.1-3.4-6.3
		c-3.8-8.8-5.7-18.3-5.7-27.8c0-94.9,0-189.9,0-284.8c0-9.5,1.8-19,5.6-27.8c1-2.2,2.1-4.3,3.4-6.3c8.9-13.2,22.5-18.6,38.2-18.6
		c45.5,0,90.9,0,136.4,0c1.7,0,3.5,0,6.1,0c-1.9-2-2.9-3.2-4.1-4.4c-19.2-19.4-38.4-38.8-57.6-58.2c-1.4-1.4-2.8-2.8-4-4.4
		c-5.4-7.2-3.5-16.9,4.1-21.7c1.4-0.9,2.8-1.7,4.2-2.5c2.6,0.2,5.2,0.3,7.8,0.5c3.9,3.1,8,5.9,11.5,9.4
		c23.5,23.5,46.9,47.2,70.3,70.9c1.2,1.3,1.8,3.2,3.1,5.7c2.8-3.3,4-4.8,5.2-6c23.3-23.5,46.5-47.1,69.9-70.5
		c3.5-3.5,7.7-6.3,11.5-9.5c2.6-0.2,5.1-0.3,7.7-0.5c14.1,8.3,15.4,17.5,4.1,29c-19.1,19.3-38.2,38.5-57.3,57.8
		c-1.2,1.2-2.3,2.5-4.1,4.3c3,0,4.8,0,6.7,0c65.1,0,130.3,0,195.4,0c16,0,29.7,5.2,38.8,18.7c1.3,2,2.4,4.1,3.4,6.3
		C538.7,136.7,540.5,146.2,540.5,155.7z M284.5,463.4c69,0,138,0,207,0c13.8,0,19-5.2,19-19c0-97.5,0-194.9,0-292.4
		c0-13.7-5.2-19-19-19c-138,0-276,0-414,0c-13.8,0-19,5.2-19,19c0,97.5,0,194.9,0,292.4c0,13.7,5.2,19,19,19
		C146.5,463.4,215.5,463.4,284.5,463.4z"/>
	<path class="st0" d="M239.5,432.4c-34.3,0-68.7,0.1-103,0c-19.1-0.1-34-8.1-42.2-25.6c-2.9-6.2-4.6-13.7-4.6-20.6
		c-0.4-59-0.3-118.1-0.1-177.1c0.1-26.6,19.5-46,46.2-46c69.2-0.2,138.3-0.2,207.5,0c26.9,0.1,46.2,19.5,46.3,46.5
		c0.1,58.7,0.1,117.4,0,176.1c0,27.5-19.4,46.7-47,46.8C308.2,432.5,273.9,432.4,239.5,432.4z M239.5,402.5c34,0,68,0,102,0
		c12.4,0,18-5.6,18-18c0-57.9,0-115.8,0-173.7c0-12.4-5.6-18-18-18c-68,0-136,0-204,0c-12.4,0-18,5.6-18,18c0,57.9,0,115.8,0,173.7
		c0,12.4,5.6,18,18,18C171.5,402.5,205.5,402.5,239.5,402.5z"/>
	<path class="st0" d="M480.5,207.8c0,16.3-13.6,29.9-29.9,30c-16.3,0-30-13.5-30-29.8c0-16.3,13.6-29.9,29.9-30
		C466.8,177.9,480.4,191.5,480.5,207.8z"/>
	<path class="st0" d="M450.4,297.7c-5,0-10,0.1-15,0c-8.6-0.3-14.9-6.8-14.9-15c0-8.2,6.4-14.7,15-14.8c10-0.2,20-0.2,30,0
		c8.6,0.2,14.9,6.8,14.9,15c0,8.2-6.4,14.6-15,14.8C460.4,297.8,455.4,297.7,450.4,297.7z"/>
	<path class="st0" d="M450.3,357.5c-5,0-10,0.2-15,0c-8.6-0.3-14.9-6.9-14.8-15.1c0.1-8,6.3-14.5,14.6-14.7
		c10.2-0.3,20.3-0.2,30.5,0c8.6,0.2,14.9,6.9,14.8,15c-0.1,8.2-6.5,14.5-15.1,14.8C460.3,357.7,455.3,357.5,450.3,357.5z"/>
	<path class="st0" d="M450.1,417.4c-4.7,0-9.3,0.1-14,0c-9-0.2-15.5-6.5-15.6-14.8c-0.1-8.4,6.4-14.9,15.3-15.1
		c9.8-0.2,19.7-0.2,29.5,0c8.6,0.2,15,6.6,15.1,14.8c0.1,8.4-6.4,14.8-15.3,15.1C460.1,417.5,455.1,417.4,450.1,417.4z"/>
</g>
</svg>
