<?xml version="1.0" encoding="utf-8"?>
<!-- Generator: Adobe Illustrator 27.2.0, SVG Export Plug-In . SVG Version: 6.00 Build 0)  -->
<svg version="1.1" id="Layer_1" xmlns="http://www.w3.org/2000/svg" xmlns:xlink="http://www.w3.org/1999/xlink" x="0px" y="0px"
	 viewBox="0 0 50 50" style="enable-background:new 0 0 50 50;" xml:space="preserve">
<style type="text/css">
	.st0{fill-rule:evenodd;clip-rule:evenodd;fill:#FFFFFF;}
</style>
<path class="st0" d="M39.6,11.6c-3.53-3.54-8.24-5.49-13.24-5.49c-10.32,0-18.72,8.4-18.72,18.72c0,3.3,0.86,6.52,2.5,9.36
	l-2.65,9.7l9.92-2.6c2.73,1.49,5.81,2.28,8.94,2.28h0.01c10.32,0,18.71-8.4,18.72-18.72C45.08,19.85,43.14,15.14,39.6,11.6
	L39.6,11.6z M26.36,40.4L26.36,40.4c-2.8,0-5.54-0.75-7.92-2.17l-0.57-0.34l-5.89,1.54l1.57-5.74l-0.37-0.59
	c-1.56-2.48-2.38-5.34-2.38-8.28c0.01-8.58,6.98-15.56,15.57-15.56c4.16,0,8.06,1.62,11,4.56c2.94,2.94,4.56,6.85,4.55,11
	C41.92,33.42,34.93,40.4,26.36,40.4L26.36,40.4z M34.89,28.75c-0.47-0.23-2.77-1.37-3.2-1.52c-0.43-0.15-0.74-0.23-1.05,0.23
	c-0.31,0.47-1.21,1.52-1.48,1.83c-0.27,0.31-0.55,0.35-1.01,0.12c-0.47-0.23-1.98-0.73-3.76-2.32c-1.39-1.24-2.33-2.77-2.6-3.24
	c-0.27-0.47-0.03-0.72,0.2-0.96c0.21-0.21,0.47-0.55,0.7-0.82c0.23-0.27,0.31-0.47,0.47-0.78c0.15-0.31,0.08-0.59-0.04-0.82
	C23,20.24,22.07,17.94,21.68,17c-0.38-0.91-0.76-0.79-1.05-0.8c-0.27-0.01-0.59-0.02-0.89-0.02c-0.31,0-0.82,0.12-1.25,0.59
	c-0.43,0.47-1.63,1.6-1.63,3.9s1.67,4.53,1.91,4.84c0.23,0.31,3.3,5.03,7.99,7.06c1.12,0.48,1.99,0.77,2.67,0.99
	c1.12,0.36,2.14,0.31,2.94,0.19c0.9-0.14,2.77-1.13,3.16-2.22c0.39-1.09,0.39-2.03,0.27-2.22C35.67,29.1,35.36,28.99,34.89,28.75
	L34.89,28.75z"/>
</svg>
