<?xml version="1.0" encoding="utf-8"?>
<!-- Generator: Adobe Illustrator 27.2.0, SVG Export Plug-In . SVG Version: 6.00 Build 0)  -->
<svg version="1.1" id="Layer_1" xmlns="http://www.w3.org/2000/svg" xmlns:xlink="http://www.w3.org/1999/xlink" x="0px" y="0px"
	 viewBox="0 0 50 50" style="enable-background:new 0 0 50 50;" xml:space="preserve">
<style type="text/css">
	.st0{fill:#FFFFFF;}
</style>
<path class="st0" d="M45.76,14.41c-0.5-1.86-1.97-3.33-3.83-3.83C38.55,9.67,25,9.67,25,9.67s-13.55,0-16.93,0.91
	c-1.86,0.5-3.33,1.97-3.83,3.83c-0.91,3.38-0.91,10.43-0.91,10.43s0,7.05,0.91,10.43c0.5,1.86,1.97,3.33,3.83,3.83
	C11.45,40,25,40,25,40s13.55,0,16.93-0.91c1.86-0.5,3.33-1.97,3.83-3.83c0.91-3.38,0.91-10.43,0.91-10.43S46.67,17.79,45.76,14.41z
	 M20.67,31.34v-13l11.26,6.5L20.67,31.34z"/>
</svg>
