<?xml version="1.0" encoding="UTF-8"?>
<svg id="Layer_1" data-name="Layer 1" xmlns="http://www.w3.org/2000/svg" version="1.1" viewBox="0 0 64 64">
  <defs>
    <style>
      .cls-1 {
        fill: #fff;
        fill-rule: evenodd;
        stroke-width: 0px;
      }
    </style>
  </defs>
  <path class="cls-1" d="M14.2,23.4v32c0,1.6,1.3,2.9,2.9,2.9h29.1c1.6,0,2.9-1.3,2.9-2.9v-32h5.8s0,0,0,0v32c0,4.8-3.9,8.7-8.8,8.7h-29c-4.8,0-8.8-3.9-8.8-8.7v-32h5.8ZM22.9,8.8c0-1.6,1.3-2.9,2.9-2.9h11.7c1.6,0,2.9,1.3,2.9,2.9s-1.3,2.9-2.9,2.9h-11.7c-1.6,0-2.9-1.3-2.9-2.9ZM22.9,29.2c0-1.6,1.3-2.9,2.9-2.9s2.9,1.3,2.9,2.9v17.5c0,1.6-1.3,2.9-2.9,2.9s-2.9-1.3-2.9-2.9v-17.5h0ZM34.5,29.2c0-1.6,1.3-2.9,2.9-2.9s2.9,1.3,2.9,2.9v17.5c0,1.6-1.3,2.9-2.9,2.9s-2.9-1.3-2.9-2.9v-17.5h0ZM17.1,11.7H5.4c-1.6,0-2.9,1.3-2.9,2.9s1.3,2.9,2.9,2.9h52.4c1.6,0,2.9-1.3,2.9-2.9s-1.3-2.9-2.9-2.9h-11.7v-2.9C46.2,4,42.3.1,37.4.1h-11.6c-4.8,0-8.7,3.9-8.7,8.7v2.9h0Z"/>
</svg>