<?xml version="1.0" encoding="UTF-8"?>
<svg id="Layer_1" data-name="Layer 1" xmlns="http://www.w3.org/2000/svg" version="1.1" viewBox="0 0 64 64">
  <defs>
    <style>
      .cls-1 {
        fill: #838484;
        stroke-width: 0px;
      }
    </style>
  </defs>
  <path class="cls-1" d="M62.9,56.2l-11.8-11.8c2.9-4.4,4.6-9.6,4.6-15.2,0-15.3-12.5-27.8-27.8-27.8S0,13.8,0,29.2s12.5,27.8,27.8,27.8,13.4-2.6,18.3-6.9l11.5,11.5c.7.7,1.7,1.1,2.7,1.1s1.9-.4,2.7-1.1c1.5-1.5,1.5-3.9,0-5.3ZM27.8,49.4c-11.2,0-20.3-9.1-20.3-20.3S16.6,8.9,27.8,8.9s20.3,9.1,20.3,20.3-9.1,20.3-20.3,20.3Z"/>
</svg>