<?xml version="1.0" encoding="UTF-8"?>
<svg id="Layer_1" data-name="Layer 1" xmlns="http://www.w3.org/2000/svg" version="1.1" viewBox="0 0 128 128">
  <defs>
    <style>
      .cls-1, .cls-2 {
        fill: #575756;
      }

      .cls-1, .cls-2, .cls-3, .cls-4, .cls-5 {
        stroke-width: 0px;
      }

      .cls-1, .cls-5 {
        display: none;
      }

      .cls-3, .cls-5 {
        fill: #9d9d9c;
      }

      .cls-4 {
        fill: #fff;
      }
    </style>
  </defs>
  <g>
    <polygon class="cls-4" points="5.9 67.3 6.1 67.4 6.2 67.6 6.2 68.1 6.1 68.6 6.2 69.2 6.2 69.7 6.1 69.9 5.9 70 5.3 70 4.8 70 3.6 69.9 3.1 69.9 2.5 69.9 1.4 69.9 .8 70 .3 70 .1 69.9 0 69.7 0 69.2 0 68.6 0 68.1 0 67.6 .1 67.4 .3 67.4 .7 67.4 1.1 67.4 1.3 67.3 1.3 67.1 1.4 66.5 1.4 65.9 1.4 64.7 1.3 63.5 1.3 62.9 1.3 62.3 1.4 61.7 1.4 61.1 1.3 61 1.1 60.9 .7 60.9 .3 60.9 .1 60.8 0 60.6 0 60.1 0 59.6 0 59 .1 58.5 .1 58.3 .3 58.2 .9 58.2 1.5 58.3 2.1 58.3 2.7 58.3 3.4 58.3 4 58.3 5.2 58.3 6.4 58.3 7 58.3 7.6 58.2 8.8 58.3 9.5 58.2 10.1 58.3 10.2 58.4 10.3 58.5 10.4 59.1 10.4 59.7 10.3 60.8 10.4 61.4 10.4 62 10.3 62.1 10.1 62.2 9.6 62.2 9.1 62.2 8.6 62.3 8.1 62.2 7.9 62.1 7.8 62 7.8 61.6 7.8 61.3 7.7 61.1 7.5 61 6.8 61 6.1 61.1 5.3 61 4.6 61 4.6 61.1 4.6 61.3 4.6 62.1 4.7 62.9 4.7 63 4.8 63.1 5.5 63.1 7.4 63.1 7.5 63 7.6 63.1 7.7 63.7 7.6 64.3 7.6 64.9 7.7 65.5 7.6 65.7 7.5 65.8 6.9 65.8 6.2 65.7 4.8 65.7 4.7 65.8 4.6 66 4.6 66.2 4.7 66.5 4.7 66.8 4.7 67.1 4.7 67.3 4.9 67.4 5.4 67.3 5.9 67.3"/>
    <path class="cls-4" d="M24.4,63.6v-.6c0,0-.2-.5-.2-.5v-.6c-.1,0-.4-.5-.4-.5l-.3-.5-.3-.4-.4-.5-.3-.4-.5-.4-.4-.3-.5-.3-.6-.2h-.5c0-.1-.5-.2-.5-.2h-.6c0-.1-.6-.1-.6-.1h-1s-.6.1-.6.1h-.5c0,0-.6.2-.6.2h-.5c0,.1-.6.4-.6.4l-.5.3-.5.3-.4.3-.5.4-.3.4-.4.6-.2.4-.2.6-.2.5v.6c-.1,0-.2.5-.2.5v1.7c0,0,.2.5.2.5l.2.6.2.5.2.5.3.4.4.4.4.4.4.4.5.3.5.3.5.2,1.1.4h.5c0,.1.5.2.5.2h1.7s.5-.2.5-.2l.5-.2h.5c0-.1.5-.3.5-.3l.5-.3.5-.3.4-.3.4-.4.3-.4.6-1,.3-.6v-.5c0,0,.1-.6.1-.6v-.5c.1,0,.2-.6.2-.6v-.5h0ZM21,64.8v.6c-.1,0-.4.6-.4.6l-.4.5-.4.4-.6.4h-.6c0,.1-.7.2-.7.2h-.7c0,0-.6-.3-.6-.3l-.5-.3-.5-.4-.3-.3-.3-.4-.2-.4v-.3c-.1,0-.2-.4-.2-.4v-.5s0-.5,0-.5v-.5c0,0,.2-.3.2-.3v-.4c.1,0,.3-.3.3-.3l.3-.5.5-.4.6-.3.7-.2h.6s.8,0,.8,0h.5c0,.1.6.5.6.5l.4.4.4.5.3.6v.7c.1,0,.1.5.1.5v.6h0Z"/>
    <path class="cls-4" d="M37.4,67.6h0c0-.1,0-.2,0-.2h-.2c0,0-.6,0-.6,0h-.8c0-.1-.5-.7-.5-.7l-.5-.7h0v-.2h0c0-.1,0-.2,0-.2l.6-.4.5-.4.4-.6.3-.6.2-.6v-.7s0-.6,0-.6v-.6c-.1,0-.3-.5-.3-.5l-.3-.5-.3-.5-.4-.4-.5-.3-.5-.3-.5-.2h-.6c0-.1-.5-.2-.5-.2h-1.7s-1.1,0-1.1,0h-4.5c0,0-.1,0-.1,0h-.1c0,0,0,.2,0,.2h0c0,.1,0,.6,0,.6v1.7h.1c0,.1.3.1.3.1h.9c0-.1,0-.1,0-.1h0v.9s0,.6,0,.6v.6s0,.6,0,.6v1.2c0,0,0,.6,0,.6v.6s0,.6,0,.6v.6s0,.1,0,.1h0c0,0-.2.1-.2.1h-.9s-.1,0-.1,0h0c0,0,0,.6,0,.6v.6s0,.6,0,.6v.8s0,.1,0,.1h.6s.6,0,.6,0h2.3c0,0,.6,0,.6,0h.6s.6,0,.6,0h.6s.2-.1.2-.1h0c0-.1,0-.6,0-.6v-.9s0-.3,0-.3v-.3s-.1-.1-.1-.1h0c0,0-.1-.1-.1-.1h-.4s-.4,0-.4,0h-.1s0-.2,0-.2v-1.1s0,0,0,0h0s.1,0,.1,0h.1s.5,0,.5,0h.2c0,0,.1.2.1.2l.7.9.3.5.3.5h0v.8s0,.7,0,.7v.2h.1c0,0,.6.2.6.2h1.1c0,0,.6-.1.6-.1h.6s.6,0,.6,0h.6c0,0,.6,0,.6,0h0c0-.1,0-.3,0-.3v-.5s0-1,0-1v-.5s0-.2,0-.2ZM33.6,62.5v.3c0,0-.2.2-.2.2v.2c-.1,0-.3.2-.3.2h-.2c0,.1-.3.2-.3.2h-.6s-.2,0-.2,0h-.2s-.3,0-.3,0h-1.2s0,0,0,0h0v-.8s0-.9,0-.9v-.8h0c0-.1,0-.2,0-.2h0c0,0,.1-.1.1-.1h.5s.2,0,.2,0h.8s.2,0,.2,0h.3s.3,0,.3,0h.3c0,.1.2.3.2.3l.2.2v.2c.1,0,.3.3.3.3v.3c0,0,0,.3,0,.3v.3h0Z"/>
    <polygon class="cls-4" points="49.6 70 49 70 48.5 69.9 48.3 69.8 48.3 69.7 48.2 69.2 48.2 68.6 48.1 68.1 48.2 67.6 48.2 67.4 48.3 67.4 48.4 67.3 48.4 67.3 48.9 67.3 49.3 67.3 49.5 67.3 49.5 67.3 49.6 67.2 49.6 67.1 49.6 66.5 49.6 65.8 49.6 65.2 49.6 63.9 49.6 63.3 49.6 63.2 49.5 63.1 49.4 63.1 49.3 63.2 48.8 63.7 48.4 64.2 47.9 64.7 47.5 65.2 47.1 65.8 46.7 66.3 46.6 66.4 46.4 66.4 46.3 66.3 46.2 66.2 45.8 65.9 45.5 65.5 45.2 65.1 44.9 64.6 44.5 64.2 44.2 63.9 43.9 63.4 43.7 63.1 43.6 63 43.5 62.9 43.4 63 43.3 63 43.3 63.1 43.3 63.7 43.4 64.4 43.4 65.1 43.4 65.8 43.3 66.4 43.4 67.1 43.4 67.2 43.4 67.3 43.5 67.3 43.6 67.4 44 67.3 44.3 67.3 44.5 67.3 44.6 67.4 44.7 67.4 44.7 67.6 44.8 68.1 44.7 68.6 44.8 69.2 44.8 69.7 44.7 69.8 44.7 69.9 44.6 70 44.5 70 44 70 43.4 70 42.8 69.9 42.3 69.9 41.8 69.9 41.2 70 40.1 69.9 39.6 69.9 39 69.9 38.8 69.8 38.7 69.8 38.7 69.7 38.7 69.4 38.7 69.2 38.8 68.6 38.7 68.1 38.7 67.8 38.7 67.6 38.8 67.4 39 67.4 40 67.4 40.1 67.3 40.1 67.1 40.1 66.5 40 65.9 40.1 65.3 40.1 64.7 40.1 64.1 40.1 63.5 40.1 62.9 40.1 62.3 40.1 61.7 40.1 61.1 40 61 40 60.9 39.9 60.8 39.7 60.8 39.5 60.9 39.2 60.9 39 60.9 38.9 60.9 38.8 60.8 38.8 60.7 38.7 60.6 38.7 60.3 38.7 60.1 38.8 59.6 38.7 59 38.7 58.8 38.7 58.5 38.8 58.4 38.9 58.3 39 58.3 39.4 58.3 39.5 58.2 40.1 58.3 40.6 58.3 42.3 58.3 42.9 58.2 43.4 58.2 43.5 58.3 43.6 58.4 44 58.8 44.3 59.2 44.9 60.1 45.3 60.5 45.6 60.9 45.8 61.2 45.9 61.4 46.3 61.8 46.3 61.8 46.5 61.9 46.5 61.8 46.6 61.7 47 61.4 47.4 61 48 60.1 48.7 59.3 49 58.8 49.2 58.5 49.3 58.4 49.4 58.3 49.6 58.2 50.1 58.3 50.6 58.3 51.2 58.3 51.8 58.3 52.9 58.3 53.4 58.2 53.7 58.2 54 58.2 54.1 58.2 54.2 58.3 54.3 58.4 54.3 58.5 54.3 59 54.3 59.6 54.3 60.1 54.2 60.6 54.2 60.7 54.1 60.8 54 60.8 54 60.8 53.5 60.9 53.1 60.9 52.9 61 52.8 61 52.8 61.1 52.8 61.7 52.8 62.3 52.9 63.5 52.9 64.1 52.9 64.7 52.8 65.3 52.8 65.9 52.8 66.5 52.9 67.1 53 67.2 53.1 67.2 53.1 67.3 54 67.4 54.1 67.4 54.2 67.4 54.2 67.5 54.3 67.6 54.3 68.1 54.3 68.6 54.3 69.2 54.3 69.5 54.3 69.7 54.2 69.8 54.2 69.9 54.1 69.9 54 70 53.7 70 53.4 70 52.9 70 51.8 70 51.2 70 50.7 69.9 50.1 69.9 49.6 70"/>
    <path class="cls-4" d="M69.9,68.2v-.5h0c0,0,0-.1,0-.1h0c0,0,0-.1,0-.1h0c0,0-.1-.1-.1-.1h-.9s-.1-.1-.1-.1l-.3-.5-.3-.5-.2-.5-.2-.6-.2-.6-.2-.6-.3-.5-.3-.6-.3-.5-.3-.5-.3-.5-.3-.5-.3-.5-.3-.6-.4-1h0c0-.1,0-.2,0-.2h0s-.1,0-.1,0h-1.1s0,0,0,0h-1.2c0,0-.6,0-.6,0h-1.1c0,0-.6-.1-.6-.1h-.5s-.6,0-.6,0h-.2c0,0-.1.2-.1.2v.2s0,1.4,0,1.4v.5s0,0,0,0h0c0,.1.1.2.1.2h.2s.6,0,.6,0h.2c0,0,0,.2,0,.2h0c0,.1-.2.7-.2.7l-.2.5-.3.5-.3.5-.2.5-.2.5-.3.5-.2.5-.3.5-.3.5-.4.9h0c0,.1-.1.1-.1.1h-.8s-.1,0-.1,0h-.1c0,0-.1.2-.1.2v1.1s0,.5,0,.5v.6s.1.1.1.1h.1s.1,0,.1,0h2.6c0,0,1.3,0,1.3,0h1.3s.1,0,.1,0h.1c0,0,.1-.2.1-.2v-1.8h0c0-.1,0-.3,0-.3h-.1c0,0-.1-.1-.1-.1h-.4s0-.1,0-.1h0c0-.1,0-.2,0-.2h0c0-.1,0-.3,0-.3v-.2c0,0,.2-.2.2-.2h.2c0,0,1.1,0,1.1,0h1.3c0,.1.6,0,.6,0h.6s.1,0,.1,0h0c0,0,0,.1,0,.1h0c0,.1,0,.3,0,.3v.2c0,0,0,.2,0,.2h0c0,.1,0,.2,0,.2h0c0,.1-.1.1-.1.1h-.3s-.1,0-.1,0h0c0,.1,0,.3,0,.3v1.7s0,.1,0,.1h0c0,0,0,.2,0,.2h0s0,0,0,0h.6s.6,0,.6,0h1.3s.7,0,.7,0h.6s1.2,0,1.2,0h.2s0,0,0,0h0c0,0,0-.2,0-.2h0c0,0,0-.5,0-.5v-1h0ZM63.5,63.7h0c0,.1-.1.3-.1.3h-.1s-.6,0-.6,0h-.7s-.1-.1-.1-.1h-.1c0-.1,0-.3,0-.3h0c0-.1.2-.5.2-.5l.2-.4v-.4c.1,0,.3-.4.3-.4h0c0-.1.1-.1.1-.1h.3s0,.1,0,.1v.4c.1,0,.3.4.3.4l.2.4.2.4h0v.2h0Z"/>
    <polygon class="cls-4" points="73 69.7 72.4 69.4 71.9 69.1 71.4 68.6 71 68.2 70.8 67.9 70.6 67.7 70.4 67.4 70.1 66.9 70 66.6 69.9 66.3 69.8 65.7 69.8 65.4 69.7 64.7 69.7 64.5 69.7 63.8 69.7 63.2 69.8 62.5 69.9 61.9 70 61.6 70.1 61.3 70.3 61 70.5 60.8 70.6 60.5 71.1 60.1 71.5 59.6 71.8 59.4 72 59.3 72.3 59.1 73.1 58.6 73.7 58.4 74.3 58.3 74.6 58.2 75.6 58.1 75.9 58 76.2 58 76.9 58.1 77.5 58.2 77.8 58.2 78.4 58.3 79 58.6 79.3 58.7 79.6 58.9 80.1 59.2 80.6 59.6 80.8 59.8 80.8 59.9 80.9 59.9 80.9 59.9 80.9 60 80.9 60.3 80.9 60.5 80.9 60.8 80.9 61.1 80.9 61.4 80.9 61.7 80.9 61.9 80.9 62.2 80.9 62.3 80.8 62.4 80.7 62.4 80.6 62.5 80.3 62.5 79.8 62.5 79.5 62.5 78.9 62.5 78.7 62.5 78.3 62.4 78.2 62.4 78.2 62.4 78.1 62.2 78 62 78 61.6 78 61.3 78 61.2 77.9 61.1 77.9 61.1 77.4 61 76.6 60.8 75.8 60.8 75.5 60.8 75.2 60.9 74.9 61 74.6 61.1 74.3 61.3 74 61.5 73.8 61.7 73.6 62 73.4 62.2 73.3 62.5 73.2 62.8 73.1 63.1 73 63.4 73 63.7 73 64.1 73 64.5 73 64.8 73.1 65.1 73.1 65.4 73.3 65.7 73.4 66 73.6 66.3 73.8 66.5 74.1 66.7 74.4 66.9 74.6 67 74.9 67.1 75.3 67.2 75.6 67.3 75.9 67.3 76.7 67.3 77 67.3 77.3 67.2 77.5 67.2 77.8 67.1 78.2 66.8 78.3 66.8 78.3 66.7 78.3 66.6 78.3 66.4 78.4 66.3 78.4 66.2 78.4 66.1 78.3 66 78.3 65.9 78.2 65.9 77.8 65.8 77.2 65.9 76.5 65.9 76.3 65.9 76 65.9 75.6 65.9 75.6 65.9 75.5 65.8 75.4 65.6 75.4 65.3 75.3 65 75.3 64.7 75.3 64.4 75.3 64 75.4 63.8 75.4 63.7 75.5 63.6 75.6 63.6 75.7 63.6 76.1 63.5 76.6 63.5 77.4 63.5 77.9 63.5 78.3 63.5 78.7 63.5 79.2 63.5 80.5 63.5 80.9 63.6 81 63.6 81.1 63.6 81.1 63.7 81.2 63.8 81.2 64.2 81.2 64.5 81.2 64.7 81.2 65.1 81.2 66.8 81.2 67.1 81.2 67.8 81.2 67.8 81.2 67.8 81 68.1 80.6 68.6 80.2 69 79.7 69.3 79.5 69.5 78.9 69.7 77.8 70 77.2 70.1 76.6 70.2 76.1 70.2 75.4 70.2 74.8 70.1 74.2 70 73.6 69.9 73 69.7"/>
    <polygon class="cls-4" points="85.6 69.9 85.5 69.9 85.4 69.9 85.4 69.8 85.3 69.7 85.3 69.2 85.3 68.6 85.3 68.1 85.4 67.6 85.4 67.5 85.4 67.4 85.5 67.3 85.6 67.3 85.8 67.3 86 67.3 86.5 67.3 86.6 67.3 86.7 67.3 86.8 67.2 86.8 67.1 86.8 66.5 86.8 66.2 86.6 65.6 86.5 65.4 86.1 64.9 85.8 64.4 85.5 63.9 84.8 63 84.4 62.5 84.1 62 83.7 61.5 83.4 61.1 83.3 60.9 83.2 60.9 83.1 60.9 83 60.9 82.7 60.9 82.4 60.8 82.2 60.7 82.1 60.7 82 60.6 82 60.3 82 60.1 82 59.5 82 59 82 58.5 82.1 58.4 82.2 58.3 82.3 58.3 82.3 58.3 82.8 58.2 83 58.3 83.7 58.3 85 58.3 85.7 58.3 87 58.2 87.3 58.2 87.6 58.2 87.8 58.3 87.8 58.3 87.9 58.4 87.9 58.5 87.9 59.1 87.9 59.7 88 60.3 87.9 60.9 87.8 60.9 87.7 60.9 87.6 60.8 87.4 60.9 87.4 61 87.3 61.1 87.4 61.2 87.7 61.8 88.1 62.4 88.2 62.5 88.3 62.6 88.5 62.6 88.6 62.5 88.7 62.4 89.1 61.8 89.4 61.2 89.4 61.1 89.4 61 89.4 60.9 89.3 60.9 89.1 60.9 88.9 60.8 88.9 60.6 88.8 60.3 88.9 59.7 88.9 59.1 89 58.5 89 58.4 89.1 58.3 89.2 58.3 89.8 58.2 90.5 58.2 91.8 58.2 93.1 58.3 93.8 58.2 94.4 58.3 94.5 58.3 94.6 58.3 94.7 58.5 94.7 58.5 94.7 58.8 94.7 59 94.6 59.5 94.7 60.1 94.7 60.6 94.6 60.7 94.6 60.8 94.5 60.8 94.4 60.9 94.2 60.9 94 60.9 93.6 60.9 93.5 60.9 93.3 61 93.2 61.1 93 61.5 92.7 62 92.4 62.5 92 62.9 91.7 63.4 91.4 63.9 91.1 64.4 90.7 64.8 90.2 65.9 90.1 65.9 90.1 66 90.1 66.5 90.1 67 90.1 67.2 90.1 67.2 90.2 67.3 90.4 67.3 90.8 67.3 91.2 67.3 91.3 67.4 91.4 67.4 91.4 67.5 91.4 67.6 91.5 68.1 91.4 68.6 91.5 69.2 91.4 69.7 91.4 69.8 91.4 69.9 91.3 69.9 91.2 69.9 90.6 70 90.1 70 88.9 69.9 88.4 69.9 87.8 69.9 86.7 69.9 86.2 70 85.9 70 85.6 69.9"/>
    <path class="cls-4" d="M107.6,68.2v-.5h0c0,0,0-.1,0-.1h0c0,0,0-.1,0-.1h0c0,0-.1-.1-.1-.1h-.9s-.1-.1-.1-.1l-.3-.5-.3-.5-.2-.5-.2-.6-.2-.6-.2-.6-.3-.5-.3-.6-.3-.5-.3-.5-.3-.5-.3-.5-.3-.5-.3-.6-.4-1h0c0-.1,0-.2,0-.2h0s-.1,0-.1,0h-1.1s0,0,0,0h-1.2c0,0-.6,0-.6,0h-1.1c0,0-.6-.1-.6-.1h-.5s-.6,0-.6,0h-.2c0,0-.1.2-.1.2v.2s0,1.4,0,1.4v.5s0,0,0,0h0c0,.1.1.2.1.2h.2s.6,0,.6,0h.2c0,0,0,.2,0,.2h0c0,.1-.2.7-.2.7l-.2.5-.3.5-.3.5-.2.5-.2.5-.3.5-.2.5-.3.5-.3.5-.4.9h0c0,.1-.1.1-.1.1h-.8s-.1,0-.1,0h-.1c0,0-.1.2-.1.2v1.1s0,.5,0,.5v.6s.1.1.1.1h.1s.1,0,.1,0h2.6c0,0,1.3,0,1.3,0h1.3s.1,0,.1,0h.1c0,0,.1-.2.1-.2v-1.8h0c0-.1,0-.3,0-.3h-.1c0,0-.1-.1-.1-.1h-.4s0-.1,0-.1h0c0-.1,0-.2,0-.2h0c0-.1,0-.3,0-.3v-.2c0,0,.2-.2.2-.2h.2c0,0,1.1,0,1.1,0h1.3c0,.1.6,0,.6,0h.6s.1,0,.1,0h0c0,0,0,.1,0,.1h0c0,.1,0,.3,0,.3v.2c0,0,0,.2,0,.2h0c0,.1,0,.2,0,.2h0c0,.1-.1.1-.1.1h-.3s-.1,0-.1,0h0c0,.1,0,.3,0,.3v1.7s0,.1,0,.1h0c0,0,0,.2,0,.2h0s0,0,0,0h.6s.6,0,.6,0h1.3s.7,0,.7,0h.6s1.2,0,1.2,0h.2s0,0,0,0h0c0,0,0-.2,0-.2h0c0,0,0-.5,0-.5v-1h0ZM101.3,63.7h0c0,.1-.1.3-.1.3h-.1s-.6,0-.6,0h-.7s-.1-.1-.1-.1h-.1c0-.1,0-.3,0-.3h0c0-.1.2-.5.2-.5l.2-.4v-.4c.1,0,.3-.4.3-.4h0c0-.1.1-.1.1-.1h.3s0,.1,0,.1v.4c.1,0,.3.4.3.4l.2.4.2.4h0v.2h0Z"/>
    <path class="cls-4" d="M120.9,67.6h0c0-.1,0-.2,0-.2h-.2c0,0-.6,0-.6,0h-.8c0-.1-.5-.7-.5-.7l-.5-.7h0v-.2h0c0-.1,0-.2,0-.2l.6-.4.5-.4.4-.6.3-.6.2-.6v-.7s0-.6,0-.6v-.6c-.1,0-.3-.5-.3-.5l-.3-.5-.3-.5-.4-.4-.5-.3-.5-.3-.5-.2h-.6c0-.1-.5-.2-.5-.2h-1.7s-1.1,0-1.1,0h-4.5c0,0-.1,0-.1,0h-.1c0,0,0,.2,0,.2h0c0,.1,0,.6,0,.6v1.7h.1c0,.1.3.1.3.1h.9c0-.1,0-.1,0-.1h0v.9s0,.6,0,.6v.6s0,.6,0,.6v1.2c0,0,0,.6,0,.6v.6s0,.6,0,.6v.6s0,.1,0,.1h0c0,0-.2.1-.2.1h-.9s-.1,0-.1,0h0c0,0,0,.6,0,.6v.6s0,.6,0,.6v.8s0,.1,0,.1h.6s.6,0,.6,0h2.3c0,0,.6,0,.6,0h.6s.6,0,.6,0h.6s.2-.1.2-.1h0c0-.1,0-.6,0-.6v-.9s0-.3,0-.3v-.3s-.1-.1-.1-.1h0c0,0-.1-.1-.1-.1h-.4s-.4,0-.4,0h-.1s0-.2,0-.2v-1.1s0,0,0,0h0s.1,0,.1,0h.1s.5,0,.5,0h.2c0,0,.1.2.1.2l.7.9.3.5.3.5h0v.8s0,.7,0,.7v.2h.1c0,0,.6.2.6.2h1.1c0,0,.6-.1.6-.1h.6s.6,0,.6,0h.6c0,0,.6,0,.6,0h0c0-.1,0-.3,0-.3v-.5s0-1,0-1v-.5s0-.2,0-.2ZM117.1,62.5v.3c0,0-.2.2-.2.2v.2c-.1,0-.3.2-.3.2h-.2c0,.1-.3.2-.3.2h-.6s-.2,0-.2,0h-.2s-.3,0-.3,0h-1.2s0,0,0,0h0v-.8s0-.9,0-.9v-.8h0c0-.1,0-.2,0-.2h0c0,0,.1-.1.1-.1h.5s.2,0,.2,0h.8s.2,0,.2,0h.3s.3,0,.3,0h.3c0,.1.2.3.2.3l.2.2v.2c.1,0,.3.3.3.3v.3c0,0,0,.3,0,.3v.3h0Z"/>
    <polygon class="cls-3" points="124.5 60.6 124.4 60.6 124.4 60.6 124.2 60.6 124 60.6 123.8 60.7 123.6 60.7 123.5 60.6 123.5 60.6 123.5 60.3 123.5 60.1 123.5 59.9 123.5 59.7 123.5 58.9 123.5 58.7 123.5 58.5 123.5 58.4 123.6 58.4 123.8 58.4 124 58.4 124.2 58.4 124.4 58.4 124.4 58.4 124.5 58.5 124.5 58.6 124.5 58.8 124.5 58.9 124.5 58.9 124.7 58.9 124.9 58.9 125.2 58.9 125.4 58.9 125.9 58.9 126.2 58.9 126.4 58.9 126.6 59 126.8 59 127.1 59.1 127.2 59.3 127.4 59.4 127.6 59.6 127.7 59.8 127.8 60 127.9 60.3 127.9 60.5 128 60.7 128 61 128 61.2 127.9 61.4 127.9 61.7 127.8 61.9 127.7 62.1 127.6 62.3 127.4 62.5 127.3 62.7 127.1 62.8 126.8 62.9 126.6 62.9 126.4 63 126.1 63 125.9 63 125.4 63 125.2 63 125 63 124.8 63 124.6 63 124.5 63.1 124.5 63.2 124.5 63.3 124.5 63.5 124.4 63.5 124.4 63.6 124.3 63.6 124.3 63.5 124 63.6 123.7 63.6 123.6 63.6 123.6 63.6 123.5 63.5 123.5 63.5 123.5 63.3 123.5 63 123.5 62.6 123.5 62.4 123.5 62.2 123.5 61.8 123.5 61.6 123.5 61.4 123.5 61.3 123.6 61.3 123.8 61.2 124 61.3 124.1 61.3 124.3 61.3 124.4 61.3 124.4 61.3 124.4 61.3 124.5 61.4 124.4 61.4 124.4 61.7 124.4 61.8 124.5 61.8 124.7 61.8 124.9 61.8 125.2 61.8 125.9 61.8 126.2 61.8 126.4 61.7 126.6 61.6 126.8 61.5 126.9 61.2 126.9 61 126.9 60.7 126.8 60.5 126.6 60.3 126.4 60.2 126.2 60.2 125.9 60.1 125.5 60.1 125.2 60.1 125 60.1 124.6 60.1 124.5 60.1 124.5 60.1 124.5 60.6"/>
    <polygon class="cls-3" points="127.9 65.8 127.9 66 127.9 66.3 127.9 66.3 127.8 66.3 127.6 66.3 127.4 66.3 127.2 66.3 127 66.3 126.9 66.3 126.9 66.2 126.9 65.8 126.8 65.8 126.8 65.8 126.5 65.8 126.2 65.8 126.2 65.8 126.2 65.8 126.1 66 126.1 66.3 126.1 66.5 126.1 67 126.2 67.3 126.2 67.3 126.2 67.3 126.4 67.3 126.5 67.3 126.8 67.3 126.9 67.3 126.9 67.1 126.9 66.9 126.9 66.9 126.9 66.8 127.1 66.8 127.4 66.8 127.8 66.8 127.9 66.8 127.9 66.8 127.9 67.1 127.9 67.3 127.9 67.5 127.9 67.7 127.9 68 127.9 68.2 127.9 68.4 127.9 68.6 127.9 68.9 127.9 69.1 127.9 69.1 127.8 69.1 127.1 69.1 126.9 69.1 126.9 69 126.9 69 126.9 68.8 126.9 68.6 126.9 68.6 126.9 68.6 126.7 68.6 126.4 68.6 126.2 68.6 125.9 68.5 125.7 68.6 125.5 68.6 125 68.6 124.8 68.6 124.5 68.6 124.5 68.6 124.5 68.6 124.4 68.8 124.4 69 124.4 69.1 124.4 69.1 124.2 69.1 124 69.1 123.7 69.1 123.6 69.1 123.5 69.1 123.5 69 123.5 68.8 123.5 68.6 123.5 68.2 123.5 68 123.5 67.7 123.5 67.5 123.5 67.1 123.5 66.9 123.5 66.8 123.6 66.8 123.7 66.8 124 66.8 124.1 66.8 124.4 66.8 124.4 66.8 124.4 66.8 124.4 67.1 124.5 67.3 124.5 67.3 124.5 67.3 125 67.3 125.1 67.3 125.1 67.3 125.1 67.1 125.1 66.8 125.1 66.3 125.2 66 125.1 65.8 125.1 65.8 125 65.8 124.8 65.8 124.5 65.8 124.5 65.8 124.5 65.8 124.5 66 124.5 66.3 124.4 66.3 124.4 66.3 124.1 66.3 124 66.3 123.6 66.3 123.5 66.3 123.5 66.3 123.5 66 123.5 65.8 123.5 65.6 123.5 65.4 123.5 64.9 123.5 64.7 123.4 64.5 123.4 64.2 123.5 64 123.5 64 123.6 64 124 64 124.1 64 124.4 64 124.4 64 124.5 64 124.5 64.2 124.5 64.5 124.5 64.5 124.5 64.5 124.8 64.6 125 64.5 125.7 64.5 125.9 64.5 126.3 64.6 126.6 64.6 126.8 64.5 126.9 64.5 126.9 64.5 126.9 64.2 126.9 64 126.9 64 127 64 127.2 64 127.4 64 127.6 64 127.8 64 127.8 64 127.9 64 127.9 64.2 127.9 64.5 127.9 64.7 127.9 65.4 127.9 65.8"/>
    <polygon class="cls-3" points="127.4 69.5 127.5 69.5 127.6 69.6 127.7 69.6 127.8 69.7 127.9 69.7 127.9 69.8 128 69.9 128 70 128 70.1 128 70.2 128 70.3 128 70.5 127.9 70.6 127.9 70.7 127.8 70.8 127.6 70.8 127.5 70.9 127.4 70.9 127.3 70.9 127.2 70.8 127.1 70.7 127 70.7 126.9 70.6 126.8 70.5 126.8 70.3 126.8 70.2 126.8 70.1 126.8 70 126.9 69.9 126.9 69.8 127 69.7 127 69.7 127.1 69.6 127.2 69.6 127.3 69.5 127.4 69.5"/>
    <polygon class="cls-4" points="102.7 55.9 102.2 55.9 101.6 55.9 100.6 55.9 100 55.9 99.6 55.9 99.5 55.9 99.4 55.9 98.9 56.4 98.4 57 98.3 57 98.4 57 98.4 57 98.4 57 99.6 57 100.7 57.1 101 57.1 101.2 57 101.3 57 101.9 56.5 102.7 56 102.8 55.9 102.7 55.9"/>
  </g>
  <g>
    <path class="cls-1" d="M63.7,94.1c8,0,15.6-3.1,21.3-8.8,2.6-2.6,4.6-5.5,6.1-8.7-.3,0-.5,0-.8,0-4.7,9.9-14.9,16.8-26.6,16.8s-21.8-6.9-26.6-16.8c-.3,0-.5,0-.8,0,1.5,3.2,3.5,6.1,6.1,8.7,5.7,5.7,13.2,8.8,21.3,8.8h0Z"/>
    <path class="cls-3" d="M63.7,32.5c-8.4,0-16.3,3.3-22.2,9.2-2.9,2.9-5.2,6.3-6.7,10,.3,0,.5,0,.8,0,4.8-10.8,15.6-18.4,28.2-18.4s23.4,7.6,28.2,18.4c.3,0,.5,0,.8,0-1.6-3.7-3.8-7.1-6.7-10-5.9-5.9-13.8-9.2-22.2-9.2h0Z"/>
    <path class="cls-1" d="M63.7,33.8c-8,0-15.6,3.1-21.3,8.8-2.6,2.6-4.7,5.6-6.1,8.8.3,0,.5,0,.8,0,4.7-10,14.9-16.9,26.6-16.9s21.9,6.9,26.6,16.9c.3,0,.5,0,.8,0-1.5-3.2-3.5-6.2-6.1-8.8-5.7-5.7-13.2-8.8-21.3-8.8h0Z"/>
    <path class="cls-3" d="M63.7,95.4c8.4,0,16.3-3.3,22.2-9.2s5.1-6.2,6.7-9.9c-.3,0-.5,0-.8.1-4.8,10.8-15.6,18.3-28.1,18.3s-23.4-7.5-28.1-18.3c-.3,0-.5,0-.8-.1,1.6,3.6,3.8,7,6.7,9.9,5.9,5.9,13.8,9.2,22.2,9.2h0Z"/>
    <path class="cls-2" d="M93.7,76.2c-1.6,3.9-4,7.5-7.1,10.6-6.1,6.1-14.2,9.5-22.9,9.5s-16.8-3.4-22.9-9.5c-3.1-3.1-5.5-6.7-7.1-10.6-.6,0-1.2-.1-1.8-.2,4.9,12.8,17.2,21.9,31.7,21.9s26.9-9.1,31.7-21.9c-.6,0-1.2.2-1.8.2h0Z"/>
    <path class="cls-2" d="M33.7,51.8c1.6-4,4-7.6,7.1-10.8,6.1-6.1,14.2-9.5,22.9-9.5s16.8,3.4,22.9,9.5c3.1,3.1,5.5,6.8,7.1,10.8.6,0,1.2.1,1.8.2-4.8-12.9-17.2-22-31.8-22s-27,9.2-31.8,22c.6,0,1.2-.2,1.8-.2Z"/>
    <path class="cls-5" d="M69.2,77.5c13.9-.4,27.7-2.1,41.3-4.5-13.6,2.4-27.5,3.8-41.3,4h-10.5c-14-.3-28-1.6-41.7-4,13.8,2.5,27.7,4.2,41.8,4.5h10.5,0Z"/>
    <path class="cls-5" d="M67.5,50.8c14.4.2,28.8,1.6,43,4.2-14.2-2.6-28.6-4.4-43-4.7h-6.9c-14.7.2-29.3,2.1-43.7,4.7,14.3-2.6,28.9-4,43.4-4.2h7.2,0Z"/>
  </g>
  <g>
    <path class="cls-2" d="M73.9,50c.2.1,0-3.8,0-3.8,0,0-2.3-.4-2.4,0s0,3.7,0,3.7c.8,0,2.2,0,2.4.1Z"/>
    <path class="cls-2" d="M64.9,49.7c0-.2.3-13.4,0-13.5s-2.3-.2-2.4,0-.1,13,0,13.3,2.4.4,2.4.2h0Z"/>
    <path class="cls-2" d="M67.5,49.8h0c.6,0,1.8.2,1.9,0s-.1-2.2-.1-4.4c0-2.4.1-4.9.1-4.9,0,0-2.1-.3-2.4,0s0,9.2,0,9.2h.5Z"/>
    <path class="cls-2" d="M60.4,49.7c.2,0,0-2.4,0-4.7,0-2.2,0-4.4,0-4.5-.2-.3-2.4,0-2.4,0s-.2,9.2,0,9.3,2,0,2.4,0h0Z"/>
    <path class="cls-2" d="M55.9,49.9s.1-3.6,0-3.7-2.4,0-2.4,0c0,0,0,.7,0,1.5s0,2.2,0,2.3c0,.3,1.6,0,2.4-.1Z"/>
  </g>
  <g>
    <polygon class="cls-2" points="63.9 82.2 64.9 84.3 67.2 84.7 65.6 86.3 65.9 88.6 63.9 87.5 61.8 88.6 62.2 86.3 60.6 84.7 62.9 84.3 63.9 82.2"/>
    <polygon class="cls-2" points="78.4 81.5 79.3 82.7 80.7 82.6 79.9 83.8 80.3 85.1 79 84.7 77.9 85.5 77.9 84.1 76.7 83.3 78 82.9 78.4 81.5"/>
    <polygon class="cls-2" points="49.3 81.5 49.7 82.9 51 83.3 49.9 84.1 49.9 85.5 48.8 84.7 47.4 85.1 47.9 83.8 47.1 82.6 48.5 82.7 49.3 81.5"/>
    <polygon class="cls-2" points="72.1 82.4 73 84 74.8 84.1 73.6 85.4 74.1 87.2 72.4 86.5 70.9 87.5 71.1 85.7 69.7 84.5 71.4 84.1 72.1 82.4"/>
    <polygon class="cls-2" points="55.7 82.4 56.4 84.1 58.2 84.5 56.7 85.7 56.9 87.5 55.4 86.5 53.7 87.2 54.2 85.4 53 84.1 54.8 84 55.7 82.4"/>
  </g>
  <g>
    <path class="cls-3" d="M69.2,76.3h-10.5c-14-.3-28-1.6-41.7-4v.3h0v.3c15.3,2.7,28.9,4.2,41.7,4.5h10.5c12.7-.3,26.2-1.8,41.4-4.5v-.6c-13.6,2.4-27.5,3.8-41.4,4h0Z"/>
    <path class="cls-3" d="M16.9,55.5h0v.3c14.3-2.6,28.9-4,43.4-4.2h7.1c14.4.2,28.9,1.6,43,4.2v-.6c-15.7-2.9-29.8-4.5-43-4.7h-6.9c-13.3.2-27.7,1.7-43.8,4.7v.3h0Z"/>
  </g>
  <path class="cls-3" d="M24.6,49.1c-.6-.6-1-1.2-1.4-1.7-.9-1-1-.6-1.5-1.7-.3-.8.1-.4.7-1.6.2-.4.4-1,.7-1.6.2-.4.6-.9.9-1.5s.5-1.1.8-1.5c.4-.6.8-1,1-1.4.8-1.1.2-1.3,1-1.4s.8.2,2.2.4,1.4.2,2.2.4,1.4.4,2.1.7c0,0,.2,0,.3,0s.1.1.2.1.1,0,.2,0c.4-.5.9-.9,1.4-1.4s.9-1,1.3-1.5,1-.8,1.5-1.3c0,0-.1-.2-.1-.3s0-.2,0-.3-.1-.1-.1-.2c-.2-.7-.3-1.5-.5-2.1s-.4-1.5-.6-2.1c-.3-1.3-.4-1.1-.3-2.2.1-.9.2-.4,1.3-1.1.4-.3.9-.5,1.5-.9s.9-.6,1.4-.9c.6-.3,1.1-.5,1.5-.8s1.1-.6,1.5-.8c1.2-.5.8-.9,1.6-.5s.7.4,1.7,1.3c.5.4,1,1,1.6,1.6s1.1.9,1.6,1.5c0,0,0,.2.1.2s.2,0,.2.1,0,.2.1.3c.6-.2,1.2-.5,1.9-.7s1.3-.3,1.9-.4c.6-.1,1.3-.4,1.9-.5,0,0,0-.1.1-.2s0-.2,0-.3.1-.1.1-.2c.2-.8.3-1.5.5-2.2.2-.8.5-1.5.7-2.1.4-1.3,0-1.2.7-2.1s.4-.1,1.7-.2,1-.2,1.7-.2,1.1,0,1.7,0,1.2,0,1.7,0,1.3.1,1.7.2c1.3.1,1.2-.5,1.7.2.6.9.3.8.7,2.1.2.6.5,1.3.7,2.1.2.6.3,1.4.5,2.2,0,0,.1.1.1.2s0,.2,0,.3,0,.1.1.2c.6.1,1.3.3,1.9.5s1.3.3,1.9.4,1.3.5,1.9.7c0,0,0-.2.1-.3s.2,0,.2-.1,0-.2.1-.2c.5-.6,1.1-1,1.6-1.5.6-.6,1.1-1.1,1.6-1.6,1-.9.7-.9,1.7-1.3.8-.3.4,0,1.6.5s.9.5,1.5.8c.4.2,1,.4,1.5.8.6.3,1,.7,1.4.9s1.1.6,1.5.9c1.1.8,1.2.3,1.3,1.1.1,1.1,0,.8-.3,2.2-.1.6-.4,1.3-.6,2.1-.2.7-.3,1.4-.5,2.1,0,0-.1.1-.1.2s0,.2,0,.3-.1.2-.1.3c.5.4,1.1.8,1.6,1.3s.9,1,1.4,1.5,1,.9,1.4,1.4c0,0,.1,0,.2,0s.1-.1.2-.1.2,0,.3,0c.7-.2,1.4-.5,2.1-.7.8-.2,1.6-.3,2.2-.4,1.3-.3,1.1-.6,2.2-.4s.3.3,1,1.4.6.8,1,1.4.5,1,.8,1.5c.3.6.7,1,.9,1.5s.5,1.2.7,1.6c.5,1.2,1,.8.7,1.6-.4,1-.6.6-1.5,1.7-.4.5-.9,1.1-1.4,1.7s-1.1.9-1.6,1.5c0,0,0,.2-.1.2s-.2,0-.2.1,0,.1-.1.2c0,.2,0,.4.1.6s.2.4.3.5,0,.4.1.5c-.5,0-1,0-1.6-.2s-1-.2-1.6-.3-1.1,0-1.6-.2c-1.6-4.5-4.1-8.7-7.3-12.2-3.2-3.5-7.2-6.2-11.7-8.1-4.3-1.8-9-3-13.9-3s-9.6,1.1-13.9,3c-4.4,1.9-8.4,4.7-11.7,8.1-3.2,3.5-5.7,7.6-7.3,12.2-.5,0-1.1,0-1.6.2s-1,.2-1.6.3-1,0-1.6.2c0-.2,0-.4.1-.5,0-.2.2-.4.3-.5s0-.4.1-.6c0,0,0-.1-.1-.2s-.2,0-.2-.1,0-.2-.1-.2c-.6-.5-1.2-1-1.6-1.5h.1Z"/>
  <path class="cls-3" d="M26.2,77.4c0,0,0-.2.1-.2s.2,0,.2-.1,0-.1.1-.2c0-.2,0-.4-.1-.6s-.2-.4-.3-.5,0-.4-.1-.5c.5,0,1,0,1.6.2s1,.2,1.6.3,1.1,0,1.6.2c1.6,4.5,4.1,8.7,7.3,12.2,3.2,3.5,7.2,6.2,11.7,8.1,4.3,1.8,9,3,13.9,3s9.6-1.1,13.9-3c4.4-1.9,8.4-4.7,11.7-8.1,3.2-3.5,5.7-7.6,7.3-12.2.5,0,1.1,0,1.6-.2s1-.2,1.6-.3,1,0,1.6-.2c0,.2,0,.4-.1.5s-.2.4-.3.5,0,.4-.1.6c0,0,0,.1.1.2s.2,0,.2.1,0,.2.1.2c.6.5,1.2,1,1.6,1.5s1,1.2,1.4,1.7c.9,1,1,.6,1.5,1.7.3.8-.1.4-.7,1.6s-.4.9-.7,1.6-.6.9-.9,1.5-.5,1.1-.8,1.5-.8,1-1,1.4c-.8,1.1-.2,1.3-1,1.4s-.8-.2-2.2-.4c-.6-.1-1.4-.2-2.2-.4s-1.4-.4-2.1-.7c0,0-.2,0-.3,0s-.1-.1-.2-.1-.1,0-.2,0c-.4.5-.9.9-1.4,1.4s-.9,1-1.4,1.5-1,.8-1.6,1.3c0,0,.1.2.1.3s0,.2,0,.3.1.1.1.2c.2.7.3,1.5.5,2.1.2.8.4,1.5.6,2.1.3,1.3.4,1.1.3,2.2-.1.9-.2.4-1.3,1.1-.4.3-.9.5-1.5.9-.4.3-.9.6-1.4.9s-1.1.5-1.5.8c-.6.3-1.1.6-1.5.8-1.2.5-.8.9-1.6.5-1-.4-.7-.4-1.7-1.3-.5-.4-1-1-1.6-1.6s-1.1-.9-1.6-1.5c0,0,0-.2-.1-.2s-.2,0-.2-.1,0-.2-.1-.3c-.6.2-1.2.5-1.9.7-.6.2-1.3.3-1.9.4s-1.3.4-1.9.5c0,0,0,.1-.1.2s0,.2,0,.3-.1.1-.1.2c-.2.8-.3,1.5-.5,2.2-.2.8-.5,1.5-.7,2.1-.4,1.3,0,1.2-.7,2.1-.5.7-.4.1-1.7.2s-1,.2-1.7.2-1.1,0-1.7,0-1.2,0-1.7,0-1.3-.1-1.7-.2c-1.3-.1-1.2.5-1.7-.2-.6-.9-.3-.8-.7-2.1s-.5-1.3-.7-2.1c-.2-.6-.3-1.4-.5-2.2,0,0-.1-.1-.1-.2s0-.2,0-.3,0-.1-.1-.2c-.6-.1-1.3-.3-1.9-.5s-1.3-.3-1.9-.4-1.3-.5-1.9-.7c0,0,0,.2-.1.3s-.2,0-.2.1,0,.2-.1.2c-.5.6-1.1,1-1.6,1.5s-1.1,1.1-1.6,1.6c-1,.9-.7.9-1.7,1.3s-.4,0-1.6-.5-.9-.5-1.5-.8-1-.4-1.5-.8c-.6-.3-1-.7-1.4-.9-.6-.4-1.1-.6-1.5-.9-1.1-.8-1.2-.3-1.3-1.1-.1-1.1,0-.8.3-2.2s.4-1.3.6-2.1c.2-.7.3-1.4.5-2.1,0,0,.1-.1.1-.2s0-.2,0-.3.1-.2.1-.3c-.5-.4-1-.8-1.5-1.3s-.9-1-1.3-1.5c-.5-.5-1-.9-1.4-1.4,0,0-.1,0-.2,0s-.1.1-.2.1-.2,0-.3,0c-.7.2-1.4.5-2.1.7s-1.6.3-2.2.4c-1.3.3-1.1.6-2.2.4-1.1-.1-.3-.3-1-1.4s-.6-.8-1-1.4-.5-1-.8-1.5c-.3-.6-.7-1-.9-1.5-.3-.6-.5-1.2-.7-1.6-.5-1.2-1-.8-.7-1.6.4-1,.6-.6,1.5-1.7s.9-1.1,1.4-1.7,1.1-.9,1.6-1.5h-.1Z"/>
</svg>