<?xml version="1.0" encoding="utf-8"?>
<!-- Generator: Adobe Illustrator 27.2.0, SVG Export Plug-In . SVG Version: 6.00 Build 0)  -->
<svg version="1.1" id="Layer_1" xmlns="http://www.w3.org/2000/svg" xmlns:xlink="http://www.w3.org/1999/xlink" x="0px" y="0px"
	 viewBox="0 0 300 134.6" style="enable-background:new 0 0 300 134.6;" xml:space="preserve">
<style type="text/css">
	.st0{opacity:0.4;fill:#FFFFFF;enable-background:new    ;}
	.st1{display:none;opacity:0.4;fill:none;stroke:#000000;stroke-width:1.5;stroke-miterlimit:10;enable-background:new    ;}
</style>
<path class="st0" d="M300,0H0v134.5c7.3,0.1,14.6,0.1,21.9,0.1c14.5,0.1,28-8.1,34.3-21.2C73,78.3,108.9,54,150.5,54
	s77.5,24.3,94.3,59.5c6.3,13.1,19.7,21.2,34.3,21.2c7,0,13.9-0.1,20.9-0.1V0z"/>
<path class="st1" d="M0,134.5c7.3,0.1,14.6,0.1,21.9,0.1c14.5,0.1,28-8.1,34.3-21.2C73,78.3,108.9,54,150.5,54s77.5,24.3,94.3,59.5
	c6.3,13.1,19.7,21.2,34.3,21.2c7,0,13.9-0.1,20.9-0.1"/>
</svg>
