<?xml version="1.0" encoding="UTF-8"?>
<svg id="Layer_2" data-name="Layer 2" xmlns="http://www.w3.org/2000/svg" version="1.1" viewBox="0 0 774.2 733.8">
  <defs>
    <style>
      .cls-1, .cls-2 {
        stroke: #fff;
        stroke-miterlimit: 10;
        stroke-width: 3px;
      }

      .cls-1, .cls-3 {
        fill: #fff;
      }

      .cls-2 {
        fill: none;
      }

      .cls-3 {
        stroke-width: 0px;
      }
    </style>
  </defs>
  <g>
    <g>
      <path class="cls-3" d="M248.7,490.7c-1.4-.8-2.7-1.2-4.1-1.4-1.4-.1-2.7,0-4.1.5-1.3.5-2.6,1.2-3.8,2.1-1.2.9-2.4,2.1-3.5,3.4l-9,10.9-13.3-11,9.2-11c.6-.5,1.3-.9,2.1-.9,1,0,1.8.2,2.6.8,0,0,.1,0,.3.2.1.1.2.2.3.2l.4-.4-3.2-2.7h0s-6.4-5.3-6.4-5.3h0s-3.3-2.7-3.3-2.7l-.3.4s.1,0,.3.2c.1.1.2.2.3.2.8.6,1.2,1.4,1.3,2.4,0,1-.2,1.8-.8,2.5h0s-18.8,22.8-18.8,22.8c-.9,1.1-1.8,2.1-2.7,3-.9.9-1.9,1.7-2.9,2.3-1,.6-2.1,1-3.3,1.1-1.2.1-2.5,0-3.9-.5l-.3.5c1.5,1.6,3.1,2.8,4.8,3.5,1.7.7,3.4,1,5.2.9,1.7-.1,3.4-.6,5.1-1.6,1.6-.9,3.1-2.2,4.4-3.8l8.5-10.2,13.3,11-9,10.9h0c-.7.7-1.5,1.1-2.4,1.2-1,0-1.8-.2-2.5-.8,0,0-.2-.1-.3-.2-.1-.1-.2-.2-.3-.2l-.4.4,3.4,2.8h0s6.2,5.1,6.2,5.1h0s3.2,2.7,3.2,2.7l.3-.4s-.2-.2-.5-.4c-.7-.6-1.2-1.4-1.3-2.4-.1-1,.1-1.8.8-2.6h0s19.5-23.6,19.5-23.6c.9-1.1,1.9-2.1,2.8-3.1.9-.9,1.9-1.6,2.9-2.2,1-.6,2.1-.9,3.3-1,1.2,0,2.5,0,3.9.5l.3-.5c-1.3-1.6-2.7-2.8-4-3.6Z"/>
      <path class="cls-3" d="M209.8,471.8c1,.4,1.7.9,2.3,1.5l.3.4.4-.3-7.4-9.2-.4.3.3.4c.3.3.4.8.5,1.3,0,.5,0,1-.3,1.5-.3.4-.8.8-1.5,1l-7.2,2.1-8.1-10.1,3.6-6.3h0c.6-1,1.3-1.5,2.1-1.5.8,0,1.5.4,1.9.9l.3.4.4-.3-10.9-13.7h0s-1.8-3.5-1.8-3.5h0s-3.4-6.9-3.4-6.9h0s-2-4.1-2-4.1l-.5.2c.3.6.5.9.5.9.4.8.5,1.7.2,2.6s-.9,1.5-1.7,1.9h0s-19.5,9.8-19.5,9.8l11.2-36.7-.2-.4c-1,.7-1.9,1.4-2.8,2-.9.6-2,1.2-3.2,1.8l-25.3,12.7c-.9.4-1.7.4-2.6.1-.9-.3-1.5-.9-1.9-1.7l-.4-.9-.5.2,2,4.1h0s3.4,6.7,3.4,6.7h0s2,4.1,2,4.1l.5-.2s-.2-.3-.5-.9c-.4-.9-.5-1.7-.2-2.6.3-.9.8-1.5,1.7-2h0s19.4-9.7,19.4-9.7l-11.2,36.7.2.5c2.1-1.5,4-2.7,5.9-3.7l25.5-12.8h0c.8-.4,1.7-.5,2.6-.2s1.5.9,1.9,1.7c0,0,.2.3.5.9h.1c0,0,0,0,0,0,.5.7.9,1.5,1,2.5.1,1,0,2-.6,3.2l-17.7,35.1.3.4c.3-.3.8-.5,1.6-.7.7-.2,1.5-.5,2.3-.7s1.5-.4,2.2-.6,1.1-.3,1.3-.3l30.6-8.1c1.1-.2,2-.1,2.8.2ZM194.4,471.4l-14.1,4,7.2-12.6,6.9,8.6Z"/>
      <path class="cls-3" d="M139.8,406.8c2.6.5,5.4.3,8.3-.4,2.8-.7,5.3-1.9,7.4-3.6,2.1-1.7,3.8-3.7,5-6.1,1.2-2.4,2-5,2.2-7.9.3-2.9,0-6-.8-9.2-.7-2.9-1.8-5.4-3-7.6-.6-1-1.2-1.9-1.8-2.7.3-.2.6-.4.8-.6,1.9-1.4,3.5-3.2,4.8-5.2,1.2-2,2-4.2,2.4-6.6.4-2.4.2-4.9-.5-7.5-.7-2.6-2-5.3-3.9-7.9l-.5.2c1.2,2.7,1.9,5.2,1.9,7.5,0,2.4-.5,4.5-1.5,6.5-1,1.9-2.4,3.6-4.2,5-1.8,1.4-3.9,2.4-6.3,3l-8.4,2.1c-1.6.5-2.7-.2-3.1-2l-.2-.9h-.5c0,.1,3.8,15.1,3.8,15.1h.5c0-.1-.2-.9-.2-.9-.2-.9-.2-1.6.1-2.2.3-.6.9-1,1.6-1.1l8.1-2.1c1.7.2,3.3.9,4.7,2.3,1.4,1.4,2.3,3.2,2.9,5.4.5,2,.6,4,.2,5.9s-1.2,3.7-2.4,5.3c-1.2,1.6-2.7,3-4.6,4.2-1.9,1.2-4.1,2.1-6.6,2.8-3.4.9-6.6,1-9.5.5-2.9-.5-5.4-1.7-7.4-3.5-2-1.8-3.4-4.1-4.1-6.8-.6-2.2-.7-4.3-.5-6.3.2-2,.9-3.9,2-5.6,1.1-1.7,2.7-3.1,4.8-4.2v-.5c-.1,0-9.2,2.4-9.2,2.4-.3,1.2-.5,2.6-.5,4.3,0,1.7,0,3.5.3,5.4s.6,3.9,1.1,5.8c.8,3.3,2.1,6.1,3.7,8.6,1.6,2.5,3.5,4.5,5.8,6,2.2,1.5,4.7,2.6,7.3,3Z"/>
      <path class="cls-3" d="M123,343.8l29.5,11.5c1,.5,1.7,1.1,2.1,1.8.6.9.9,1.7.9,2.6v.5s.6,0,.6,0l-.5-11.8h-.5s0,.5,0,.5c0,.4,0,.9-.4,1.3-.3.5-.6.8-1.1,1-.5.2-1.1.2-1.8,0l-7-2.6-.6-12.9,6.6-3h0c1.1-.5,1.9-.5,2.6,0s1,1.2,1,1.9v.5s.6,0,.6,0l-.8-17.5h-.5s0,.5,0,.5c0,.8-.2,1.7-.7,2.6-.5.8-1.3,1.6-2.4,2.2l-35,17.9v.5c.4,0,1,0,1.7.3s1.5.5,2.3.8c.8.3,1.5.5,2.1.8s1,.4,1.3.5ZM142.5,347.8l-13.7-5,13.3-6,.5,11Z"/>
      <path class="cls-3" d="M120.8,286.3c.1-.7.5-1.2,1-1.4.6-.2,1.1,0,1.7.5l15.2,15.5c1.3-.7,2.5-1.3,3.6-1.8,1-.5,2.2-1.1,3.3-1.8,1.2-.6,2.3-1.2,3.5-1.8s2.1-1.1,2.9-1.5c.8-.4,1.4-.7,1.6-.9,1.3-.7,2.3-1.6,3.2-2.7.8-1.1,1.4-2.2,1.9-3.3.4-1.1.7-2.1.9-3.1s.3-1.6.4-2l.5-3.3,3.9-10.5-.5-.2-.2.5c-.2.4-.4.8-.8,1.1-.4.3-.9.5-1.4.5-.5,0-1.1-.3-1.6-.7l-5.5-5.1,4.5-12.1,7.3-.2h0c1.2,0,2,.3,2.3,1.1.4.7.4,1.4.2,2.1l-.2.5.5.2,6-16.4h0s2.3-3.7,2.3-3.7h0s4-6.4,4-6.4l4.3-6.8c2.3-3.7,3.6-7.3,4-10.8.3-3.5-.2-6.7-1.8-9.7-1.5-3-4-5.5-7.3-7.6-3.4-2.1-6.7-3.2-10.1-3.3-3.3,0-6.5.8-9.5,2.7-3,1.9-5.6,4.6-7.9,8.3l-4.7,7.5-3.6,5.8h0s-2.2,3.6-2.2,3.6l.5.2.3-.6c.5-.8,1.2-1.3,2.2-1.6.9-.2,1.8,0,2.6.4h0s25.9,16.1,25.9,16.1c.8.5,1.3,1.3,1.5,2.2.2.9,0,1.8-.4,2.6l-.4.6h.2c0,.1-.3,0-.3,0l-.2.4c-.3.8-.8,1.5-1.6,2.1-.8.6-1.8,1-3.1,1.2l-39.2,3-.2.5c.4.1.9.5,1.4.9.6.5,1.2,1,1.8,1.6s1.2,1.1,1.6,1.5.8.8,1,1l22.8,22c.7.8,1.1,1.7,1.3,2.5.1.6.1,1.2,0,1.7h0c-.2,1.1-.7,2.1-1.3,2.8-.7.8-1.6,1.5-2.9,2.2l-20.5,10.7-11.2-12.8c-.5-.8-1-1.6-1.3-2.5-.3-1.1-.4-2.3-.2-3.5v-.2s-.5,0-.5,0v.2s-1.9,12.2-1.9,12.2h.5c0,0,0-.5,0-.5ZM152.8,206.5c.5-.8,1-1.6,1.6-2.5,1.4-2.2,3.2-3.8,5.4-4.7,2.2-.9,4.6-1.1,7.3-.6,2.7.5,5.5,1.6,8.5,3.5,3,1.8,5.2,3.9,6.8,6.1,1.6,2.2,2.5,4.5,2.6,6.8.2,2.3-.5,4.6-1.9,6.9-.5.9-1,1.7-1.5,2.4s-1,1.6-1.6,2.5c-.2.3-.4.6-.5.9l-28.7-17.9c.1-.2.3-.4.4-.7.6-1,1.1-1.8,1.6-2.6ZM152.3,262.6l-10.7-10,14.5-.4-3.8,10.3Z"/>
      <path class="cls-3" d="M117,312s0-.2,0-.4c0-.2,0-.3,0-.4.1-.9.6-1.7,1.4-2.3.8-.6,1.6-.8,2.6-.7l30.1,4.5h0c.9.2,1.7.7,2.3,1.4.6.8.8,1.6.6,2.6,0,0,0,.2,0,.4,0,.2,0,.3,0,.4h.5c0,0,.7-4.3.7-4.3h0s1.2-7.8,1.2-7.8h0c0-.1,0-.2,0-.2h0l.6-4.2h-.5s0,0,0,.3,0,.3,0,.4c-.1.9-.6,1.7-1.4,2.3-.8.6-1.6.8-2.6.7l-30.1-4.5h0c-.9-.2-1.7-.7-2.3-1.4-.6-.8-.8-1.6-.6-2.6,0,0,0-.2,0-.4s0-.3,0-.4h-.5c0,0-.6,4.1-.6,4.1h0l-1.2,8h0c0,.1,0,.2,0,.2h0l-.6,4.2h.5Z"/>
      <path class="cls-3" d="M174.7,161.6c.2,1.4.5,2.8.9,3.9h.5c.6-1.1,1.1-2.3,1.6-3.6.5-1.3.9-2.7,1.3-4,.4-1.4.7-2.7.9-4-1-.4-1.9-.6-2.9-.7-.9,0-1.9,0-3,.5,0,1.1,0,2.3.1,3.7s.2,2.8.4,4.3Z"/>
      <path class="cls-3" d="M169.1,179.2l.5-.5c.6-.7,1.4-1.1,2.4-1.1,1,0,1.8.2,2.5.8l22.6,20.4c.7.7,1,1.5,1.1,2.4,0,1-.2,1.8-.9,2.5l-.5.5.4.4,2.9-3.3h0s5.3-5.9,5.3-5.9h0s3.6-4,3.6-4h0s3.6-3.9,3.6-3.9l3.6-3.9h0s.1-.1.1-.1l-6.6-9.4-.4.4c.9,1.6,1.6,3.3,1.9,4.9.3,1.6.3,3.2-.1,4.7-.4,1.5-1.2,3-2.4,4.3h0s-4.8,5.3-4.8,5.3l-11.5-10.4,4.9-5.4h0c.9-1,2-1.5,3.3-1.6,1.2,0,2.4.3,3.3,1.2l.4.3.4-.4-3.8-3.5h0s-1.7-1.5-1.7-1.5h0s-3.8-3.5-3.8-3.5l-.4.4.3.3c1,.9,1.5,2,1.6,3.2,0,1.3-.3,2.4-1.2,3.4h0s-4.9,5.4-4.9,5.4l-11.9-10.7,6.4-7.1c1.1-1,2.2-1.5,3.5-1.6,1.4,0,2.8.5,4,1.6l.5.4.4-.4-4.8-4.3h0s-1.2-1.1-1.2-1.1h0s-1.2-1.1-1.2-1.1c-.1.3-.4.9-.8,1.5-.4.7-.9,1.4-1.4,2.1-.5.7-1,1.4-1.6,2l-5.7,6.3h0s-5.5,6.1-5.5,6.1h0s-2.8,3.1-2.8,3.1l.4.4Z"/>
      <path class="cls-3" d="M259.2,149.5l-.7.5c-.8.6-1.6.8-2.6.8-.9,0-1.8-.4-2.6-1.1l-24.8-25.7-.4.3,3.5,32.3-30.4-12.5-.4.3,17.2,31.1h0c.5,1,.7,1.9.4,2.9-.3.9-.8,1.7-1.6,2.3-.4.3-.7.5-.7.5l.3.4,4.9-3.6h0l1.6-1.2h0s2.7-2,2.7-2l-.3-.4-.7.5c-.5.3-1,.4-1.7.3-.6-.1-1.1-.5-1.5-.9,0,0,0-.1,0-.1l-9.9-17.1,25.5,10.7.4-.3c-.5-.7-.9-1.6-1.2-2.5-.3-.9-.5-2.2-.7-3.6l-2.3-20.5,13.4,14.6s0,0,0,0c0,0,0,0,0,.1.3.5.5,1,.5,1.7,0,.6-.3,1.1-.8,1.5l-.7.5.3.4,2.7-2h0s7.1-5.3,7.1-5.3h0s3.5-2.6,3.5-2.6l-.3-.4Z"/>
      <path class="cls-3" d="M275,143.3c-.9.4-1.7.5-2.6.2-.9-.3-1.6-.9-2-1.7h0s-13.5-27.3-13.5-27.3c-.4-.9-.4-1.8-.1-2.7.3-.9.9-1.6,1.7-2,.4-.2.6-.3.6-.3l-.2-.5-3.8,1.9h0s-7.4,3.7-7.4,3.7h0s-3.8,1.9-3.8,1.9l.2.5.6-.3c.9-.4,1.7-.5,2.6-.2.9.3,1.6.9,2,1.7l13.5,27.3c.4.9.4,1.8.1,2.7-.3.9-.9,1.6-1.7,2l-.6.3.2.5,3.9-2h0s7.1-3.5,7.1-3.5h0s3.9-2,3.9-2l-.2-.5s-.2.1-.6.3Z"/>
      <path class="cls-3" d="M315.9,129c-.8.3-1.7.3-2.7,0-.9-.2-1.9-.8-2.8-1.7l-26.5-29.1-.5.2c.1.4.2,1,.1,1.7,0,.8,0,1.6-.1,2.4,0,.8-.1,1.6-.2,2.2s-.1,1.1-.2,1.4l-3.3,31.5c-.2,1.1-.6,1.9-1.2,2.6-.7.8-1.4,1.3-2.2,1.6l-.5.2.2.5,11.2-3.6-.2-.5-.5.2c-.4.1-.9.1-1.4,0s-.9-.4-1.3-.8c-.3-.4-.4-1-.4-1.7l.6-7.4,12.3-3.9,4.6,5.6h0c.8.9,1,1.7.6,2.5-.3.7-.9,1.2-1.6,1.5l-.5.2.2.5,16.7-5.3-.2-.5h-.4ZM284.4,126l1.2-14.6,9.3,11.2-10.5,3.4Z"/>
      <path class="cls-3" d="M439.8,101.3l-3.5-1.1c-.3-.2-.7-.3-1.1-.5-1.1-.5-2.1-.9-3.1-1.3-1-.4-1.9-.7-2.6-.9-2.2-.7-4.2-.9-6.1-.6-1.8.3-3.4,1-4.8,2.1-1.3,1.1-2.4,2.5-3.1,4.3-.8,1.9-1,3.7-.7,5.7s1.3,3.7,2.8,5.3l7.3,8.9c1.2,1.3,2,2.4,2.4,3.5.4,1.1.4,2.2,0,3.2-.5,1.6-1.6,2.8-3.2,3.5-1.6.8-3.6.8-5.9.1-2.1-.6-3.8-1.6-5-3-1.2-1.4-2-2.9-2.4-4.7-.3-1.8-.1-3.5.6-5.3h-.5c-.7.4-1.3,1.3-2,2.3-.6,1-1.2,2.1-1.5,3.2-.4,1.1-.5,2-.5,2.9.5.9,1.2,1.7,2.2,2.5s2.1,1.6,3.5,2.3,2.8,1.3,4.4,1.8c4.2,1.3,7.8,1.4,10.9.2,3-1.2,5.2-3.4,6.4-6.8.7-1.9.9-3.8.5-5.5-.4-1.7-1.2-3.3-2.6-4.7l-8-9.6c-.9-1-1.6-2-2-3-.5-1-.5-2-.2-3,.5-1.4,1.5-2.4,3.1-3,1.5-.6,3.3-.6,5.4,0,2.2.7,3.9,1.8,4.9,3.3,1,1.5,1.2,3.2.7,5l.5.2,2.8-6.9s0,0,0,0l.3-.6Z"/>
      <path class="cls-3" d="M480.7,142.1c1.9-3.7,2.8-7.2,2.6-10.7-.2-3.5-1.4-6.7-3.5-9.6-2.1-2.9-5.1-5.4-9-7.5s-7.7-3.1-11.3-3.1c-3.6,0-6.9.8-9.9,2.7-2.9,1.8-5.4,4.6-7.3,8.2-1.9,3.7-2.8,7.2-2.6,10.7s1.3,6.6,3.5,9.6c2.1,2.9,5.1,5.4,9,7.5,3.9,2,7.7,3.1,11.3,3.1,3.6,0,6.9-.8,9.9-2.7,3-1.8,5.4-4.6,7.3-8.2ZM467,145.6c-2.1,1.9-4.3,3-6.7,3.4-2.3.4-4.7,0-7-1.2-2.3-1.2-3.9-2.9-4.9-5-1-2.2-1.4-4.6-1-7.5.3-2.8,1.3-5.8,3-9.1,1.7-3.2,3.6-5.8,5.7-7.6,2.1-1.9,4.4-3,6.7-3.4,2.3-.4,4.7,0,6.9,1.2,2.3,1.2,4,2.9,5,5,1,2.2,1.3,4.6,1,7.4-.3,2.8-1.3,5.8-3,9-1.7,3.2-3.6,5.8-5.7,7.6Z"/>
      <path class="cls-3" d="M483.4,151c-1.9,2.3-3,4.8-3.4,7.3-.3,2.5.1,5.1,1.4,7.7,1.3,2.6,3.5,5.2,6.5,7.6,2.6,2.1,5.2,3.5,7.7,4s5.1.4,7.4-.5,4.5-2.5,6.4-4.8l13.5-16.5h0c.5-.6,1.1-1,1.9-1,.8,0,1.5.2,2.1.7l.7.6.3-.4-3-2.5h0s-2.8-2.3-2.8-2.3h0s-3.1-2.5-3.1-2.5l-.3.4.7.6c.6.5,1,1.1,1.1,1.9.1.8,0,1.4-.6,2.1l-13.7,16.7c-1.6,1.9-3.2,3.3-5.1,4.1-1.8.8-3.7,1.1-5.5.8-1.9-.3-3.7-1.1-5.4-2.6-1.7-1.4-2.8-3-3.4-4.8-.6-1.8-.6-3.7,0-5.7.5-2,1.6-4,3.3-6.1l13.3-16.2c.5-.6,1.1-.9,1.9-1,.8,0,1.5.2,2.1.7l.7.6.3-.4-3-2.5h0s-6.2-5.1-6.2-5.1h0s-3.1-2.5-3.1-2.5l-.3.4.7.6c.6.5,1,1.1,1.1,1.9.1.8,0,1.4-.6,2.1l-13.5,16.5Z"/>
      <path class="cls-3" d="M506.4,186.4c-.9,0-1.7-.5-2.3-1.2,0,0-.2-.3-.7-.8l-.4.3,2.9,3.6h0s4.8,6,4.8,6h0s2.8,3.4,2.8,3.4l.4-.3c-.4-.5-.6-.8-.7-.8-.6-.7-.8-1.5-.7-2.5s.5-1.7,1.2-2.3h0s16.9-13.7,16.9-13.7l-3.1,38.3.3.4c.8-.9,1.5-1.7,2.3-2.5.8-.8,1.7-1.6,2.7-2.4l22-17.8h0c.8-.6,1.6-.8,2.5-.7.9.1,1.7.5,2.2,1.2l.6.8.4-.3-2.8-3.4h0s-4.9-6.1-4.9-6.1h0s-2.8-3.5-2.8-3.5l-.4.3s.2.3.7.8c.6.7.9,1.6.8,2.5,0,.9-.5,1.7-1.2,2.3h0s-16.9,13.7-16.9,13.7l3.1-38.2-.3-.4c-1.7,1.9-3.3,3.5-4.9,4.8l-22.2,17.9c-.7.6-1.5.8-2.5.7Z"/>
      <path class="cls-3" d="M536.9,222.3h0c-.9.4-1.8.4-2.7.1-.9-.3-1.6-.9-2-1.7l-.3-.6-.5.2,1.9,3.8h0s3.7,7.4,3.7,7.4h0l3.4,6.7c1.9,3.9,4.3,6.9,7.1,9,2.8,2.1,5.9,3.3,9.2,3.5,3.3.2,6.8-.5,10.3-2.3s6.2-4.1,8-6.9c1.8-2.8,2.7-6,2.7-9.5,0-3.5-1-7.2-2.9-11.1l-6.1-12.2h0s-.9-1.8-.9-1.8h0s-1.9-3.8-1.9-3.8l-.5.3.3.6c.4.9.5,1.7.2,2.7-.3.9-.9,1.6-1.7,2h0s-27.2,13.7-27.2,13.7ZM573.7,228.4c-.4,2.3-1.5,4.5-3.3,6.6-1.8,2.1-4.3,3.9-7.4,5.4-3.1,1.6-6,2.5-8.8,2.7-2.7.2-5.1-.2-7.2-1.3-2.1-1.1-3.7-2.8-4.9-5.2-.5-.9-.9-1.8-1.3-2.6s-.8-1.7-1.3-2.6c-.1-.3-.3-.6-.5-.9l30.3-15.2c.1.2.2.5.3.7.5,1,1,1.9,1.4,2.8.4.8.9,1.7,1.3,2.7,1.2,2.4,1.6,4.7,1.2,7Z"/>
      <path class="cls-3" d="M555.6,270.5c-.7-.8-1.1-1.6-1.3-2.4v-.5c0,0-.6.1-.6.1l2.4,11.5h.5c0-.1,0-.6,0-.6,0-.4,0-.9.1-1.4s.5-.9,1-1.2c.4-.3,1-.3,1.7-.2l7.3,1.4,2.6,12.6-6.1,4h0c-1,.6-1.8.8-2.5.3-.7-.4-1.1-1-1.3-1.7v-.5c0,0-.6.1-.6.1l3.5,17.1h.5c0-.1,0-.5,0-.5-.2-.8,0-1.7.3-2.7.3-.9,1-1.8,2-2.6l31.8-23.2v-.5c-.5,0-1.1,0-1.8,0s-1.5-.2-2.4-.4c-.8-.2-1.5-.3-2.2-.4-.6-.1-1.1-.3-1.3-.3l-31-6.7c-1-.3-1.8-.8-2.4-1.4ZM569.1,277.8l14.4,2.8-12.1,8-2.2-10.8Z"/>
      <path class="cls-3" d="M601.4,326.3c-.1-4.7-1.1-8.6-2.8-11.9-1.7-3.3-4.1-5.8-7.1-7.5-3-1.7-6.6-2.5-10.7-2.4-4.2.1-7.8,1.1-10.7,3.1-2.9,1.9-5.1,4.6-6.6,8-1.5,3.4-2.2,7.3-2.1,11.8,0,2.7.5,5.1,1.2,7.1.7,2,1.7,3.7,2.8,5,1.1,1.3,2.4,2.4,3.8,3.1l9.4-.8v-.4c-3.6-.5-6.5-1.3-8.7-2.4-2.2-1.1-3.7-2.7-4.7-4.6-1-1.9-1.5-4.3-1.6-7.1,0-2.7.7-5.1,2.1-7.1,1.4-2,3.4-3.6,6-4.8,2.6-1.2,5.7-1.8,9.4-1.9,3.6-.1,6.8.4,9.4,1.4s4.7,2.6,6.2,4.7c1.5,2,2.3,4.5,2.4,7.5,0,3-.6,5.6-2.1,7.9-1.5,2.3-4,4-7.6,5.1v.5s9.4-.4,9.4-.4c.8-1.6,1.5-3.5,2-5.9.5-2.3.7-5,.7-7.9Z"/>
      <path class="cls-3" d="M595.2,365.1c-.7-.4-1.3-.8-1.9-1.2-.6-.4-.9-.6-1.1-.8l-26.6-17.1c-.8-.7-1.4-1.4-1.8-2.2-.4-1-.5-1.9-.4-2.7v-.5c0,0-.5,0-.5,0l-1.8,11.6h.5c0,0,0-.4,0-.4,0-.4.3-.8.6-1.2.3-.4.8-.6,1.3-.7.5,0,1.1,0,1.7.4l6.4,3.9-2,12.8-7.1,1.6h0c-1.2.3-2,0-2.5-.6s-.7-1.3-.6-2v-.5c0,0-.5,0-.5,0l-2.7,17.2h0s-1.5,3.9-1.5,3.9h0s-.9,2.5-.9,2.5h0s-4.6,12.2-4.6,12.2c-1.5,4-2.1,7.8-1.8,11.3.3,3.5,1.6,6.6,3.7,9.2,2.1,2.6,5,4.6,8.7,6,3.7,1.4,7.2,1.8,10.5,1.2,3.3-.6,6.2-2.1,8.8-4.5,2.6-2.4,4.6-5.6,6.1-9.7l2.6-7h0s1.3-3.4,1.3-3.4l.9-2.4h0s.7-1.8.7-1.8h0s1.6-4.1,1.6-4.1h-.5c0-.1-.2.5-.2.5-.3.9-.9,1.5-1.8,2-.9.4-1.8.5-2.7.1h0s-28.5-10.8-28.5-10.8c-.9-.4-1.5-1-1.9-1.9-.4-.9-.4-1.8,0-2.6l.3-.7h-.2c0,0,.2,0,.2,0v-.4c.2-.8.6-1.6,1.3-2.4.6-.7,1.6-1.3,2.8-1.7l37.9-10.6v-.5c-.3,0-.9-.3-1.5-.6-.7-.4-1.4-.8-2.1-1.2ZM585.5,407.6c-.4,1.1-.8,2-1.1,2.9-.3.9-.7,1.8-1,2.8-.9,2.5-2.4,4.4-4.3,5.7s-4.3,2-7,2.1c-2.7,0-5.7-.5-9-1.7-3.3-1.2-5.9-2.8-7.9-4.6-2-1.9-3.3-3.9-3.9-6.2-.6-2.3-.5-4.6.5-7.1.4-1,.7-1.9,1-2.7.3-.8.7-1.7,1-2.8.1-.3.2-.6.4-1l31.7,12c0,.2-.2.5-.3.7ZM573.8,355.4l12.5,7.7-14.2,3.2,1.7-10.9Z"/>
      <path class="cls-3" d="M573.7,440.5l-.4.6c-.5.8-1.2,1.3-2.1,1.6-.9.2-1.8.1-2.7-.3h0s-26.2-15.6-26.2-15.6c-.8-.5-1.3-1.2-1.6-2.2-.2-.9-.1-1.8.4-2.6l.4-.6-.5-.3-2.2,3.6h0s-4.2,7.1-4.2,7.1h0s-2.7,4.5-2.7,4.5h0s-5.5,9.3-5.5,9.3l8.3,7.9.3-.5c-1.2-1.4-2.2-2.9-2.8-4.4-.6-1.5-.9-3.1-.8-4.6.1-1.6.6-3.1,1.6-4.7h0s3.7-6.2,3.7-6.2l13.3,7.9-3.7,6.2c-.7,1.1-1.7,1.9-2.9,2.2-1.2.3-2.4.1-3.5-.6l-.4-.3-.3.5,4.5,2.7h0s1.9,1.1,1.9,1.1h0s4.4,2.7,4.4,2.7l.3-.5-.4-.2c-1.1-.7-1.9-1.6-2.2-2.8s-.1-2.4.5-3.6h0s3.7-6.2,3.7-6.2l13.7,8.2-4.9,8.2c-.9,1.2-1.9,1.9-3.1,2.2-1.4.3-2.8,0-4.3-.8l-.6-.3-.3.5,5.5,3.3h0s1.9,1.1,1.9,1.1h0l.8.5c0-.4.2-.9.5-1.6.3-.7.6-1.5,1-2.3.4-.8.8-1.6,1.2-2.3l4.3-7.3h0s4.2-7.1,4.2-7.1h0s2.2-3.6,2.2-3.6l-.5-.3Z"/>
      <path class="cls-3" d="M526.5,453.7c-.7-.9-1-1.8-1-2.7,0-1,.4-1.8,1.1-2.6.4-.4.6-.6.6-.6l-.4-.4-4.1,4.5h0s-1.4,1.5-1.4,1.5h0s-2.3,2.5-2.3,2.5l.4.3.6-.6c.4-.4.9-.6,1.6-.6s1.2.2,1.6.6c0,0,0,0,.1.1l13,14.8-27.1-5.6-.4.4c.7.6,1.2,1.4,1.7,2.2.4.9.9,2,1.3,3.4l6.2,19.6-16-11.7s0,0,0,0c0,0,0,0-.1-.1-.4-.4-.7-.9-.8-1.5,0-.6,0-1.2.5-1.6l.6-.6-.4-.3-2.2,2.4h0s-4.8,5.3-4.8,5.3h0s-4.1,4.5-4.1,4.5l.4.4.6-.6c.6-.7,1.4-1.1,2.4-1.3.9-.2,1.8,0,2.7.6l29.3,20.4.3-.4-9.7-31,32.2,6.3.3-.4-23-27.1h0Z"/>
      <path class="cls-3" d="M516.9,513.3c-.9.7-2,1.1-3.2,1.1-1.2,0-2.2-.1-3.2-.5h0s-18.6-7.8-18.6-7.8l-7.9-10.9c-.5-.8-.7-1.7-.6-2.6.1-.9.6-1.7,1.4-2.3,0,0,.2-.2.6-.4l-.3-.4-3.4,2.5h0s-6.5,4.8-6.5,4.8h0s-3.5,2.6-3.5,2.6l.3.4.5-.4c.8-.6,1.6-.8,2.6-.6,1,.1,1.7.6,2.3,1.4l8,11,1.4,20.2h0c0,1-.1,2.1-.6,3.2s-1.1,2-2,2.7l-.6.5.3.4,10.6-7.7-.3-.4-.5.4c-.4.3-.9.4-1.4.4-.5,0-1-.2-1.4-.6-.4-.3-.7-.8-.7-1.4h0s-1.8-16.3-1.8-16.3l14.8,6.9c.7.4,1.1,1,1.2,1.9.1.9-.2,1.5-.8,2l-.6.4.3.4,14.7-10.7-.3-.4-.6.5ZM487.8,509.3h0s0,0,0,0h0Z"/>
    </g>
    <g>
      <path class="cls-3" d="M312,533.1c-1-.8-2.3-1.3-3.7-1.7-.8-.2-1.6-.3-2.5-.3-.8,0-1.7,0-2.5.2-.8.1-1.5.4-2.1.7h-.3c0,.1.1,5.2.1,5.2l1.2.3v-.5c.5-1.5,1-2.5,1.9-3.1.8-.6,1.8-.8,3-.5,1.1.2,1.8.7,2.3,1.6.5.9.5,2,.2,3.3-.2.8-.6,1.7-1.3,2.6-.7.9-1.5,1.8-2.4,2.7-.9.9-2,1.7-3.1,2.6-1.1.8-2.2,1.6-3.3,2.3-1.1.7-2.1,1.4-3.1,2h-.2c0,.1-.2,1.1-.2,1.1l14.1,3.4,3.6-6.3-1.2-.3-.2.2c-.5.5-.9,1-1.3,1.3-.4.3-.8.4-1.1.5-.4,0-.9,0-1.4,0l-4.9-1.2c.4-.2.8-.4,1.2-.6.9-.5,1.9-1,2.9-1.6,1-.6,2-1.2,2.9-2,.9-.7,1.7-1.5,2.4-2.4.7-.9,1.2-1.9,1.4-2.9.3-1.3.3-2.6-.2-3.7-.4-1.1-1.2-2.1-2.2-2.8Z"/>
      <path class="cls-3" d="M343.6,538.5c-1.2-1.1-2.7-1.7-4.4-1.8-1.8-.2-3.3.2-4.7,1-1.3.8-2.4,2.1-3.3,3.7-.8,1.6-1.3,3.6-1.5,5.9-.2,2.3,0,4.3.4,6,.5,1.8,1.4,3.2,2.5,4.3,1.2,1.1,2.7,1.7,4.4,1.8.3,0,.6,0,.8,0,1.4,0,2.7-.4,3.8-1,1.3-.8,2.4-2.1,3.3-3.7.8-1.6,1.3-3.6,1.5-5.9.2-2.3,0-4.3-.4-6-.5-1.8-1.3-3.2-2.5-4.3ZM339,538.7c1.1.1,1.9.9,2.4,2.5.5,1.7.7,4.1.4,7.1-.3,3-.8,5.4-1.7,6.9-.8,1.4-1.7,2.1-2.8,2-1.1-.1-1.9-.9-2.4-2.5-.5-1.7-.7-4.1-.4-7.1.3-3,.9-5.4,1.7-6.9.7-1.3,1.6-2,2.6-2s.1,0,.2,0Z"/>
      <path class="cls-3" d="M378.3,542.2c-.8-1.7-1.8-3-3.1-3.8-1.3-.9-2.9-1.3-4.6-1.2-1.8,0-3.3.7-4.5,1.7-1.2,1-2.1,2.4-2.7,4.2-.6,1.7-.8,3.7-.7,6,.1,2.3.6,4.3,1.3,5.9.8,1.7,1.8,3,3.1,3.8,1.2.8,2.6,1.2,4.1,1.2s.3,0,.5,0c1.8,0,3.3-.7,4.5-1.7,1.2-1,2.1-2.4,2.7-4.2.6-1.7.8-3.7.6-6-.1-2.3-.6-4.3-1.3-5.9ZM368.9,555.7c-.8-1.6-1.3-3.9-1.5-7-.2-3.1,0-5.4.7-7.1.6-1.5,1.4-2.3,2.5-2.4,1.1,0,2,.6,2.8,2.1.8,1.6,1.3,3.9,1.4,7,.2,3.1,0,5.4-.6,7.1-.6,1.5-1.4,2.3-2.5,2.4-1.1,0-2-.6-2.7-2.1Z"/>
      <path class="cls-3" d="M412.1,546.5c-.3-1.2-.7-2.2-1.3-3-.6-.8-1.3-1.4-2-1.7-.7-.4-1.5-.6-2.3-.6-.8,0-1.6.1-2.4.4-.8.3-1.4.7-2,1.3-.6.6-1.1,1.2-1.4,2v.2c-.2-.8-.3-1.6-.3-2.4,0-1.3,0-2.6.4-3.8.3-1.2.9-2.3,1.8-3.3.8-1,2-2,3.6-2.8l.5-.3-.8-.9h-.3c-2.1.5-3.9,1.2-5.3,2.3-1.4,1.1-2.5,2.3-3.3,3.8-.8,1.5-1.2,3.1-1.4,4.8-.2,1.7,0,3.5.3,5.3.4,2,1.1,3.7,2,5,1,1.3,2.2,2.2,3.5,2.6.8.3,1.6.4,2.4.4s1.4,0,2.1-.2c1.6-.4,3-1,4-2,1-.9,1.7-2,2-3.3.3-1.2.4-2.5,0-3.8ZM401.5,546l.3-.5c.2-.4.5-.7.9-.9.4-.3.8-.4,1.3-.4.5,0,1,0,1.4.2.4.2.8.6,1.1,1.2.3.6.6,1.4.9,2.4.2.8.3,1.7.2,2.5,0,.8-.2,1.4-.6,2-.3.5-.8.8-1.5,1-.7.2-1.4,0-1.9-.4-.6-.4-1.1-1.2-1.5-2.1-.5-1-.8-2.3-1.1-3.8-.1-.6-.2-1.2-.3-1.7l.9.8Z"/>
    </g>
    <path class="cls-2" d="M192.4,354.1h8.4c12,0,21.7-9.7,21.7-21.7v-13.3c0-5.5,4.5-10,10-10s10,4.5,10,10v62.3c0,12,9.7,21.7,21.7,21.7s21.7-9.7,21.7-21.7v-109.3c0-5.5,4.5-10,10-10s10,4.5,10,10v170.4c0,12,9.7,21.7,21.7,21.7s21.7-9.7,21.7-21.7v-231.5c0-5.5,4.5-10,10-10M359.4,200.9c5.5,0,10,4.5,10,10v231.5c0,12,9.7,21.7,21.7,21.7s21.7-9.7,21.7-21.7v-170.4c0-5.5,4.5-10,10-10s10,4.5,10,10v109.3c0,12,9.7,21.7,21.7,21.7s21.7-9.7,21.7-21.7v-62.3c0-5.5,4.5-10,10-10s10,4.5,10,10v13.3c0,12,9.7,21.7,21.7,21.7h7.2M526.4,344.1h-8.4c-6.5,0-11.7-5.2-11.7-11.7v-13.3c0-11-9-20-20-20s-20,9-20,20v62.3c0,6.5-5.2,11.7-11.7,11.7s-11.7-5.2-11.7-11.7v-109.3c0-11-9-20-20-20s-20,9-20,20v170.4c0,6.5-5.2,11.7-11.7,11.7s-11.7-5.2-11.7-11.7v-231.5c0-11-9-20-20-20h0c-11,0-20,9-20,20v231.5c0,6.5-5.2,11.7-11.7,11.7s-11.7-5.2-11.7-11.7v-170.4c0-11-9-20-20-20s-20,9-20,20v109.3c0,6.5-5.2,11.7-11.7,11.7s-11.7-5.2-11.7-11.7v-62.3c0-11-9-20-20-20s-20,9-20,20v13.3c0,6.5-5.2,11.7-11.7,11.7h-9.5"/>
    <g>
      <circle class="cls-3" cx="358.9" cy="109.8" r="6.6"/>
      <circle class="cls-3" cx="444.1" cy="533.5" r="6.6"/>
      <circle class="cls-3" cx="263.2" cy="533.5" r="6.6"/>
    </g>
    <circle class="cls-2" cx="358.5" cy="329.8" r="287.7"/>
    <circle class="cls-2" cx="358.9" cy="330.1" r="168.1"/>
    <circle class="cls-2" cx="358.9" cy="330.1" r="269.7"/>
    <path class="cls-1" d="M498.1,447.7s0,0,0,0c-.3,0-.5,0-.8,0-.4,0-.8,0-1.2,0-.1,0-.3,0-.4,0-.6,0-1.1.1-1.7.2,0,0-.1,0-.2,0-1.7.3-3.3.7-4.9,1.4h0l-41.7-41.7c1.8-2.8,3.2-5.7,4.2-8.8-.1,0-.2.1-.4.2,3.9-12,1.1-25.8-8.4-35.4l-53.2-53.2,100.2-100.2c7.4,3,16.2,1.6,22.2-4.4,8-8,8-20.9,0-28.8-8-8-20.9-8-28.8,0-3.9,3.9-5.8,8.9-5.9,13.9,0,0,0,0,0,0,0,0,0,.2,0,.3,0,.3,0,.6,0,.8,0,.4,0,.8,0,1.1,0,.3,0,.6.1.9,0,.4,0,.7.2,1.1,0,.3.1.6.2.8,0,.4.2.7.3,1.1,0,.3.2.5.3.8.1.4.2.8.4,1.1,0,0,0,.1,0,.2l-100.2,100.2-153.7-153.7-7.3,4.9-6.3,5.9,155.1,155.1-24.7,24.7-155.1-155.1-6.1,6.1-4.9,7.3,153.9,153.9-100.8,100.8c0,0-.2,0-.3-.1,0,0-.1,0-.2,0-.6-.2-1.2-.4-1.8-.6,0,0,0,0,0,0-6.8-1.9-14.5-.2-19.9,5.2-8,8-8,20.9,0,28.8,8,8,20.9,8,28.8,0,5.4-5.4,7.1-13,5.2-19.9,0,0,0,0,0,0-.2-.6-.4-1.2-.6-1.8,0,0,0-.1,0-.2,0,0,0-.2-.1-.3l100.8-100.8,53.2,53.2c9.5,9.5,23.2,12.3,35.1,8.5,0,.1-.2.3-.2.4,3.2-1,6.2-2.4,9.1-4.3l41.4,41.4c-.3.7-.6,1.3-.9,2,0,0,0,.1,0,.2-.2.6-.4,1.2-.6,1.8,0,0,0,.1,0,.2-.2.6-.3,1.3-.4,1.9,0,.1,0,.3,0,.4,0,.4-.1.8-.1,1.3,0,.4,0,.9,0,1.3,0,0,0,0,0,.1,0,.4,0,.7,0,1.1,0,0,0,0,0,0,.2,4.9,2.2,9.7,5.9,13.4,8,8,20.9,8,28.8,0,8-8,8-20.9,0-28.8-3.7-3.7-8.5-5.7-13.4-5.9ZM405.8,400.6l-53.2-53.2,24.7-24.7,53.2,53.2c6.8,6.8,6.8,17.9,0,24.7-6.8,6.8-17.9,6.8-24.7,0Z"/>
  </g>
  <g>
    <path class="cls-3" d="M523.3,616.7h0c-1.8-3.1-4.6-5.6-8.1-7.3-8.3-4.1-22.3-2.2-37.5,4.9-14.4,6.7-27.5,17.2-35,27.9-3.9,5.5-6.3,12-6.5,17.7-.1,3,.3,5.5,1.2,7.6,1.1,2.5,2.8,4.6,5.2,6.4,3.3,2.2,7.4,3.4,12.1,3.6.7,0,1.2-.3,1.5-.7.2-.5.2-1-.2-1.5-.5-.7-1.8-1.3-2.7-1.3-3.5,0-6.2-.8-8.1-2.2-1.5-1-2.6-2.5-3.4-4.3-.7-1.8-1.1-4-1-6.5.2-5.2,2.4-11.2,6.1-16.4,7.3-10.5,20-20.6,34-27.2,13.8-6.5,26.4-8.5,32.8-5.4,2.4,1.2,4.2,2.9,5.3,5,1.4,2.5,1.9,5.4,1.6,8.8-.3,3.4-1.4,7-3.2,10.7-4.1,8.3-11.5,16.2-20.1,21.4,1.1-5.8,2.1-11.5,2.9-16.5.3.2.5.4.8.6.6.4,2,1,2.8.7.5-.1.8-.5.9-.9,0-.4,0-1-.8-1.7-1.1-.9-2.1-1.6-3.2-2.2.9-5.9,1.1-7.7,1.2-8.3h0c.1-.9-.8-1.8-1.8-2.2-.3-.1-1.4-.5-2.2,0-.3.2-.5.4-.5.7l-1.8,6.1c0,.5.1,1,.6,1.5v.5c-3.9-.7-7.3.8-10.3,4.5-5,6.3-7.4,17.6-8.3,24.2-.6,0-1.2,0-1.7-.2-1.6-.1-2.9-.5-3.9-1.2h-.1c-1-.8-1.8-1.6-2.2-2.6-.7-1.4-1.1-2.8-.9-4.1.1-.9-.9-1.8-1.9-2.2-.8-.3-1.6-.3-2.1,0-.3.2-.5.5-.6.9-.1,1.4,0,3.6,1.3,5.8,1,1.7,2.4,3.2,4.2,4.5l.4.2h0c2.1,1.3,4.4,2,7,2.3,0,0,.1,0,.2,0,0,.2,0,.4,0,.6-1.2,10.9-.6,21,1.4,24.6,1.3,2.3,2.7,3,4,3s1.5-.3,2.1-.6c3.7-2.1,7.5-12.7,11.6-32.3.8-.4,1.5-.8,2.3-1.3,9.9-5.4,18.7-14.3,23.3-23.7,2-4.1,3.1-7.9,3.4-11.5.4-3.8-.3-7.3-1.9-10.4ZM495.6,639.8c-1.1,6.8-2.4,14.4-3.7,21-3.2,1.6-6.4,2.8-9.3,3.4,1.6-9.4,4.2-16.8,7.5-21,1.7-2.2,3.6-3.4,5.5-3.5ZM490.8,665.9c-3.7,17.1-6.6,23.6-8.6,25.9-1.2-3.9-1.4-12.5-.5-21.7,0-.4,0-.8.1-1.2,0-.2,0-.5,0-.7,2.7-.3,5.7-1.1,8.8-2.3Z"/>
    <path class="cls-3" d="M526.9,635.1h0c.1,0,.3,0,.3,0h.1s.2,0,.2,0c.8-.2,1.5-.8,2-1.9.9-1.8,1.1-4.9.6-5.8-.3-.8-1.3-.9-1.6-.9-.7,0-1.2.2-1.5.7-.4.6-.5,1.4-.4,1.9v.2c.2.2.3,1.1.2,2.4,0,.1,0,.2,0,.3-.3.2-.5.6-.7,1.1-.3,1,0,1.8.7,2Z"/>
    <path class="cls-3" d="M565.5,621.2c-.4-.4-1.1-.6-1.8-.6-.5,0-.8,0-1.1.4-.4.4-.4.9-.4,1.2.1,3.4-5.9,21.7-8.4,26.2-.7,1.1-2.2,2.8-2.7,2.8-1.4-1.1-3.1-8-3.9-21.3h.1c0,0,.1-.5.1-.5,2-5.9,8.6-26,7.4-35.9-.3-2.9-1-5-2.2-6-1.2-1-2.7-1.2-4.2-.8-.9.2-1.7.7-2.5,1.6-1.9,2.2-3.2,6.4-3.4,10.5h0c-.7,3.4-.8,22.4,0,34.5-.4.2-.7.6-.8,1.1,0,0-.1.3-.2.6-2.9,7.2-4.2,9.3-4.7,9.9-.7-.9-1.1-2.1-1.3-3.5h0c0-.8-.7-1.5-1.9-1.9-1.4-.4-2.5,0-2.7.9-.7,3.4-1.9,8.3-3.1,10.9-.5-2.8-.3-5.4.8-8,.6-1.6,2.7-4.4,4.2-4.2.8.5,2,.8,2.8.5.5-.1.9-.5,1-.9,0-.3,0-.9-.7-1.5-1.4-1.3-3.2-1.8-5.1-1.4-2.8.6-5.5,3-6.6,5.9-.9,2.4-1.4,5.5-1.2,8.1.1,1.3.4,2.4.8,3.2.5,1.3,1.5,2.2,2.9,2.8.5.1,1.1.3,1.7.3s.3,0,.5,0c1.9-.2,3.2-2.6,4.5-6.4.9,1.1,2,1.4,2.7,1.4,1.6,0,3.3-1,4.6-3.1.8-1.3,1.6-3.2,2.7-6.3,1.4,10.8,3.4,12.9,4.9,13.5,3.6,1.6,7-1.6,9-5.3,2.6-4.5,8.9-23.9,8.7-27.8,0-.2,0-.5-.3-.7ZM546.7,617.3c-.2-9.8,0-18.1,0-18.4.2-4.6,1.6-7.9,2.8-9.3,0,0,0,0,.1-.1.3.6.7,1.8,1,3.9.6,5.8-1.5,15.5-3.9,23.9Z"/>
    <path class="cls-3" d="M651.1,546.7c-1.8-3.7-3.8-7.1-6-9.9,1.6-2.1,2.8-3.7,3.5-4.7.4-.6.7-.9.7-1h0c.2-.5.3-.9,0-1.3-.3-.5-.9-.9-1.6-1-1-.2-2.3,0-2.9.8,0,0-.9,1.2-2.4,3.2-1-2.3-2-4.6-3-6.7-6-13.1-10.5-21.9-13.5-26.9-2.5-4-4.6-6-6.4-6-1.1,0-2.1.5-3,1.7-.7.9-.6,6.4.8,30.9-16,4.4-28.7,26.4-34.2,46.5-1.3,4.7-2.2,9.3-2.5,13.4-.3,4.3,0,7.3,1,9.2,1.1,2.4,3.1,3.5,6,3.2,5.3-.5,15.7-10,31.9-29.1,1,21.7,1.3,36.6.9,45.3-.3,0-.6-.1-.9-.1-.9,0-1.7.2-2.1.7-.2.3-.4.6-.4.9h0c-.2,1.4.2,5.1.3,5.7.3,2.1.9,3.3,1.8,3.8.8.4,1.5.6,2.1.6s.5,0,.8-.1c.7-.2,1.3-.7,1.8-1.6,1.9-3.5,2-22.8.2-60.7,6.8-8.2,13.2-16.6,17.1-21.6,3.9,9.9,6.8,19,8.6,24.6,2.5,7.6,3.6,11,5,11.7,2.6,1.3,3.8,0,4.2-.8.8-1.2,0-5.9-.6-8.6-.9-4.4-3.1-13.2-7.4-22ZM617.6,529.3l.2,3.5c.5,9.6,1.1,19.8,1.5,30.1-16.9,20.6-27.8,31.4-32.4,32.1,0,0-.3-.4-.6-1-.7-1.6-1-4.4-.8-8.1.3-4,1.2-8.5,2.4-12.9,5-18.2,16.1-38.6,29.6-43.6ZM631.7,530.1c2.4,1.3,4.8,3.2,7.2,5.9l.5,1.2c-3.3,4.4-9.1,12.1-15.5,20-.3-5.9-.6-11.7-.9-17.4-.1-2.4-.3-4.8-.4-7.1l-.3-4.6c3.3-.3,6.4.3,9.4,1.9ZM634.9,527.7c-3.4-1.9-7.1-2.8-10.8-2.8s-1.3,0-1.9,0c-.4-8.1-1-19.9-1.1-25.5.2.3.4.7.6,1.1,3,4.8,7.3,13.5,13.4,26.6.1.3.3.6.4.9-.2,0-.4-.2-.6-.3Z"/>
    <path class="cls-3" d="M683.2,547.8c-2.1-1.4-13.9-24.3-31.7-61.5-.9-2.1-1.5-3.1-1.5-3.2-.5-.9-1.8-.9-2.8-.7-.9.2-1.5.6-1.8,1.2-.2.3-.2.7,0,1l1.2,2.7c1.2,2.6,4.4,9.7,7.7,19.9,1.3,3.9,2.3,7.8,3.1,11.3-1.4.1-3.1.5-4.5,2.9-2.4,3.4.4,9.5,1.3,11.3.9,1.6,1.9,3,2.9,3.7,1.8,1.3,3.3,1,4.1.6,1.9-1,2.7-3.6,2.8-5.7,0-2.2-.3-5.2-.9-9,.2-.2.3-.4.4-.6,12.8,25,16,28.9,17.4,29.1.2,0,.5,0,.8,0,.8,0,1.7-.3,2.2-.8.4-.4.6-.9.4-1.4,0-.3-.4-.8-1.3-1ZM657.8,522.7c.2-.3.3-.4.6-.4v.6c.8,3.7,1.1,6.7,1,8.9,0,0,0,.1,0,.2-.1-.2-.3-.5-.4-.8-1.2-2.4-2.5-6.6-1.1-8.5Z"/>
    <path class="cls-3" d="M666.3,485.6h0c.3.6.9.9,1.7.9s.7,0,1.2-.2c.8-.3,1.5-.8,1.7-1.3.1-.3.1-.7,0-1l-2.5-6.1h0c-.4-.8-1.5-1.1-2.9-.7-.9.4-1.5.8-1.7,1.3-.1.3-.1.7,0,.9l2.5,6.1Z"/>
    <path class="cls-3" d="M705.3,419.1c0,0,0-.1,0-.2-.1-.2-.3-.6-.8-.7-.5-.1-.9.1-1.1.2-.4.2-.7.5-.8.9-.2.7.2,1.5.5,1.9,0,0,0,.2.1.3,2.8,6.5,2.9,9.2,2.7,10.3-.7-.7-1.8-1.7-2.8-2.7-.2-.2-.5-.4-.7-.6-.7-.7-1.3-1.2-2-1.6-2.3-1.4-4.2-1.1-5.6,1.1v.3c-.6.9-.7,2.9,1.6,8.9h0c-.6-.7-1.9-.7-2.9,0-.7.4-1.2,1-1.3,1.6,0,.4,0,.8.3,1l3.1,3.2c-.2.2-.3.4-.4.6-.2.7.1,1.5.4,2,0,0,0,.2.1.3,2.3,6.7,2.3,9.4,2,10.4-.6-.7-1.6-1.8-2.6-2.9-.2-.2-.4-.4-.6-.6-.7-.7-1.2-1.3-1.8-1.7-2.2-1.6-4.1-1.4-5.7.7v.3c-.7.9-1,2.8,1,9h0c-.5-.8-1.8-.8-2.9-.3-.7.3-1.3.9-1.4,1.5,0,.4,0,.8.2,1.1l3.3,3.9c-.1,0-.2,0-.3,0h0c-.5.2-.9.7-1,1.2-.1.6,0,1.2.4,1.7,2,2.7,2.6,16-.4,18.4-.7.6-1.8.2-3.1-1.2v-.5c.2-1.2,1.1-4.4.9-7.9,0-2.1-.9-4.4-2.3-6.1-.5-.7-1.1-1.3-1.8-1.8-1-.7-2.3-.8-3.6-.4-.9.3-1.7.8-2.2,1.5-.9,1.4-.4,5.1-.2,6.3.4,2.1,1.2,4.5,2.1,6.7,1.1,2.4,2.5,4.3,4.2,5.5,0,0,.2.1.3.2,1.3,5.7.8,7.6.5,8.1-.1,0-.3,0-.5-.1-.3-.2-.9-.6-1.7-1.7-.4-.6-.8-1.2-1.2-1.9.5-1.4.9-3,1.2-4.3.2-.5.1-.9-.2-1.2-.4-.6-1.2-.5-1.5-.4-1.3.1-1.4,1.2-1.5,1.6,0,0,0,.1,0,.2v.2c-.5-1.1-.9-2.2-1.1-3,0-.3-.3-.6-.6-.8-.5-.3-1.3-.4-2.1-.1-1.4.4-2.2,1.2-2,2.2.4,1.8,1.4,4.3,2.7,6.6-.4,0-.9-.2-1.3,0-1.9.3-3.2,2.3-3.7,5.6l-1.5-2.7c-.4-.7-1.7-1-2.9-.5-.8.2-1.5.7-1.7,1.3-.1.3-.1.7,0,1l10.5,18.4c.3.5.9.8,1.7.8s.8,0,1.2-.2c.8-.2,1.5-.7,1.7-1.3.1-.3.1-.7,0-1-.5-.8-4.1-6.8-4.4-7.5-.9-3.9-1.3-7.8-.8-8.4,1.8-.4,2.9-.7,3.8-1.5,2,2.4,4.1,3.7,6.2,3.6,1.1,0,2-.5,2.6-1.4,1.3-1.7,1.4-5.1.4-10,1.9,0,3.7-.4,5.2-1.6,4.3-3.1,3.6-12.9,1.7-19l2.2,2.6c.3.4.8.5,1.2.5s1.3-.2,1.7-.4c.4-.2,1.2-.7,1.4-1.5,0-.3,0-.6,0-.8-.5-1.2-4.3-10.4-5.8-15.9,2.2,2.3,5.2,5.2,8.9,2.5,2.9-2.1,1.2-7.6-.4-11.4l2.5,2.6c.8.8,2.3.2,3,0,.3-.2,1.1-.8,1.3-1.6,0-.3,0-.6-.1-.8-.3-.6-5-9.8-6.9-15.4,2.4,2.2,5.6,4.8,9.1,1.9,4.1-3.5-2.6-13.9-3.4-15.1ZM703.4,419.2h0s0,0,0,0c0,0,0,0,0,0ZM679.2,483.9c-.9-2-1.5-4.2-1.9-6.1-.3-1.4-.4-2.6-.4-3.5.2.3.4.4.6.7,1,1.4,1.9,3.3,2,5.2,0,1.4,0,2.6-.3,3.7Z"/>
  </g>
</svg>