<?xml version="1.0" encoding="UTF-8"?>
<svg id="Layer_2" data-name="Layer 2" xmlns="http://www.w3.org/2000/svg" version="1.1" viewBox="0 0 579.1 579.5">
  <defs>
    <style>
      .cls-1 {
        fill: #fff;
        stroke: #704848;
      }

      .cls-1, .cls-2 {
        stroke-miterlimit: 10;
        stroke-width: 1.3px;
      }

      .cls-2 {
        fill: none;
        stroke: #6d4545;
      }

      .cls-3 {
        fill: #6d4545;
        stroke-width: 0px;
      }
    </style>
  </defs>
  <g>
    <path class="cls-3" d="M242.5,358.3c-.6-.3-1.2-.5-1.8-.6-.6,0-1.2,0-1.7.2-.6.2-1.1.5-1.6.9s-1,.9-1.5,1.4l-3.8,4.7-5.7-4.7,3.9-4.7c.3-.2.6-.4.9-.4s.8,0,1.1.3h.2v-.2c.1,0-1.2-1.1-1.2-1.1h0l-2.7-2.2h0l-1.4-1.2v.2q-.1,0,0,0h.1c.3.3.5.6.5,1s0,.8-.3,1.1h0l-8.1,9.7c-.4.5-.8.9-1.2,1.3s-.8.7-1.3,1c-.4.3-.9.4-1.4.5-.5,0-1.1,0-1.6-.2v.2c.5.7,1.2,1.2,1.9,1.5s1.5.4,2.2.4,1.5-.3,2.2-.7c.7-.4,1.3-.9,1.9-1.6l3.6-4.4,5.7,4.7-3.9,4.7h0c-.3.3-.6.5-1,.5s-.8,0-1.1-.3h-.1c-.1-.2,0-.1-.1-.1v.2c-.1,0,1.3,1.2,1.3,1.2h0l2.7,2.2h0l1.4,1.1v-.2c.1,0,0,0,0-.2-.3-.3-.5-.6-.5-1s0-.8.3-1.1h0l8.3-10.1c.4-.5.8-.9,1.2-1.3s.8-.7,1.2-.9c.4-.2.9-.4,1.4-.4s1.1,0,1.7.2v-.2c-.4-.7-1-1.2-1.6-1.5h0Z"/>
    <path class="cls-3" d="M225.9,350.3c.4.2.7.4,1,.7v.2c.1,0,.3-.1.3-.1l-3.1-3.9h-.2c0,.1.1.3.1.3.1.1.2.3.2.6s0,.4-.1.6-.3.3-.6.4l-3.1.9-3.4-4.3,1.5-2.7h0c.2-.4.5-.6.9-.6s.6.2.8.4v.2c.1,0,.3-.1.3-.1l-4.7-5.8h0l-.8-1.5h0l-1.5-2.9h0l-.9-1.7h-.2c.1.4.2.5.2.5.2.4.2.7,0,1.1s-.4.7-.7.8h0l-8.3,4.2,4.8-15.7v-.2c-.5.3-.9.6-1.3.8-.4.2-.8.5-1.4.8l-10.8,5.4c-.4.2-.7.2-1.1,0-.4-.1-.6-.4-.8-.7l-.2-.4h-.2c0,.1.9,1.9.9,1.9h0l1.4,2.9h0l.9,1.7h.2c0-.1,0-.3-.2-.5-.2-.4-.2-.7,0-1.1.1-.4.4-.6.7-.8h0l8.3-4.2-4.8,15.7v.2c1-.7,1.8-1.2,2.6-1.6l10.9-5.5h0c.4-.2.7-.2,1.1,0s.7.4.8.7c0,0,0,.1.2.4h0c.2.3.4.6.4,1.1s0,.9-.3,1.4l-7.6,15v.2c.3-.1.5-.2.8-.3s.6-.2,1-.3.6-.2.9-.3.5-.1.6-.1l13.1-3.5h1.2l.2-.3ZM219.3,350.1l-6,1.7,3.1-5.4,2.9,3.7h0Z"/>
    <path class="cls-3" d="M196,322.5c1.1.2,2.3.1,3.6-.2,1.2-.3,2.3-.8,3.2-1.5s1.6-1.6,2.1-2.6.8-2.2,1-3.4c.1-1.2,0-2.5-.4-3.9-.3-1.2-.7-2.3-1.3-3.2-.2-.4-.5-.8-.8-1.1.1,0,.2-.2.4-.2.8-.6,1.5-1.4,2-2.2s.9-1.8,1-2.8c.2-1,0-2.1-.2-3.2s-.8-2.3-1.7-3.4h-.2c.5,1.2.8,2.3.8,3.3s-.2,1.9-.6,2.8-1,1.5-1.8,2.1-1.7,1-2.7,1.3l-3.6.9c-.7.2-1.1,0-1.3-.9v-.4h-.3l1.6,6.4h.2v-1.3c.1-.3.4-.4.7-.5l3.5-.9c.7,0,1.4.4,2,1s1,1.4,1.2,2.3.2,1.7,0,2.5-.5,1.6-1,2.3-1.2,1.3-2,1.8-1.8.9-2.8,1.2c-1.5.4-2.8.4-4.1.2-1.2-.2-2.3-.7-3.2-1.5s-1.4-1.7-1.7-2.9c-.2-.9-.3-1.8-.2-2.7.1-.9.4-1.7.9-2.4.5-.7,1.2-1.3,2-1.8v-.2l-3.9,1c-.1.5-.2,1.1-.2,1.8s0,1.5.1,2.3.2,1.7.5,2.5c.4,1.4.9,2.6,1.6,3.7.7,1.1,1.5,1.9,2.5,2.6s2,1.1,3.1,1.3h0Z"/>
    <path class="cls-3" d="M188.8,295.6l12.6,4.9c.4.2.7.5.9.8.2.4.4.7.4,1.1v.2h.2l-.2-5h-.2v.2c0,.2,0,.4-.1.6s-.3.3-.5.4h-.8l-3-1.1-.2-5.5,2.8-1.3h0c.5-.2.8-.2,1.1,0s.4.5.4.8v.2h.2l-.3-7.5h-.2v.2c0,.4,0,.7-.3,1.1-.2.4-.5.7-1,1l-15,7.7v.2c.2,0,.4,0,.7.1s.6.2,1,.3c.3.1.6.2.9.3s.4.2.5.2h.1ZM197.1,297.3l-5.9-2.1,5.7-2.6.2,4.7Z"/>
    <path class="cls-3" d="M187.8,271c0-.3.2-.5.4-.6.2,0,.5,0,.7.2l6.5,6.6c.6-.3,1.1-.5,1.5-.8.4-.2.9-.5,1.4-.7.5-.3,1-.5,1.5-.8s.9-.5,1.2-.6c.3-.2.6-.3.7-.4.6-.3,1-.7,1.3-1.1.3-.5.6-.9.8-1.4s.3-.9.4-1.3.1-.7.1-.8l.2-1.4,1.7-4.5h-.2c0,.3-.2.4-.4.6-.2.1-.4.2-.6.2s-.4-.1-.7-.3l-2.3-2.2,1.9-5.2h3.1c.5,0,.8.1,1,.4s.2.6,0,.9v.2h.1l2.6-7h0l1-1.6h0l1.7-2.7,1.8-2.9c1-1.6,1.5-3.1,1.7-4.6s-.1-2.9-.8-4.1c-.7-1.3-1.7-2.3-3.1-3.2s-2.9-1.4-4.3-1.4-2.8.3-4.1,1.1-2.4,2-3.4,3.5l-2,3.2-1.6,2.5h0l-1,1.5h.2c0,.1.1-.1.1-.1.2-.3.5-.6.9-.7.4,0,.8,0,1.1.2h0l11,6.9c.3.2.6.5.6.9s0,.8-.2,1.1l-.2.3h-.1v.2c-.2.3-.4.6-.8.9-.3.3-.8.4-1.3.5l-16.8,1.3v.2s.3.2.5.4.5.4.8.7c.3.2.5.5.7.7s.3.3.4.4l9.7,9.4c.3.4.5.7.6,1.1v.7h0c0,.5-.3.9-.6,1.2-.3.3-.7.6-1.2.9l-8.8,4.6-4.8-5.5c-.2-.3-.4-.7-.5-1.1-.1-.5-.2-1,0-1.5h-.2c0-.1-.8,5.2-.8,5.2h.2v-.2h.7ZM201.5,236.9c.2-.3.4-.7.7-1.1.6-1,1.4-1.6,2.3-2s2-.5,3.1-.3,2.4.7,3.6,1.5c1.3.8,2.2,1.7,2.9,2.6.7.9,1.1,1.9,1.1,2.9s-.2,2-.8,2.9c-.2.4-.4.7-.6,1s-.4.7-.7,1.1c0,.1-.2.2-.2.4l-12.3-7.7s.1-.2.2-.3c.3-.4.5-.8.7-1.1h0ZM201.3,260.9l-4.6-4.3,6.2-.2-1.6,4.4h0Z"/>
    <path class="cls-3" d="M186.2,282h0v-.2c0-.4.3-.7.6-1,.3-.2.7-.3,1.1-.3l12.9,1.9h0c.4,0,.7.3,1,.6.2.3.3.7.3,1.1h0v.2h.2l.3-1.8h0l.5-3.3h0l.3-1.9h-.2v.2c0,.4-.3.7-.6,1-.3.2-.7.3-1.1.3l-12.9-1.9h0c-.4,0-.7-.3-1-.6-.2-.3-.3-.7-.3-1.1h0v-.2h-.2l-.3,1.8h0l-.5,3.4h0l-.3,1.9h.2Z"/>
    <path class="cls-3" d="M210.9,217.7c0,.6.2,1.2.4,1.7h.2c.3-.5.5-1,.7-1.6s.4-1.1.6-1.7.3-1.2.4-1.7c-.4-.2-.8-.3-1.2-.3s-.8,0-1.3.2v1.6c0,.6,0,1.2.2,1.8h0Z"/>
    <path class="cls-3" d="M208.5,225.3l.2-.2c.3-.3.6-.5,1-.5s.8,0,1.1.4l9.7,8.7c.3.3.4.6.5,1s-.1.8-.4,1.1l-.2.2.2.2,1.3-1.4h0l2.3-2.5h0l1.5-1.7h0l1.5-1.7,1.5-1.7h0l-2.8-4.1-.2.2c.4.7.7,1.4.8,2.1.1.7.1,1.4,0,2-.2.6-.5,1.3-1,1.8h0l-2.1,2.3-4.9-4.4,2.1-2.3h0c.4-.4.9-.6,1.4-.7.5,0,1,.1,1.4.5h.2c0,.1.2,0,.2,0l-1.6-1.5h0l-.7-.7h0l-1.6-1.5-.2.2h.1c.4.5.6,1,.7,1.5,0,.5-.1,1-.5,1.5h0l-2.1,2.3-5.1-4.6,2.7-3c.5-.4,1-.7,1.5-.7s1.2.2,1.7.7l.2.2.2-.2-2-1.8h0l-.5-.5h0l-.5-.5c0,.1-.2.4-.3.6-.2.3-.4.6-.6.9-.2.3-.4.6-.7.9l-2.4,2.7h0l-2.4,2.6h0l-1.2,1.3.2.2h-.2Z"/>
    <path class="cls-3" d="M247,212.5l-.3.2c-.3.2-.7.4-1.1.3-.4,0-.8-.2-1.1-.5l-10.6-11h-.2c0,.1,1.5,13.9,1.5,13.9l-13-5.3h-.2c0,.1,7.4,13.4,7.4,13.4h0c.2.4.3.8.2,1.2s-.3.7-.7,1c-.2.1-.3.2-.3.2v.2c.1,0,2.2-1.5,2.2-1.5h0l.7-.5h0l1.2-.9v-.2c-.1,0-.4.2-.4.2-.2.1-.4.2-.7.1s-.5-.2-.6-.4h0l-4.2-7.3,10.9,4.6h.2c-.2-.5-.4-.8-.5-1.2s-.2-.9-.3-1.5l-1-8.7,5.7,6.3h0c.1.2.2.4.2.7s-.1.5-.3.6l-.3.2v.2c.1,0,1.3-.8,1.3-.8h0l3-2.2h0l1.5-1.1v-.2h-.2Z"/>
    <path class="cls-3" d="M253.7,209.9c-.4.2-.7.2-1.1,0-.4-.1-.7-.4-.9-.7h0l-5.8-11.7c-.2-.4-.2-.8,0-1.1.1-.4.4-.7.7-.9.2,0,.3-.1.3-.1v-.2c-.1,0-1.7.8-1.7.8h0l-3.2,1.6h0l-1.6.8v.2c.1,0,.4-.1.4-.1.4-.2.7-.2,1.1,0,.4.1.7.4.9.7l5.8,11.7c.2.4.2.8,0,1.1-.1.4-.4.7-.7.9h-.3c0,.1.1.3.1.3l1.7-.8h0l3-1.5h0l1.7-.8v-.2c-.1,0-.2,0-.4.1h0Z"/>
    <path class="cls-3" d="M271.2,203.8c-.3.1-.7.1-1.2,0-.4,0-.8-.3-1.2-.7l-11.3-12.4h-.2v3.4l-1.4,13.5c0,.4-.3.8-.5,1.1-.3.3-.6.6-1,.7h-.2v.3l4.8-1.5v-.2h-.9c-.2,0-.4-.2-.5-.4s-.2-.4-.2-.7l.3-3.2,5.3-1.7,2,2.4h0c.3.4.4.7.3,1.1-.1.3-.4.5-.7.6h-.2v.3l7.1-2.3v-.2h-.3,0ZM257.7,202.5l.5-6.2,4,4.8-4.5,1.4Z"/>
    <path class="cls-3" d="M324.2,192l-1.5-.5c-.1,0-.3-.1-.5-.2-.5-.2-.9-.4-1.3-.5s-.8-.3-1.1-.4c-.9-.3-1.8-.4-2.6-.3-.8.1-1.5.4-2,.9-.6.5-1,1.1-1.3,1.8-.3.8-.4,1.6-.3,2.4s.5,1.6,1.2,2.3l3.1,3.8c.5.5.9,1,1,1.5.2.5.2.9,0,1.4-.2.7-.7,1.2-1.4,1.5-.7.3-1.5.3-2.5,0-.9-.3-1.6-.7-2.2-1.3-.5-.6-.9-1.3-1-2s0-1.5.2-2.3h-.2c-.3.2-.6.5-.9,1-.3.4-.5.9-.6,1.4s-.2.9-.2,1.2c.2.4.5.7.9,1.1s.9.7,1.5,1,1.2.6,1.9.8c1.8.6,3.3.6,4.6,0,1.3-.5,2.2-1.5,2.7-2.9.3-.8.4-1.6.2-2.3-.2-.7-.5-1.4-1.1-2l-3.4-4.1c-.4-.4-.7-.9-.9-1.3-.2-.4-.2-.9,0-1.3.2-.6.7-1,1.3-1.3.7-.3,1.4-.2,2.3,0,1,.3,1.7.8,2.1,1.4.4.6.5,1.4.3,2.1h.2l1.2-2.9h0v-.2l.3.2Z"/>
    <path class="cls-3" d="M341.6,209.4c.8-1.6,1.2-3.1,1.1-4.6,0-1.5-.6-2.8-1.5-4.1s-2.2-2.3-3.9-3.2-3.3-1.3-4.8-1.3-3,.4-4.2,1.1c-1.3.8-2.3,2-3.1,3.5-.8,1.6-1.2,3.1-1.1,4.6s.6,2.8,1.5,4.1,2.2,2.3,3.9,3.2,3.3,1.3,4.8,1.3,3-.4,4.2-1.1c1.3-.8,2.3-2,3.1-3.5ZM335.8,210.9c-.9.8-1.9,1.3-2.9,1.5s-2,0-3-.5-1.7-1.2-2.1-2.1c-.4-.9-.6-2-.4-3.2s.6-2.5,1.3-3.9c.7-1.4,1.5-2.5,2.4-3.3s1.9-1.3,2.9-1.5,2,0,3,.5,1.7,1.2,2.1,2.2c.4.9.6,2,.4,3.2-.1,1.2-.6,2.5-1.3,3.9-.7,1.4-1.5,2.5-2.4,3.3h0Z"/>
    <path class="cls-3" d="M342.8,213.2c-.8,1-1.3,2-1.4,3.1s0,2.2.6,3.3,1.5,2.2,2.8,3.3c1.1.9,2.2,1.5,3.3,1.7s2.2.2,3.2-.2,1.9-1.1,2.7-2.1l5.8-7h0c.2-.3.5-.4.8-.4s.6,0,.9.3l.3.2v-.2c.1,0-1.1-1.1-1.1-1.1h0l-1.2-1h0l-1.3-1.1v.2c-.1,0,.1.2.1.2.3.2.4.5.5.8,0,.3,0,.6-.3.9l-5.9,7.1c-.7.8-1.4,1.4-2.2,1.8s-1.6.5-2.4.4-1.6-.5-2.3-1.1c-.7-.6-1.2-1.3-1.5-2.1-.2-.8-.3-1.6,0-2.5s.7-1.7,1.4-2.6l5.7-6.9c.2-.3.5-.4.8-.4s.6,0,.9.3l.3.2v-.2c.1,0-1.1-1.1-1.1-1.1h0l-2.6-2.2h0l-1.3-1.1v.2c-.1,0,.1.2.1.2.3.2.4.5.5.8,0,.3,0,.6-.3.9l-5.8,7.1v.3Z"/>
    <path class="cls-3" d="M352.6,228.3c-.4,0-.7-.2-1-.5,0,0-.1-.1-.3-.3h-.2c0,.1,1.2,1.7,1.2,1.7h0l2.1,2.6h0l1.2,1.5h.2c-.2-.4-.3-.5-.3-.5-.2-.3-.3-.7-.3-1.1s.2-.7.5-1h0l7.2-5.9-1.3,16.4v.2c.5-.4.8-.7,1.1-1.1.3-.3.7-.7,1.2-1l9.4-7.6h0c.3-.2.7-.3,1.1-.3s.7.2,1,.5l.3.3h.2c0-.1-1.2-1.6-1.2-1.6h0l-2.1-2.6h0l-1.2-1.5h-.2c0,.2.1.3.3.5.3.3.4.7.3,1.1,0,.4-.2.7-.5,1h0l-7.2,5.8,1.3-16.3v-.2c-.9.8-1.6,1.5-2.3,2.1l-9.5,7.7c-.3.3-.6.4-1,.3v-.2Z"/>
    <path class="cls-3" d="M365.6,243.7h0c-.4.2-.8.2-1.1,0s-.7-.4-.9-.7v-.3c-.1,0-.3.1-.3.1l.8,1.6h0l1.6,3.2h0l1.4,2.9c.8,1.7,1.8,2.9,3,3.8s2.5,1.4,3.9,1.5,2.9-.2,4.4-1,2.7-1.7,3.4-2.9,1.2-2.6,1.1-4.1c0-1.5-.4-3.1-1.3-4.7l-2.6-5.2h0l-.4-.8h0l-.8-1.6h-.2c0,.1.1.4.1.4.2.4.2.7,0,1.1-.1.4-.4.7-.7.9h0l-11.6,5.8h.2ZM381.3,246.3c-.2,1-.6,1.9-1.4,2.8-.8.9-1.8,1.6-3.1,2.3s-2.6,1-3.7,1.1-2.2,0-3.1-.6c-.9-.5-1.6-1.2-2.1-2.2-.2-.4-.4-.8-.5-1.1s-.4-.7-.6-1.1c0-.1-.1-.3-.2-.4l12.9-6.5s0,.2.1.3c.2.4.4.8.6,1.2s.4.7.6,1.1c.5,1,.7,2,.5,3h0Z"/>
    <path class="cls-3" d="M373.6,264.3c-.3-.3-.5-.7-.6-1v-.2h-.3l1,4.9h.2v-.9c0-.2.2-.4.4-.5.2-.1.4-.1.7,0l3.1.6,1.1,5.4-2.6,1.7h0c-.4.3-.8.3-1.1.1-.3-.2-.5-.4-.5-.7v-.2h-.3l1.5,7.3h.2v-.2c0-.4,0-.7.1-1.1s.4-.8.8-1.1l13.6-9.9v-.2h-.8c-.3,0-.7-.1-1-.2-.4,0-.7-.1-.9-.2s-.5-.1-.6-.1l-13.2-2.9c-.4-.1-.8-.3-1-.6h.2ZM379.4,267.4l6.1,1.2-5.2,3.4-1-4.6h.1Z"/>
    <path class="cls-3" d="M393.2,288.1c0-2-.4-3.7-1.2-5.1-.7-1.4-1.7-2.5-3-3.2s-2.8-1.1-4.6-1c-1.8,0-3.3.5-4.6,1.3-1.2.8-2.2,2-2.8,3.4s-.9,3.1-.9,5,.2,2.2.5,3,.7,1.6,1.2,2.1c.5.6,1,1,1.6,1.3l4-.3v-.2c-1.5-.2-2.8-.6-3.7-1s-1.6-1.1-2-2c-.4-.8-.6-1.8-.7-3,0-1.2.3-2.2.9-3,.6-.9,1.5-1.6,2.6-2,1.1-.5,2.4-.8,4-.8s2.9.2,4,.6,2,1.1,2.6,2,1,1.9,1,3.2-.3,2.4-.9,3.4-1.7,1.7-3.3,2.2v.2l4-.2c.3-.7.6-1.5.8-2.5.2-1,.3-2.1.3-3.4h.2Z"/>
    <path class="cls-3" d="M390.5,304.7c-.3-.2-.6-.4-.8-.5-.2-.2-.4-.3-.5-.3l-11.4-7.3c-.4-.3-.6-.6-.8-.9-.2-.4-.2-.8-.2-1.2v-.2h-.2l-.8,5h.2v-.2c0-.2.1-.4.3-.5.1-.2.3-.3.6-.3s.5,0,.7.2l2.7,1.7-.9,5.4-3,.7h0c-.5.1-.9,0-1.1-.2s-.3-.6-.3-.9v-.2h-.2l-1.2,7.4h0l-.6,1.7h0l-.4,1.1h0l-2,5.2c-.7,1.7-.9,3.3-.8,4.8s.7,2.8,1.6,3.9,2.1,2,3.7,2.6,3.1.8,4.5.5c1.4-.2,2.7-.9,3.8-1.9s2-2.4,2.6-4.1l1.1-3h0l.6-1.5.4-1h0l.3-.7h0l.7-1.8h-.2v.2c-.1.4-.4.7-.8.8-.4.2-.8.2-1.1,0h0l-12.2-4.6c-.4-.2-.6-.4-.8-.8-.2-.4-.2-.8,0-1.1v-.3c.1,0,0,0,0,0h.1v-.2c0-.4.2-.7.5-1s.7-.6,1.2-.7l16.2-4.5v-.2c-.1,0-.4-.1-.6-.3-.3-.2-.6-.3-.9-.5v-.3ZM386.4,322.8c-.2.5-.3.9-.5,1.2-.1.4-.3.8-.4,1.2-.4,1.1-1,1.9-1.9,2.4s-1.8.8-3,.9c-1.2,0-2.4-.2-3.8-.7s-2.5-1.2-3.4-2-1.4-1.7-1.7-2.6c-.3-1-.2-2,.2-3,.2-.4.3-.8.4-1.1.1-.4.3-.7.4-1.2,0-.1.1-.3.2-.4l13.5,5.1c0,.1,0,.2-.1.3h0ZM381.4,300.5l5.3,3.3-6.1,1.4.7-4.7h.1Z"/>
    <path class="cls-3" d="M381.4,336.9l-.2.3c-.2.4-.5.6-.9.7-.4,0-.8,0-1.1-.1h0l-11.2-6.7c-.3-.2-.6-.5-.7-.9,0-.4,0-.8.2-1.1l.2-.3h-.2c0-.1-.9,1.4-.9,1.4h0l-1.8,3h0l-1.1,1.9h0l-2.4,4,3.6,3.4v-.2c-.4-.6-.8-1.2-1.1-1.9-.3-.7-.4-1.3-.3-2s.3-1.3.7-2h0l1.6-2.6,5.7,3.4-1.6,2.7c-.3.5-.7.8-1.2.9s-1,0-1.5-.2h-.2c0-.1-.1,0-.1,0l1.9,1.2h0l.8.5h0l1.9,1.1v-.2c.1,0,0,0,0,0-.5-.3-.8-.7-.9-1.2s0-1,.2-1.5h0l1.6-2.7,5.9,3.5-2.1,3.5c-.4.5-.8.8-1.3,1-.6.1-1.2,0-1.8-.3h-.2c0-.1-.1,0-.1,0l2.4,1.4h0l.8.5h0l.4.2c0-.2,0-.4.2-.7.1-.3.3-.6.4-1,.2-.4.3-.7.5-1l1.9-3.1h0l1.8-3h0l.9-1.6h-.2l-.5-.3Z"/>
    <path class="cls-3" d="M361.2,342.5c-.3-.4-.4-.8-.4-1.2s.2-.8.5-1.1c.2-.2.2-.3.3-.3l-.2-.2-1.8,1.9h0l-.6.6h0l-1,1.1h.2c0,.1.3-.1.3-.1.2-.2.4-.3.7-.3s.5,0,.7.3h0l5.6,6.3-11.6-2.4-.2.2c.3.3.5.6.7,1s.4.9.6,1.5l2.7,8.4-6.8-5h0c-.2-.2-.3-.4-.3-.7s0-.5.2-.7l.2-.3h-.2c0-.1-1,.9-1,.9h0l-2.1,2.3h0l-1.7,1.9.2.2.3-.3c.3-.3.6-.5,1-.6.4,0,.8,0,1.2.3l12.5,8.7v-.2c.1,0-4-13.2-4-13.2l13.8,2.7v-.2c.1,0-9.7-11.6-9.7-11.6h-.1Z"/>
    <path class="cls-3" d="M357.1,368c-.4.3-.9.5-1.4.5s-1,0-1.3-.2h0l-7.9-3.3-3.4-4.7c-.2-.3-.3-.7-.2-1.1,0-.4.3-.7.6-1l.2-.2v-.2c-.1,0-1.6,1.1-1.6,1.1h0l-2.8,2h0l-1.5,1.1v.2c.1,0,.4-.2.4-.2.3-.2.7-.3,1.1-.3s.7.3,1,.6l3.4,4.7.6,8.6h0c0,.4,0,.9-.2,1.4s-.5.9-.9,1.1l-.3.2v.2c.1,0,4.7-3.3,4.7-3.3v-.2c-.1,0-.4.2-.4.2-.2.1-.4.2-.6.2s-.4-.1-.6-.2-.3-.4-.3-.6h0l-.8-7,6.3,3c.3.2.5.4.5.8s0,.6-.4.9l-.2.2v.2c.1,0,6.4-4.6,6.4-4.6v-.2c-.1,0-.4.2-.4.2h0ZM344.7,366.3h0Z"/>
  </g>
  <g>
    <path class="cls-3" d="M269.6,376.4c-.4-.3-1-.6-1.6-.7-.3,0-.7-.1-1.1-.1h-1.1c-.3,0-.7.2-.9.3h-.1v2.2h.5c0,.1,0,0,0,0,.1-.6.4-1.1.8-1.3.4-.3.8-.3,1.3-.2.5,0,.8.3,1,.7.2.4.2.9,0,1.4,0,.4-.3.7-.5,1.1-.3.4-.6.8-1,1.1-.4.4-.8.7-1.3,1.1s-.9.7-1.4,1-.9.6-1.3.9h0v.5l6,1.5,1.5-2.7h-.5c0-.1,0,0,0,0-.2.2-.4.4-.6.5s-.3.2-.5.2h-.6l-2.1-.5c.2,0,.3-.2.5-.3.4-.2.8-.4,1.2-.7.4-.3.8-.5,1.2-.8.4-.3.7-.6,1-1s.5-.8.6-1.2c.1-.6.1-1.1,0-1.6-.2-.5-.5-.9-.9-1.2v-.2Z"/>
    <path class="cls-3" d="M283.1,378.8c-.5-.5-1.1-.7-1.9-.8-.8,0-1.4,0-2,.4s-1,.9-1.4,1.6c-.3.7-.6,1.5-.7,2.5,0,1,0,1.8.2,2.6.2.8.6,1.4,1.1,1.8.5.5,1.1.7,1.9.8h.4c.6,0,1.2-.1,1.6-.4.6-.4,1-.9,1.4-1.6.3-.7.6-1.5.6-2.5s0-1.8-.2-2.6c-.2-.8-.6-1.4-1.1-1.8h.1ZM281.1,378.9c.5,0,.8.4,1,1.1s.3,1.7.2,3-.4,2.3-.7,3c-.3.6-.7.9-1.2.8-.5,0-.8-.4-1-1.1s-.3-1.7-.2-3c.1-1.3.4-2.3.7-3,.3-.6.7-.9,1.1-.9h.1Z"/>
    <path class="cls-3" d="M297.9,380.3c-.3-.7-.8-1.3-1.3-1.6-.6-.4-1.2-.5-2-.5s-1.4.3-1.9.7c-.5.4-.9,1-1.1,1.8-.2.7-.3,1.6-.3,2.6s.2,1.8.6,2.5c.3.7.8,1.3,1.3,1.6.5.3,1.1.5,1.8.5s.1,0,.2,0c.8,0,1.4-.3,1.9-.7.5-.4.9-1,1.1-1.8.2-.7.3-1.6.3-2.6s-.3-1.8-.6-2.5ZM293.9,386.1c-.3-.7-.5-1.7-.6-3,0-1.3,0-2.3.3-3,.2-.7.6-1,1.1-1s.9.3,1.2.9c.3.7.5,1.7.6,3,0,1.3,0,2.3-.3,3-.2.7-.6,1-1.1,1s-.9-.3-1.2-.9Z"/>
    <path class="cls-3" d="M312.3,382.2c-.1-.5-.3-1-.6-1.3-.2-.3-.5-.6-.9-.7-.3-.2-.7-.2-1-.3s-.7,0-1,.2c-.3.1-.6.3-.9.5s-.5.5-.6.8h0v-.9c0-.6,0-1.1.2-1.6.1-.5.4-1,.8-1.4s.9-.8,1.5-1.2h.2c0-.1-.3-.5-.3-.5h-.1c-.9.2-1.7.5-2.3,1-.6.5-1.1,1-1.4,1.6s-.5,1.3-.6,2.1c0,.7,0,1.5.1,2.3.2.9.5,1.6.9,2.1.4.6.9.9,1.5,1.1.3.1.7.2,1,.2s.6,0,.9-.1c.7-.2,1.3-.4,1.7-.8s.7-.9.9-1.4c.1-.5.1-1.1,0-1.6h0ZM307.8,382v-.2c.2-.2.4-.3.5-.4.2-.1.3-.2.5-.2s.4,0,.6.1c.2,0,.3.3.5.5.1.3.3.6.4,1,0,.4.1.7,0,1.1,0,.3-.1.6-.3.8-.1.2-.4.3-.7.4-.3,0-.6,0-.8-.2-.2-.2-.5-.5-.7-.9s-.4-1-.5-1.6c0-.3,0-.5-.1-.7l.4.3h.2Z"/>
  </g>
  <path class="cls-2" d="M218.5,300h3.6c5.1,0,9.3-4.2,9.3-9.3v-5.7c0-2.4,1.9-4.3,4.3-4.3s4.3,1.9,4.3,4.3v26.6c0,5.1,4.2,9.3,9.3,9.3s9.3-4.2,9.3-9.3v-46.7c0-2.4,1.9-4.3,4.3-4.3s4.3,1.9,4.3,4.3v72.8c0,5.1,4.2,9.3,9.3,9.3s9.3-4.2,9.3-9.3v-98.9c0-2.4,1.9-4.3,4.3-4.3M289.8,234.5c2.4,0,4.3,1.9,4.3,4.3v98.9c0,5.1,4.2,9.3,9.3,9.3s9.3-4.2,9.3-9.3v-72.8c0-2.4,1.9-4.3,4.3-4.3s4.3,1.9,4.3,4.3v46.7c0,5.1,4.2,9.3,9.3,9.3s9.3-4.2,9.3-9.3v-26.6c0-2.4,1.9-4.3,4.3-4.3s4.3,1.9,4.3,4.3v5.7c0,5.1,4.2,9.3,9.3,9.3h3.1M361.2,295.7h-3.6c-2.8,0-5-2.2-5-5v-5.7c0-4.7-3.8-8.6-8.6-8.6s-8.6,3.8-8.6,8.6v26.6c0,2.8-2.2,5-5,5s-5-2.2-5-5v-46.7c0-4.7-3.8-8.6-8.6-8.6s-8.6,3.8-8.6,8.6v72.8c0,2.8-2.2,5-5,5s-5-2.2-5-5v-98.9c0-4.7-3.8-8.6-8.6-8.6h0c-4.7,0-8.6,3.8-8.6,8.6v98.9c0,2.8-2.2,5-5,5s-5-2.2-5-5v-72.8c0-4.7-3.8-8.6-8.6-8.6s-8.6,3.8-8.6,8.6v46.7c0,2.8-2.2,5-5,5s-5-2.2-5-5v-26.6c0-4.7-3.8-8.6-8.6-8.6s-8.6,3.8-8.6,8.6v5.7c0,2.8-2.2,5-5,5h-4"/>
  <g>
    <circle class="cls-3" cx="289.6" cy="195.6" r="2.8"/>
    <circle class="cls-3" cx="326" cy="376.6" r="2.8"/>
    <circle class="cls-3" cx="248.7" cy="376.6" r="2.8"/>
  </g>
  <circle class="cls-2" cx="289.4" cy="289.6" r="122.9"/>
  <circle class="cls-2" cx="289.6" cy="289.7" r="71.8"/>
  <circle class="cls-2" cx="289.6" cy="289.7" r="115.2"/>
  <path class="cls-1" d="M349.1,340h-1.7c-.7.1-1.4.3-2.1.6h0l-17.8-17.8c.8-1.2,1.4-2.4,1.8-3.8h-.2c1.7-5.1.5-11-3.6-15.1l-22.7-22.7,42.8-42.8c3.2,1.3,6.9.7,9.5-1.9,3.4-3.4,3.4-8.9,0-12.3-3.4-3.4-8.9-3.4-12.3,0s-2.5,3.8-2.5,6h0v2.3c0,.2,0,.3.1.5,0,.1,0,.2.1.3,0,.2.1.3.2.5h0l-42.8,42.8-65.7-65.7-3.1,2.1-2.7,2.5,66.3,66.3-10.6,10.6-66.3-66.3-2.6,2.6-2.1,3.1,65.7,65.7-43.1,43.1h-.1c-.2,0-.5-.2-.8-.3h0c-2.9-.8-6.2,0-8.5,2.2-3.4,3.4-3.4,8.9,0,12.3s8.9,3.4,12.3,0c2.3-2.3,3-5.6,2.2-8.5h0c0-.3-.2-.5-.3-.8h0c0-.1,43.1-43.2,43.1-43.2l22.7,22.7c4.1,4.1,9.9,5.3,15,3.6v.2c1.4-.4,2.7-1,3.9-1.8l17.7,17.7c-.1.3-.3.6-.4.9h0c0,.3-.2.5-.2.8h0c0,.3-.1.6-.2.8v1.3h0v.5h0c.1,2.1.9,4.1,2.5,5.7,3.4,3.4,8.9,3.4,12.3,0s3.4-8.9,0-12.3-3.7-2.4-5.7-2.5h0ZM309.6,319.9l-22.7-22.7,10.6-10.6,22.7,22.7c2.9,2.9,2.9,7.7,0,10.6s-7.7,2.9-10.6,0Z"/>
</svg>